<svg viewBox="0 0 10 13" xmlns="http://www.w3.org/2000/svg">
	<path d="M0.149554 8.13932C-0.0555135 7.92368 -0.0488639 7.58078 0.164407 7.37344C0.377677 7.16609 0.716807 7.17281 0.921875 7.38846L4.46429 11.1135L4.46429 0.541667C4.46429 0.242513 4.70413 0 5 0C5.29587 0 5.53571 0.242512 5.53571 0.541667L5.53572 11.1135L9.07812 7.38845C9.28319 7.17281 9.62232 7.16609 9.83559 7.37344C10.0489 7.58078 10.0555 7.92368 9.85045 8.13932L5.38616 12.8338C5.28516 12.94 5.14572 13 5 13C4.85428 13 4.71484 12.94 4.61384 12.8338L0.149554 8.13932Z"/>
	<path d="M0.149554 8.13932C-0.0555135 7.92368 -0.0488639 7.58078 0.164407 7.37344C0.377677 7.16609 0.716807 7.17281 0.921875 7.38846L4.46429 11.1135L4.46429 0.541667C4.46429 0.242513 4.70413 0 5 0C5.29587 0 5.53571 0.242512 5.53571 0.541667L5.53572 11.1135L9.07812 7.38845C9.28319 7.17281 9.62232 7.16609 9.83559 7.37344C10.0489 7.58078 10.0555 7.92368 9.85045 8.13932L5.38616 12.8338C5.28516 12.94 5.14572 13 5 13C4.85428 13 4.71484 12.94 4.61384 12.8338L0.149554 8.13932Z"/>
</svg>
