<svg viewBox="0 0 10 13" xmlns="http://www.w3.org/2000/svg">
	<path d="M0.149554 4.86068C-0.0555135 5.07632 -0.0488639 5.41922 0.164407 5.62656C0.377677 5.83391 0.716807 5.82719 0.921875 5.61154L4.46429 1.8865L4.46429 12.4583C4.46429 12.7575 4.70413 13 5 13C5.29587 13 5.53571 12.7575 5.53571 12.4583L5.53572 1.8865L9.07812 5.61155C9.28319 5.82719 9.62232 5.83391 9.83559 5.62656C10.0489 5.41922 10.0555 5.07632 9.85045 4.86068L5.38616 0.166234C5.28516 0.0600237 5.14572 0 5 0C4.85428 0 4.71484 0.0600237 4.61384 0.166234L0.149554 4.86068Z"/>
	<path d="M0.149554 4.86068C-0.0555135 5.07632 -0.0488639 5.41922 0.164407 5.62656C0.377677 5.83391 0.716807 5.82719 0.921875 5.61154L4.46429 1.8865L4.46429 12.4583C4.46429 12.7575 4.70413 13 5 13C5.29587 13 5.53571 12.7575 5.53571 12.4583L5.53572 1.8865L9.07812 5.61155C9.28319 5.82719 9.62232 5.83391 9.83559 5.62656C10.0489 5.41922 10.0555 5.07632 9.85045 4.86068L5.38616 0.166234C5.28516 0.0600237 5.14572 0 5 0C4.85428 0 4.71484 0.0600237 4.61384 0.166234L0.149554 4.86068Z"/>
</svg>
