<svg viewBox="0 0 27 52" xmlns="http://www.w3.org/2000/svg">
	<path d="M.765.302a.774.774 0 0 0-.473.813c.03.202.216.39 12.323 12.527 6.761 6.778 12.292 12.344 12.292 12.369 0 .026-5.531 5.591-12.292 12.368C.414 50.609.323 50.701.291 50.909a.814.814 0 0 0 .334.74c.169.111.49.136.711.054.157-.058 25.126-25.004 25.309-25.286.178-.273.178-.541 0-.814C26.462 25.321 1.493.375 1.336.317 1.203.268.88.259.765.302" />
	<path d="M.765.302a.774.774 0 0 0-.473.813c.03.202.216.39 12.323 12.527 6.761 6.778 12.292 12.344 12.292 12.369 0 .026-5.531 5.591-12.292 12.368C.414 50.609.323 50.701.291 50.909a.814.814 0 0 0 .334.74c.169.111.49.136.711.054.157-.058 25.126-25.004 25.309-25.286.178-.273.178-.541 0-.814C26.462 25.321 1.493.375 1.336.317 1.203.268.88.259.765.302" />
</svg>