<svg viewBox="0 0 13 10" xmlns="http://www.w3.org/2000/svg">
	<path d="M8.13932 0.149554C7.92368 -0.0555135 7.58078 -0.0488639 7.37344 0.164407C7.16609 0.377677 7.17281 0.716807 7.38846 0.921875L11.1135 4.46429L0.541667 4.46429C0.242513 4.46429 0 4.70413 0 5C0 5.29587 0.242512 5.53571 0.541667 5.53571L11.1135 5.53572L7.38845 9.07812C7.17281 9.28319 7.16609 9.62232 7.37344 9.83559C7.58078 10.0489 7.92368 10.0555 8.13932 9.85045L12.8338 5.38616C12.94 5.28516 13 5.14572 13 5C13 4.85428 12.94 4.71484 12.8338 4.61384L8.13932 0.149554Z"/>
	<path d="M8.13932 0.149554C7.92368 -0.0555135 7.58078 -0.0488639 7.37344 0.164407C7.16609 0.377677 7.17281 0.716807 7.38846 0.921875L11.1135 4.46429L0.541667 4.46429C0.242513 4.46429 0 4.70413 0 5C0 5.29587 0.242512 5.53571 0.541667 5.53571L11.1135 5.53572L7.38845 9.07812C7.17281 9.28319 7.16609 9.62232 7.37344 9.83559C7.58078 10.0489 7.92368 10.0555 8.13932 9.85045L12.8338 5.38616C12.94 5.28516 13 5.14572 13 5C13 4.85428 12.94 4.71484 12.8338 4.61384L8.13932 0.149554Z"/>
</svg>
