<svg  viewBox="0 0 13 10" xmlns="http://www.w3.org/2000/svg">
	<path d="M4.86068 0.149554C5.07632 -0.0555135 5.41922 -0.0488639 5.62656 0.164407C5.83391 0.377677 5.82719 0.716807 5.61154 0.921875L1.8865 4.46429L12.4583 4.46429C12.7575 4.46429 13 4.70413 13 5C13 5.29587 12.7575 5.53571 12.4583 5.53571L1.8865 5.53572L5.61155 9.07812C5.82719 9.28319 5.83391 9.62232 5.62656 9.83559C5.41922 10.0489 5.07632 10.0555 4.86068 9.85045L0.166234 5.38616C0.0600237 5.28516 0 5.14572 0 5C0 4.85428 0.0600237 4.71484 0.166234 4.61384L4.86068 0.149554Z"/>
	<path d="M4.86068 0.149554C5.07632 -0.0555135 5.41922 -0.0488639 5.62656 0.164407C5.83391 0.377677 5.82719 0.716807 5.61154 0.921875L1.8865 4.46429L12.4583 4.46429C12.7575 4.46429 13 4.70413 13 5C13 5.29587 12.7575 5.53571 12.4583 5.53571L1.8865 5.53572L5.61155 9.07812C5.82719 9.28319 5.83391 9.62232 5.62656 9.83559C5.41922 10.0489 5.07632 10.0555 4.86068 9.85045L0.166234 5.38616C0.0600237 5.28516 0 5.14572 0 5C0 4.85428 0.0600237 4.71484 0.166234 4.61384L4.86068 0.149554Z"/>
</svg>
