<svg viewBox="0 0 27 52" xmlns="http://www.w3.org/2000/svg">
	<path d="M25.672.322C25.549.388.564 25.359.401 25.578c-.107.143-.131.221-.131.419 0 .134.022.288.05.342.073.144 25.194 25.27 25.346 25.35.146.077.446.089.614.025a.941.941 0 0 0 .414-.414c.059-.155.054-.466-.01-.592-.029-.058-5.584-5.639-12.345-12.402L2.048 26.01l12.291-12.296C21.1 6.951 26.655 1.37 26.684 1.312c.066-.13.069-.441.006-.592-.068-.162-.144-.246-.321-.354-.173-.105-.541-.129-.697-.044"/>
	<path d="M25.672.322C25.549.388.564 25.359.401 25.578c-.107.143-.131.221-.131.419 0 .134.022.288.05.342.073.144 25.194 25.27 25.346 25.35.146.077.446.089.614.025a.941.941 0 0 0 .414-.414c.059-.155.054-.466-.01-.592-.029-.058-5.584-5.639-12.345-12.402L2.048 26.01l12.291-12.296C21.1 6.951 26.655 1.37 26.684 1.312c.066-.13.069-.441.006-.592-.068-.162-.144-.246-.321-.354-.173-.105-.541-.129-.697-.044"/>
</svg>