<svg viewBox="0 0 20 20" xmlns="http://www.w3.org/2000/svg">
	<path d="M7.94439 10C7.94439 10.8284 7.25414 11.5 6.40266 11.5C5.55119 11.5 4.86094 10.8284 4.86094 10C4.86094 9.17157 5.55119 8.5 6.40266 8.5C7.25414 8.5 7.94439 9.17157 7.94439 10Z" />
	<path d="M13.5974 11.5C14.4489 11.5 15.1391 10.8284 15.1391 10C15.1391 9.17157 14.4489 8.5 13.5974 8.5C12.7459 8.5 12.0557 9.17157 12.0557 10C12.0557 10.8284 12.7459 11.5 13.5974 11.5Z" />
	<path fill-rule="evenodd" clip-rule="evenodd" d="M10 0C7.3037 0 5.11789 2.12665 5.11789 4.75V5.00343C4.75357 5.00775 4.43121 5.01751 4.14528 5.03952C3.61542 5.0803 3.14874 5.16645 2.71077 5.37179C2.01257 5.69914 1.43201 6.22369 1.04489 6.87696C0.802066 7.28674 0.679289 7.73318 0.598343 8.24428C0.519891 8.73963 0.473279 9.35193 0.415622 10.1093L0.113825 14.0733C0.0477917 14.9405 -0.00533925 15.6383 0.000429284 16.2039C0.00635474 16.7849 0.0732638 17.2983 0.292833 17.7773C0.640228 18.5352 1.23621 19.1596 1.98742 19.5527C2.46222 19.8011 2.98346 19.904 3.57857 19.9526C4.15789 20 4.87702 20 5.77077 20H14.2291C15.1229 20 15.8421 20 16.4214 19.9526C17.0165 19.904 17.5378 19.8011 18.0126 19.5527C18.7638 19.1596 19.3598 18.5352 19.7072 17.7773C19.9267 17.2983 19.9936 16.7849 19.9996 16.2039C20.0053 15.6383 19.9522 14.9406 19.8862 14.0735L19.5844 10.1094C19.5267 9.352 19.4801 8.73963 19.4017 8.24428C19.3207 7.73318 19.1979 7.28674 18.9551 6.87696C18.568 6.22369 17.9874 5.69914 17.2892 5.37179C16.8513 5.16645 16.3846 5.0803 15.8547 5.03952C15.5688 5.01751 15.2465 5.00776 14.8822 5.00343V4.75C14.8822 2.12665 12.6964 0 10 0ZM13.3404 5V4.75C13.3404 2.95507 11.8449 1.5 10 1.5C8.15517 1.5 6.65962 2.95507 6.65962 4.75V5H13.3404ZM3.38006 6.72307C3.57648 6.63098 3.8307 6.56842 4.26687 6.53484C4.71245 6.50055 5.28243 6.5 6.10209 6.5H13.8979C14.7176 6.5 15.2876 6.50055 15.7331 6.53484C16.1693 6.56842 16.4235 6.63098 16.6199 6.72307C17.0389 6.91949 17.3872 7.23421 17.6195 7.62617C17.7284 7.80995 17.8113 8.052 17.8779 8.47272C17.946 8.90252 17.9886 9.45552 18.0492 10.2508L18.3461 14.1508C18.4153 15.0591 18.463 15.6939 18.4579 16.189C18.453 16.676 18.3958 16.9554 18.2991 17.1664C18.0907 17.6211 17.7331 17.9958 17.2824 18.2316C17.0732 18.341 16.7911 18.4171 16.2923 18.4579C15.7851 18.4994 15.1309 18.5 14.1948 18.5H5.80517C4.86908 18.5 4.21485 18.4994 3.70771 18.4579C3.20892 18.4171 2.92676 18.341 2.71765 18.2316C2.26692 17.9958 1.90933 17.6211 1.70089 17.1664C1.60419 16.9554 1.54705 16.676 1.54208 16.189C1.53703 15.6939 1.58473 15.0591 1.65388 14.1508L1.9508 10.2508C2.01135 9.45552 2.05402 8.90252 2.12209 8.47272C2.18872 8.052 2.27163 7.80995 2.38053 7.62617C2.61281 7.23421 2.96114 6.91949 3.38006 6.72307Z" />
</svg>
