<svg viewBox="0 0 18 19"  xmlns="http://www.w3.org/2000/svg">
<path d="M12.2511 5.25V5C12.2511 4.14 11.9111 3.31 11.3011 2.7C10.6911 2.09 9.8611 1.75 9.0011 1.75C8.1411 1.75 7.3111 2.09 6.7011 2.7C6.0911 3.31 5.7511 4.14 5.7511 5V5.25H12.2511ZM4.2511 10V6.75H3.8411C3.1911 6.75 2.6511 7.25 2.5911 7.9L1.9311 15.9C1.8711 16.62 2.4411 17.25 3.1711 17.25H14.8311C15.5611 17.25 16.1311 16.62 16.0711 15.9L15.4111 7.9C15.3511 7.25 14.8111 6.75 14.1611 6.75H13.7511V10C13.7511 10.41 13.4111 10.75 13.0011 10.75C12.5911 10.75 12.2511 10.41 12.2511 10V6.75H5.7511V10C5.7511 10.41 5.4111 10.75 5.0011 10.75C4.5911 10.75 4.2511 10.41 4.2511 10ZM4.2511 5C4.2511 3.74 4.7511 2.53 5.6411 1.64C6.5311 0.75 7.7411 0.25 9.0011 0.25C10.2611 0.25 11.4711 0.75 12.3611 1.64C13.2511 2.53 13.7511 3.74 13.7511 5V5.25H14.1611C15.5911 5.25 16.7811 6.35 16.9011 7.77L17.5711 15.77C17.7011 17.37 16.4411 18.75 14.8311 18.75H3.1711C1.5611 18.75 0.301103 17.37 0.431103 15.77L1.1011 7.77C1.2211 6.35 2.4111 5.25 3.8411 5.25H4.2511V5Z"/>
</svg>
