<svg viewBox="0 0 8 12" xmlns="http://www.w3.org/2000/svg">
	<path d="M7.72701 11.718C7.3478 12.0793 6.71489 12.0956 6.31337 11.7543L0.313377 6.65431C0.113354 6.48429 -1.19209e-07 6.24762 -1.19209e-07 6C-1.19209e-07 5.75238 0.113354 5.51571 0.313377 5.34569L6.31337 0.24569C6.71489 -0.0956 7.3478 -0.0793253 7.72701 0.282041C8.10622 0.643407 8.08814 1.21302 7.68662 1.55431L2.4564 6L7.68662 10.4457C8.08814 10.787 8.10622 11.3566 7.72701 11.718Z"/>
	<path d="M7.72701 11.718C7.3478 12.0793 6.71489 12.0956 6.31337 11.7543L0.313377 6.65431C0.113354 6.48429 -1.19209e-07 6.24762 -1.19209e-07 6C-1.19209e-07 5.75238 0.113354 5.51571 0.313377 5.34569L6.31337 0.24569C6.71489 -0.0956 7.3478 -0.0793253 7.72701 0.282041C8.10622 0.643407 8.08814 1.21302 7.68662 1.55431L2.4564 6L7.68662 10.4457C8.08814 10.787 8.10622 11.3566 7.72701 11.718Z"/>
</svg>
