<svg viewBox="0 0 8 12" xmlns="http://www.w3.org/2000/svg">
	<path d="M0.272989 0.282041C0.652201 -0.0793266 1.28511 -0.0956011 1.68663 0.24569L7.68662 5.34569C7.88665 5.51571 8 5.75238 8 6C8 6.24762 7.88665 6.48429 7.68662 6.65431L1.68663 11.7543C1.28511 12.0956 0.652201 12.0793 0.272989 11.718C-0.106222 11.3566 -0.0881391 10.787 0.313379 10.4457L5.5436 6L0.313379 1.55431C-0.0881393 1.21302 -0.106222 0.643407 0.272989 0.282041Z"/>
	<path d="M0.272989 0.282041C0.652201 -0.0793266 1.28511 -0.0956011 1.68663 0.24569L7.68662 5.34569C7.88665 5.51571 8 5.75238 8 6C8 6.24762 7.88665 6.48429 7.68662 6.65431L1.68663 11.7543C1.28511 12.0956 0.652201 12.0793 0.272989 11.718C-0.106222 11.3566 -0.0881391 10.787 0.313379 10.4457L5.5436 6L0.313379 1.55431C-0.0881393 1.21302 -0.106222 0.643407 0.272989 0.282041Z"/>
</svg>
