<svg viewBox="0 0 366 211" xmlns="http://www.w3.org/2000/svg">
	<path class="plus" d="M204.191 201.258C192.301 212.977 172.992 212.977 161.103 201.258L8.91516 51.2578C-2.97449 39.5391 -2.97449 20.5078 8.91516 8.78906C20.8048 -2.92969 40.1136 -2.92969 52.0033 8.78906L182.694 137.602L313.385 8.88281C325.275 -2.83594 344.584 -2.83594 356.473 8.88281C368.363 20.6016 368.363 39.6328 356.473 51.3516L204.286 201.352L204.191 201.258Z"/>
	<path class="minus" d="M204.191 8.78906C192.301 -2.92969 172.992 -2.92969 161.103 8.78906L8.91516 158.789C-2.97449 170.508 -2.97449 189.539 8.91516 201.258C20.8048 212.977 40.1136 212.977 52.0033 201.258L182.694 72.4453L313.385 201.164C325.275 212.883 344.584 212.883 356.473 201.164C368.363 189.445 368.363 170.414 356.473 158.695L204.286 8.6953L204.191 8.78906Z"/>
</svg>