<svg version="1.1" xmlns="http://www.w3.org/2000/svg" viewBox="0 0 1020 1024">
<path d="M628.545 521.563c-6.375-6.375-5.578-9.164 0.199-15.141 48.809-48.411 97.22-97.22 145.631-145.83 78.693-79.091 157.385-158.182 236.078-237.074 5.18-4.981 6.774-8.168 0.398-13.746-8.766-7.57-16.535-16.336-24.704-24.504-27.094-27.493-54.388-55.184-81.482-82.677h-1.992c-4.184 2.191-7.57 5.18-10.957 8.567-19.325 19.723-38.251 39.645-57.575 59.169-104.99 106.185-210.777 211.574-316.364 317.161-9.164 9.363-9.363 9.363-18.528 0-75.107-75.107-150.213-150.213-225.32-225.32-47.216-47.216-94.232-94.431-141.647-141.447-5.977-5.977-9.961-14.344-18.129-18.129h-1.992c-35.063 35.661-70.126 71.321-105.588 106.384-6.375 6.375-5.578 9.363 0.199 15.141 126.705 127.104 253.012 254.207 379.717 380.912 6.973 6.973 7.969 10.36 0.398 17.93-126.904 126.904-253.41 254.207-380.314 381.311-5.578 5.578-6.375 8.367-0.199 14.543 33.071 32.473 65.942 65.544 98.416 98.814 6.176 6.176 9.363 6.774 15.739 0.199 126.506-127.502 253.41-254.605 379.717-381.908 6.774-6.774 9.762-6.774 16.535 0 126.705 127.701 253.809 255.004 380.514 382.705 5.977 5.977 8.567 5.777 14.344 0 32.473-33.27 65.146-66.142 98.416-98.814 6.574-6.375 6.176-9.563 0-15.938-127.502-127.502-254.207-255.004-381.51-382.307z"></path>
</svg>
