<svg viewBox="0 0 14 14" fill="currentColor" xmlns="http://www.w3.org/2000/svg">
<path class="close" fill-rule="evenodd" clip-rule="evenodd" d="M13.588 13.9998C13.4826 13.9998 13.3772 13.9594 13.2965 13.8796L7 7.58222L0.703479 13.8796C0.542072 14.0401 0.281845 14.0401 0.120438 13.8796C-0.0401459 13.7182 -0.0401459 13.4579 0.120438 13.2965L6.41778 7L0.120438 0.703479C-0.0401459 0.542072 -0.0401459 0.281845 0.120438 0.120438C0.281845 -0.0401459 0.542072 -0.0401459 0.703479 0.120438L7 6.41778L13.2965 0.120438C13.4579 -0.0401459 13.7182 -0.0401459 13.8796 0.120438C14.0401 0.281845 14.0401 0.542072 13.8796 0.703479L7.58222 7L13.8796 13.2965C14.0401 13.4579 14.0401 13.7182 13.8796 13.8796C13.7989 13.9594 13.6935 13.9998 13.588 13.9998Z"/>
<path class="spinner" d="M19 3c0 1.657-1.343 3-3 3s-3-1.343-3-3 1.343-3 3-3 3 1.343 3 3zM16 26c-1.657 0-3 1.343-3 3s1.343 3 3 3 3-1.343 3-3-1.343-3-3-3zM29 13c-1.657 0-3 1.343-3 3s1.343 3 3 3 3-1.343 3-3-1.343-3-3-3zM6 16c0-1.657-1.343-3-3-3s-3 1.343-3 3 1.343 3 3 3 3-1.343 3-3zM6.808 22.192c-1.657 0-3 1.343-3 3s1.343 3 3 3 3-1.343 3-3c0-1.657-1.343-3-3-3zM25.192 22.192c-1.657 0-3 1.343-3 3s1.343 3 3 3 3-1.343 3-3c0-1.657-1.343-3-3-3zM6.808 3.808c-1.657 0-3 1.343-3 3s1.343 3 3 3 3-1.343 3-3-1.343-3-3-3z"></path>
</svg>
