<svg version="1.1" xmlns="http://www.w3.org/2000/svg" viewBox="0 0 32 32">
<path d="M24.169 0.794l-0.794 0.8 4.406 4.406h-22.575l-0.594 0.15c-1.044 0.263-1.938 0.794-2.719 1.619-0.775 0.813-1.294 1.912-1.45 3.063-0.037 0.275-0.069 1.506-0.069 2.831v2.337h2.25v-2.406c0-1.5 0.025-2.525 0.069-2.731 0.194-0.931 0.919-1.875 1.756-2.287 0.831-0.406 0.169-0.387 12.3-0.387h11.031l-4.406 4.406 1.594 1.594 3.2-3.206c1.756-1.756 3.238-3.287 3.294-3.4 0.125-0.25 0.131-0.719 0.006-0.975-0.050-0.112-1.538-1.644-3.294-3.406l-3.206-3.2-0.8 0.794z"></path>
<path d="M29.363 18.512c-0.025 2.206-0.038 2.563-0.137 2.863-0.181 0.556-0.462 1.031-0.837 1.406-0.4 0.4-0.719 0.606-1.319 0.837l-0.413 0.163-11.2 0.019c-6.162 0.006-11.206-0.006-11.206-0.031s0.975-1.025 2.169-2.219l2.175-2.175-1.563-1.563-3.206 3.2c-1.763 1.762-3.244 3.275-3.294 3.363-0.044 0.087-0.1 0.269-0.125 0.394-0.094 0.506-0.075 0.531 3.388 4l3.237 3.231 1.563-1.563-2.175-2.175c-1.194-1.194-2.169-2.188-2.169-2.212s5.137-0.056 11.425-0.063l11.419-0.019 0.531-0.175c2.038-0.681 3.413-2.2 3.844-4.25 0.075-0.331 0.094-0.988 0.094-2.988v-2.556h-2.181l-0.019 2.513z"></path>
</svg>
