<svg viewBox="0 0 20 16" xmlns="http://www.w3.org/2000/svg">
	<path fill-rule="evenodd" clip-rule="evenodd" d="M5.5179 1.92244e-07H14.4821C15.2949 -7.19873e-06 15.9506 -1.32173e-05 16.4815 0.0433638C17.0281 0.0880258 17.5082 0.182385 17.9525 0.408726C18.6581 0.768251 19.2317 1.34193 19.5913 2.04754C19.8176 2.49175 19.912 2.9719 19.9566 3.51853C20 4.04944 20 4.70505 20 5.51788V10.4821C20 11.295 20 11.9506 19.9566 12.4815C19.912 13.0281 19.8176 13.5082 19.5913 13.9525C19.2317 14.6581 18.6581 15.2317 17.9525 15.5913C17.5082 15.8176 17.0281 15.912 16.4815 15.9566C15.9506 16 15.2949 16 14.4821 16H5.51793C4.70507 16 4.04945 16 3.51853 15.9566C2.9719 15.912 2.49175 15.8176 2.04754 15.5913C1.34193 15.2317 0.768251 14.6581 0.408726 13.9525C0.182385 13.5082 0.0880258 13.0281 0.0433638 12.4815C-1.32173e-05 11.9506 -7.19873e-06 11.2949 1.92243e-07 10.4821V5.5179C-7.19873e-06 4.70506 -1.32173e-05 4.04944 0.0433638 3.51853C0.0880258 2.9719 0.182385 2.49175 0.408726 2.04754C0.768251 1.34193 1.34193 0.768251 2.04754 0.408726C2.49175 0.182385 2.9719 0.0880258 3.51853 0.0433638C4.04944 -1.32173e-05 4.70506 -7.19873e-06 5.5179 1.92244e-07ZM3.64068 1.53838C3.1868 1.57547 2.92604 1.6446 2.72852 1.74524C2.30516 1.96095 1.96095 2.30516 1.74524 2.72852C1.6446 2.92604 1.57547 3.1868 1.53838 3.64068C1.50058 4.10331 1.5 4.69755 1.5 5.55V10.45C1.5 11.3025 1.50058 11.8967 1.53838 12.3593C1.57547 12.8132 1.6446 13.074 1.74524 13.2715C1.96095 13.6948 2.30516 14.039 2.72852 14.2548C2.92604 14.3554 3.1868 14.4245 3.64068 14.4616C4.10331 14.4994 4.69755 14.5 5.55 14.5H14.45C15.3025 14.5 15.8967 14.4994 16.3593 14.4616C16.8132 14.4245 17.074 14.3554 17.2715 14.2548C17.6948 14.039 18.039 13.6948 18.2548 13.2715C18.3554 13.074 18.4245 12.8132 18.4616 12.3593C18.4994 11.8967 18.5 11.3025 18.5 10.45V5.55C18.5 4.69755 18.4994 4.10331 18.4616 3.64068C18.4245 3.1868 18.3554 2.92604 18.2548 2.72852C18.039 2.30516 17.6948 1.96095 17.2715 1.74524C17.074 1.6446 16.8132 1.57547 16.3593 1.53838C15.8967 1.50058 15.3025 1.5 14.45 1.5H5.55C4.69755 1.5 4.10331 1.50058 3.64068 1.53838Z"/>
	<path fill-rule="evenodd" clip-rule="evenodd" d="M3.91955 5.02509C4.18185 4.70451 4.65437 4.65726 4.97495 4.91955L9.20848 8.38335C9.66893 8.76009 10.3311 8.76009 10.7916 8.38335L15.0251 4.91955C15.3457 4.65726 15.8182 4.70451 16.0805 5.02509C16.3428 5.34568 16.2955 5.81819 15.975 6.08049L11.7414 9.54428C10.7284 10.3731 9.27163 10.3731 8.25862 9.54428L4.02509 6.08049C3.70451 5.81819 3.65726 5.34568 3.91955 5.02509Z"/>
</svg>
