<svg version="1.1" xmlns="http://www.w3.org/2000/svg"  viewBox="0 0 33 32">
<path d="M32.078 13.030l-12.643-11.801c-0.814-0.762-1.911-1.23-3.118-1.23s-2.304 0.468-3.121 1.232l0.003-0.002-12.646 11.801c-0.347 0.317-0.563 0.77-0.563 1.275 0 0.953 0.772 1.725 1.725 1.725 0.005 0 0.010-0 0.015-0h2.252v13.141c0 1.562 1.266 2.829 2.829 2.829v0h3.147c1.562 0 2.829-1.266 2.829-2.829v0-6.803c0-0.001 0-0.002 0-0.003 0-1.539 1.248-2.787 2.787-2.787h1.5c1.541 0 2.79 1.249 2.79 2.79v0 6.803c0 1.561 1.265 2.827 2.825 2.829h3.135c1.562 0 2.829-1.266 2.829-2.829v0-13.153h2.247c0.002 0 0.005 0 0.007 0 0.953 0 1.725-0.772 1.725-1.725 0-0.498-0.211-0.947-0.549-1.262l-0.001-0.001z"></path>
</svg>
