<svg viewBox="0 0 20 14" xmlns="http://www.w3.org/2000/svg">
<path d="M0 1.28572C0 0.812334 0.38376 0.428574 0.857143 0.428574H19.1429C19.6162 0.428574 20 0.812334 20 1.28572C20 1.7591 19.6162 2.14286 19.1429 2.14286H0.857143C0.38376 2.14286 0 1.7591 0 1.28572ZM0 7C0 6.52663 0.38376 6.14286 0.857143 6.14286H19.1429C19.6162 6.14286 20 6.52663 20 7C20 7.47337 19.6162 7.85715 19.1429 7.85715H0.857143C0.38376 7.85715 0 7.47337 0 7ZM0 12.7143C0 12.2409 0.38376 11.8571 0.857143 11.8571H19.1429C19.6162 11.8571 20 12.2409 20 12.7143C20 13.1877 19.6162 13.5714 19.1429 13.5714H0.857143C0.38376 13.5714 0 13.1877 0 12.7143Z"/>
<path d="M13.588 13.9998C13.4826 13.9998 13.3772 13.9594 13.2965 13.8796L7 7.58222L0.703479 13.8796C0.542072 14.0401 0.281845 14.0401 0.120438 13.8796C-0.0401459 13.7182 -0.0401459 13.4579 0.120438 13.2965L6.41778 7L0.120438 0.703479C-0.0401459 0.542072 -0.0401459 0.281845 0.120438 0.120438C0.281845 -0.0401459 0.542072 -0.0401459 0.703479 0.120438L7 6.41778L13.2965 0.120438C13.4579 -0.0401459 13.7182 -0.0401459 13.8796 0.120438C14.0401 0.281845 14.0401 0.542072 13.8796 0.703479L7.58222 7L13.8796 13.2965C14.0401 13.4579 14.0401 13.7182 13.8796 13.8796C13.7989 13.9594 13.6935 13.9998 13.588 13.9998Z" style="transform:translateX(3px)"/>
</svg>
