<svg version="1.1" xmlns="http://www.w3.org/2000/svg" viewBox="0 0 32 32">
<path d="M31.512 11.856c0-0.994-0.444-1.781-1.25-2.356-0.563-0.406-1.2-0.556-1.887-0.519-0.244 0.012-0.35-0.063-0.363-0.331-0.038-1.194-0.456-2.244-1.275-3.106-1.369-1.438-2.706-2.906-4.113-4.313-0.3-0.3-0.637-0.531-1.006-0.731-0.55-0.3-1.131-0.456-1.75-0.494h-13.494c-0.369 0.063-0.731 0.138-1.050 0.356-0.881 0.6-1.35 1.425-1.356 2.494-0.006 1.881 0 3.769 0 5.65 0 0.463-0.006 0.463-0.475 0.469h-0.063c-1.681 0.006-2.956 1.275-2.956 2.969 0 3.706 0 7.406 0 11.113 0 0.175 0 0.35 0.031 0.531 0.25 1.425 1.444 2.431 2.894 2.444 0.569 0.006 0.569 0.006 0.569 0.587 0 0.813 0.037 1.625-0.006 2.431-0.069 1.225 0.863 2.794 2.413 2.944h19.181c0.313-0.050 0.637-0.075 0.919-0.244 0.981-0.581 1.525-1.425 1.538-2.575 0.012-0.844 0-1.688 0-2.525 0-0.675-0.050-0.619 0.625-0.619 1.569-0.012 2.869-1.3 2.869-2.869 0.012-3.775 0.019-7.544 0.006-11.306zM2.444 22.906v-10.831c0-0.781 0.344-1.131 1.113-1.131h24.888c0.75 0 1.113 0.356 1.113 1.1 0 3.644 0 7.287 0 10.931 0 0.725-0.369 1.087-1.1 1.087-4.162 0-8.325 0-12.494 0h-12.363c-0.819 0-1.156-0.344-1.156-1.156zM7.037 1.881c4.081 0 8.162 0 12.244 0 0.844 0 1.563 0.3 2.144 0.913 1.281 1.35 2.563 2.706 3.844 4.056 0.506 0.537 0.762 1.175 0.794 1.913 0.012 0.231-0.038 0.313-0.294 0.313-3.113-0.012-6.225-0.006-9.338-0.006h-0.438c-3.238 0-6.475-0.006-9.713 0.006-0.294 0-0.344-0.088-0.344-0.356 0.013-1.912 0.006-3.831 0.006-5.744 0-0.737 0.362-1.094 1.094-1.094zM24.994 30.119c-5.994 0-11.994 0-17.988 0-0.688 0-1.063-0.375-1.063-1.056 0-0.95 0.006-1.894-0.006-2.844-0.006-0.238 0.056-0.288 0.287-0.288 3.262 0.006 6.519 0.006 9.775 0.006 3.25 0 6.494 0.006 9.744-0.006 0.262 0 0.325 0.063 0.319 0.325-0.019 0.938-0.006 1.875-0.006 2.813 0 0.681-0.375 1.050-1.063 1.050z"></path>
<path d="M13.069 20.806c0 0.663 0.381 1.044 1.050 1.044 0.581 0 1.162-0.019 1.75-0.019 1.556 0 2.669-0.738 3.319-2.113 0.725-1.538 0.7-3.113-0.012-4.644-0.625-1.338-1.738-2-3.219-2.012-0.625-0.006-1.25 0-1.875 0-0.644 0-1.019 0.381-1.019 1.031 0 1.1 0 2.206 0 3.306h0.006c0 1.137 0 2.275 0 3.406zM15.213 14.938c0.25 0.019 0.5 0.006 0.75 0.006 0.719 0.006 1.25 0.325 1.531 0.981 0.425 0.981 0.45 1.981 0.019 2.969-0.306 0.706-0.844 1.087-1.637 1.069-0.219-0.006-0.438-0.006-0.656 0.012-0.213 0.019-0.287-0.044-0.281-0.269 0.012-0.762 0.006-1.519 0.006-2.281h-0.006c0-0.738 0.012-1.481-0.006-2.219 0-0.231 0.069-0.287 0.281-0.269z"></path>
<path d="M5.075 21.019c0 0.625 0.394 1.044 0.956 1.038 0.55-0.006 0.919-0.419 0.919-1.038 0-0.6 0.013-1.206-0.006-1.813-0.006-0.212 0.069-0.262 0.263-0.256 0.325 0.012 0.644 0.006 0.969-0.012 1.519-0.075 2.706-1.281 2.794-2.825 0.081-1.419-0.981-2.75-2.425-3-0.813-0.137-1.638-0.037-2.463-0.056-0.644-0.012-1.019 0.375-1.019 1.025 0 1.144 0 2.288 0 3.431h0.006c0.006 1.181 0 2.344 0.006 3.506zM6.944 16.050c0-0.356 0.006-0.644 0-0.938-0.006-0.131 0.031-0.181 0.175-0.175 0.313 0.012 0.625-0.006 0.931 0.006 0.581 0.031 1.050 0.512 1.044 1.069 0 0.563-0.463 1.031-1.050 1.056-0.35 0.012-0.825 0.137-1.025-0.044-0.231-0.194-0.037-0.681-0.075-0.975z"></path>
<path d="M22.988 21.938c0.55 0.006 0.944-0.413 0.944-1.012 0.006-0.762 0.012-1.519-0.006-2.281-0.006-0.269 0.081-0.325 0.331-0.319 0.444 0.019 0.894 0.006 1.344 0.006 0.225 0 0.431-0.056 0.613-0.194 0.3-0.238 0.431-0.644 0.325-1.006-0.119-0.394-0.469-0.663-0.913-0.675-0.481-0.012-0.956-0.012-1.438 0-0.212 0.006-0.256-0.063-0.25-0.262 0.012-0.363 0.019-0.731 0-1.094-0.012-0.206 0.063-0.238 0.244-0.238 0.531 0.012 1.063 0.006 1.594 0 0.6 0 1.031-0.387 1.031-0.931 0.006-0.55-0.413-0.938-1.019-0.944-0.894 0-1.794 0-2.688 0-0.675 0-1.038 0.369-1.038 1.044 0 1.137 0 2.269 0 3.406 0 1.156 0 2.313 0 3.469 0 0.613 0.375 1.025 0.925 1.031z"></path>
</svg>
