<svg viewBox="0 0 20 20" xmlns="http://www.w3.org/2000/svg">
<path d="M10 0.789062C4.47656 0.789062 0 5.26562 0 10.7891C0 15.0273 2.63672 18.6445 6.35547 20.1016C6.26953 19.3086 6.1875 18.0977 6.39062 17.2344C6.57422 16.4531 7.5625 12.2656 7.5625 12.2656C7.5625 12.2656 7.26172 11.668 7.26172 10.7812C7.26172 9.39062 8.06641 8.35156 9.07031 8.35156C9.92187 8.35156 10.3359 8.99219 10.3359 9.76172C10.3359 10.6211 9.78906 11.9023 9.50781 13.0898C9.27344 14.0859 10.0078 14.8984 10.9883 14.8984C12.7656 14.8984 14.1328 13.0234 14.1328 10.3203C14.1328 7.92578 12.4141 6.25 9.95703 6.25C7.11328 6.25 5.44141 8.38281 5.44141 10.5898C5.44141 11.4492 5.77344 12.3711 6.1875 12.8711C6.26953 12.9687 6.28125 13.0586 6.25781 13.1562C6.18359 13.4727 6.01172 14.1523 5.98047 14.2891C5.9375 14.4727 5.83594 14.5117 5.64453 14.4219C4.39453 13.8398 3.61328 12.0156 3.61328 10.5469C3.61328 7.39062 5.90625 4.49609 10.2188 4.49609C13.6875 4.49609 16.3828 6.96875 16.3828 10.2734C16.3828 13.7188 14.2109 16.4922 11.1953 16.4922C10.1836 16.4922 9.23047 15.9648 8.90234 15.3438C8.90234 15.3438 8.40234 17.2539 8.28125 17.7227C8.05469 18.5898 7.44531 19.6797 7.03906 20.3438C7.97656 20.6328 8.96875 20.7891 10 20.7891C15.5234 20.7891 20 16.3125 20 10.7891C20 5.26562 15.5234 0.789062 10 0.789062Z" fill="currentColor"/>
</svg>
