<svg viewBox="0 0 14 16" fill="none" xmlns="http://www.w3.org/2000/svg"><path d="M1.26 1.202c-.351.097-.715.388-.859.688-.155.322-.144-.147-.144 6.113 0 5.012.004 5.7.035 5.823.154.601.69 1.018 1.31 1.017.174 0 .251-.013.409-.066.136-.047 1.707-.886 5.246-2.805 2.778-1.506 5.11-2.773 5.181-2.815.071-.043.186-.136.255-.206.275-.281.385-.551.385-.948 0-.188-.012-.283-.051-.408a1.388 1.388 0 0 0-.634-.768c-.494-.286-10.25-5.556-10.361-5.596-.176-.063-.592-.078-.772-.029m5.346 4.189a769.236 769.236 0 0 1 4.803 2.612c0 .014-9.618 5.227-9.643 5.227-.009 0-.016-2.353-.016-5.229 0-3.868.007-5.226.026-5.219.015.004 2.188 1.179 4.83 2.609" fill-rule="evenodd" fill="currentColor"/></svg>