<svg viewBox="0 0 40 32" xmlns="http://www.w3.org/2000/svg">
	<path d="M15.1969 16H4V15.9843C4 12.9055 5.52756 10.0551 8.08661 8.34646L15.1102 3.66142C16.0315 3.04724 16.2756 1.81102 15.6614 0.889764C15.2756 0.314961 14.6457 0 13.9921 0C13.6142 0 13.2283 0.110236 12.8819 0.338583L5.85827 5.02362C2.19685 7.46457 0 11.5669 0 15.9843L0 31.1968C0 31.6378 0.354331 32 0.80315 32H15.1969C15.6378 32 16 31.6457 16 31.1968V16.8031C16 16.3543 15.6457 16 15.1969 16Z"/>
	<path d="M39.197 16H28.0002V15.9843C28.0002 12.9055 29.5277 10.0551 32.0868 8.34646L39.1104 3.66142C40.0317 3.04724 40.2758 1.81102 39.6616 0.889764C39.2758 0.314961 38.6458 0 37.9923 0C37.6144 0 37.2285 0.110236 36.8821 0.338583L29.8584 5.02362C26.1813 7.47244 23.9923 11.5669 23.9923 15.9843V31.1968C23.9923 31.6378 24.3466 32 24.7955 32H39.197C39.638 32 40.0002 31.6457 40.0002 31.1968V16.8031C40.0002 16.3543 39.638 16 39.197 16Z"/>
</svg>
