<svg viewBox="0 0 20 21" xmlns="http://www.w3.org/2000/svg">
	<path fill-rule="evenodd" clip-rule="evenodd" d="M8.71795 2.03846C4.75283 2.03846 1.53846 5.25283 1.53846 9.21795C1.53846 13.1831 4.75283 16.3974 8.71795 16.3974C12.6831 16.3974 15.8974 13.1831 15.8974 9.21795C15.8974 5.25283 12.6831 2.03846 8.71795 2.03846ZM0 9.21795C0 4.40316 3.90316 0.5 8.71795 0.5C13.5327 0.5 17.4359 4.40316 17.4359 9.21795C17.4359 14.0327 13.5327 17.9359 8.71795 17.9359C3.90316 17.9359 0 14.0327 0 9.21795Z"/>
	<path fill-rule="evenodd" clip-rule="evenodd" d="M13.815 14.315C14.1155 14.0146 14.6025 14.0146 14.9029 14.315L19.7747 19.1868C20.0751 19.4872 20.0751 19.9743 19.7747 20.2747C19.4743 20.5751 18.9872 20.5751 18.6868 20.2747L13.815 15.4029C13.5146 15.1025 13.5146 14.6155 13.815 14.315Z"/>
</svg>
