<svg xmlns="http://www.w3.org/2000/svg" viewBox="0 0 33 32">
<path d="M16.441 0.027c-0.203 0.029-0.436 0.108-0.634 0.213-0.196 0.103-0.512 0.389-0.639 0.583-0.051 0.076-1.033 2.044-2.184 4.375-1.151 2.333-2.098 4.248-2.108 4.258-0.010 0.007-2.115 0.321-4.681 0.693s-4.73 0.693-4.809 0.712c-0.448 0.115-0.874 0.433-1.114 0.828-0.362 0.602-0.365 1.315-0.005 1.937 0.11 0.193 0.22 0.304 3.895 3.883 1.704 1.66 3.1 3.036 3.104 3.058s-0.353 2.133-0.791 4.689c-0.872 5.090-0.847 4.916-0.747 5.315 0.169 0.671 0.69 1.19 1.369 1.359 0.301 0.076 0.715 0.059 1.006-0.042 0.135-0.047 1.675-0.842 4.395-2.272 2.304-1.212 4.199-2.201 4.211-2.201 0.015 0 1.91 0.989 4.211 2.201 2.718 1.43 4.26 2.226 4.395 2.272 0.291 0.1 0.705 0.118 1.006 0.042 0.837-0.211 1.418-0.943 1.418-1.79 0-0.201-0.125-0.97-0.796-4.884-0.438-2.556-0.796-4.667-0.791-4.689s1.4-1.398 3.105-3.058c3.996-3.893 3.807-3.702 3.949-3.993 0.149-0.301 0.213-0.556 0.213-0.842 0-0.36-0.088-0.673-0.272-0.989-0.113-0.189-0.438-0.509-0.634-0.624-0.34-0.196-0.26-0.184-5.301-0.913-2.571-0.372-4.679-0.678-4.681-0.681 0 0-0.945-1.915-2.098-4.25s-2.137-4.307-2.186-4.38c-0.323-0.49-0.842-0.783-1.445-0.82-0.118-0.005-0.282 0-0.362 0.012zM18.73 6.5c1.097 2.221 2.039 4.113 2.096 4.201 0.228 0.357 0.607 0.646 1.014 0.766 0.073 0.022 2.145 0.333 4.603 0.688 2.458 0.357 4.498 0.656 4.534 0.666 0.064 0.020-0.091 0.174-3.21 3.215-1.802 1.755-3.32 3.251-3.371 3.322-0.25 0.343-0.362 0.686-0.362 1.109 0 0.257 0.066 0.661 0.766 4.711 0.419 2.436 0.759 4.446 0.757 4.463-0.005 0.020-1.474-0.739-4.054-2.096-2.228-1.17-4.121-2.15-4.206-2.179-0.502-0.164-0.979-0.12-1.498 0.142-0.13 0.066-1.966 1.031-4.081 2.142-2.456 1.29-3.846 2.010-3.851 1.991-0.002-0.017 0.338-2.027 0.757-4.463 0.715-4.133 0.766-4.449 0.766-4.723 0-0.433-0.113-0.779-0.36-1.102-0.061-0.081-1.584-1.579-3.381-3.33-3.112-3.031-3.266-3.183-3.202-3.202 0.037-0.010 2.044-0.304 4.461-0.654s4.476-0.654 4.574-0.676c0.377-0.081 0.81-0.362 1.048-0.681 0.086-0.113 0.588-1.107 1.724-3.411 0.881-1.787 1.792-3.641 2.027-4.116s0.436-0.857 0.446-0.845c0.010 0.010 0.913 1.836 2.008 4.059z"></path>
</svg>
