<svg version="1.1" xmlns="http://www.w3.org/2000/svg" viewBox="0 0 32 32">
<path d="M30.020 8.024c-1.826 0-3.511-0.605-4.864-1.626-1.552-1.17-2.667-2.886-3.061-4.864-0.098-0.489-0.15-0.993-0.155-1.51h-5.217v14.255l-0.006 7.808c0 2.087-1.359 3.858-3.244 4.48-0.547 0.181-1.137 0.266-1.752 0.233-0.785-0.043-1.521-0.28-2.16-0.663-1.361-0.814-2.283-2.29-2.308-3.979-0.039-2.639 2.094-4.791 4.732-4.791 0.521 0 1.021 0.085 1.489 0.239v-5.297c-0.494-0.073-0.996-0.111-1.504-0.111-2.887 0-5.587 1.2-7.517 3.362-1.459 1.634-2.334 3.718-2.469 5.904-0.177 2.871 0.874 5.601 2.911 7.614 0.299 0.296 0.614 0.57 0.942 0.823 1.747 1.344 3.882 2.073 6.132 2.073 0.508 0 1.011-0.038 1.504-0.111 2.101-0.311 4.040-1.273 5.57-2.786 1.88-1.858 2.919-4.325 2.93-6.951l-0.027-11.66c0.897 0.692 1.878 1.264 2.93 1.709 1.637 0.691 3.372 1.041 5.159 1.040v-5.194c0.001 0.001-0.014 0.001-0.015 0.001z"></path>
</svg>
