<svg version="1.1" xmlns="http://www.w3.org/2000/svg" viewBox="0 0 28 32">
<path d="M13.621 0.038c-1.744 0.178-3.231 0.873-4.425 2.067-1.047 1.047-1.723 2.344-1.984 3.809-0.081 0.45-0.105 0.83-0.090 1.408 0.019 0.752 0.107 1.29 0.331 1.977 0.357 1.104 0.918 2.020 1.744 2.845 1.156 1.159 2.61 1.858 4.235 2.046 0.4 0.045 1.171 0.045 1.57 0 1.32-0.152 2.522-0.642 3.585-1.463 0.162-0.124 0.454-0.385 0.65-0.583 1.109-1.109 1.773-2.429 2.022-4.033 0.055-0.34 0.074-1.242 0.038-1.632-0.202-2.153-1.373-4.102-3.167-5.282-0.723-0.473-1.397-0.768-2.225-0.975-0.573-0.14-0.899-0.181-1.582-0.188-0.333-0.005-0.65-0.002-0.702 0.002zM14.822 2.094c0.55 0.069 1.118 0.238 1.604 0.473 1.551 0.761 2.605 2.236 2.824 3.952 0.040 0.324 0.033 0.956-0.014 1.297-0.226 1.618-1.211 3.024-2.653 3.79-0.74 0.393-1.506 0.581-2.367 0.581s-1.627-0.188-2.367-0.581c-1.442-0.766-2.427-2.172-2.653-3.79-0.048-0.34-0.055-0.973-0.014-1.297 0.293-2.305 2.106-4.128 4.394-4.423 0.236-0.029 1.009-0.031 1.247-0.002z"></path>
<path d="M10.076 16.799c-3.195 0.274-6.091 1.913-7.989 4.525-0.34 0.469-0.621 0.93-0.909 1.504-0.597 1.182-0.937 2.315-1.109 3.688-0.048 0.378-0.052 0.538-0.062 2.467-0.007 1.487-0.002 2.101 0.017 2.196 0.059 0.283 0.274 0.576 0.519 0.699 0.255 0.131-0.749 0.121 13.673 0.121s13.419 0.010 13.673-0.121c0.245-0.124 0.459-0.416 0.519-0.699 0.019-0.095 0.024-0.709 0.017-2.196-0.010-1.93-0.014-2.089-0.062-2.467-0.171-1.373-0.512-2.505-1.109-3.688-0.55-1.092-1.173-1.956-2.034-2.819-0.576-0.578-1.066-0.98-1.725-1.42-1.539-1.023-3.305-1.632-5.187-1.792-0.352-0.029-7.885-0.026-8.232 0.002zM18.386 18.85c1.765 0.212 3.281 0.835 4.632 1.908 1.687 1.339 2.869 3.326 3.236 5.436 0.107 0.614 0.114 0.726 0.124 2.267l0.012 1.492h-24.349l0.012-1.492c0.010-1.542 0.017-1.654 0.124-2.267 0.366-2.11 1.549-4.097 3.236-5.436 1.511-1.197 3.271-1.856 5.222-1.949 0.086-0.002 1.787-0.005 3.783-0.002 3.264 0.002 3.662 0.007 3.968 0.043z"></path>
</svg>
