<svg xmlns="http://www.w3.org/2000/svg" viewBox="0 0 32 32">
<path d="M14.007 18.998l5.205-2.998-5.205-2.998z"></path>
<path d="M16 0c-8.835 0-16 7.165-16 16s7.165 16 16 16 16-7.165 16-16-7.165-16-16-16zM25.998 16.016s0 3.245-0.412 4.81c-0.231 0.856-0.906 1.532-1.762 1.762-1.565 0.412-7.823 0.412-7.823 0.412s-6.242 0-7.823-0.428c-0.856-0.23-1.532-0.906-1.762-1.762-0.412-1.548-0.412-4.809-0.412-4.809s0-3.245 0.412-4.809c0.23-0.856 0.922-1.548 1.762-1.779 1.565-0.412 7.823-0.412 7.823-0.412s6.259 0 7.823 0.428c0.856 0.23 1.532 0.906 1.762 1.762 0.428 1.565 0.412 4.826 0.412 4.826z"></path>
</svg>
