<svg viewBox="0 0 16 16" xmlns="http://www.w3.org/2000/svg">
<path d="M1.5202 0.461857C1.22731 0.168964 0.752431 0.168964 0.459538 0.461857C0.166645 0.754751 0.166645 1.22962 0.459538 1.52252L6.92926 7.99224L0.459538 14.462C0.166645 14.7549 0.166645 15.2297 0.459538 15.5226C0.752431 15.8155 1.22731 15.8155 1.5202 15.5226L7.98992 9.0529L14.4595 15.5225C14.7524 15.8154 15.2273 15.8154 15.5202 15.5225C15.8131 15.2296 15.8131 14.7548 15.5202 14.4619L9.05058 7.99224L15.5202 1.52263C15.8131 1.22974 15.8131 0.754864 15.5202 0.461971C15.2273 0.169077 14.7524 0.169077 14.4595 0.461971L7.98992 6.93158L1.5202 0.461857Z"/>
</svg>