<svg class="qodef-svg--team-hoverx" xmlns="http://www.w3.org/2000/svg" xml:space="preserve" width="246.4px" height="279.4px" viewBox="0 0 246.4 279.4" fill="none"><path d="M2 105s69.4 124 77.2 135c7.8 11 28.2 38.6 30.5 38.2 2.4-.4-6.7-22.4-8.9-28.5S48.1 113.4 49.2 112.4c1.1-1 15.1 19.3 18.5 26 3.4 6.7 32.9 52.1 35.5 56.3 2.6 4.3 34.5 55.9 38.6 59.4 4.1 3.5 8 8.8 8.5 8.4.5-.4-15.3-30.4-30.5-57.2s-57.3-99.2-58.4-103.9c-1.1-4.7-7.6-17.3-4.1-17.1s62.9 70.8 77.6 82.6c14.7 11.8 64.5 61.2 68.5 62.3 4 1-.3-5.6-6-15.8-5.7-10.3-18.1-31.7-32.6-55.7s-33.8-74.5-36-84.1c-2.2-9.6-3.7-13.4-.8-10.9s72.8 73.1 86 83.4c13.3 10.3 31.2 27.1 32.1 25.8s-.1-8.1-3.7-12.8S172 58 166.3 46.7s-27-45.4-22.7-44.8 62.3 47.7 83.6 68.2 17.5 17.4 17.5 17.4"></path></svg>