<svg viewBox="0 0 232 102" xmlns="http://www.w3.org/2000/svg" fill="none">
	<path d="M73.831.526c-4.697 1.679-12.625 6.765-30.524 19.581-6.912 4.949-19.496 13.585-27.964 19.191C1.969 48.153-.038 49.606.07 50.359c.068.476.403.92.745.985.867.165 28.24-17.998 42.685-28.323 6.593-4.712 13.379-9.536 15.08-10.72 5.813-4.045 14.564-9.208 15.606-9.208.931 0-2.107 10.505-9.365 32.379-7.941 23.933-10.712 33.565-11.538 40.101-.763 6.044.111 7.04 4.071 4.639 6.309-3.823 9.495-6.797 17.79-16.605 8.47-10.015 13.243-15.436 20.543-23.335 3.41-3.69 6.76-7.364 7.444-8.164C105.269 29.609 116 20.019 116 20.608c0 .308-.415 2.191-.921 4.186-1.906 7.5-6.687 18.022-16.315 35.913-2.919 5.423-6.669 12.644-8.334 16.046-1.665 3.403-4.252 8.362-5.748 11.02-3.493 6.206-4.379 8.494-4.418 11.407l-.031 2.32 1.354.101c1.297.097 1.646-.211 8.45-7.455 9.758-10.388 19.415-18.026 41.236-32.618 8.242-5.511 11.517-7.441 18.174-10.71 27.11-13.314 58.259-23.684 77.49-25.798 3.375-.371 4.508-.64 4.827-1.145.314-.498.273-.803-.164-1.241-.49-.489-1.122-.52-4.053-.194-19.444 2.156-47.204 11.138-76.268 24.678-9.53 4.439-17.264 9.176-32.186 19.715-15.703 11.09-22.391 16.602-30.16 24.859-3.296 3.504-6.046 6.247-6.11 6.095-.211-.495 1.749-4.735 4.28-9.257 1.366-2.442 4.223-7.917 6.349-12.168a669.978 669.978 0 0 1 7.937-15.269c12.095-22.403 17.318-35.405 17.318-43.112 0-1.738-.126-2.116-.776-2.322-.615-.195-1.878.779-6.09 4.696-11.196 10.411-24.11 24.354-38.673 41.753-6.487 7.75-10.341 11.561-14.388 14.228-1.479.974-2.781 1.771-2.894 1.771-.427 0-.179-2.752.578-6.434 1.449-7.046 3.486-13.752 11.2-36.873 6.88-20.621 9.669-30.12 9.669-32.933 0-1.81-1.057-2.215-3.502-1.341" fill-rule="evenodd"/>
</svg>
