<svg viewBox="0 0 232 102" xmlns="http://www.w3.org/2000/svg" fill="none">
<path d="m55.474 78.449.138-.09c.57-.4 1.138-.821 1.553-1.054 5.67-3.164 10.601-8.62 14.672-13.602 9.735-11.924 20.108-23.322 30.684-34.508 2.963-3.134 6.307-5.902 9.463-8.834.934-.866 1.879-1.713 2.824-2.565.416-.366 1.083-1.341 1.514-1.762.306-.307.608-.456.806-.515.504-.139.905-.01 1.222.262.207.173.494.5.489 1.154-.074 6.873-3.363 15.905-7.805 25.347-6.525 13.87-15.503 28.66-19.836 38.658-1.138 2.629-4.378 7.586-6.633 12.146-1.004 2.02-1.84 3.942-2.103 5.487.861-.926 1.826-2.18 2.483-2.788 2.845-2.63 5.274-5.69 7.955-8.477 8.152-8.483 37.915-29.096 48.13-35.098 8.261-4.857 57.88-28.016 89.652-30.1a1.239 1.239 0 0 1 .163 2.47c-31.391 2.06-80.402 24.966-88.564 29.764-10.101 5.937-39.543 26.294-47.596 34.677-2.715 2.827-5.184 5.917-8.063 8.581-1.038.96-2.834 3.352-3.912 4.036-.609.386-1.168.42-1.568.302-.49-.149-1.014-.52-1.168-1.476-.247-1.565.292-3.763 1.316-6.19 2.137-5.05 6.317-11.264 7.642-14.32 4.339-10.012 13.327-24.832 19.866-38.726 3.641-7.745 6.534-15.182 7.341-21.297-.831.742-1.653 1.49-2.474 2.248-3.121 2.891-6.42 5.62-9.349 8.715-10.53 11.146-20.87 22.5-30.565 34.374-4.259 5.214-9.453 10.888-15.379 14.201-.836.466-2.32 1.679-3.16 1.926-.54.159-.995.084-1.326-.094-.41-.213-.782-.6-.841-1.352-.252-3.08.678-8.274 2.24-14.334 3.557-13.766 10.32-32.137 12.773-39.767 1.647-5.125 3.512-10.21 4.996-15.385.074-.257 1.078-5.278 1.553-7.67-1.39.48-3.264 1.47-5.387 2.689-7.454 4.288-17.585 11.68-20.686 13.884-5.951 4.224-11.778 8.591-17.828 12.676C21.16 38.49 11.415 44.614 1.937 51.165a1.23 1.23 0 0 1-1.716-.311 1.239 1.239 0 0 1 .311-1.724c9.483-6.56 19.237-12.69 28.794-19.143 6.03-4.07 11.842-8.427 17.778-12.641 3.131-2.223 13.361-9.68 20.885-14.008C71.436 1.352 74.385.055 75.953 0c.435-.01 1.315.228 1.375 1.431.074 1.54-1.79 9.35-1.895 9.715-1.494 5.2-3.368 10.31-5.02 15.46-2.444 7.605-9.186 25.911-12.728 39.627-1.276 4.937-2.152 9.26-2.211 12.216Z"/>
</svg>
