<svg viewBox="0 0 1600 46" xmlns="http://www.w3.org/2000/svg">
	<path class="elementor-shape-fill" fill-rule="evenodd" clip-rule="evenodd" d="M0.00195312 31.4962H43.4062C43.37 31.3581 43.2558 31.2543 43.3438 31.0597C48.1284 30.3492 48.7903 31.2676 55.1836 31.0597C56.0823 30.1155 58.238 29.7054 58.5625 28.5138C54.0684 28.3579 48.7703 28.85 44.1816 29.6027C44.8915 28.2024 44.8301 27.4992 42.4922 26.6964L43.7695 26.2638L43.3438 25.5968C45.0736 24.8837 48.9523 25.104 50.1152 24.1437C50.2501 24.6853 49.8045 25.4843 50.9531 25.5968H53.4873C52.5413 24.4543 53.4127 24.7703 53.4873 23.4161C57.8739 23.1816 60.2663 24.2157 63.6387 23.4161L64.0645 22.8683C63.8479 23.2281 63.8004 23.5984 63.2061 23.9581L64.4834 23.7794C66.7066 25.2623 77.5121 24.6842 76.3164 27.4152C80.4727 26.4247 87.4208 25.4834 90.6914 27.0558C92.2929 26.9006 92.8137 26.2704 94.915 26.3263C95.1791 26.8184 96.1187 27.0232 95.7607 27.7823L95.3418 28.1456C96.1931 28.3373 97.5313 28.9222 97.8691 29.421L98.2871 28.8722C100.248 28.767 99.2337 29.9261 100.829 29.9689C102.424 28.783 104.695 30.0087 107.601 29.2394L107.175 29.7872L108.452 29.9689C108.452 30.3287 107.763 30.4012 107.601 30.6954C108.262 30.7772 108.587 30.999 108.452 31.4249C109.771 31.4548 111.371 31.3727 110.98 32.1486L109.203 32.1847C109.621 32.6108 110.081 32.9153 110.135 33.4239L110.98 33.2452C115.968 34.4868 126.071 31.4359 131.261 34.3351C139.628 33.8791 141.837 34.5793 148.183 35.4249C147.203 33.6746 152.117 34.4466 152.414 33.2452C150.893 32.4359 149.076 31.7612 149.866 29.9679C147.589 28.8845 140.972 29.671 138.032 28.8722L139.3 28.4532L139.303 28.4523L138.884 27.7814C150.23 27.8574 157.11 28.1251 160.868 25.2355C159.124 25.1322 160.07 23.8746 158.327 23.7784C156.718 25.9049 146.013 24.8147 145.648 23.048C148.851 22.8498 150.927 22.1666 154.941 22.3185C156.198 21.8891 156.26 20.945 157.482 20.5021L157.908 21.0509L159.165 20.8654V21.962H164.247C164.179 21.3249 164.436 20.8223 165.085 20.5021H170.16L169.734 21.0509C170.579 20.9054 171.438 20.7961 172.275 20.6837L171.856 20.1359C173.953 19.3703 180.845 19.6445 182 20.503C181.642 19.6242 183.534 19.7128 182.845 18.6827C185.253 18.7678 187.384 18.7325 188.918 18.4357L187.497 18.3253C188.096 18.3344 188.755 18.3114 189.369 18.3302C189.781 18.2257 190.168 18.1117 190.455 17.9532L190.875 18.4982H190.881L192.145 18.3126C192.145 19.8487 195.686 19.8454 193.835 21.2286C192.335 22.3646 190.523 21.1138 188.759 21.962C191.942 22.8343 192.077 22.5041 193.835 23.7784C193.984 23.3498 195.173 23.3821 196.376 23.4152C196.565 22.7283 195.417 22.6094 195.524 21.962C204.627 18.0952 214.528 25.7226 220.043 23.048C222.436 22.7473 222.233 23.5607 224.274 23.4152C226.537 21.7148 232.816 21.7505 236.114 20.5021C239.155 21.2515 245.778 20.4623 246.258 22.3185L244.98 22.503C246.197 22.7641 246.71 22.9169 247.528 23.5968L247.095 23.048C251.813 22.2153 259.017 23.2831 263.16 22.3185V21.9611L264.708 22.1398L263.579 21.0499L263.16 21.588C260.845 21.699 260.667 20.89 260.564 20.0489C260.453 20.1015 260.371 20.1549 260.188 20.2062C259.68 19.7569 258.148 19.5826 256.339 19.4806C256.485 19.3754 256.441 19.2135 256.379 19.046C253.05 20.3241 247.698 19.9405 247.152 17.2863C246.11 17.0694 244.905 16.8965 243.256 16.8439C243.272 16.4717 243.297 16.0909 243.314 15.7228C244.436 15.7786 245.401 15.8773 246.394 15.9689C245.461 15.6753 245.08 15.1487 242.864 15.4025C242.127 14.2334 245.06 14.6495 245.398 13.9493C244.756 11.5294 250.309 10.2395 255.463 10.2921C255.427 10.2102 255.319 10.162 255.305 10.0704C257.38 10.097 259.457 10.1248 261.533 10.1554C261.488 10.6805 262.838 10.8308 262.237 11.506C262.178 11.508 262.136 11.506 262.078 11.5079C262.469 11.7047 262.909 11.8826 263.158 12.13C263.692 11.3503 268.361 11.7865 269.078 12.13C267.368 14.0487 266.361 15.2147 267.382 17.5861C269.821 16.6152 275.402 18.8372 276.688 18.3126C276.12 16.4134 274.904 16.9448 274.999 15.0392C277.08 14.326 282.385 14.5545 282.601 15.7696L281.338 16.1954C283.088 16.2942 284.318 16.7894 285.717 17.1798L287.251 17.5294L286.826 16.8595C290.096 15.5683 295.003 16.7603 298.666 16.1329C300.68 17.0474 296.544 17.3551 296.983 18.6827C297.828 18.6795 297.99 18.9723 298.666 19.045H299.517L299.936 19.5909L299.944 19.59V18.8654C300.267 19.0339 300.065 19.3134 299.944 19.59L301.206 19.4113V20.1349L300.78 20.6837C301.638 20.5414 302.478 20.4382 303.314 20.3234L302.896 19.7716C302.955 19.1377 302.699 18.6389 302.05 18.3116C304.876 18.9292 304.936 18.0874 307.971 17.9523C310.545 18.5432 311.614 19.7782 314.729 20.1349C313.303 24.646 320.879 24.0185 329.104 24.8673C328.557 25.7526 327.387 26.7444 330.794 26.6945C330.131 25.4293 331.739 25.155 332.496 24.505C334.983 24.7654 337.72 24.9181 339.255 25.5948C340.262 24.8947 342.141 23.6099 344.323 24.505L343.891 24.8673C345.337 24.8939 346.573 24.8216 348.135 25.0529L347.702 24.505C351.595 24.0555 355.743 24.6602 357.853 25.9611C360.739 25.3902 361.786 25.1156 365.463 25.5948L365.03 26.2618L366.301 26.6945C366.983 28.6331 365.111 29.5077 362.928 31.0568L361.651 30.8751C362.425 31.4128 362.552 31.9429 361.91 32.4767L362.253 32.6075L362.928 32.5089L362.93 32.5109C363.371 32.3894 363.848 32.2927 364.239 32.2472L362.945 32.5431C362.952 32.5761 362.982 32.5977 362.99 32.63L363.838 32.5773C363.957 32.9117 365.703 32.8055 366.928 32.8458L366.522 33.2472L366.909 33.3409C367.531 33.2663 368.168 33.1979 368.845 33.1466L368.857 33.1349L367.713 32.8546C368.579 32.4883 370.245 32.3653 371.374 32.0782C371.547 31.8395 371.936 31.7001 372.385 31.6007C372.395 31.5884 372.437 31.5852 372.445 31.5724C372.478 31.5744 372.495 31.5723 372.525 31.5743C373.399 31.4133 374.532 31.4505 375.405 31.6759C377.448 31.7071 378.891 31.6874 380.992 32.1427C381.098 32.535 380.989 32.8614 380.662 33.1212C382.871 33.0179 384.664 32.7356 384.899 31.7853C385.317 30.6336 380.709 31.6505 381.526 30.3263C384.291 30.9736 389.367 29.0779 393.36 30.3263L392.942 30.8741L394.199 31.0558C395.253 33.0836 394.009 32.3446 392.509 33.6027C394.341 33.5631 396.286 33.6169 398.264 33.6974C397.872 33.041 397.623 32.5566 395.018 31.882C395.336 31.4514 395.397 31.0421 395.358 30.6407L392.942 30.8741C393.719 30.7632 394.505 30.6813 395.352 30.6105C395.105 28.5204 390.704 26.7341 388.441 24.4103C387.321 24.4739 387.11 24.6563 386.101 24.379C387.968 23.6029 386.263 22.4405 385.483 21.463C388.268 20.5532 394.101 20.7678 397.194 20.9425C396.455 21.5109 395.861 22.1965 397.886 22.5245L397.48 22.7423C398.253 22.7735 399.037 22.793 399.817 22.882L399.435 22.5431C400.487 22.4879 400.939 22.2449 402.559 22.3566C404.231 22.8509 402.139 22.9966 402.485 23.7013L401.062 23.5724C402.176 24.0035 401.067 24.3388 400.693 24.7257L400.6 25.0167L402.741 26.0509L402.373 25.7111C401.664 25.2857 406.831 25.6428 403.955 25.296L404.353 25.0675L403.974 24.8478C403.826 24.1846 405.779 24.1766 405.617 23.5206C402.307 23.6017 404.901 22.4632 404.899 22.3946C404.737 21.4854 401.117 21.6131 404.208 20.8155C406.338 20.8311 405.742 21.2096 407.32 20.8595C410.025 21.5695 406.432 23.8367 411.799 24.2784C412.351 25.1245 410.797 25.3341 410.928 26.0548C412.846 26.0477 414.706 26.0628 414.783 26.5529C414.222 26.9853 410.454 26.4472 410.09 26.9386C409.853 27.5919 411.815 27.6497 411.572 28.3029C409.068 29.2817 405.362 29.892 403.629 31.1007C407.252 31.128 403.728 31.4961 406.699 32.0372C408.009 32.1476 408.36 31.9626 408.791 31.8029C409.117 31.6821 409.538 31.5895 410.447 31.6466L410.273 31.422C412.375 30.8674 415.409 30.7152 418.721 30.6925L419.577 30.507C419.717 29.9723 420.783 29.2845 422.111 29.2384L419.591 30.504L420.41 30.3253V30.6925C420.648 30.795 420.899 30.806 421.143 30.8624C425.395 30.5071 430.9 30.4557 431 29.0177C432.381 28.904 435.558 29.3523 435.686 28.8527C433.219 28.8558 434.224 27.9263 432.635 27.6984C433.968 27.7231 434.632 27.5489 434.995 27.2775C430.553 27.8919 433.569 25.9488 435.075 25.7111C437.759 26.1396 438.023 25.949 440.498 26.2316C440.461 26.759 440.437 27.28 440.412 27.8009L440.01 28.131C440.963 27.9433 441.893 27.8458 442.353 27.8263L441.981 27.5958C444.842 27.6015 442.936 26.148 444.948 25.8966C444.74 25.4829 444.958 25.1072 446.403 25.2228C446.112 25.0448 445.931 24.8378 446.051 24.5216C447.403 24.5535 448.47 24.5017 449.174 24.3341C448.566 25.1574 451.869 24.9324 453.009 25.2843C453.165 26.0194 452.021 26.354 449.846 26.3644C448.629 25.8792 447.415 25.6644 446.682 25.3527C446.705 25.6379 446.869 25.8904 447.011 26.1476C447.473 26.2002 447.976 26.2415 448.277 26.339C447.982 26.6123 447.883 26.8468 447.775 27.0831C448.657 27.8397 449.936 28.5148 451.431 29.1603C452.444 28.5485 452.477 28.2752 452.869 27.7433C453.917 27.7569 454.946 27.7733 455.987 27.7902C455.548 28.5767 453.057 28.7402 451.54 29.2071C452.209 29.4948 452.879 29.7854 453.573 30.0782C454.167 29.9322 454.763 29.7875 454.345 29.3341C456.588 29.3121 458.289 29.4418 458.984 29.8458C457.105 29.5996 456.359 30.8185 457.382 30.7159C457.556 30.4469 458.251 30.5911 458.937 30.7384L458.522 31.0646C459.195 30.7607 459.875 30.6803 460.506 30.5323L459.729 30.5236C459.979 30.0722 461.32 29.9483 462.115 29.6573C467.092 29.9262 467.92 30.2785 472.995 30.0363C473.02 30.0446 473.027 30.0571 473.051 30.0655C473.275 30.0383 473.435 29.9842 473.679 29.9659C474.292 30.1406 474.215 30.4499 474.052 30.7843C474.176 31.0266 474.095 31.2615 473.79 31.4777C473.793 31.7908 474.12 32.0514 475.375 32.1456C477.077 32.2275 478.756 32.1114 480.372 31.923C481.019 31.7593 481.675 31.5641 482.267 31.2823L482.26 31.503L482.69 30.7208L482.281 31.0577C479.498 30.9232 478.158 30.403 474.517 30.4991C475.328 29.1963 480.468 29.4594 479.331 28.1027C485.788 28.6358 485.337 25.8591 491.081 26.921C489.657 27.6238 487.488 28.0964 486.288 28.8693C486.404 29.1388 487.52 29.13 488.621 29.128C488.598 29.6519 487.243 29.7619 487.764 30.4493L486.347 30.3282C486.633 30.5276 486.949 30.7305 487.147 30.9357C488.408 30.7818 489.524 30.7436 490.489 30.8722C490.815 30.413 491.823 29.8169 490.171 29.1427C492.038 29.0862 491.863 29.5625 493.976 29.4249C493.98 29.0008 493.96 28.5641 493.974 28.1427C495.199 28.0265 495.922 28.1269 496.426 28.3224C496.74 27.6957 497.43 27.079 498.108 26.5724C496.758 26.4645 496.096 26.8691 495.775 26.5333L496.181 26.132L495.03 25.8556C495.371 25.2737 497.383 25.2145 497.444 24.545C495.491 24.5566 495.025 24.1717 494.366 23.8321C496.535 23.3807 497.616 24.0042 499.823 23.6788L499.421 24.0128C500.214 23.8264 501.5 23.4546 502.576 23.5001L502.176 23.2657C503.941 22.8188 505.923 23.5485 509.189 23.3595C510.537 23.2431 509.191 22.301 510.818 22.257C512.899 22.4356 512.942 23.1572 515.424 23.2267C516.574 23.0435 517.909 22.92 517.803 22.3575C517.019 21.6945 515.658 21.1716 516.381 20.1046C518.716 19.9838 520.54 19.7101 521.879 19.2833C522.179 19.5659 522.847 19.7492 524.186 19.7628L523.778 20.1661L523.785 20.1681L525.647 19.7501C525.199 19.8996 524.731 20.0608 523.786 20.1691L524.929 20.4415C523.867 22.1157 527.796 22.454 531.017 22.9845C529.412 22.4209 529.914 22.4951 530.314 21.6339C534.863 21.8567 536.244 21.9562 538.894 21.3048C540.66 21.8308 538.584 22.1716 538.807 22.8702C539.377 23.0209 540.191 23.0848 541.084 23.1212L540.896 22.8644C541.198 22.9339 541.356 23.0371 541.524 23.1378C545.664 23.2397 551.939 22.6017 553.55 23.7433C554.461 23.2848 553.123 22.8591 555.185 22.4161C558.738 22.3395 560.005 22.8781 563.733 22.7599C564.355 23.6347 561.775 23.53 561.312 24.0665L559.89 23.9318C560.249 24.4012 560.021 24.6675 559.714 25.0538L560.496 24.9513C563.787 25.3832 565.912 26.1399 568.956 26.6329L568.943 26.8575C569.813 26.7687 571.136 26.7522 572.436 27.0196L572.073 26.6769C572.587 26.6853 573.107 26.6908 573.622 26.6954C572.012 25.8031 576.949 24.793 579.179 24.9806C578.42 24.9209 578.494 25.3182 579.943 25.215C580.142 23.7705 573.597 24.1374 573.065 22.8859C574.748 22.4184 577.909 22.3969 579.359 21.8527C579.356 21.7768 579.368 21.701 579.365 21.629C577.674 21.5725 577.725 21.0398 577.871 20.4923C579.332 20.5624 579.594 20.2594 581.001 20.3048C581.638 20.5757 581.993 20.9262 581.705 21.4386C583.836 21.3061 583.26 21.909 584.802 21.9239L585.198 21.8224C585.017 21.9146 584.831 22.0076 584.4 22.0343L584.782 22.1446C584.94 22.8799 581.911 22.6403 580.84 22.9884C580.94 23.4099 583.466 23.172 583.937 23.4767L583.524 23.8868L584.669 24.17C584.585 24.5149 582.679 24.3128 583.08 24.8136C583.67 24.4674 586.873 24.9108 586.229 24.1886C585.96 24.1769 585.71 24.1798 585.453 24.1759L585.859 23.7667L584.708 23.4904C585.572 22.0826 592.104 23.4933 594.824 23.6212L593.659 23.7286C594.619 23.739 596.182 23.7862 596.759 23.8771L596.373 23.6505C596.722 23.1154 594.986 23.1426 595.67 22.5245C598.765 22.3043 597.629 21.6301 598.887 20.5538L600.044 20.4562C599.241 20.3725 598.772 20.3367 598.346 20.2736C598.246 20.058 598.177 19.8199 597.874 19.6212L600.055 20.4552L600.059 20.4542L599.697 20.1183C601.831 20.2384 600.476 19.2933 602.077 19.253C602.607 19.7744 604.378 19.9572 605.918 20.1993L606.693 20.3204C606.815 20.0951 607.194 19.9277 607.5 19.7765L605.952 19.755L607.505 19.7189L608.302 19.3439L606.883 19.2081L605.954 19.5323C601.474 18.4917 608.735 17.1839 604.586 16.1544C606.978 16.3512 606.122 15.5619 608.507 15.7657C611.067 16.3191 608.833 18.1734 612.249 18.4962C611.754 18.8773 608.549 18.4299 608.327 18.8878C608.318 19.0396 608.316 19.1906 608.307 19.3429C609.199 19.3904 609.127 19.7009 609.035 20.0196C608.859 20.1872 608.374 20.2724 607.481 20.2179C609.859 20.8708 604.643 22.455 610.465 22.4972L610.059 22.7189L610.431 22.9493C612.023 23.9398 617.346 22.2815 617.383 24.1564C615.498 25.0416 610.782 25.5863 614.119 26.7989C612.843 26.6183 610.698 27.1997 612.523 27.2218C615.386 27.1172 617.88 26.8947 619.521 27.548C619.49 27.1654 620.148 26.9836 621.11 26.8966L621.479 27.2355L621.888 26.9054C623.282 26.9548 623.727 26.7116 623.484 26.2589L624.664 26.1622L624.289 25.8273C624.889 25.7805 625.823 25.8347 625.85 25.6183L627.018 25.7491L626.649 25.4025C627.683 25.4155 628.726 25.4328 629.773 25.4503L630.547 25.3439L631.335 25.2443C631.495 25.4236 631.972 25.5154 632.871 25.4874C632.879 25.3426 632.888 25.1902 632.904 25.0421C632.43 25.022 631.984 25.0021 632.132 24.8087C631.659 24.8145 631.215 24.8342 631.342 25.0206L630.568 24.8995L629.793 25.0021C628.421 24.967 627.36 25.022 626.663 25.1818L625.885 25.1769L625.865 25.3937C624.19 24.7838 620.683 25.4928 619.65 25.089C619.395 24.2461 619.402 23.6206 619.026 22.3927C623.631 22.2426 626.9 20.6184 631.549 21.2198C628.437 20.4709 631.487 18.7882 635.537 19.7032C635.907 20.5086 634.815 20.8536 633.124 21.0245L632.337 21.1202C632.247 21.2657 632.15 21.4119 631.932 21.5626L633.098 21.4698C635.929 21.8569 631.276 21.7766 632.266 22.3507C633.74 22.3196 633.972 22.6235 635.378 22.6144C638.155 21.9434 642.945 21.8964 644.803 20.9503L645.693 21.3009L647.123 21.2091C647.9 22.9451 643.411 22.7291 645.401 24.3185C640.645 24.3802 638.16 25.1383 636.733 26.2091C636.93 26.6728 638.808 26.6844 639.007 27.1446C636.916 27.3349 634.582 27.4526 635.038 28.4269C635.802 28.8839 638.463 28.8278 638.094 29.5909C636.423 29.9644 635.765 30.0583 633.416 29.7452C635.455 30.3512 631.61 29.9579 632.571 30.8614C635.925 30.6712 635.577 30.769 638.002 31.1534C640.009 31.1593 639.178 30.2951 641.165 30.3009C642.268 30.9789 644.213 30.0494 646.617 30.3761C646.712 30.6423 646.453 31.0102 647.353 31.0538C653.98 30.7433 653.557 32.3279 656.585 32.9767C656.732 32.7117 656.484 32.3383 657.409 32.3136C659.142 32.8215 656.73 33.0659 657.315 33.8829C654.72 33.8693 652.255 33.9548 654.138 34.9523C653 35.0594 650.135 34.648 650.244 35.1271C650.438 35.9413 650.032 36.5828 649.359 37.1251C652.034 37.0661 653.702 37.2779 655.56 37.4376C656.447 36.1523 662.142 37.1822 663.33 37.7648C662.164 36.8062 667.639 37.8792 666.494 36.9161C663.647 37.0863 667.473 35.1704 662.719 34.8488C663.117 33.6882 667.32 33.6759 670.583 33.3927C670.11 32.0976 665.642 32.9864 664.414 32.1837C666.601 31.4076 670.575 31.1883 672.311 30.2726C669.932 30.0323 668.535 29.6691 670.052 28.9073C665.141 28.7715 667.273 27.0951 669.402 26.6554C671.874 26.5801 672.125 27.0949 674.839 26.9552C674.846 27.6124 675.567 28.2443 676.267 29.215C673.733 29.4571 675.716 28.4773 673.183 28.7228C673.204 29.3808 673.392 29.9856 676.241 29.881C677.389 28.9505 681.667 28.9659 684.111 28.4288C683.393 27.9567 680.095 28.1749 680.269 27.4796L681.435 27.3829L681.06 27.047C682.552 26.969 682.508 26.4196 684.982 26.6476C686.042 26.7984 685.049 27.511 686.491 27.5597C687.993 26.9434 692.814 26.9781 693.537 26.7638C692.546 26.1786 695.434 25.1668 698.31 25.0363L697.908 25.3693L699.074 25.2696C699.49 25.5969 700.254 25.8377 701.373 25.9728C701.499 24.5151 705.811 24.549 707.675 24.7159C705.331 24.3411 708.376 23.7464 707.762 23.1534C711.14 22.8982 712.702 23.1189 716.309 23.2657C716.643 24.1945 713.94 22.9356 714.715 24.1368C714.979 24.1446 715.222 24.1463 715.493 24.1573L715.077 24.4806C716.858 24.178 718.124 24.6628 719.736 24.7706L719.368 24.4308C721.194 24.4463 721.638 24.8461 724.02 24.7111C724.567 24.0473 726.561 23.8218 727.217 23.1925C725.926 23.171 724.628 23.1541 723.336 23.1398C722.89 22.2701 722.739 22.2096 724.201 21.5861C726.583 21.4575 727.007 21.8536 728.845 21.8654C728.634 21.3511 729.024 21.0102 729.691 20.7648C732.804 20.6641 732.786 21.4009 735.899 21.297C735.446 20.4021 736.95 20.1032 738.312 19.7589L739.478 19.8946L740.652 19.7941C743.112 20.467 740.804 21.6758 739.728 22.465C742.98 22.9553 738.864 24.057 741.156 24.7247C740.921 22.1477 751.652 22.9355 756.098 21.7931L757.285 21.9239C756.713 21.8077 756.332 21.7145 755.958 21.6359C755.986 21.2241 755.589 20.8526 754.909 20.4845C755.546 20.3039 756.476 20.2529 757.212 20.212C757.742 20.2892 758.399 20.7771 758.888 21.046L759.296 20.7198C762.042 20.3411 761.837 20.9225 763.921 21.2277C762.461 22.3245 762.287 22.5759 764.587 23.4786C764.872 24.0214 763.134 23.9467 763.742 24.5831C758.713 24.4097 757.638 25.4552 756.629 26.5001C753.17 26.124 751.354 26.4164 749.59 27.0763L748.411 27.172C748.999 27.411 749.78 27.7133 749.141 28.0782L750.312 27.9816C750.307 28.2062 750.287 28.4265 750.281 28.6544C747.051 28.4998 748.981 29.9231 746.305 29.9425C744.417 29.6171 747.745 29.2866 745.58 29.0333C743.768 30.7305 743.203 33.4335 734.421 33.5841C735.562 34.0115 737.641 34.184 738.248 34.755C737.221 34.7452 737.517 35.1391 736.66 35.1847L735.513 35.0529C735.799 35.2847 736.014 35.5097 736.252 35.7384L737.796 36.0538L737.425 35.6388C739.238 35.6648 741.049 35.6913 742.868 35.714C743.835 34.8346 747.397 34.4463 750.128 34.6886C751.283 34.7016 752.478 34.7305 753.54 34.7013C753.546 34.9272 753.373 35.0774 753.278 35.2599C753.848 34.9007 754.776 34.654 755.404 34.3214C754.525 33.8909 753.412 33.5278 752.36 33.1564L752.762 32.8263L751.596 32.923C751.747 32.3683 750.405 32.2171 750.107 31.7794C751.495 31.6046 752.533 31.3182 753.258 30.9337C751.501 30.744 750.979 30.2299 750.227 29.7687C751.774 29.1147 755.609 28.7095 753.444 27.5782C756.218 26.7951 759.904 27.5005 763.595 27.2706C764.003 27.6018 762.623 28.4209 764.299 28.4015C765.99 27.3811 764.701 29.1913 770.526 28.6984C771.595 29.3873 769.84 29.4547 771.217 30.0568L773.55 30.088C775.312 29.5912 774.274 29.4946 775.177 28.9855C776.975 28.94 778.154 29.0673 779.047 29.2706L778.638 29.5968C780.291 29.5344 781.693 29.8435 781.972 30.3175L782.896 29.9962C783.975 29.9982 784.609 30.1209 785.22 30.2443C786.467 29.8689 785.516 28.824 787.648 28.713C786.519 28.5058 785.203 28.3477 785.376 27.7853L785.76 27.5636L785.389 27.337C790.558 27.3143 784.538 26.3062 787.037 25.7931C785.671 25.7944 784.616 25.7116 783.933 25.5284C786.329 24.7459 786.138 23.1725 789.551 22.6964L790.697 22.8243L791.113 22.4943C792.677 23.46 796.204 24.0846 794.064 25.4425C795.104 25.1744 796.941 25.1969 797.951 25.4962C798.051 24.2812 803.346 23.7905 804.367 22.2286L805.533 22.129L805.171 21.7931C807.913 21.4944 807.201 20.1292 808.415 19.3673C806.368 19.4121 806.439 18.8826 806.128 18.4493C806.86 18.0656 807.919 17.7787 809.3 17.5968C810.635 18.8173 820.773 17.8998 821.03 16.632C825.377 16.4235 826.083 17.1779 827.982 17.6222C825.551 17.4839 825.885 18.1994 824.061 18.2384L822.895 18.1212L823.27 18.4571C822.048 18.4968 822.697 18.9338 823.222 19.13C823.493 19.1306 823.75 19.1385 824.001 19.132L825.161 19.2667L824.792 18.9249C827.295 18.7658 827.183 19.3089 828.653 19.4259C832.125 18.8835 833.515 17.3036 838.093 17.7609C838.664 17.0315 840.022 16.5321 840.539 15.7853C837.65 16.1685 836.145 15.3331 834.371 14.8038C834.972 15.8984 831.849 15.8512 831.154 16.5529C829.36 16.2483 826.638 16.5075 824.946 16.2413C824.818 16.229 824.514 15.6315 824.202 15.5626C822.527 15.1482 819.167 14.926 820.393 14.1642C823.01 13.7187 824.031 12.2114 825.958 12.2257C825.166 12.2166 824.992 11.824 825.984 11.7765C826.146 11.9558 826.607 12.0443 827.519 12.0196L827.111 12.3566L830.269 11.7286L829.094 11.5968C830.274 11.0447 830.656 10.2566 833.847 10.3214L834.218 10.6642L834.619 10.3312C836.474 10.6429 837.759 11.1052 837.649 11.9337L836.497 11.8136L839.574 12.3019L839.205 11.9562C843.991 11.5548 842.692 10.6342 846.331 10.0431C848.462 9.9067 847.866 10.5055 849.415 10.5314C849.486 9.72498 851.751 9.57631 854.905 9.71399C856.064 10.4374 855.125 10.6942 854.798 11.5001C850.313 11.797 848.898 13.0352 846.117 13.8478C847.534 14.1926 849.782 14.3301 849.134 15.2296C848.124 15.7827 845.342 14.9693 845.245 15.3966C843.814 16.0987 844.669 17.4987 843.51 18.2853C840.545 18.3587 839.504 19.0288 839.527 20.0226C837.866 20.6559 833.989 20.5995 833.978 21.7413C827.951 22.4818 825.904 24.2867 815.984 23.2833C814.918 23.964 816.16 23.924 815.898 24.8448C813.596 25.1312 812.739 25.8534 809.61 25.878C808.075 25.6351 806.915 25.2868 805.763 24.9347C804.845 25.0289 804.003 25.1468 803.409 25.3488C804.79 25.4202 807.33 25.1739 806.499 25.8409C805.3 26.3714 803.222 26.279 802.571 26.4601C803.568 27.4421 803.796 27.8264 804.012 28.4855C803.7 27.5422 801.015 30.5209 805.528 29.1837C808.463 28.3083 813.661 28.5488 816.482 28.213C817.282 29.1358 815.604 29.3034 814.069 29.5196C818.791 29.3937 821.957 30.3595 827.296 29.7023C828.353 28.8807 830.473 28.3969 832.853 27.9904C832.693 28.4696 835.608 28.123 836.728 28.2579C837.797 27.1725 842.043 27.6546 843.03 27.007C840.12 26.7005 834.835 27.1364 832.123 27.0734C831.521 26.6506 830.873 26.2417 830.641 25.7169C835.896 24.7101 843.902 25.2404 850.116 25.5314C851.621 26.1282 849.255 26.5536 850.827 26.8829C850.822 26.7381 850.832 26.5893 850.854 26.4405C853.836 27.2082 860.161 26.6891 858.683 25.6505C861.869 25.7512 863.542 24.7206 861.091 24.34C858.087 24.2549 858.002 25.0644 855.593 25.1573C852.503 24.9216 851.692 24.9097 848.595 25.0714C844.448 23.2469 851.063 21.6569 857.342 21.6036C857.602 21.3042 858.478 21.1924 858.179 20.7189C861.518 20.4786 862.027 20.7909 865.963 20.8253C865.508 22.2913 864.504 22.187 862.705 23.2482C865.845 23.5774 869.21 22.6755 872.103 22.2521C874.767 22.5651 877.992 22.7193 880.631 23.0363C879.691 22.3356 890.069 21.8056 892.329 22.7589C892.968 21.9934 894.555 21.5197 897.041 21.921C896.917 20.9292 898.916 21.5354 900.192 21.2931C900.696 21.1936 900.384 20.7381 901.003 20.6329C901.851 20.4855 902.743 20.3641 903.64 20.2491C903.682 20.244 903.723 20.2386 903.765 20.2335C905.905 19.9594 908.055 19.7082 909.651 19.1827C911.491 18.58 911.872 17.7694 913.66 17.2179C915.718 17.1329 915.923 17.4087 918.319 17.2872C918.459 17.2781 918.765 17.2278 919.125 17.1622C920.065 15.5976 919.202 13.2895 921.778 11.7657C924.44 11.5905 924.758 12.4265 927.698 12.1329L927.285 12.6622L928.114 11.9435C927.927 12.1861 927.739 12.4319 927.278 12.672L927.273 12.6779L928.536 12.4962C931.125 12.1494 931.186 10.7259 934.463 10.6759C935.2 11.8612 933.936 13.4339 935.301 15.0421C935.286 15.0434 935.276 15.0467 935.26 15.048C936.238 14.9694 937.028 14.9044 937.184 14.8751C937.383 14.9595 938.216 15.4267 938.692 15.3273C942.733 14.4212 941.941 12.6156 941.285 10.6573C944.47 9.61629 951.476 10.3761 949.719 12.7843C950.84 12.7499 951.066 12.4326 952.085 12.3702C953.31 13.3062 951.746 13.6324 952.742 14.6183C950.176 14.9008 945.76 14.6036 947.205 16.1124C944.774 15.932 944.396 16.3803 944.112 16.8595C944.708 16.803 945.394 16.7855 946.296 16.8614C946.197 16.9315 946.151 16.9876 946.067 17.0538C946.479 17.3189 945.984 17.8297 947.113 17.9025C947.552 17.6524 948.715 17.4813 950.032 17.378C949.954 17.2112 949.894 17.0472 949.683 16.8614C952.848 15.9249 953.839 16.0729 955.771 16.3839C955.757 16.3274 955.81 16.289 955.761 16.2247C958.991 16.8489 958.204 15.6547 962.015 15.8683C961.395 16.5474 964.119 16.3248 963.504 17.004L963.095 17.3341L965.462 16.9161L964.282 17.0167C964.026 16.4466 964.838 16.2127 965.884 16.047C966.242 15.1424 967.518 14.2965 968.275 13.4034L966.916 15.9786C969.04 16.3346 970.171 16.9612 971.341 17.5763C974.524 16.2116 977.003 14.7377 983.495 15.4054C981.116 18.4138 988.726 17.2358 993.639 17.589C995.849 21.2578 1000.9 16.2482 1005.49 19.4152C1004.46 19.4918 1004.96 19.8186 1005.49 20.1388C1003.72 20.5682 1001.94 19.1844 1001.26 21.2316C1004.05 21.1159 1006.45 21.1751 1007.17 21.964C1008.43 21.5314 1008.16 20.4492 1010.54 20.505C1011.55 20.6791 1012.47 20.8904 1013.09 21.2306L1012.66 21.7765L1013.93 21.5909C1016.34 22.7269 1020.27 21.4324 1021.54 20.8673L1021.8 21.1954C1021.84 20.9538 1022.02 20.7063 1022.49 20.4874C1022.8 20.342 1023.24 20.2679 1023.7 20.2062L1023.23 20.1378C1023.42 19.8572 1023.94 19.7187 1024.92 19.7745C1024.54 19.6472 1024.18 19.6172 1023.81 19.5802C1023.13 19.5984 1022.44 19.6046 1021.76 19.5851C1021.78 19.5487 1021.86 19.517 1021.88 19.4806C1021.08 19.4579 1020.38 19.3439 1019.85 18.6847L1020.27 18.3146L1020.7 17.9542C1022.3 17.1191 1025.83 17.2002 1027.56 17.9708C1028.24 17.9864 1028.93 18.0016 1029.63 18.129C1029.83 18.2581 1029.86 18.381 1029.82 18.4991H1032.11C1031.37 18.5874 1030.53 18.6495 1029.67 18.6632C1029.19 19.0437 1027.58 19.3406 1025.59 19.4894L1025.34 19.5919C1025.22 19.766 1024.98 19.9397 1024.75 20.1144C1025.17 20.0917 1025.59 20.0613 1026.08 20.0489C1026.95 19.7932 1027.26 19.8348 1027.15 20.0138C1028.36 19.9781 1029.66 19.9218 1031.09 19.714C1031.31 19.6789 1031.65 19.1262 1031.91 19.0509C1033.74 18.556 1037.69 18.5503 1038.93 18.9269L1038.51 19.2501L1039.69 19.1573C1039.92 19.4581 1040.77 19.5966 1040.42 20.0636C1039.38 20.3356 1037.53 20.3092 1036.53 20.0099C1035.63 20.7172 1033.54 21.0627 1031.77 21.5128C1031.76 22.4759 1029.97 22.8908 1028.07 23.2745C1027.79 23.3297 1027.52 23.3867 1027.25 23.4425L1027.46 23.7804H1025.78C1025.78 23.781 1025.77 23.7821 1025.77 23.7833C1025.13 25.2804 1028.65 26.0719 1030.84 25.2374V24.8712L1032.11 25.0558L1032.52 24.9972C1032.22 24.729 1032.05 24.4255 1032.41 23.9825C1035.21 24.0078 1036.08 23.441 1037.14 22.9298C1039.99 23.3819 1039.92 23.253 1044.13 23.2452C1044.16 22.114 1047.81 22.0935 1048.14 21.0568C1050.6 21.2016 1050.92 20.6995 1053.61 20.9073C1054.32 18.5503 1062.17 18.3812 1064.75 16.588C1059.84 16.3191 1056.44 17.6797 1053.86 16.4445C1051.13 17.4551 1055.54 17.4813 1056.9 17.6105C1051.92 18.5783 1051.64 20.9944 1042.71 20.7638C1044.88 19.4564 1044.94 17.6055 1041.38 16.7247C1041.4 16.4968 1041.42 16.2689 1041.43 16.0519C1044.88 15.6044 1052.78 14.5564 1049.36 13.4679C1049.95 12.9664 1054.72 13.7505 1054.06 12.8654C1056.47 12.7297 1055.52 13.4984 1057.93 13.3595C1056.65 12.9763 1057.38 12.0465 1057.26 11.34C1059.35 11.5224 1058.8 10.896 1059.64 10.6984C1062 10.7225 1063.59 10.9562 1064.26 11.4327C1063.31 11.4431 1062.42 11.476 1062.69 11.8566C1065.16 11.539 1066.09 12.0343 1068.89 12.172C1067.4 11.7303 1068.69 11.3466 1068.97 10.8263C1071.93 10.9874 1074.07 11.3614 1076.71 11.6095L1076.31 11.9357L1076.67 12.2745C1077.05 13.0726 1075.36 13.2359 1074.26 13.588C1074.76 14.2544 1077.33 14.3777 1080.45 14.3419C1081.99 14.5129 1079.9 15.6629 1082.73 15.4864C1081.57 14.459 1084.49 13.3054 1088.31 13.1027L1089.1 13.007L1089.88 12.8976C1093.27 14.218 1086.11 16.6633 1081.9 16.3751C1083.25 17.7982 1077.41 20.2526 1076.92 21.6749C1076.28 21.3525 1074.4 22.444 1073.81 22.9318L1073.77 22.9835C1074.53 23.0108 1074.77 23.1704 1075.44 23.2179C1075.62 23.2296 1075.8 23.2399 1076.05 23.2316C1076.06 23.2049 1076.11 23.1947 1076.12 23.17C1076.17 23.074 1076.28 23.0045 1076.38 22.9318L1075.65 22.6876C1076.7 22.1694 1078.56 21.9978 1080.73 21.964C1080.63 22.1508 1080.62 22.2981 1080.63 22.4396C1082.85 22.4552 1085.26 22.4919 1086.27 21.7989C1088.15 21.7346 1087.93 22.2369 1090.14 22.0812L1091.71 21.8829C1092.93 22.5914 1094.79 21.6304 1095.63 21.4835C1098.45 21.603 1099.99 22.0707 1100.21 22.8917C1099.28 23.206 1097.26 23.1991 1096.29 23.507C1096.3 23.5109 1096.31 23.5128 1096.32 23.5167C1097.31 23.9102 1098.84 24.1514 1100.91 24.2384C1100.96 23.8683 1101.06 23.4825 1101.25 23.1124C1101.9 21.8226 1103.74 20.7522 1109.64 21.4464C1111.06 20.5085 1114.71 20.9913 1118.22 21.1173C1117.65 21.7999 1117.66 21.5398 1118.16 22.2355C1120.71 22.4303 1124.04 22.414 1125.13 23.005C1124.96 20.2394 1131.81 19.127 1129.41 16.3497C1128.04 16.3439 1126.98 16.2652 1126.29 16.0821C1125.68 15.3555 1127.55 15.4031 1127.91 14.9796L1128.68 15.1085L1129.47 15.006C1130.97 14.9313 1131.45 14.5527 1133.38 14.6066C1131.41 15.7458 1133.4 17.0896 1133.17 18.4113C1135.05 18.3464 1134.84 18.8399 1137.04 18.6847L1136.64 19.0148L1138.64 18.1515L1137.85 18.2511C1138.15 17.5139 1140.16 17.2922 1139.52 16.255C1141.09 16.0564 1142.86 15.9177 1143.46 15.423C1140.91 12.5177 1143.44 11.23 1145.41 8.50793C1151.64 8.36831 1153.12 6.76929 1160.28 6.92199C1161.57 8.21925 1156.95 7.72261 1157.08 8.66418C1161.74 8.65054 1155.22 11.8982 1155.26 13.1193C1147.71 13.7688 1153.21 17.339 1149.49 18.8595C1145.55 18.6334 1143.82 17.7969 1139.41 18.2736L1138.64 18.1515C1138.37 18.3565 1138 18.6285 1136.64 19.0157L1136.64 19.0187L1137.82 18.921C1136.06 20.2746 1133.74 21.4656 1129.85 22.171C1129.02 23.4231 1131.92 24.5789 1129.66 25.5265C1138.71 26.7423 1137.16 22.8467 1143.85 22.5861C1143.82 23.179 1143.34 23.8961 1145.32 23.9532C1153.39 23.5362 1154.82 21.0921 1159.58 19.671C1157.21 19.2787 1154.21 19.0527 1154.23 18.0265C1157.67 17.6186 1156.26 16.8614 1158.21 16.2931C1158.93 16.9061 1160.1 17.3955 1162.83 17.4728C1166 17.1117 1165.57 16.5307 1166.03 15.7306C1168.76 15.8001 1171.85 15.9887 1170.75 14.8956C1173.58 14.7189 1171.33 15.908 1173.81 15.8361C1174.38 15.1437 1175.9 15.5673 1177.72 15.6622C1177.67 16.2583 1177.64 16.8519 1177.61 17.4552C1179.08 17.417 1179.31 17.726 1180.71 17.7169C1181.15 18.1164 1178.38 18.6146 1180.65 18.838L1180.24 19.1642C1181.5 19.0667 1182.8 18.9075 1184.14 18.9933L1183.78 18.6505C1185.29 17.7518 1190.92 18.106 1193.94 17.6671C1195.43 18.9512 1199.88 18.467 1204.81 18.4904C1205.06 20.7648 1198.87 21.0807 1193.72 21.6964C1197.68 21.586 1195.85 23.0301 1199.87 22.8937C1197.94 21.1121 1205.54 20.1337 1210.92 20.589C1210.88 20.1915 1211.13 19.8929 1211.75 19.7013C1218.14 20.4054 1218.75 19.2816 1223.46 18.964C1225.64 19.1848 1226.62 19.7361 1229.65 19.7198C1229.62 19.3273 1229.87 19.0241 1230.48 18.8331C1234.13 18.8818 1238.44 18.7495 1238.21 19.8361C1237.76 20.6075 1233.52 20.2188 1234.23 21.3566L1232.81 21.214L1234.06 22.128L1234.99 21.8068C1236.04 21.8925 1236.45 22.1476 1238.08 22.0782C1238.08 22.0022 1238.09 21.9257 1238.1 21.8497L1239.5 21.9806C1239.35 21.5152 1239.87 21.2991 1240.31 20.9083L1238.92 20.9698C1239.53 20.3197 1240.87 19.8926 1242.12 19.4445C1242.5 20.4375 1246.24 20.5404 1247.47 21.3068C1246.49 22.2213 1243.61 21.2349 1241.24 21.2218L1240.31 20.9073L1240.31 20.9083C1239.87 21.2995 1239.35 21.515 1239.5 21.9816H1239.51L1240.44 21.6603C1241.57 21.8643 1243.45 21.8752 1242.72 22.5812C1239.87 23.2274 1236.05 23.5755 1234.05 24.4835C1230.75 24.3003 1228.6 24.4808 1229.33 25.5382C1230.61 25.1693 1232.61 25.0232 1235.57 25.17C1235.73 25.422 1236.41 25.533 1237.09 25.6407C1237.51 26.3734 1236.5 26.671 1236.24 27.1945C1238.75 27.0431 1237.87 27.0269 1239.34 27.462C1239.5 24.8119 1244.32 24.8724 1248.88 23.7833C1251.84 24.097 1250.49 25.5647 1253.45 25.8673C1255.42 25.3283 1256.49 26.1619 1258.87 26.1632C1268.48 25.5371 1265.67 21.1134 1271.72 19.3966C1273.4 19.6811 1274.51 20.1094 1276.34 20.3556C1276.32 21.1655 1275.8 22.1147 1277.78 22.3888C1279.17 22.055 1279.44 21.3868 1281.73 21.3282C1282.83 21.3951 1283.02 21.7109 1284.03 21.8077C1283.51 22.9411 1280.37 24.4625 1281.51 25.3497C1285.63 24.7898 1289.06 24.0206 1293.29 23.4952C1293.3 23.1913 1293.32 22.8978 1293.34 22.5978C1292.56 22.592 1291.78 22.5762 1291.01 22.5743C1291.14 22.1541 1291.55 21.8237 1292.61 21.6964C1293.42 20.5312 1294.78 19.9222 1295.13 18.3712C1297.07 18.3712 1297.52 18.7563 1299 18.8771C1297.46 20.5644 1299.63 20.821 1305.14 20.5236L1306.29 20.6515L1307.46 20.5558C1313.42 21.4605 1315.85 19.329 1316.19 17.7677C1319.1 17.5683 1318.68 18.2662 1320.04 18.4786C1321.08 20.4789 1318.11 21.2322 1317.47 22.7071C1310.88 23.4177 1308.95 25.558 1304 26.7706C1304.27 27.4266 1304.83 27.8826 1304.37 28.4015C1305.92 28.193 1307.44 27.9362 1308.51 28.3595C1308.95 28.3024 1309.47 28.2686 1310.04 28.2491C1309.98 28.2127 1309.86 28.1995 1309.84 28.1456C1310.85 27.9631 1312.26 28.1944 1312.84 28.4464C1313.24 28.6237 1313.25 28.8098 1312.38 28.8722C1312.38 28.6965 1312.14 28.6162 1311.85 28.5636C1311.72 28.5402 1311.57 28.5238 1311.41 28.5109L1311.29 28.628L1312.45 28.9044C1311.88 29.298 1309.37 29.4033 1307.79 29.1857C1307.67 29.2201 1307.56 29.2615 1307.31 29.2394C1307.25 29.1676 1307.18 29.1338 1307.11 29.0782C1307.08 29.0692 1307.02 29.0675 1306.99 29.0577C1306.99 29.0382 1307.03 29.0287 1307.03 29.0099C1306.09 28.2994 1304.36 29.0151 1303.03 28.8009C1301.01 28.8308 1301.18 28.2686 1299.25 28.2784C1300.1 28.9948 1298 28.8059 1297.64 29.1495C1300.41 29.1105 1299.58 28.5633 1302.32 28.9874C1302.75 29.3947 1301.31 30.2924 1303.02 30.338C1306.73 30.0503 1310.16 30.2893 1313.09 31.1486C1315.73 30.4212 1320.42 31.4662 1321.73 30.1544C1326.23 30.902 1325.7 30.0084 1331.07 30.0519C1332.2 31.5238 1327.77 31.314 1326.3 32.003C1331.03 31.9744 1344.8 31.3438 1348.01 33.4142C1346.16 34.7437 1337.36 35.1586 1338.48 36.6417C1342.41 36.6261 1342.93 35.5725 1347.11 35.6407C1347.35 36.8945 1352.54 36.8213 1353.21 37.963C1353.72 36.9673 1354.03 36.0423 1353.36 35.2726C1353.05 34.9258 1351.65 34.7859 1351.85 34.3605C1352.95 32.0069 1359.61 31.7321 1366.81 31.4327C1366.93 31.4281 1366.71 30.9936 1366.83 30.9845C1369.04 30.804 1371.25 31.1508 1373.08 30.8448C1373.67 30.7442 1374.01 30.2702 1374.67 30.2013C1377.16 29.9129 1381.97 30.2852 1382.51 29.1837C1382.33 28.8636 1380.82 28.9097 1380.19 28.7032C1377.46 29.606 1372.69 29.8913 1369.96 30.8077C1367.92 29.5199 1361.21 31.1758 1358.3 30.421C1361.12 27.5736 1372.62 27.3699 1378.82 25.5499C1378.45 25.2791 1378.03 25.0355 1377.31 24.8595C1370.29 25.257 1363.9 25.6839 1357.01 25.4806C1357.14 24.6838 1358.31 24.2008 1358.7 23.4884C1363.5 22.7577 1369.95 22.5396 1372.84 21.2159C1379.64 20.669 1384.61 21.0456 1390.76 21.0118C1390.37 20.6762 1389.64 20.4396 1389.25 20.1046C1397.06 20.8178 1395.8 18.7645 1402.54 19.1613C1403.2 19.9387 1403.67 20.7678 1405.54 21.2159C1405.57 20.9161 1406.92 21.0272 1407.12 20.7902C1407.12 20.4246 1404.97 20.6403 1404.82 20.3097C1406.67 20.4688 1410.46 20.1013 1411.03 20.6222L1411.01 20.8458L1411.79 20.8585C1409.42 21.5138 1415.07 22.3648 1412.44 23.1027L1411.27 23.1954L1411.65 23.5382C1409.24 24.6683 1404.41 27.2168 1408.26 28.1886C1409.41 27.402 1411.7 26.9683 1414.57 26.7111C1414.7 27.5986 1419.64 26.4979 1419.99 27.4552L1419.57 27.7814L1420.74 27.9132C1420.9 28.5231 1417.87 29.6511 1418.72 30.5577C1419.57 30.457 1420.43 30.3584 1421.45 30.3292C1421.62 30.557 1421.73 30.8208 1421.84 31.0773C1425.1 30.6122 1428.49 30.7558 1431.62 30.7902C1431.61 30.759 1431.57 30.7249 1431.58 30.6964C1432.75 30.7126 1433.44 30.5208 1434.13 30.3292C1434 30.5227 1434.08 30.6291 1434.08 30.7667C1435.69 30.7128 1437.21 30.5629 1438.52 30.1681C1438.95 28.5521 1440.9 27.4095 1444.17 26.6671C1441.28 26.4437 1444.04 25.8812 1445 25.5558L1445.89 25.9113L1446.85 25.8488C1446.6 25.3748 1446.65 24.9718 1448.49 24.8712C1449.03 25.144 1449.39 25.5785 1449.71 26.0714C1450.65 26.1064 1451.47 26.1731 1451.98 26.3224C1451.9 26.9102 1451.41 27.403 1450.64 27.7726C1451.04 28.5448 1451.54 29.263 1452.33 29.7462C1454.57 29.4793 1456.16 29.0158 1457.29 28.4093C1455.53 27.4895 1457.23 25.6372 1452.01 25.6495C1452.03 25.2774 1452.06 24.9084 1452.07 24.5363C1454.33 24.3155 1456.91 24.199 1459.87 24.1905C1459.35 25.0674 1461.56 25.2018 1463.71 25.3654C1463.82 25.757 1463.84 26.1074 1463.78 26.4347C1463.96 26.9098 1464.87 27.0734 1465.91 27.1837C1466.81 26.868 1467.89 26.5894 1469.09 26.3341C1468 24.5721 1467.32 22.6966 1463.92 21.5607L1462.99 21.2462C1462.51 21.4112 1462.01 21.6048 1461.19 21.7081L1462.33 21.9874C1462.32 22.2081 1462.31 22.4396 1462.3 22.6564C1461 22.6421 1459.7 22.628 1458.41 22.6066C1458.88 21.9941 1458.43 21.0958 1461.6 21.3126C1460.97 20.5824 1463.64 20.87 1464 20.4435C1462.46 19.3153 1457.49 19.1115 1454.76 18.3048C1454.36 16.9428 1447.21 15.8094 1451.86 14.463C1453.4 14.4163 1453.38 14.7853 1454.17 14.9425C1464.82 13.4915 1477.33 12.6221 1491.69 12.3175C1492.28 13.0982 1490.49 13.1591 1490.84 13.8741C1492.3 13.8397 1492.53 14.1511 1493.92 14.1388C1494.69 13.6932 1496.48 13.5496 1497.88 13.2989C1497.9 12.775 1497.93 12.2542 1497.96 11.7335C1500.34 11.6017 1500.78 11.9977 1502.61 12.0275C1507.58 10.1206 1510.02 7.46156 1520.02 7.10949L1519.62 7.43274L1520.79 7.34289C1518.58 10.2267 1507.87 10.5157 1505.65 13.4025C1510.1 13.7713 1515.82 13.4023 1519.69 12.9171C1522.46 14.7072 1514.07 14.1524 1514.08 15.7501C1514.85 16.3515 1517.12 16.5537 1517.89 17.1446C1516.96 17.4655 1515.61 17.6624 1515.49 18.2345C1520.78 18.7197 1525.62 19.325 1528.61 20.4259C1540.8 20.8934 1535.51 16.0178 1545.23 15.7267C1546.75 16.573 1544.67 17.0447 1545.07 18.1573L1546.66 17.9835C1546.4 18.0692 1546.16 18.1445 1545.93 18.2413C1545.24 18.2855 1544.58 18.307 1543.91 18.2823L1545.08 18.4103C1543.9 19.0416 1539.95 18.8156 1540.33 19.9132C1543.62 20.3497 1547.44 19.7239 1550.42 20.4962C1551.02 21.1391 1549.28 21.0614 1549.57 21.6036C1553 21.6369 1551.73 22.9308 1556.52 22.6017C1557.36 21.1461 1560.81 19.4088 1564.47 19.5763C1565 20.257 1563.1 20.2065 1563.63 20.9054C1564.98 20.9002 1566.05 20.9853 1566.72 21.1691C1566.91 20.9938 1566.77 20.7287 1567.53 20.7345L1568.41 21.0782C1568.7 20.8217 1569.35 20.5684 1570.59 20.3048L1569.13 20.0792C1569.46 19.8078 1570.15 19.6381 1571.49 19.6661C1572.1 19.7207 1572.37 19.8625 1572.22 20.1241L1570.71 20.3009C1571.74 20.3249 1573.1 20.3773 1574.15 20.4845L1573.79 20.1417C1574.31 20.1508 1574.83 20.1597 1575.34 20.1681C1575.69 19.6298 1573.95 19.6632 1574.64 19.0343C1577.02 19.2382 1576.17 18.445 1578.55 18.6456C1579.44 19.5647 1580.83 20.0118 1584.71 19.6202C1585.41 22.1604 1577.4 23.8601 1570.42 24.7999C1568.24 24.4342 1572.45 23.888 1570.48 23.6788L1570.88 23.3527C1570.11 23.343 1569.33 23.2936 1568.55 23.2443L1568.93 23.6525C1567.11 23.633 1565.29 23.6068 1563.48 23.5802C1563.42 23.7218 1563.34 23.8489 1562.69 23.795L1561.8 23.4435C1561.12 23.8999 1560.23 24.0912 1559.15 24.3126L1560.31 24.4366C1560.64 25.1413 1558.18 24.9959 1557.91 25.5265C1559.33 26.0962 1558.62 27.2423 1560.12 27.7892C1563.69 26.9391 1562.35 28.8227 1564.72 28.9728C1567 29.0592 1567.15 28.5007 1569.42 28.587C1572.44 29.3333 1567.03 30.1316 1568.54 30.3673C1574.32 30.7674 1572.14 28.7406 1576.42 28.6847C1578.89 28.6126 1576.94 29.7183 1578.69 29.8321C1581.83 28.9539 1588.46 27.9757 1592.74 29.3507C1590.52 31.3207 1599.11 32.8487 1592.51 33.3761C1591.23 33.3578 1592.11 32.7485 1590.99 32.6886C1590.06 32.7822 1589.21 32.9004 1588.64 33.1056C1588.53 33.7138 1589.9 33.5676 1588.59 33.9943C1590.14 34.4066 1590.12 33.8476 1591.68 34.2638C1590.02 35.5692 1587.8 36.7151 1586.02 37.9855L1585.61 38.2101C1586.39 38.2484 1587.17 38.2689 1587.94 38.3468L1587.58 38.0109C1594.02 37.677 1589.89 35.4219 1597.09 35.2316C1598.36 35.2498 1597.47 35.8599 1598.59 35.9269C1599.6 35.8145 1598.96 35.1916 1599.99 35.0851L1600 44.3986C1600 44.8707 1599.99 45.7654 1599.99 46.0001H1600V0.000118256H536.852C538.297 -0.00426865 539.299 0.11277 540.085 0.287228C540.441 1.30237 538.859 1.72821 535.339 1.56262L535.741 1.22863L534.589 1.10461C534.94 0.685104 536.288 0.568302 536.204 0.00988388C536.429 0.00411987 536.645 0.000743866 536.852 0.000118256H0V25.6603C0.950351 25.6395 1.85023 25.8314 1.92188 26.3253C1.39797 26.4897 0.757957 26.6051 0 26.67V46.0001H0.00195312V31.4962ZM986.156 1.87024C986.078 1.31424 986.075 0.778328 987.778 0.770626C987.751 1.21543 989.883 1.08271 989.273 1.68567C988.227 1.73696 987.775 1.98519 986.156 1.87024ZM534.001 1.58508C534.462 1.42098 534.896 1.24223 535.741 1.22863L534.001 1.58508ZM1486.82 1.9552C1486.8 1.66721 1485.85 1.62687 1486.09 1.27063C1486.61 1.27913 1487.13 1.28691 1487.65 1.29211C1487.66 1.57721 1488.62 1.61716 1488.39 1.97766C1487.86 1.96537 1487.35 1.96039 1486.82 1.9552ZM870.011 4.09582C865.77 3.98468 865.35 2.85494 864.688 1.78527C868.044 1.69637 867.815 2.55924 870.883 2.53918C870.841 3.13284 871.104 3.82305 870.011 4.09582ZM1495.68 10.5753C1494.22 9.50394 1489.04 9.43976 1489.61 7.80774C1484.94 7.38424 1481.7 6.56095 1475.66 6.50305C1475.55 4.87466 1483.31 5.66074 1483.59 4.14758C1487.36 4.08268 1492.01 4.29736 1493.75 3.61926L1494.89 3.74133L1494.54 3.39856C1495.56 3.10886 1497.93 3.23355 1499.99 3.25305C1501.56 5.42474 1504.45 6.90217 1505.9 8.92785C1503.63 9.56305 1504.59 8.35292 1502.04 8.42492C1500.75 9.39724 1498.75 10.146 1495.68 10.5753ZM486.878 4.7091C486.929 4.39807 486.537 4.22073 486.146 4.02649C487.192 3.97513 487.653 3.73572 489.271 3.8507C488.919 4.2742 488.929 4.8084 486.878 4.7091ZM1182.25 4.30481C1182.04 4.701 1182.96 5.43928 1180.63 5.17688C1180.45 4.66568 1180.88 4.34251 1182.25 4.30481ZM521.114 5.17199C524.749 6.43907 517.403 4.71557 521.134 4.95129C521.182 4.95459 521.066 5.16159 521.114 5.17199ZM845.799 5.55676C845.312 5.62042 842.766 6.07998 842.686 5.50988C844.06 5.33131 845.133 4.80569 845.799 5.55676ZM877.984 7.66906L876.81 7.76965C877.995 6.91425 878.161 5.75216 880.833 5.35656L881.735 5.71203L883.165 5.61633C884.766 6.8992 881.522 9.76112 877.582 8.00305L877.984 7.66906ZM1012.29 8.04406C1006.37 8.16616 1003.82 7.38517 1004.63 5.70227C1010.55 4.59097 1013 6.46056 1012.29 8.04406ZM1134.66 5.89856C1134.67 5.75404 1134.68 5.60582 1134.68 5.45422C1135.2 5.45872 1135.72 5.47121 1136.23 5.47961C1136.22 5.62347 1136.21 5.77532 1136.21 5.92688C1135.69 5.91198 1135.18 5.90696 1134.66 5.89856ZM867.592 5.62707C867.401 6.02327 868.31 6.76126 865.977 6.49817C865.798 5.9943 866.22 5.66409 867.592 5.62707ZM1060.95 7.91613L1059.78 8.00891C1057.95 7.62821 1055.74 7.34215 1055.2 6.61145C1057.63 5.83221 1064.9 6.31357 1064.48 7.63391C1064.44 8.00235 1062.31 7.72732 1062.12 8.04699L1060.95 7.91613ZM527.267 6.60559C528.022 7.36359 524.818 6.91929 523.346 6.99719C522.843 6.21136 526.121 6.23219 527.267 6.60559ZM1034.89 7.67492C1032.22 7.8099 1031.89 6.78429 1034.16 6.77649C1034.39 7.07373 1035.24 7.21644 1034.89 7.67492ZM524.018 9.01672C519.216 10.0174 517.873 7.44247 514.734 7.99817C515.007 7.48986 514.652 7.139 514.022 6.86828C519.152 7.10208 522.956 7.6881 524.018 9.01672ZM897.494 13.8732C894.574 13.9173 893.533 12.7948 895.261 12.2726L896.664 12.4015C896.532 12.2547 896.472 12.1065 896.428 11.9474L895.267 12.048C890.151 10.5126 895.727 8.97484 894.764 7.1134C895.827 7.1413 896.472 7.03245 897.11 6.92785C897.845 7.50127 899.57 8.23669 897.023 8.49328C903.617 8.58429 898.78 11.0933 897.594 12.0792C900.805 12.3826 897.453 13.1866 897.494 13.8732ZM1477.13 8.08703C1476.73 7.54216 1472.11 8.12897 1472.51 7.35168C1473.94 6.79708 1478.59 7.91883 1477.13 8.08703ZM657.534 16.2091C654.433 16.4897 652.158 16.172 647.424 16.0636C647.431 15.8468 647.444 15.6157 647.457 15.3917L648.631 15.3019L648.269 14.9591H648.289L647.773 14.4523C648.049 14.6191 648.298 14.7861 648.445 14.9503C653.701 14.6846 654.248 11.3855 651.613 10.7501C653.402 10.4658 654.506 11.3716 654.73 10.7911C653.058 9.38623 652.439 7.5218 659.57 7.7218C658.198 8.81107 662.422 9.44476 659.424 10.4113C662.963 10.3425 660.628 11.7171 661.683 11.7882C663.663 11.3322 665.084 10.7011 668.742 10.753C668.837 12.306 665.957 12.9389 665.431 14.297C662.213 14.5334 660.393 13.369 658.471 13.5314C660.092 13.9074 661.243 14.3955 660.698 15.3488C657.239 15.6267 658.706 14.5655 656.072 14.6134C654.471 15.7267 657.14 15.2445 657.534 16.2091ZM1057.45 7.98156C1057.83 9.41576 1050.94 7.91178 1055.12 7.72668C1054.94 8.58434 1055.76 7.81988 1057.45 7.98156ZM245.405 8.12512C245.196 8.96027 242.724 9.08591 242.871 8.48938C242.932 8.25819 245.635 7.2635 245.405 8.12512ZM1037.11 9.72375C1034.52 9.65235 1032.33 7.99703 1034.87 7.89953C1035.35 8.57997 1037.82 8.72178 1037.11 9.72375ZM1136.8 9.28625C1136.27 9.28105 1135.76 9.27255 1135.24 9.25695C1135.27 9.04009 1134.63 8.98918 1134.5 8.80676C1135.49 8.81006 1135.58 8.53808 1136.85 8.62121C1136.83 8.83798 1136.81 9.0623 1136.8 9.28625ZM752.876 10.1144C750.047 10.4573 746.628 10.4743 743.565 9.53332C746.384 9.3495 744.447 8.82182 747.506 8.70031C748.444 8.66072 751.269 9.08369 752.93 9.21692C752.911 9.51371 752.888 9.81428 752.876 10.1144ZM845.584 9.36145C845.468 8.86816 846.246 8.65324 847.957 8.72082C847.943 8.9371 847.917 9.16898 847.91 9.38977C847.132 9.37997 846.368 9.37055 845.584 9.36145ZM321.501 11.4015C317.447 13.1519 304.255 11.9291 308.823 8.85168C313.811 9.25117 319.386 9.39711 320.65 11.4015C320.65 11.2002 321.339 10.9884 321.501 11.4015ZM1071.33 10.4113C1068.93 10.2431 1065.82 10.2783 1065.93 9.43957C1067.46 8.43543 1072.39 9.35783 1071.33 10.4113ZM834.629 9.88391L833.872 9.8634C832.999 9.8121 832.668 9.60224 832.331 9.40344C833.8 9.24564 835.207 9.0677 837.03 9.0216C837.362 9.7266 836.003 9.91919 834.631 10.1075L834.629 9.88391ZM304.593 10.6749C303.694 9.75008 306.376 8.59752 307.134 9.58117C305.174 9.46957 306.188 10.6353 304.593 10.6749ZM1535.44 9.77551C1534.29 11.0966 1530.51 12.8052 1526.72 12.5675L1526.35 12.2247L1525.18 12.3243C1524.21 11.3457 1527.43 11.6479 1528.34 11.2472C1526.12 10.0476 1529.82 9.47851 1533.12 9.29602L1534.13 9.60656L1535.44 9.77551ZM1007.95 13.1427C1005.94 13.2706 1006.83 14.279 1003.39 13.9679C1003.79 12.2429 1004.12 11.6251 1003.62 9.71496C1007.55 8.61155 1010.88 10.4164 1009.73 12.0382C1012.97 11.5602 1017.91 12.2486 1018.22 13.2677C1014.26 13.6241 1012.52 12.7908 1008.91 12.4738C1008.9 12.6185 1008.9 12.7707 1008.89 12.9181L1007.73 12.7941C1008.3 12.9102 1008.67 12.9971 1009.04 13.0724C1009.34 13.3653 1009 13.6906 1008.44 13.921L1007.95 13.1427ZM642.738 9.39856C645.223 10.2202 644.953 11.5167 648.276 12.129C648.388 12.2466 648.446 12.38 648.254 12.4904C647.129 12.6189 646.547 12.7884 646.315 12.9825L642.738 9.39856ZM878.715 15.4073C878.637 17.2835 870.62 18.3358 869.33 16.1749C866.831 16.8939 861.895 15.5231 859.201 16.2628C859.331 15.043 854.389 15.2115 855.459 13.7501C857.566 13.4481 860.528 13.905 862.485 13.171C861.347 12.8918 860.632 12.5026 858.643 12.4454C858.679 11.8454 858.708 11.2522 858.743 10.6593C859.35 10.6158 860.278 10.6699 860.306 10.4562C862.583 10.4302 862.969 10.9145 864.16 11.1788C865.648 10.1215 869.162 9.6768 873.592 9.5177C875.058 10.3275 873.279 10.7381 871.944 11.2882C875.127 11.5047 872.015 14.0194 874.069 15.1202C872.371 15.0526 871.573 15.2679 871.69 15.755C875.683 16.1465 875.071 15.1203 878.715 15.4073ZM269.086 9.58117C270.573 11.2095 264.612 10.8895 264.862 9.94836C265.842 9.63792 267.126 9.46559 269.086 9.58117ZM798.763 11.1818C798.125 10.625 798.068 9.65803 801.177 9.65149C802.144 10.3121 801.839 11.1753 798.763 11.1818ZM575.323 10.3878C575.22 9.90461 576.011 9.68554 577.696 9.74914C577.819 10.2395 577.021 10.4554 575.323 10.3878ZM551.538 17.8966C548.03 18.3422 542.929 19.9361 538.264 18.6163C540.003 16.6593 534.14 15.2941 533.108 13.3937C538.533 12.2086 543.396 15.131 541.496 16.6378C543.956 16.4182 543.353 17.0176 544.587 17.1339C546.079 16.2278 543.357 14.9755 545.531 14.0148C540.673 13.1991 540.54 11.5528 541.073 10.1486C548.998 10.0291 544.656 13.2452 549.459 13.3927C548.5 14.2636 550.352 14.9903 547.777 15.6046C551.061 15.8197 551.411 16.8321 551.538 17.8966ZM1484.77 10.8761C1484.26 10.2676 1486.4 10.4597 1487.14 10.2345C1487.25 10.7288 1486.47 10.9436 1484.77 10.8761ZM769.918 11.6915C767.838 12.2279 762.378 12.2466 762.951 10.9181C765.329 10.6667 769.372 10.924 770.767 10.3585C771.055 10.6806 771.679 10.7456 770.736 11.0275L769.553 11.2687L769.918 11.6915ZM1083.66 12.5948C1081.47 12.5222 1078.32 12.7165 1078.25 12.0675L1078.65 11.7413L1077.48 11.6134C1079.13 10.3588 1083.08 11.2025 1086.13 10.3868C1085.77 10.9187 1087.51 10.8948 1086.84 11.5138C1083.34 11.128 1085.11 12.3506 1083.66 12.5948ZM814.365 10.4982C814.551 11.0956 814.028 11.4588 811.984 11.3634C812.002 11.0668 812.02 10.7628 812.032 10.4669C812.809 10.4799 813.587 10.4891 814.365 10.4982ZM822.087 11.7257C820.209 11.7907 820.411 11.297 818.212 11.4484C817.096 10.3156 824.455 10.25 824.466 10.8566C823.317 11.0391 821.981 11.1632 822.087 11.7257ZM1523.7 10.9532C1522.2 11.0357 1522.25 11.5731 1519.78 11.3517C1519.25 10.3711 1522.86 10.3772 1523.7 10.9532ZM950.58 11.2374C950.594 11.0029 950.607 10.7816 950.627 10.5607C951.398 10.5698 952.183 10.5832 952.96 10.5929C953.077 11.0793 952.286 11.2978 950.58 11.2374ZM303.742 11.7648C303.113 12.5876 299.01 11.9072 296.99 12.132L297.402 11.464L296.132 11.0382C297.571 10.3244 304.255 10.4372 303.742 11.7648ZM1089.54 11.8878L1088.37 11.9874C1088.38 11.7596 1088.4 11.5356 1088.41 11.3116C1091.36 11.2778 1093.7 10.1921 1096.99 10.9825C1097.41 11.7904 1096.03 12.0523 1095.35 12.5226C1092.47 12.266 1093.34 12.0221 1089.92 12.2306L1089.54 11.8878ZM780.632 15.1905C779.034 13.5967 783.98 12.1562 789.36 11.9542C790.598 11.9875 789.952 12.5324 791.678 12.4298C791.171 11.7347 791.159 11.995 791.746 11.3126C793.224 11.2379 793.726 10.86 795.662 10.921C797.259 11.4731 796.035 12.5425 794.005 12.6886C794.295 13.5342 792.298 13.6838 790.814 13.9825L789.628 14.0831L790.017 14.422C785.777 14.3435 784.476 15.1495 780.632 15.1905ZM335.87 16.1349C333.95 15.9563 331.558 15.4107 329.956 16.1349C327.624 13.9779 328.273 15.2686 323.191 15.7706C324.752 13.2244 319.475 15.5131 317.271 14.3146C317.426 12.7856 320.488 12.1091 322.34 13.2218C323.894 12.5943 324.881 11.5136 322.34 11.0382H328.267C327.611 12.293 328.733 12.7749 331.653 12.4943C331.707 13.1282 331.457 13.624 330.802 13.9513C333.112 13.9176 332.504 14.5554 334.188 13.9513C334.668 14.7104 336.283 14.9919 335.87 16.1349ZM297.402 11.464C293.314 11.8342 288.982 12.5928 284.845 11.84L293.501 11.5802C293.646 11.2992 294.147 11.1328 294.98 11.0587C294.961 11.282 295.574 11.3265 295.727 11.5148L297.402 11.464ZM624.249 12.6202C621.235 12.6254 618.876 12.4538 619.649 11.4405C620.569 11.2601 621.75 11.1742 623.559 11.2696C624.425 11.5449 624.395 12.0657 624.249 12.6202ZM777.607 13.3595C774.795 13.3842 774.64 12.692 772.204 12.6114C772.187 12.3081 772.594 12.1299 773.021 11.9552L774.438 12.0841L769.553 11.2687C771.149 11.5617 773.936 11.3995 774.438 12.0841L775.367 11.7628C777.233 11.9908 777.37 12.6898 777.607 13.3595ZM1038.53 11.9777C1038.5 11.8407 1038.43 11.7111 1037.77 11.7443C1037.88 11.4722 1038.03 11.2173 1039.35 11.3185C1039.21 11.5795 1039.46 11.9562 1038.53 11.9777ZM1120.28 12.1954C1120.42 11.6235 1121.47 11.3436 1123.44 11.339C1123.42 11.6391 1123.41 11.9324 1123.39 12.2325C1122.35 12.226 1121.32 12.2084 1120.28 12.1954ZM275.85 12.4943V11.4015C277.775 11.2995 279.02 11.4901 279.236 12.131C277.635 12.0452 277.364 12.5404 275.85 12.4943ZM939.529 12.131C937.603 12.233 936.346 12.0393 936.143 11.4015C937.643 11.4873 940.386 11.0351 939.529 12.131ZM751.945 12.7853C751.954 12.6407 751.964 12.4926 751.972 12.3409C752.75 12.35 753.534 12.3631 754.305 12.3761C754.296 12.5199 754.287 12.6721 754.279 12.8165C753.513 12.8067 752.729 12.7976 751.945 12.7853ZM354.468 12.8575C355.347 14.0799 351.846 13.4228 350.244 13.5812C349.65 12.3297 353.211 12.2803 354.468 12.8575ZM1042.38 12.7003C1042.21 13.3232 1040.98 13.6406 1038.45 13.547C1037.96 12.7139 1039.73 12.5711 1042.38 12.7003ZM1127.92 14.4864C1126.92 13.9774 1125.46 13.582 1125.83 12.8263L1127.92 14.4864ZM271.627 15.4044C268.41 15.0842 270.045 12.5743 273.317 12.8575C273.451 14.05 275.27 15.2095 271.627 15.4044ZM647.773 14.4523C646.939 13.9301 645.841 13.4002 646.315 12.9825L647.773 14.4523ZM771.319 14.3927C770.412 14.5693 769.226 14.6585 767.411 14.5597L767.049 14.2238L765.875 14.3175C765.493 13.5231 766.598 13.1775 768.282 13.0099C769.573 13.4003 771.404 13.6327 771.319 14.3927ZM191.3 15.0411C187.785 16.3751 184.23 13.5015 188.765 13.2208C189.529 13.8684 190.813 14.2845 191.3 15.0411ZM358.705 14.3146C359.158 13.7859 355.407 13.4254 357.86 13.2208C357.752 13.5943 361.503 13.9613 358.705 14.3146ZM749.552 13.8712C749.568 13.7196 749.576 13.5788 749.578 13.42C750.099 13.4356 750.612 13.4399 751.134 13.4484C751.125 13.5999 751.115 13.7482 751.114 13.8927C750.594 13.8842 750.073 13.8757 749.552 13.8712ZM165.09 18.3136C164.002 18.3403 163.915 18.7862 162.563 18.6837L162.982 18.1359L161.712 17.9532V17.587C159.103 17.8416 160.09 17.8416 157.488 17.587C157.523 16.3948 158.914 15.7771 158.333 14.3146C161.719 14.301 166.516 13.0066 168.477 13.5812C165.685 13.7925 169.537 15.9388 167.632 15.7706C164.577 14.1821 162.914 17.5841 165.09 18.3136ZM1526.65 13.6808C1526.85 13.9964 1526.11 14.5509 1525.85 14.1241C1525.67 13.8117 1526.39 13.2537 1526.65 13.6808ZM898.244 14.3273C898.253 14.1756 898.262 14.0277 898.264 13.8761C898.799 13.8884 899.305 13.8973 899.826 13.8986C899.818 14.0501 899.808 14.1978 899.807 14.3488C899.28 14.3404 898.764 14.3351 898.244 14.3273ZM508.123 14.6261C505.834 14.9158 505.915 13.5888 508.164 13.9571C508.15 14.174 508.144 14.4059 508.123 14.6261ZM983.789 14.3937C985.465 13.8264 986.911 14.1264 988.344 14.4991L983.789 14.3937ZM1271.2 14.6905C1271.21 14.5422 1271.21 14.395 1271.22 14.2433C1271.74 14.2518 1272.26 14.2635 1272.78 14.2687C1272.79 14.4162 1272.77 14.5644 1272.76 14.7159C1272.23 14.7068 1271.72 14.6989 1271.2 14.6905ZM591.379 15.5314C590.281 14.9872 589.771 15.0871 590.676 14.3976C592.739 14.4248 595.113 14.5462 596.141 14.256C596.373 15.2361 593.582 15.2969 591.379 15.5314ZM1556.83 17.2228C1554.92 18.3185 1558.26 21.0044 1551.19 20.507C1550.97 19.9855 1551.36 19.6525 1552.03 19.3986C1548.98 19.3395 1548.48 18.5933 1546.65 18.2023L1546.66 17.9816L1545.88 17.9796C1548.59 16.9079 1548.04 14.8471 1552.32 14.256C1553.23 15.4055 1555.02 16.318 1556.83 17.2228ZM895.885 14.7443C895.363 14.7359 894.849 14.7208 894.322 14.7267C894.337 14.5749 894.353 14.4217 894.356 14.2706C894.869 14.279 895.39 14.2876 895.91 14.296C895.908 14.4483 895.9 14.5997 895.885 14.7443ZM182.852 16.4972C180.743 16.5497 179.337 16.3123 178.621 15.7706C181.662 15.7446 180.96 14.11 184.535 14.3146C186.407 15.1134 183.055 15.5264 182.852 16.4972ZM236.958 15.7706C235.626 15.2257 236.011 14.1424 238.647 14.3146C238.606 14.8166 239.052 15.1134 239.492 15.4044C238.336 15.3914 237.64 15.579 236.958 15.7706ZM231.888 15.7706C231.442 15.2323 230.631 14.8529 230.185 14.3146H233.571C233.808 15.14 233.375 15.681 231.888 15.7706ZM1216.62 15.962C1211.78 16.0244 1209.38 15.4202 1208.14 14.505C1211.39 14.0926 1217.37 14.5918 1216.62 15.962ZM992.154 15.1398C990.789 15.206 989.567 14.8297 988.344 14.4991L995.331 14.6808C994.148 14.684 992.649 14.5224 992.154 15.1398ZM781.162 19.4484C777.555 18.882 776.076 20.9232 770.207 20.423C769.568 19.0025 773.83 19.5282 771.863 18.6476C772.928 18.1154 774.189 19.0871 774.987 18.4747C771.28 17.0822 763.621 19.0352 761.84 16.9445L763.016 16.7062L762.644 16.2921C765.378 15.9537 761.88 14.7324 765.862 14.5499L766.238 14.8849L767.404 14.7921C766.492 16.3854 772.905 16.2661 775.047 17.3546C777.793 16.9869 779.273 18.0469 782.831 17.4571L782.531 17.8546L783.56 18.1427C785.012 18.928 779.745 18.9034 781.162 19.4484ZM801.628 15.4786C799.441 15.804 799.527 14.4805 800.904 14.5695C800.7 14.9907 801.744 15.0727 801.628 15.4786ZM1003.29 15.754C1003.06 15.2294 1003.46 14.8922 1004.13 14.6427C1004.91 14.659 1005.69 14.665 1006.45 14.6779C1007 15.5206 1005.52 15.7579 1003.29 15.754ZM774.411 14.8888C774.899 15.4062 771.343 15.3247 772.084 14.8546C772.336 14.6718 774.158 14.6141 774.411 14.8888ZM439.013 15.7706C436.985 14.8958 441.797 14.8296 441.56 15.4044C441.567 15.3778 438.696 15.629 439.013 15.7706ZM744.028 15.1456C745.207 15.7089 741.351 15.7669 741.682 15.338C742.681 15.3334 742.768 15.0665 744.028 15.1456ZM795.379 15.839C795.393 15.6182 794.762 15.5635 794.636 15.3849C795.623 15.3771 795.715 15.1055 796.975 15.1886C796.96 15.4085 796.949 15.6404 796.942 15.8605C796.421 15.8488 795.894 15.8436 795.379 15.839ZM569.524 16.5763C566.543 17.4336 563.639 16.4119 560.956 16.6808C559.917 15.2253 564.141 15.387 567.265 15.2032C568.331 15.5779 569.993 15.7904 569.524 16.5763ZM598.358 16.0734C598.723 15.6467 598.706 15.1117 600.758 15.215C600.555 15.6293 601.599 15.7116 601.482 16.1173C600.442 16.1004 599.406 16.0871 598.358 16.0734ZM1122.4 15.8068C1121.27 16.0363 1120.5 16.0235 1120.1 15.545C1121.16 15.5761 1121.8 15.4639 1122.43 15.3595C1122.43 15.5071 1122.42 15.6591 1122.4 15.8068ZM1416.9 15.3644C1416.05 15.7073 1414.69 15.897 1413.61 16.1769L1416.9 15.3644ZM770.455 15.9425C770.464 15.7979 770.472 15.653 770.482 15.4982C771.004 15.5105 771.517 15.5184 772.037 15.5196C772.035 15.6713 772.026 15.8194 772.01 15.9679C771.496 15.9588 770.976 15.958 770.455 15.9425ZM754.915 15.5079C755.933 16.5192 751.274 16.6742 751.784 15.6993C753.252 15.7662 753.514 15.4696 754.915 15.5079ZM1218.17 16.212C1218.19 15.9881 1218.2 15.757 1218.21 15.5402C1218.72 15.5448 1219.24 15.5493 1219.76 15.5616C1219.79 15.8466 1220.73 15.8829 1220.51 16.2433C1219.72 16.2309 1218.94 16.2217 1218.17 16.212ZM586.632 17.0314C583.149 17.1644 582.327 16.5743 582.026 15.8478C583.804 15.401 587.168 15.7607 587.443 16.3751L586.268 16.6154L586.632 17.0314ZM1404.88 19.1925C1402.9 17.4116 1410.06 16.5706 1413.64 15.7316L1413.61 16.1769L1415.16 16.1954C1412.14 17.3204 1409.74 18.6345 1404.88 19.1925ZM312.203 15.7706C312.203 17.0787 309.244 17.574 307.979 16.4972C310.574 16.7679 309.608 15.4998 312.203 15.7706ZM1201.84 15.7579C1202.94 16.1106 1202.94 16.6453 1200.24 16.4161C1200.24 16.0298 1200.88 15.8449 1201.84 15.7579ZM231.888 17.9532C230.564 17.2265 227.699 16.1045 231.888 15.7706C232.551 16.022 233.768 17.8012 231.888 17.9532ZM659.069 16.6691C659.834 16.2625 656.774 15.8924 659.116 15.7755C659.337 15.9177 661.002 16.6618 659.069 16.6691ZM761.057 16.9386C758.522 16.96 757.329 16.6229 757.215 15.9923C758.227 15.6988 761.896 15.6605 761.874 16.2755L760.685 16.5275L761.057 16.9386ZM469.88 16.1212C470.203 16.8178 468.19 16.8118 465.95 16.7364C465.975 16.4358 465.992 16.1396 466.01 15.8468C467.813 15.7903 468.987 15.9146 469.88 16.1212ZM801.69 21.1808L801.288 21.5177C796.366 20.6382 792.591 19.4564 788.22 18.4288C789.482 18.6023 789.554 17.3872 788.266 17.5314L788.669 17.4259L789.059 17.3204C789.155 16.9327 788.928 16.6214 788.341 16.4181C790.786 16.5571 791.401 16.1366 793.021 16.0353C792.982 16.5601 794.339 16.7108 793.738 17.379C797.482 17.5427 799.481 18.1846 799.061 19.4718C801.551 19.7582 803.209 20.2676 802.856 21.3126L801.69 21.1808ZM731.445 17.4308C731.454 17.0586 731.476 16.6857 731.498 16.3136C732.282 16.3227 733.06 16.3396 733.838 16.3448C733.713 16.9099 733.63 17.4924 731.445 17.4308ZM1108.33 17.1818C1107.4 17.3513 1106.22 17.4446 1104.42 17.3458C1103.24 15.9169 1108.57 16.1023 1108.33 17.1818ZM18.8311 20.504C17.6892 20.1441 17.142 19.5296 16.29 19.047L17.5605 18.8654L17.1416 18.3126C18.5472 17.8274 17.7771 16.4082 20.5205 16.4972C23.5485 17.1682 24.6564 20.7514 18.8311 20.504ZM336.722 18.6837C333.559 18.0265 331.917 18.9735 329.957 17.9532C329.816 17.0423 331.254 16.814 332.504 16.4972C333.423 17.4318 337.364 17.0723 336.722 18.6837ZM438.174 18.3136C437.39 17.911 436.606 18.198 433.951 17.9532C434.065 17.2767 434.511 16.7381 435.633 16.4972C435.998 17.1084 440.594 17.7095 438.174 18.3136ZM597.38 19.6329C593.918 19.6219 594.666 18.4606 592.802 18.0157L593.99 17.7638L593.626 17.3448C595.612 17.3513 596.365 16.9745 597.547 16.7335C599.735 16.8823 600.823 17.321 602.964 17.4777C603.624 18.7384 600.288 18.7837 598.184 19.2052L597.012 19.298L597.38 19.6329ZM796.861 17.1993C796.877 17.0515 796.873 16.9034 796.888 16.755C797.402 16.7635 797.924 16.768 798.45 16.7726C798.442 16.9281 798.433 17.0764 798.417 17.2247C797.897 17.2196 797.376 17.2116 796.861 17.1993ZM344.331 16.8605C343.81 17.6101 345.696 19.3905 342.641 19.047C342.655 18.0831 342.168 16.9001 344.331 16.8605ZM559.376 17.1105C559.53 17.9185 559.483 18.6558 556.184 18.4044C554.128 17.7122 556.724 17.0572 559.376 17.1105ZM1108.27 18.0782C1108.08 17.4839 1108.61 17.1129 1110.66 17.213C1110.3 17.6358 1110.32 18.1704 1108.27 18.0782ZM1355.88 18.0763C1353.6 18.3776 1353.68 17.0469 1355.92 17.4113C1355.91 17.6281 1355.89 17.8562 1355.88 18.0763ZM1379.2 18.8448C1374.81 18.7428 1378.19 17.6489 1380.05 17.5118C1380.58 18.2074 1378.67 18.1537 1379.2 18.8448ZM472.044 19.2755C468.304 19.6289 463.021 19.0721 463.577 17.6017C469.014 17.4529 470.877 18.2702 472.044 19.2755ZM416.045 18.0743C416.062 17.9226 416.063 17.7749 416.073 17.6232C416.851 17.6362 417.628 17.6453 418.412 17.6544C418.404 17.8061 418.395 17.9581 418.378 18.1027C417.607 18.0969 416.83 18.084 416.045 18.0743ZM1307.36 19.9923L1305.94 20.0812C1306.17 19.4388 1304.21 19.374 1304.46 18.7277C1306.87 18.6283 1306.57 17.699 1309.18 17.6691C1308.23 18.9589 1313.14 19.857 1308.26 20.3468L1307.36 19.9923ZM519.607 18.1339C518.809 18.295 516.66 19.1719 515.694 18.5333C516.598 18.5054 516.555 18.1877 516.497 17.8702C517.668 17.9221 519.382 17.826 519.607 18.1339ZM694.004 18.4894C693.677 17.7918 696.141 17.678 696.344 18.297C695.281 18.2769 694.629 18.381 694.004 18.4894ZM655.451 18.3878C654.708 18.3677 653.944 18.3608 653.344 18.2091C653.199 18.1022 652.987 18.0179 652.775 17.9337L655.451 18.3878ZM636.356 18.8282C636.179 18.3106 636.601 17.9871 637.979 17.9493C637.914 18.2611 638.305 18.4484 638.71 18.6349C637.641 18.6037 637.002 18.7127 636.356 18.8282ZM162.982 18.1359C161.955 18.9614 160.455 19.6409 159.09 20.3644L162.982 18.1359ZM660.384 20.9435C656.502 21.1105 655.101 20.6027 654.209 19.963C655.582 19.7772 656.941 19.5841 656.616 18.88L657.775 18.7804L658.191 18.4571C659.822 19.3959 660.016 18.2193 662.87 18.2921C663.246 19.0714 664.889 19.5118 665.09 20.3302C662.383 20.4802 662.118 19.9635 659.66 20.0382C659.463 20.4587 660.499 20.5411 660.384 20.9435ZM655.451 18.3878C656.385 18.4131 657.278 18.4432 657.775 18.7804L655.451 18.3878ZM738.323 19.5392C735.892 19.61 734.575 19.206 736.031 18.8351L737.203 18.7423L736.841 18.3995C738.754 18.3995 740.593 18.4112 741.486 18.6866C741.51 18.9936 741.097 19.1712 740.676 19.3419L739.253 19.2179L738.323 19.5392ZM708.751 19.3595C707.757 19.5583 703.927 19.194 703.341 18.6154C705.607 18.846 705.721 18.8478 708.001 18.6808C707.956 18.9887 708.34 19.1731 708.751 19.3595ZM476.751 18.67C477.404 19.7137 473.112 20.1133 472.828 19.0655C473.507 18.7394 475.361 18.7791 476.751 18.67ZM15.4375 18.6837C15.8234 18.6345 16.6827 18.7363 17.5605 18.8654L15.4375 18.6837ZM729.722 20.3165C729.503 19.7841 727.046 19.8629 727.443 19.172C729.94 19.4757 728.09 18.4521 730.581 18.7677C731.631 19.077 731.981 20.3445 729.722 20.3165ZM1290.36 19.8751C1290.44 19.466 1286.43 19.0635 1288.88 18.7394C1288.87 19.1335 1293.21 19.4454 1290.36 19.8751ZM504.746 19.2736C504.27 19.4012 501.031 19.7482 500.857 19.2238C501.334 19.1024 504.574 18.7523 504.746 19.2736ZM27.2783 19.047C28.643 20.0575 23.6359 20.0478 23.9062 19.4132C25.0479 19.2943 25.5213 18.8918 27.2783 19.047ZM85.6221 19.047C86.5869 19.79 84.291 20.7805 83.9258 19.7736C85.047 19.7702 84.7034 19.1367 85.6221 19.047ZM1426.67 19.2657C1427.02 19.8502 1423.85 20.4967 1422.74 19.881C1424.59 19.838 1424.24 19.1268 1426.67 19.2657ZM717.172 19.4132C717.179 19.4009 717.182 19.3972 717.189 19.3849C717.168 19.4204 717.148 19.4557 717.13 19.4855C717.148 19.4564 717.146 19.4592 717.172 19.4132ZM231.889 19.4132H234.416V20.1368H231.889V19.4132ZM574.723 21.1202C572.993 21.3495 571.513 21.656 568.474 21.4884C569.157 20.8623 567.416 20.8927 567.757 20.3585C568.727 19.1589 576.75 19.1854 574.723 21.1202ZM510.928 20.257C511.011 19.9018 510.864 19.4781 512.51 19.6105C512.507 19.7553 512.498 19.9035 512.49 20.0587C511.712 20.0457 511.562 20.2206 510.928 20.257ZM716.382 22.1525C712.468 22.6012 707.833 21.9748 707.896 20.6915C709.128 20.3883 710.629 20.1648 711.065 19.6173C715.741 19.5707 717.927 20.3313 717.984 21.0568C718.04 21.4397 714.158 21.6864 716.382 22.1525ZM530.375 20.5196C529.379 20.2059 529.39 19.671 531.2 19.6359C532.197 19.9502 531.64 20.3138 530.375 20.5196ZM1419.61 20.0616C1419.04 21.2209 1417.11 21.08 1413.35 20.8702L1413.75 20.548L1412.59 20.4161C1413.94 20.0069 1417.43 19.5043 1419.61 20.0616ZM469.65 20.3702C468.299 20.3605 467.671 20.1654 467.337 19.8878C468.669 19.8976 469.331 20.0888 469.65 20.3702ZM790.748 21.9347L789.576 22.0236C789.743 21.3241 787.558 21.2514 788.114 20.4396C790.492 20.6434 789.637 19.8474 792.015 20.0402C791.184 20.5234 796.181 22.0891 791.123 22.2736L790.748 21.9347ZM614.482 20.3214C616.676 20.6935 612.892 21.369 612.116 20.7306C613.652 20.8253 613.668 20.4571 614.482 20.3214ZM31.5156 20.504H33.1982V21.963H31.5156V20.504ZM1016.04 20.6847C1015.12 21.0674 1014.04 21.4536 1012.67 21.7736L1016.04 20.6847ZM1328.38 22.6261C1327.67 21.2037 1330.13 20.7411 1333.94 20.6905C1334.55 22.0963 1332.48 22.6774 1328.38 22.6261ZM331.698 22.7433C328.624 22.7245 328.304 21.1739 329.459 20.6984C330.25 20.7108 331.021 20.7234 331.806 20.7364C332.37 21.2645 333.254 22.2997 331.698 22.7433ZM507.751 21.3302C507.753 21.1896 507.761 21.0303 507.784 20.8859C508.291 20.8943 508.812 20.8964 509.332 20.9054C509.316 21.0493 509.315 21.2042 509.305 21.3527C508.784 21.3443 508.271 21.3425 507.751 21.3302ZM1041.91 21.2062C1041.82 21.8537 1041.55 22.4599 1038.74 22.2755C1038.51 21.7501 1038.9 21.4204 1039.57 21.1671C1040.35 21.1795 1041.13 21.19 1041.91 21.2062ZM1428.01 22.8644C1426.72 22.485 1427.38 21.7002 1428.87 21.5314C1430.18 21.9107 1429.53 22.6955 1428.01 22.8644ZM324.036 22.3195C322.407 22.7585 319.751 23.7103 318.123 23.0499C317.974 22.138 320.015 22.1674 320.65 21.59C320.055 22.5804 324.638 21.3323 324.036 22.3195ZM340.101 22.6857C339.275 22.9999 334.775 22.8345 333.343 22.3195C334.938 21.9168 337.337 21.8608 339.263 21.59C339.222 22.0949 339.654 22.3955 340.101 22.6857ZM663.461 21.6495C663.656 22.2477 662.34 22.3713 660.31 22.2784C659.57 21.5277 661.431 21.5677 663.461 21.6495ZM1418.72 22.2872C1418.2 22.2749 1417.68 22.2739 1417.16 22.2726C1417.17 22.1209 1417.18 21.976 1417.19 21.8243C1417.7 21.8327 1418.22 21.8339 1418.74 21.8429C1418.74 21.9869 1418.73 22.1355 1418.72 22.2872ZM17.1416 24.1427C16.7905 23.2648 18.6823 23.3463 17.9795 22.3195C20.5607 22.3033 22.2842 22.6569 23.0615 23.4161C21.9334 24.0201 18.2636 23.5382 17.1416 24.1427ZM462.419 24.2931C464.77 24.91 458.181 25.5708 456.15 24.8859C456.464 23.429 463.476 21.1083 466.374 23.2296C464.868 23.7382 465.027 23.8514 462.419 24.2931ZM689.835 23.3585C689.465 23.8538 686.004 23.3914 684.385 23.507C684.403 23.2069 684.421 22.9138 684.432 22.6105C686.995 22.6534 689.941 22.5946 689.835 23.3585ZM656.779 29.6183C651.985 29.326 647.533 29.4234 642.003 29.1935C645.992 28.0926 642.482 26.4996 642.982 25.8507C646.648 27.2327 650.76 25.3358 651.63 24.4083C652.922 24.4193 654.22 24.4366 655.525 24.4581C656.711 23.6852 658.973 22.2858 661.846 22.7521C659.711 24.3303 662.673 24.9399 665.562 25.7159C664.961 25.7549 664.66 25.8862 664.763 26.1486C665.027 26.1525 665.277 26.1534 665.541 26.1573L665.132 26.4845L665.502 26.8302C663.603 27.3218 664.272 27.5311 664.637 28.3829C663.697 28.6284 661.873 28.5996 659.957 28.5411C658.885 28.3872 659.897 27.6855 658.456 27.629C658.181 28.3837 657.969 29.1493 656.779 29.6183ZM420.415 24.8702C418.333 25.3281 416.096 26.4904 414.508 25.2355L414.927 24.6876L414.508 24.1427C416.467 23.8946 416.765 22.931 418.725 22.6866C419.144 23.116 419.638 23.5118 420.415 23.7794L419.996 24.3243L420.415 24.8702ZM440.578 24.0138C438.265 24.8381 435.592 25.8181 433.093 24.506L433.525 23.84L432.248 23.4161C434.958 22.9966 441.406 22.4393 442.405 23.4161C442.031 23.5155 441.635 23.645 441.23 23.7853C442.246 23.7036 444.008 23.979 443.728 24.2609C441.605 24.2562 442.181 23.8737 440.625 24.2238C440.549 24.1381 440.555 24.0736 440.578 24.0138ZM1448.19 24.253C1448 23.7421 1448.43 23.4197 1449.8 23.3859C1450.03 23.6865 1450.88 23.8253 1450.53 24.2882C1449.75 24.2792 1448.97 24.266 1448.19 24.253ZM1423.25 24.8126C1421.56 25.1568 1417.4 24.7557 1417.85 23.84C1420.75 23.8647 1422.28 24.2631 1423.25 24.8126ZM699.878 24.8409L699.1 24.8204C698.908 24.3103 699.337 23.9825 700.716 23.9493C702.386 24.4397 702.262 24.8135 699.865 25.0577L699.878 24.8409ZM825.161 26.089C823.889 26.5151 824.899 27.4507 822.009 26.9415C821.158 26.5032 820.112 26.1282 819.75 25.5724C822.757 25.119 825.803 23.4869 830.71 24.378C827.562 24.1969 829.178 25.3346 828.311 25.6808C827.836 25.8742 825.695 25.9169 825.161 26.089ZM6.99023 24.506H11.2207C11.3427 25.6484 9.05148 25.7545 6.99023 25.963V24.506ZM368.055 26.8175C363.65 25.158 371.297 23.4597 374.376 25.3361C373.035 25.6882 373.332 26.537 371.957 26.8741C370.652 26.8494 369.36 26.8428 368.055 26.8175ZM29.8193 28.8722L30.2383 28.3331L28.9814 28.1446C28.9683 27.7787 29.6572 27.7157 29.8193 27.4152C26.7311 27.0489 23.6289 26.6889 23.0605 25.2355C27.0885 24.6776 38.8541 23.8477 42.4971 25.5948L41.2393 26.0216L41.6602 26.6954C38.0919 28.301 34.4348 28.9352 29.8193 28.8722ZM440.709 25.2364H442.405V25.963H440.709V25.2364ZM621.92 26.463L621.551 26.1241L620.392 26.0001C619.841 25.4928 623.303 25.1138 623.521 25.588L622.733 25.879L622.71 26.2482C622.66 26.3825 622.575 26.513 621.92 26.463ZM1350.77 25.8468C1351.33 26.621 1350.27 26.908 1347.61 26.6925C1347.63 26.3959 1347.64 26.0965 1347.66 25.796C1348.7 25.8128 1349.73 25.8293 1350.77 25.8468ZM424.119 26.9054C423.793 26.2008 425.139 26.0124 426.513 25.8234C426.217 26.3395 425.664 26.7768 424.119 26.9054ZM148.189 25.962C149.492 27.0588 143.817 26.9228 143.952 26.3253C144.939 26.0214 146.223 25.847 148.189 25.962ZM621.493 27.1114C621.443 26.8192 621.033 26.4332 621.551 26.1241L621.493 27.1114ZM14.5996 26.3253H16.29V27.0558H14.5996V26.3253ZM819.651 27.3585C818.285 27.352 817.235 27.2705 816.546 27.0939C816.338 26.5002 817.666 26.376 819.704 26.465C819.679 26.7611 819.662 27.0617 819.651 27.3585ZM1422.71 27.379L1422.71 27.3771L1421.55 27.2599C1421.82 26.9968 1424.98 26.5267 1425.45 27.0821C1423.94 27.1465 1424.79 27.9459 1422.3 27.7062L1422.71 27.379C1421.57 27.6366 1420.88 27.6583 1419.57 27.7814L1422.71 27.379ZM679.119 27.0157C679.737 27.0798 680.348 27.1678 681.435 27.3829L679.119 27.0157ZM1566.38 27.2042C1567.6 27.8367 1562.98 27.7742 1563.26 27.381C1564.86 27.2829 1564.82 26.734 1566.38 27.2042ZM458.896 27.2335C459.49 27.2634 460.085 27.3037 460.375 27.3693C461.179 27.8446 460.842 28.4747 461.092 29.0001L458.896 27.2335ZM371.377 28.1456C370.39 28.6048 367.87 28.4388 367.998 27.4152C369.346 27.3437 370.334 27.4315 370.892 27.6984C371.134 27.8139 371.318 27.9534 371.377 28.1456ZM123.244 27.4161C125.84 27.4459 128.468 27.6834 131.145 27.9239L123.244 27.4161ZM110.1 27.9015C109.255 28.5582 109.046 29.4171 107.18 29.7872L110.1 27.9015ZM379 28.5128C377.872 28.4563 376.446 29.9946 375.608 28.8722C376.635 28.7929 376.128 28.4696 375.608 28.1456C376.878 28.208 378.73 28.0173 379 28.5128ZM373.918 29.2384C373.046 29.506 373.242 31.6535 368.849 31.4249C368.876 30.9229 368.444 30.6185 367.998 30.3282C369.606 30.021 372.87 28.5782 373.918 29.2384ZM659.556 35.7023C659.453 35.4399 658.194 35.1756 659.589 35.0294C659.686 35.2957 660.943 35.5562 659.556 35.7023Z"/>
	<path class="elementor-shape-fill" d="M260.451 19.3497C260.278 18.7424 259.806 18.2629 258.099 18.3136C259.072 18.1986 261.005 16.7317 258.937 16.4972C258.934 17.3 258.328 17.9294 257.512 18.4542C258.396 18.6712 259.743 18.997 260.451 19.3497Z"/>
	<path class="elementor-shape-fill" d="M961.492 23.1036C962.361 23.227 963.277 23.2877 964.22 23.2404L962.021 22.462C963.555 22.5295 964.582 22.7868 965.311 23.1173C966.201 22.9978 967.065 22.7894 967.865 22.4601C967.865 22.449 967.867 22.4383 967.867 22.4279C967.896 22.4284 967.925 22.4291 967.953 22.4298C968.057 22.3863 968.173 22.3667 968.271 22.3195C967.455 22.3005 967.328 21.9833 967.354 21.5997C966.9 21.6166 966.356 21.6497 965.567 21.7277C964.666 20.7982 960.81 20.6622 958.646 20.0724C958.204 19.4842 959.925 19.5689 960.209 19.2091C959.072 19.5709 957.585 19.7824 957.283 20.504C956.98 21.1307 957.515 21.7298 958.455 22.2208C960.235 22.061 962.531 21.5558 963.2 22.3624L962.021 22.462L962.402 22.8126C962.042 22.8548 961.744 22.9699 961.492 23.1036Z"/>
	<path class="elementor-shape-fill" d="M941.243 26.5304C941.505 26.4765 941.724 26.4053 941.964 26.3429L941.95 26.3302C943.883 25.0111 942.185 22.7612 943.766 21.8829C945.522 21.8368 946.955 21.8345 948.261 21.8488C947.689 21.728 947.213 21.5659 946.295 21.59C945.871 20.9159 946.574 20.3791 947.494 19.8614C946.862 19.9186 946.229 19.9778 945.592 20.0519C945.571 20.1934 945.533 20.3404 945.444 20.504C942.614 22.0485 938.67 23.1209 936.959 25.1564C937.738 25.1246 938.618 25.1233 939.684 25.1779C939.007 25.8033 940.75 25.7767 940.396 26.3087L939.221 26.4093C939.762 26.3931 940.49 26.4446 941.243 26.5304Z"/>
	<path class="elementor-shape-fill" d="M929.516 19.9064L928.682 19.9943L929.32 20.0704C929.388 20.0166 929.447 19.9596 929.516 19.9064Z"/>
	<path class="elementor-shape-fill" d="M924.255 27.1827C925.683 26.7774 927.154 26.3871 926.859 25.2355C926.007 25.2355 925.845 24.9388 925.163 24.8693V24.507H924.318C925.465 23.5756 926.469 22.5844 927.518 21.6134C925.955 22.0686 924.077 22.4306 923.442 23.172C921.56 23.2402 921.773 22.7401 919.567 22.9025C918.535 23.4059 919.648 23.3164 918.723 24.003C921.107 24.2037 919.719 23.2444 922.643 23.6085C923.919 23.9403 923.547 24.3571 923.486 24.6857C923.832 24.6688 924.18 24.655 924.508 24.6154L923.47 24.7863C923.488 24.9954 923.749 25.1545 924.882 25.2052C923.767 25.9728 923.223 26.6008 924.255 27.1827Z"/>
	<path class="elementor-shape-fill" fill-rule="evenodd" clip-rule="evenodd" d="M1053.19 28.5167C1054.81 27.8048 1056.55 27.0463 1058.67 27.6925C1059.97 26.8787 1060.26 25.752 1064.99 25.9943C1066.23 25.1012 1068.49 24.5282 1070.58 23.8995C1066.89 23.8605 1063.27 23.5855 1059.87 24.0343C1060.4 24.27 1060.56 24.6044 1060.38 25.0343C1058.61 25.0778 1057.23 25.0197 1056.4 24.8107C1056.34 24.8339 1056.26 24.8452 1056.2 24.8693C1055.04 24.436 1054.82 23.7603 1055.11 23.1056C1052.93 23.6298 1051.14 24.2705 1048.89 24.7706C1049.3 24.9466 1049.54 25.196 1049.44 25.5948C1047.97 25.663 1046.9 25.5588 1046.39 25.2159C1045.92 25.2821 1045.39 25.3329 1044.87 25.3829C1044.78 25.896 1043.74 26.4794 1046.06 26.6945C1048.24 26.0833 1050.09 26.7845 1053.66 26.3253L1053.25 26.9952L1054.51 27.4152C1053.32 27.6405 1052.93 28.0907 1053.19 28.5167ZM1056.37 26.9962C1055.84 26.9807 1055.35 26.9783 1054.81 26.9738C1054.81 26.9421 1054.81 26.9139 1054.82 26.8829C1054.83 26.7625 1054.84 26.6443 1054.84 26.5265C1055.36 26.5317 1055.88 26.5396 1056.4 26.548C1056.39 26.6933 1056.38 26.8412 1056.37 26.9962Z"/>
	<path class="elementor-shape-fill" d="M497.562 29.3614L497.529 29.3644C497.534 29.3752 497.541 29.3849 497.546 29.3956L497.562 29.3614Z"/>
	<path class="elementor-shape-fill" d="M493.93 30.0743C493.955 29.9576 493.949 29.8268 493.958 29.7042C493.72 29.8872 493.321 29.9952 493.93 30.0743Z"/>
	<path class="elementor-shape-fill" d="M1446.96 32.5187C1446.97 32.5012 1447.04 32.497 1447.06 32.4816C1446.84 32.4751 1446.61 32.4652 1446.39 32.4484C1446.6 32.4686 1446.72 32.5038 1446.96 32.5187Z"/>
	<path class="elementor-shape-fill" d="M412.061 33.4552C412.318 33.4071 412.666 33.3857 412.973 33.3527C412.877 32.9468 412.233 32.7759 411.478 32.6525L411.324 32.7765C411.36 33.0648 412.307 33.1019 412.061 33.4552Z"/>
	<path class="elementor-shape-fill" d="M464.975 34.1818C466.565 34.2702 466.986 34.002 467.585 33.7902C467.47 33.5837 467.317 33.3939 467.094 33.2335L463.466 33.4972C463.545 33.8285 465.427 33.6928 464.975 34.1818Z"/>
</svg>
