<svg viewBox="0 0 1600 50" xmlns="http://www.w3.org/2000/svg">
<path class="elementor-shape-fill" d="M462.34 38.7958C462.145 39.122 462.658 39.2055 462.8 39.4151C462.185 39.4125 461.57 39.4151 460.948 39.4151C460.948 39.364 460.948 39.3103 460.948 39.2592C461.827 39.2456 461.273 38.7467 462.34 38.7958Z" />
<path class="elementor-shape-fill" d="M577.866 39.5685C576.778 39.5659 575.697 39.5659 574.622 39.5627C575.757 39.199 573.926 39.2747 574.162 38.7894C575.197 38.5992 577.48 39.0567 577.866 39.5685Z" />
<path class="elementor-shape-fill" d="M579.731 39.1087C577.501 39.5321 578.603 38.5984 579.731 39.1087V39.1087Z" />
<path class="elementor-shape-fill" d="M580.65 38.7984C580.778 39.0113 580.36 39.4015 580.19 39.1083C580.062 38.8948 580.474 38.5046 580.65 38.7984Z" />
<path class="elementor-shape-fill" d="M619.639 38.2296C619.774 38.6401 618.977 38.74 617.773 38.6972C617.638 38.2893 618.739 38.2945 619.639 38.2296Z" />
<path class="elementor-shape-fill" d="M485.569 36.201C485.542 36.4143 485.785 36.5408 486.029 36.6653C485.563 36.6653 485.103 36.6653 484.63 36.6627C484.616 36.3981 484.995 36.2658 485.569 36.201Z" />
<path class="elementor-shape-fill" d="M447.993 34.9159C448.385 34.4765 447.351 34.5147 447.533 34.1426C448.196 34.1051 448.324 33.8896 448.932 33.8359C449.494 34.0404 449.385 34.8971 447.993 34.9159Z" />
<path class="elementor-shape-fill" d="M670.237 34.4365C670.831 34.6442 670.514 34.9056 669.771 35.0538C669.845 34.8215 669.601 34.4798 670.237 34.4365Z" />
<path class="elementor-shape-fill" d="M664.209 34.2747C663.276 33.9544 664.412 33.9706 664.675 33.6554L664.681 33.5021H664.215C664.607 33.1682 666.249 33.2543 666.993 33.044C667.115 33.3241 667.763 33.4374 668.237 33.6069L669.723 33.3345C669.399 33.4691 669.271 33.6632 668.838 33.7842C668.562 33.7732 668.318 33.7732 667.92 33.6606L667.913 33.8166C667.609 33.814 667.305 33.814 666.994 33.814C666.967 33.9078 666.92 33.9945 666.528 33.9648L666.068 33.658L665.595 33.9648C664.696 33.9169 664.682 34.1725 664.209 34.2747Z" />
<path class="elementor-shape-fill" d="M203.049 32.1199C202.326 32.136 202.677 32.5133 201.656 32.4298C200.92 32.0014 202.859 31.7342 203.049 32.1199Z" />
<path class="elementor-shape-fill" d="M600.654 32.6482C598.782 33.1883 599.566 32.1463 600.654 32.6482V32.6482Z" />
<path class="elementor-shape-fill" d="M749.133 32.2247C749.146 32.3162 749.2 32.403 749.599 32.3758C749.531 32.5645 749.45 32.7454 748.659 32.6832C748.734 32.5029 748.578 32.2435 749.133 32.2247Z" />
<path class="elementor-shape-fill" d="M193.31 31.6456C192.688 31.643 192.066 31.643 191.445 31.643C191.188 31.2767 190.748 30.9208 192.377 30.8723C191.985 31.3602 193.114 31.3492 193.31 31.6456Z" />
<path class="elementor-shape-fill" d="M718.051 31.7187C716.639 31.198 719.761 31.2519 718.051 31.7187V31.7187Z" />
<path class="elementor-shape-fill" d="M175.698 28.9945C177.537 28.5228 178.28 27.5586 181.74 27.9197C180.956 29.7438 176.415 30.2207 171.988 30.0693C171.123 29.2585 174.212 29.3775 175.698 28.9945Z" />
<path class="elementor-shape-fill" d="M215.605 28.7382C215.828 28.9213 216.092 29.0908 216.531 29.2015L216.295 29.4357L216.524 29.6674C216.173 30.0233 212.969 30.22 212.354 29.9696C212.624 29.9612 212.895 29.945 212.807 29.8156C212.807 29.6137 211.995 29.6758 211.887 29.503C212.807 29.1452 213.842 28.8139 215.605 28.7382Z" />
<path class="elementor-shape-fill" d="M190.559 26.6966C189.85 27.653 192.242 27.5773 192.404 28.2457C190.08 28.5473 188.789 29.2021 187.754 29.9404C187.072 29.5172 185.97 29.2371 184.51 29.4687C185.674 28.2619 188.045 27.4505 190.559 26.6966Z" />
<path class="elementor-shape-fill" d="M615.53 29.2635C616.503 29.5897 614.915 29.8459 614.131 30.0342C614.036 29.5929 614.083 29.1911 615.53 29.2635Z" />
<path class="elementor-shape-fill" d="M207.712 29.0404C208.205 28.9543 207.827 28.1759 210.036 28.2697C210.57 28.8682 208.745 29.4739 207.712 29.0404Z" />
<path class="elementor-shape-fill" d="M765.393 29.3079C765.082 29.3079 764.778 29.3079 764.467 29.3079C764.44 29.1108 763.865 29.092 764.001 28.8437C764.311 28.8437 764.622 28.8437 764.927 28.8437C764.947 29.0434 765.521 29.0596 765.393 29.3079Z" />
<path class="elementor-shape-fill" d="M750.085 28.2076C750.085 28.0484 750.085 27.8976 750.092 27.7442C751.444 27.5152 751.437 28.4366 750.085 28.2076Z" />
<path class="elementor-shape-fill" d="M748.24 26.5026C747.652 27.1574 745.74 26.5563 744.07 26.6559C743.712 25.6517 748.038 25.7481 748.24 26.5026Z" />
<path class="elementor-shape-fill" d="M210.996 24.2526C211.611 24.2526 212.233 24.2526 212.854 24.2552C212.942 24.7482 212.077 24.9204 210.996 25.0258C210.996 24.7702 210.996 24.5114 210.996 24.2526Z" />
<path class="elementor-shape-fill" d="M141.421 22.7682C141.731 22.7682 142.043 22.7708 142.347 22.7708C143.07 23.1514 140.765 23.224 140.961 22.9245C141.238 22.9141 141.502 22.9005 141.421 22.7682Z" />
<path class="elementor-shape-fill" d="M173.441 22.0383C173.265 22.499 172.63 22.8005 171.576 22.9623C171.664 22.4776 171.907 22.0409 173.441 22.0383Z" />
<path class="elementor-shape-fill" d="M140.029 22.6123C138.799 22.6582 138.515 22.3994 138.643 21.9924C139.867 21.9471 140.164 22.2111 140.029 22.6123Z" />
<path class="elementor-shape-fill" d="M174.373 20.8044C174.461 21.1422 173.995 21.2959 172.981 21.2687C172.9 20.9315 173.36 20.7752 174.373 20.8044Z" />
<path class="elementor-shape-fill" d="M132.162 20.4406C132.182 20.5353 132.229 20.6241 132.628 20.595C132.567 20.7836 132.48 20.9594 131.688 20.9023C131.763 20.7214 131.607 20.4627 132.162 20.4406Z" />
<path class="elementor-shape-fill" d="M102.014 19.164C103.507 19.4713 100.682 19.8945 100.155 19.4713C101.615 19.6519 101.291 19.2287 102.014 19.164Z" />
<path class="elementor-shape-fill" d="M184.619 16.7989C184.619 16.6449 184.619 16.4915 184.619 16.3356C185.97 16.1091 185.97 17.0299 184.619 16.7989Z" />
<path class="elementor-shape-fill" d="M636.432 25.8936L636.669 26.1246L637.365 26.0495C637.487 26.4533 637.196 26.7121 635.959 26.6636C634.831 26.5646 635.899 25.9421 636.432 25.8936Z" />
<path class="elementor-shape-fill" d="M662.357 33.0355C662.053 33.2432 661.363 33.3209 660.498 33.3455C659.052 33.2542 658.505 32.8718 657.261 32.7178C657.032 32.1251 660.046 32.6208 660.046 32.1063L660.512 32.182L660.978 32.1063C661.154 32.5075 662.35 32.5748 662.357 33.0355Z" />
<path class="elementor-shape-fill" d="M715.268 30.7888C714.943 31.3491 712.064 31.0664 711.557 30.7829L711.794 30.5002L711.098 30.3196C712.922 30.0045 714.389 30.2232 715.268 30.7888Z" />
<path class="elementor-shape-fill" d="M715.308 25.9985C715.511 26.1816 715.713 26.7581 716.693 27.0785C716.369 27.4395 715.146 27.4906 714.821 27.8491C712.591 27.6362 714.436 27.0325 713.449 26.4592L714.138 26.3809L713.915 26.1492C714.463 26.1253 715.234 26.179 715.308 25.9985Z" />
<path class="elementor-shape-fill" d="M720.87 26.0043L721.728 26.0884L722.269 25.8541C723.385 25.7946 722.006 26.5601 723.655 26.3149C722.885 26.8183 722.966 26.6462 723.182 27.4007C722.641 26.8293 720.655 27.3275 719.945 27.0855C719.64 26.5213 720.945 26.4973 720.87 26.0043Z" />
<path class="elementor-shape-fill" d="M478.141 36.0341C478.601 35.5624 479.371 36.2146 479.993 36.1959C480.203 36.4463 477.466 36.4437 477.682 36.1907H478.141V36.0341Z" />
<path class="elementor-shape-fill" d="M662.323 37.3625L663.174 37.4408L663.721 37.2092C664.594 37.2765 664.87 37.5431 666.033 37.5217C664.614 38.1843 666.236 38.106 666.019 39.0657L665.33 38.988L664.627 39.0637C664.472 39.0637 664.317 39.0637 664.161 39.0637L664.398 38.6761L663.242 38.757C663.215 38.6599 663.168 38.5706 662.776 38.6036L662.547 38.3687L661.85 38.4444C662.654 37.9818 661.702 37.6589 662.323 37.3625Z" />
<path class="elementor-shape-fill" d="M595.059 36.1907C594.343 36.2308 594.735 36.5297 595.059 36.654C594.748 36.654 594.431 36.654 594.119 36.6514C592.686 36.5893 595.093 35.7752 595.059 36.1907Z" />
<path class="elementor-shape-fill" d="M579.285 36.1687C579.757 36.19 580.224 35.5035 580.677 36.0205C579.034 36.0606 582.312 36.4404 580.677 36.4812C580.677 36.2256 579.386 36.3926 579.285 36.1687Z" />
<path class="elementor-shape-fill" d="M600.188 33.1086C601.053 32.9332 603.06 33.2917 603.438 32.6504C600.174 33.0031 602.979 31.6753 603.918 31.2573L604.608 31.3381L604.384 31.1039C607.96 31.3246 609.494 30.8561 611.345 30.4976C611.055 31.155 612.852 31.1278 612.731 31.7342C610.731 31.6584 609.838 32.5126 610.859 32.9656C610.17 33.1487 608.778 33.095 608.993 33.5829C609.582 34.1083 611.575 34.1698 611.778 34.8246C611.528 35.0485 611.082 35.2122 610.838 35.4387C607.459 35.4795 605.06 36.1932 602.485 36.0476C602.485 36.201 602.857 36.2307 602.945 36.3576C601.911 36.2366 600.424 36.2631 600.161 35.8917C601.195 35.77 601.33 35.3526 602.019 35.1184C600.235 34.5658 600.675 33.5233 600.188 33.1086Z" />
<path class="elementor-shape-fill" d="M590.883 35.5662C590.119 35.998 587.395 35.4255 588.578 35.2556C588.354 35.6848 591.105 35.1363 590.883 35.5662Z" />
<path class="elementor-shape-fill" d="M201.19 32.7391C201.947 32.6692 201.94 33.5797 201.184 33.5098C201.251 33.3053 199.298 33.038 200.718 32.8899C201.731 33.4451 200.319 32.136 201.19 32.7391Z" />
<path class="elementor-shape-fill" d="M673.947 33.9741C674.285 33.5611 671.757 34.0843 672.095 33.6661C672.879 33.2128 675.15 33.8282 673.947 33.9741Z" />
<path class="elementor-shape-fill" d="M208.631 30.1203L208.408 30.3494L209.09 30.4303C209.286 30.7998 208.246 30.7648 208.624 31.2009C207.807 31.2145 207.171 31.166 206.766 31.0444L207.002 30.8127L206.313 30.7344C206.245 30.2497 207.495 30.2044 208.631 30.1203Z" />
<path class="elementor-shape-fill" d="M134.014 19.9807C134.014 19.9833 134.041 19.827 134.02 19.8244C131.554 19.3251 135.575 19.8944 134.014 19.9807Z" />
<path class="elementor-shape-fill" d="M209.118 27.6478C210.294 27.4239 211.037 27.0551 211.442 26.5672C210.307 26.3356 208.685 26.2495 208.206 25.7939C210.078 25.9531 210.267 25.5571 210.99 25.3332C211.889 25.8774 211.868 25.9292 214.234 25.7991C214.187 26.2786 214.801 26.54 215.146 26.8823H214.687V27.0415C214.376 27.0389 214.072 27.0389 213.761 27.0389C214.997 27.6588 212.571 27.7883 214.213 28.2729C211.747 28.106 214.098 28.599 212.821 28.7336C212.902 28.3997 211.179 28.6638 210.503 28.577C209.936 27.9843 210.787 27.8788 209.118 27.6478Z" />
<path class="elementor-shape-fill" d="M191.505 25.4627C192.256 25.1475 192.222 24.5626 193.364 24.3879V24.536L193.837 24.5386C197.946 24.7651 199.717 22.9112 204.062 22.6957C204.089 23.302 204.616 23.7459 206.833 23.6249C206.083 24.4442 203.318 25.1204 204.954 26.2515L204.123 26.1952L203.562 26.4022C202.095 26.3776 200.758 26.3945 200.304 26.7096C200.784 27.1677 203.427 26.9115 203.555 27.4854C201.744 28.2561 198.182 28.4981 195.655 27.9403C195.931 27.2615 196.581 26.696 197.067 26.0871C196.607 25.8794 196.303 25.6205 195.681 25.4672C194.702 25.7344 192.269 25.9687 191.505 25.4627Z" />
<path class="elementor-shape-fill" d="M221.667 24.4228C221.863 23.6308 223.242 21.3324 225.864 21.7989C226.608 23.1727 224.397 24.0941 225.37 25.972C225.654 26.236 227.574 25.9635 227.682 26.2845C225.857 26.6507 224.742 27.2597 222.573 27.5133L222.344 27.2791L221.641 27.1982C222.864 26.6236 221.39 25.4815 221.667 24.4228Z" />
<path class="elementor-shape-fill" d="M231.893 23.9699C232.643 24.4384 233.873 24.7484 234.191 25.3657C233.516 25.6032 231.812 25.4977 230.481 25.5139C230.764 24.9347 230.298 24.1104 231.893 23.9699Z" />
<path class="elementor-shape-fill" d="M583.873 37.3379C583.806 37.3864 583.731 37.4402 583.502 37.5023C583.265 37.5049 583.029 37.5133 582.759 37.4887L583.685 36.8714C583.515 37.0014 583.779 37.1949 583.873 37.3379Z" />
<path class="elementor-shape-fill" d="M665.824 34.5088L666.067 33.6579C665.966 33.9329 666.297 34.2616 665.824 34.5088Z" />
<path class="elementor-shape-fill" d="M664.682 33.5014L663.047 34.0378C663.087 33.7414 664.006 33.623 664.682 33.5014Z" />
<path class="elementor-shape-fill" d="M626.146 36.0773L626.842 35.3849C627.559 35.6379 626.694 35.9097 626.146 36.0773Z" />
<path class="elementor-shape-fill" d="M660.512 32.182L659.809 31.7213C660.235 31.9398 660.39 32.0575 660.512 32.182Z" />
<path class="elementor-shape-fill" d="M711.807 28.3099L713.665 28.3909C713.084 28.5666 712.415 28.3371 711.807 28.3099Z" />
<path class="elementor-shape-fill" d="M711.36 25.9156C712.381 25.9993 713.475 26.0797 714.138 26.3825L711.36 25.9156Z" />
<path class="elementor-shape-fill" d="M737.346 26.1065L737.339 26.4145C737.271 26.3147 737.17 26.2362 737.346 26.1065Z" />
<path class="elementor-shape-fill" d="M149.551 22.0842L149.544 22.7035C149.558 22.4505 149.321 22.2757 149.551 22.0842Z" />
<path class="elementor-shape-fill" d="M215.883 23.3292L213.869 23.3538C214.308 23.3259 215.302 23.3311 215.883 23.3292Z" />
<path class="elementor-shape-fill" d="M215.41 24.1801L215.883 23.3292C216.174 23.698 216.498 23.8837 216.524 24.0164C216.308 24.0966 215.808 24.1426 215.41 24.1801Z" />
<path class="elementor-shape-fill" d="M663.304 39.5012L665.324 39.45C664.574 39.5363 663.749 39.5363 663.304 39.5012Z" />
<path class="elementor-shape-fill" d="M664.398 38.6742L663.235 39.3717C663.337 39.197 663.675 38.9246 664.398 38.6742Z" />
<path class="elementor-shape-fill" d="M662.546 38.3668L662.276 39.0702C662.323 38.8334 662.155 38.5855 662.546 38.3668Z" />
<path class="elementor-shape-fill" d="M615.279 34.8622C614.914 34.9321 614.543 34.9839 614.326 35.0589L614.799 34.2856C615.009 34.4772 615.299 34.6519 615.279 34.8622Z" />
<path class="elementor-shape-fill" d="M208.408 30.3504L209.794 29.8887C209.53 30.0859 208.909 30.2207 208.408 30.3504Z" />
<path class="elementor-shape-fill" d="M216.085 27.5799L214.687 26.8823C215.505 27.0092 216.152 27.2648 216.085 27.5799Z" />
<path class="elementor-shape-fill" d="M203.785 26.7911L204.123 26.1952C204.312 26.3802 204.15 26.5886 203.785 26.7911Z" />
<path class="elementor-shape-fill" d="M220.249 27.8168L222.344 27.2791C221.776 27.492 221.309 27.8899 220.249 27.8168Z" />
<path class="elementor-shape-fill" d="M1469.16 12.8704C1469.52 14.4111 1465.91 13.9264 1464.17 14.3949C1463.72 12.8031 1466.3 12.7682 1469.16 12.8704Z" />
<path class="elementor-shape-fill" d="M1174.01 21.0088C1180.33 20.0958 1189.08 22.0545 1191.96 24.5678C1184.38 24.2015 1176.14 24.1562 1174.01 21.0088Z" />
<path class="elementor-shape-fill" d="M1487.1 21.0088C1488.55 23.4392 1482.93 22.27 1480.12 22.534C1480.65 21.1091 1484.93 21.5886 1487.1 21.0088Z" />
<path class="elementor-shape-fill" d="M1209.91 28.1268C1210.52 29.3446 1211.35 30.4491 1210.91 32.1976C1205.47 33.9842 1202.74 33.3079 1195.94 32.7068C1199.86 30.8995 1203.11 26.8552 1209.91 28.1268Z" />
<path class="elementor-shape-fill" d="M1407.33 29.1452C1406.92 30.7428 1401.54 31.2922 1401.36 29.1452C1403.21 28.1513 1405.01 28.9866 1407.33 29.1452Z" />
<path class="elementor-shape-fill" d="M1269.74 31.1797C1269.62 32.481 1267.91 32.9604 1266.74 33.7227C1264.11 33.8761 1263.47 33.0174 1263.76 31.6863C1266.8 32.0552 1267.39 31.1661 1269.74 31.1797Z" />
<path class="elementor-shape-fill" d="M948.662 33.7227C949.115 35.1398 943.228 33.3215 943.674 34.7387C940.917 33.1811 945.83 33.2187 948.662 33.7227Z" />
<path class="elementor-shape-fill" d="M1272.73 36.2631C1271.06 37.4835 1270.05 38.669 1266.74 37.7909C1266.45 35.8024 1270.88 34.2268 1272.73 36.2631Z" />
<path class="elementor-shape-fill" d="M1017.47 41.861C1018.83 42.015 1018.3 43.1358 1018.47 43.8948C1016.05 44.1025 1016.29 42.9656 1013.48 43.3888C1013.74 42.3379 1017.89 43.2646 1017.47 41.861Z" />
<path class="elementor-shape-fill" d="M1133.13 44.4047C1134.77 44.3187 1134.77 47.5379 1133.13 47.4544C1128.71 47.5243 1132.24 44.8059 1133.13 44.4047Z" />
<path class="elementor-shape-fill" d="M1106.21 50C1104.43 49.6286 1106.07 49.0708 1106.21 48.4703C1107.98 48.8443 1106.35 49.3969 1106.21 50Z" />
<path class="elementor-shape-fill" d="M1600 24.1304V22.325C1599.67 22.2215 1599.3 22.1199 1598.77 22.0274C1598.8 24.5329 1594.16 21.4993 1592.8 23.0433C1589.77 23.9485 1596.48 25.0318 1592.8 26.093C1591.04 25.6323 1591.15 24.2177 1588.81 24.0618C1588.48 25.7157 1580.62 25.2259 1578.84 24.5684L1578.33 25.3307L1576.84 25.0745L1576.34 24.3148L1577.84 24.0618C1579.63 21.6618 1583.1 24.3847 1586.81 24.0618C1590.43 22.7204 1585.95 22.3457 1587.81 21.0095C1593.31 20.7241 1595.88 18.9401 1600 17.9488V0H0V14.8137C0.46816 14.76 0.940212 14.7166 1.37725 14.703C3.945 14.6357 6.18918 14.7677 6.47968 13.9408C6.38955 13.7117 6.18594 13.5182 5.95835 13.3312C6.5925 13.3241 7.31744 13.3532 8.03394 13.2219C8.14288 13.2011 8.22328 13.1643 8.32444 13.1397C8.53907 13.5454 8.51702 14.0275 9.25686 14.2539C11.9329 14.1679 13.7712 13.8016 15.7579 13.4917C16.9471 13.7123 16.9335 14.3348 19.4747 14.1116C19.4747 13.8068 19.4747 13.4917 19.4812 13.1824C19.015 13.1824 18.5487 13.1824 18.0819 13.1798C18.5974 12.6052 19.3761 12.2965 20.2684 12.072C20.8623 12.1322 21.477 11.9956 21.7727 11.7847C23.0021 11.6449 24.3981 11.588 25.9887 11.4961C25.6645 12.2855 24.948 12.1134 25.0563 12.4201C24.9143 11.9995 27.0839 12.6032 25.516 12.8834C26.3408 12.8672 26.4893 13.0795 27.3679 13.0452C28.3218 12.82 29.1919 12.567 30.0524 12.312C30.1406 12.3645 30.2054 12.4285 30.3007 12.4771C30.3818 12.1995 31.3687 12.3722 31.7603 12.2532C31.3615 12.5146 32.0443 12.6569 31.8952 13.0989C31.5574 13.3979 30.422 13.3118 29.9759 13.5596L30.4492 13.6373C29.841 13.7292 29.118 13.7531 28.8612 14.098L28.7056 13.8689C28.1512 13.8981 27.8808 13.5991 27.746 13.8689C28.0163 13.8366 28.0436 13.9252 28.0637 14.0197L28.2193 14.2514L28.0637 14.483C28.3879 14.5827 28.3879 14.8389 29.0097 14.793L28.8541 14.5665L29.8747 14.8926C30.1114 15.0194 30.3481 15.1379 30.7598 15.1812L30.28 15.1029C30.6651 15.7254 29.4351 16.2347 30.5977 16.3421C30.4421 16.0134 31.0503 16.0457 31.5438 16.0347C31.794 16.3796 30.077 16.5226 31.2195 16.8054C31.1657 16.4204 31.7195 16.3233 32.1928 16.1887C33.2063 17.1153 30.8143 17.2584 29.9493 17.7327C30.3818 18.3196 31.132 17.633 31.855 17.7327C32.4768 17.8239 32.3413 18.1714 33.1253 18.2012C34.1796 18.2335 35.2404 18.0717 35.9906 18.0472C35.68 18.5299 34.7742 18.5998 34.3955 18.6619C36.1119 19.0877 36.4231 20.5048 38.8424 19.7503C38.7886 20.2971 38.369 19.793 37.5585 20.0602C37.0651 20.3864 36.842 20.8412 35.9634 20.9817C36.7538 20.9571 36.9568 21.2211 37.2343 21.4501C36.4906 21.4987 36.0107 21.4236 35.6392 21.291C35.68 21.5686 35.2404 21.6171 35.315 21.9076C36.0989 22.3768 36.9704 23.1876 38.8087 22.6867C38.4371 23.4328 37.2207 23.7641 36.5716 24.384C38.2069 23.977 36.5989 24.8389 38.4637 24.8499C39.3287 24.7043 40.3558 24.0417 41.0185 24.6992C41.4581 24.3465 40.2073 24.1142 41.0321 24.0799C41.7486 24.1711 43.1544 23.2633 44.2152 23.0019C43.8365 22.5683 42.6538 22.525 41.9918 22.226C44.7696 22.5651 44.7489 21.4314 46.1417 20.3779C46.8245 19.8713 48.2503 19.9088 47.7433 19.2973C48.8385 19.2138 49.3248 18.834 49.6626 18.3759C49.21 18.3862 48.7639 18.3998 48.7166 18.2193C49.507 17.9663 49.9531 17.745 51.8997 17.7611C52.8794 18.3163 50.4939 18.7906 52.8321 18.6878C52.5688 19.1782 53.1161 19.2753 53.474 19.461C51.805 19.7386 53.2373 20.253 53.7846 20.2369C52.8995 20.5604 53.5551 20.6814 53.1427 21.1609C54.3254 21.1473 54.0485 20.9914 55.0484 21.1609C54.9809 20.6089 57.076 20.3016 57.2854 20.3902C56.7109 20.8186 58.3599 20.2531 58.8734 20.2395C58.9681 20.7455 61.5365 20.5734 60.4549 21.1687C60.7117 21.0878 60.9756 21.0095 61.4146 21.0121C61.6577 21.3059 61.9418 21.5835 62.0364 21.9445L62.5098 21.8669L62.6719 22.0985C63.3748 22.0772 63.3683 21.7135 63.3209 21.3279C64.4291 21.3712 64.835 21.2521 66.504 21.333C65.7402 20.8264 67.6731 20.3119 66.1935 19.9373C67.8761 19.6946 66.8218 18.6819 67.1596 18.0892C67.4838 17.534 68.6464 17.0629 68.7547 16.7692C68.6737 17.3541 69.3629 17.5664 69.7072 17.9358C71.2887 17.688 70.7207 18.4742 71.9372 18.4043C72.8359 18.1727 73.4039 17.7793 74.8025 17.7877C74.7416 17.9682 74.8635 18.0653 75.1203 18.0976L75.2759 17.8718L75.438 18.0976C75.783 18.4127 75.1747 19.5121 76.0527 19.9515C76.7958 19.9515 77.5395 19.9515 78.2826 19.9541C78.127 20.4388 79.0802 20.5119 79.5529 20.2666L79.3908 19.9839L79.8771 19.8059C79.2689 18.513 79.8907 18.4587 79.2689 17.1794C80.1812 16.8966 80.2623 16.929 81.4923 17.0228C79.8771 19.8059 80.0256 20.035 80.0256 20.035L79.8635 20.2666C80.5391 20.552 80.7693 20.8108 80.8166 21.0399C85.3245 20.5818 83.5472 17.589 84.3577 15.948C84.0536 15.0913 82.8981 14.7412 82.7963 13.4749C85.9184 14.0249 88.1626 13.6606 90.744 13.4859C90.7349 13.3849 90.7822 13.3124 90.8341 13.2426C91.6096 13.3519 92.3741 13.471 93.1574 13.5726C92.6348 13.9899 92.0434 14.3743 92.0006 15.0298C88.4051 14.7684 90.257 17.1794 88.162 17.6511C90.2162 18.2736 85.9184 20.3294 87.1751 21.5149C87.878 21.6009 87.6277 21.2185 88.1347 21.2075C88.162 22.3037 85.4451 22.0617 85.5735 23.2096C86.3373 23.2769 86.2627 22.932 87.1614 23.0588C87.094 24.0579 86.2556 24.6778 85.864 25.5319C87.0058 25.8904 89.1281 25.6342 89.689 25.222C89.6015 24.021 91.8515 23.3817 90.9865 22.2914C92.3313 21.5019 91.8515 19.8156 94.1897 19.5134C94.5548 18.064 94.9535 16.9833 96.4605 15.5022C95.7576 15.475 95.7712 15.1113 95.825 14.7263C96.3217 14.7444 96.6518 14.6797 96.9176 14.584C96.6984 14.8758 97.0985 15.3501 97.8662 15.2951C98.0692 15.0583 99.3259 15.1657 98.7987 14.6836L98.1703 14.4947L97.4065 14.3711C97.2632 14.384 97.2062 14.441 97.1193 14.4837C97.2775 14.3801 97.3501 14.2358 97.3611 14.0611C97.5537 14.0818 97.7411 14.1071 97.933 14.1271C98.0724 14.2954 97.8695 14.5076 98.691 14.4215C99.1209 14.3769 99.1378 14.3051 99.167 14.2701C99.2266 14.2759 99.2843 14.2844 99.3453 14.2908L99.5022 14.4513L99.2591 14.683C99.7324 14.7826 99.7454 15.0356 100.651 14.9929L100.422 14.7613L101.909 15.09C102.253 15.2168 102.598 15.3404 103.2 15.3837L102.504 15.3055C103.058 15.9221 101.274 16.4314 102.963 16.542C102.747 16.2107 103.626 16.2457 104.349 16.2347C104.707 16.5821 102.207 16.7226 103.883 17.0053C103.815 16.6177 104.599 16.5233 105.275 16.3906C106.782 17.3146 103.288 17.4602 102.017 17.9294C102.659 18.5169 103.761 17.8297 104.802 17.9345C105.714 18.0232 105.518 18.3733 106.654 18.4004C108.194 18.4354 109.749 18.2762 110.83 18.2497C110.404 18.7318 109.066 18.8016 108.506 18.8638C110.827 19.2585 111.496 20.4135 114.317 20.0175L114.236 20.1599C114.54 20.1172 114.655 20.1657 114.804 20.1961C114.538 20.2686 113.991 20.0706 113.135 20.2647C112.412 20.5876 112.087 21.0483 110.803 21.1861C111.972 21.159 112.262 21.4256 112.655 21.652C111.587 21.7032 110.884 21.6255 110.343 21.4955C110.397 21.7731 109.776 21.8164 109.87 22.1128C111.005 22.5819 112.283 23.392 114.966 22.8912C114.425 23.6373 112.641 23.9718 111.708 24.5859C114.087 24.1821 111.762 25.0415 114.492 25.0551C115.736 24.9069 117.237 24.2468 118.209 24.9043C118.845 24.5536 117.006 24.3219 118.209 24.287C119.263 24.3788 121.305 23.471 122.859 23.2122C122.305 22.776 120.575 22.7327 119.615 22.4337C123.663 22.7728 123.616 21.6359 125.657 20.5857C126.637 20.0816 128.725 20.1191 127.982 19.5102C129.59 19.4241 130.3 19.0417 130.779 18.5888C130.124 18.5965 129.468 18.6075 129.387 18.4296C130.55 18.1766 131.198 17.9579 134.03 17.9689C135.476 18.5292 131.989 19.0035 135.416 18.9039C135.023 19.3937 135.821 19.483 136.334 19.6746C133.902 19.9496 135.997 20.4666 136.794 20.4478C135.497 20.7688 136.47 20.895 135.862 21.3719C137.592 21.3609 137.179 21.2049 138.64 21.377C138.552 20.8193 141.6 20.5177 141.904 20.609C141.059 21.0321 143.485 20.4692 144.215 20.4556C144.364 20.9597 148.101 20.7921 146.54 21.388C146.905 21.3072 147.284 21.2289 147.919 21.2347C148.284 21.5259 148.696 21.8035 148.844 22.1613L149.547 22.0862L149.77 22.3179C150.784 22.2933 150.771 21.9322 150.71 21.5504C152.325 21.5906 152.906 21.4722 155.346 21.5556C154.231 21.049 157.049 20.5319 154.894 20.1657C157.36 19.9179 155.799 18.9078 156.299 18.3124C156.759 17.7598 158.462 17.2836 158.624 16.995C158.502 17.5767 159.496 17.7896 160.016 18.1584C162.314 17.9106 161.489 18.7001 163.26 18.6302C164.05 18.4923 164.693 18.3034 165.503 18.1701C165.529 18.2717 165.58 18.361 165.788 18.3739C165.816 18.2128 165.919 18.1468 166.03 18.0899C166.351 18.0543 166.731 18.0387 167.136 18.0316C167.245 18.0381 167.343 18.0316 167.45 18.0264C167.39 18.1947 167.542 18.2911 167.904 18.3247L168.005 18.2257C168.071 18.3726 168.232 18.4878 168.483 18.5778C168.585 19.0281 168.204 19.8195 169.275 20.1812C170.357 20.1838 171.445 20.1838 172.519 20.1864C172.303 20.6659 173.682 20.7416 174.384 20.4989L174.141 20.2136L174.844 20.0356C174.75 19.8991 174.738 19.8195 174.68 19.7076C174.868 19.7166 175.077 19.7347 175.285 19.7516C175.02 20.1968 175.074 20.2673 175.074 20.2673L174.844 20.4989C175.818 20.7817 176.155 21.0431 176.223 21.2722C182.271 20.8503 180.581 18.2911 181.183 16.6035C181.328 16.5679 181.431 16.511 181.393 16.3854C181.367 16.3744 181.337 16.3343 181.308 16.311C181.334 16.269 181.337 16.2185 181.366 16.1777C181.299 16.047 181.163 15.9422 181.048 15.8302C181.031 15.651 181.098 15.4866 181.406 15.4588L181.778 15.2272L182.359 15.3048C182.102 14.8661 182.805 14.9036 182.683 14.5315L182.21 14.6098C182.327 14.3724 182.86 14.1931 182.962 13.9699C184.981 14.0178 186.834 13.9336 188.701 13.8275C189.121 13.8482 189.536 13.8579 189.995 13.9259L190.115 14.0948C189.831 14.0553 189.541 14.1278 189.738 14.4921C190.147 14.4798 190.336 14.4319 190.433 14.3762C191.242 14.3413 191.339 14.0695 192.861 14.0825C192.374 13.8211 193.28 13.3739 193.51 13.0025C193.287 13.5195 194.172 13.2529 194.469 13.161C194.071 13.5331 194.023 13.7738 193.878 14.0029C193.217 14.3562 192.565 14.7114 192.516 15.2679C187.265 15.0065 189.982 17.4124 186.927 17.8867C189.921 18.5092 183.656 20.5624 185.501 21.7478C186.522 21.8391 186.157 21.4566 186.893 21.4404C186.941 22.5398 182.973 22.2946 183.169 23.4419C184.277 23.5092 184.176 23.1669 185.494 23.2937C185.399 24.2928 184.149 24.9127 183.615 25.7617C185.258 26.1227 188.353 25.8697 189.184 25.4627C189.036 24.2617 192.313 23.6205 191.063 22.5314C193.016 21.7394 192.293 20.0505 195.726 19.7535C195.837 19.45 195.956 19.1685 196.084 18.8903C196.38 18.8942 196.672 18.9324 196.955 19.0346L197.118 18.8003C197.287 18.9893 197.374 19.1666 197.746 19.4203L197.272 19.3445C197.057 19.8732 198.213 20.2589 199.198 20.7202C197.569 20.7953 196.671 20.6271 195.245 20.9901C194.751 22.5903 198.807 21.8552 201.273 21.6152C201.176 21.5802 201.128 21.5291 201.045 21.4896C201.634 21.3156 202.146 21.102 202.665 20.893C202.774 20.5378 201.753 20.7177 201.713 20.4297C202.28 19.9826 202.226 19.2307 202.997 18.8858C203.477 19.527 203.362 20.4595 205.214 20.4375C205.47 20.3003 205.565 20.0848 205.538 19.815C207.917 20.0466 208.201 19.252 209.363 18.8961C209.126 18.7564 209.032 18.546 209.052 18.2762L208.471 18.3519L209.005 17.8912L209.37 18.1229C209.549 18.1287 209.647 18.095 209.764 18.0704C209.19 19.6694 209.242 21.2263 209.613 23.1688C211.053 23.1876 211.83 22.9857 212.864 22.864C211.575 21.6605 211.612 20.2323 212.368 18.6573C212.668 18.7266 212.977 18.779 213.344 18.7447L213.188 18.8981C214.661 18.9065 214.769 19.5717 216.365 19.5231L216.73 19.2915C216.994 19.4261 217.237 19.5393 217.48 19.6014L217 19.6771C217.338 20.2537 216.202 20.1159 216.351 20.6038C216.486 20.8464 217.352 20.7358 216.979 21.2179L217.466 21.1428L217.497 21.192C217.014 21.8856 215.534 22.6046 215.64 23.0258C215.404 22.7864 215.16 23.0122 215.174 23.1766L215.877 23.3306L216.566 23.4865C218.033 23.416 218.209 23.7667 219.81 23.6457C222.27 22.8809 220.588 21.7465 223.554 20.7144L222.858 20.5371L223.095 20.2485C222.115 19.648 217.986 20.3618 220.303 20.8684C219.246 20.8426 219.249 21.1758 218.342 21.2023C218.768 21.1208 219.253 21.0684 219.526 20.9144C219.709 20.5747 218.932 20.6963 218.898 20.4511C219.899 20.5242 219.797 20.0628 220.182 19.8344C219.493 19.5866 219.283 19.527 217.323 19.3678C217.039 18.8748 217.83 18.8916 217.958 18.5972L217.485 18.5189C217.715 18.4574 217.958 18.4063 218.073 18.3442C218.114 18.1876 218.06 17.9993 217.972 17.9022L218.283 17.9779C218.302 17.0558 219.201 16.8047 218.945 15.7649C218.948 15.7649 218.948 15.7636 218.951 15.7636C218.949 15.761 218.946 15.7616 218.945 15.7591C218.936 15.7228 218.95 15.7021 218.938 15.6646C220.337 15.5488 218.675 15.9713 219.574 15.9745C220.432 15.673 221.013 15.2285 221.493 14.7406C222.049 14.7768 222.506 14.8622 223.105 14.8816C223.788 15.5222 225.133 15.9409 225.9 16.5504C225.109 16.5394 224.703 16.6637 224.514 16.8546C225.278 17.8517 223.574 19.0883 224.487 19.945L225.182 20.1256L224.939 20.4109C226.264 20.2841 226.142 20.629 227.271 20.5701C227.234 20.3689 227.25 20.1858 227.65 20.1346C228.041 20.2556 228.514 20.3339 229.015 20.3883C230.756 20.7778 232.703 21.2347 233.752 21.3486C231.819 22.3612 237.604 22.5741 236.543 21.1978C236.798 21.1583 236.979 21.0943 237.205 21.0451C237.523 21.379 237.891 21.7077 237.016 22.1755C237.205 22.2241 238.232 22.5612 238.299 22.1781L237.975 21.9083L238.617 21.8708C239.266 21.3887 239.489 21.7038 239.888 22.0267C240.814 22.0649 240.861 21.6766 241.794 21.7168C241.76 21.9381 241.733 22.1587 242.105 22.1833L242.261 21.9516L242.74 22.0293C243.153 21.663 244.024 21.674 244.336 22.0319C244.308 21.8138 244.288 21.5925 244.66 21.5653C244.693 22.1128 245.12 21.6087 245.93 21.8779C245.93 21.619 245.93 21.3634 245.937 21.1046C246.355 20.9487 247.113 20.9538 247.532 20.8005C248.059 21.6249 246.572 21.4657 246.565 22.0319C247.167 22.2047 248.066 22.2312 248.795 22.347C248.091 21.9012 250.033 21.8947 250.286 21.3939C253.109 23.0821 254.786 25.0816 258.655 26.6035C259.663 27.0002 260.823 27.2953 261.953 27.611C261.593 27.7217 261.336 27.8285 261.785 27.9236C262.065 27.8149 262.322 27.7832 262.555 27.7954C262.808 27.8627 263.026 27.954 263.283 28.018C263.619 28.2122 263.868 28.4878 264.001 28.7001C264.994 28.902 264.913 28.6593 266.231 28.7027C267.231 28.8884 267.596 29.3795 268.454 29.6325C268.384 29.4022 268.494 29.2611 268.636 29.1349C270.763 29.5128 272.926 29.8629 275.075 30.2104C274.847 30.5378 274.611 30.8665 274.482 31.1868C275.779 32.1005 276.158 33.4548 278.28 33.9725C278.604 34.6403 278.915 35.3062 280.821 35.2117C281.598 35.9636 281.186 36.4295 283.024 36.7608C284.355 36.3835 284.863 35.0991 287.173 35.6802L287.011 35.4485L287.491 35.5294C288.086 34.9062 289.669 33.7874 288.075 33.0601C289.098 33.3371 290.14 33.5817 291.177 33.8211C291.189 34.1537 291.267 34.4397 291.952 34.4546C292.053 34.8131 291.891 35.0473 291.628 35.2304C293.317 35.387 293.655 36.192 296.074 36.0037C296.319 35.2091 297.293 35.257 297.904 34.8014C301.101 35.0396 304.223 35.0525 307.288 34.9224C307.888 35.1411 308.53 35.3391 309.449 35.4058C309.368 36.3654 310.281 36.8475 311.659 37.1057C312.376 36.92 313.058 36.6611 313.558 37.1057C313.254 37.1109 313.322 37.2972 313.248 37.4156C315.363 37.2189 315.052 38.1915 316.1 38.5014C316.904 38.0465 317.005 38.0491 316.748 37.27C320.059 38.132 317.802 34.9049 320.904 34.7969C322.229 35.0337 322.107 35.9636 323.756 36.0419C323.736 36.8824 323.628 37.6771 324.371 38.2051C325.25 38.3584 325.351 37.3645 325.649 37.7444C325.135 38.2374 325.379 38.7655 325.96 39.1317C327.129 39.1343 328.291 39.1375 329.46 39.1375C328.994 38.5098 328.615 37.6609 330.109 37.2836C330.15 37.4072 331.157 37.7579 331.063 37.4428C330.549 37.028 330.34 36.8527 331.076 36.5136C333.624 36.7718 332.84 38.6367 336.145 38.5312C336.091 38.143 336.645 38.0517 336.793 37.7579C336.658 37.4642 336.104 37.3697 336.165 36.9847C336.564 36.7181 336.821 36.3784 337.746 36.3699C338.842 36.4075 338.396 37.1892 339.328 37.2972C340.2 36.4353 343.653 38.0757 344.43 36.8417C343.417 36.2276 345.221 35.9636 345.397 35.4517L344.761 35.4491C347.471 35.2576 349.478 34.3446 351.715 33.6011L354.486 32.866L354.324 33.1462C356.649 33.0705 359.197 32.3542 360.684 32.3807C360.684 32.5884 360.684 32.7929 360.684 33.0006C359.015 33.1598 358.028 33.6658 355.906 33.6147C355.317 34.2559 354.743 34.9024 353.986 35.4627C354.425 35.6167 354.399 35.9856 354.932 36.0826C354.5 36.4411 353.79 36.6618 353.013 36.8533C353.533 37.4163 356.358 37.5321 356.831 36.8585C356.913 36.3628 356.277 36.2036 356.527 35.6193C356.818 35.3495 357.305 35.1741 357.487 34.8512C358.785 34.8377 358.46 35.6135 359.704 35.6245C360.488 35.3819 361.123 35.0751 361.623 34.7005C361.15 34.5711 361.164 34.2016 360.995 33.9272C362.34 33.6393 363.523 33.1164 362.279 32.3865C363.421 32.3192 364.029 31.9983 364.509 31.6132C364.515 31.3059 364.522 30.9966 364.522 30.6892L363.948 30.7649C364.124 30.5145 364.245 30.3928 364.367 30.145L364.847 30.2259C365.577 30.0104 366.083 29.6901 366.752 29.4552C366.205 29.3122 366.361 28.8275 365.171 28.9893C364.11 27.7068 366.279 26.621 366.151 25.7455C366.354 26.0742 367.543 25.6161 367.11 25.1282C368.157 25.1657 368.651 24.9476 368.705 24.5141C367.523 23.9511 368.003 23.3261 368.097 22.3477C368.989 22.1704 370.206 22.1374 370.645 21.7336C369.688 21.7413 369.592 21.3751 369.844 20.9991C370.24 21.0528 370.703 21.0186 371.141 20.9312C370.886 22.1613 370.768 23.0853 371.571 24.3627L372.051 24.285C371.861 24.5406 371.888 24.7995 372.051 25.0557L371.571 24.98C371.49 25.4569 370.422 25.4543 369.969 25.7507C370.442 26.8578 369.476 27.2648 368.678 27.7579C369.996 28.2775 372.084 28.0569 373.456 28.2238C372.672 28.24 373.382 28.7382 373.767 28.6923C374.652 28.1727 375.47 28.9887 376.632 28.8515C377.213 28.0491 377.984 27.3373 379.505 27.0008C379.404 27.3593 378.822 27.6667 379.815 27.7741C381.113 27.171 384.472 28.682 384.6 27.3134C385.573 27.8149 387.175 27.3968 388.412 27.1678C389.709 28.7492 386.06 29.7406 386.154 30.7157C385.959 30.9286 384.938 30.7371 384.884 31.0231C384.621 31.4592 385.33 31.4243 385.195 31.7957C384.647 31.8281 384.37 31.5317 384.235 31.7931C384.539 31.9083 384.715 32.0759 384.871 32.2565C383.952 32.3237 383.417 32.5826 383.275 33.0297C383.958 33.4257 382.978 33.9052 383.58 34.1097C385.026 34.3006 384.6 33.5707 385.492 33.4956C386.709 34.3362 388.277 33.097 389.317 33.5014L389.784 33.5791C389.378 33.7027 389.108 33.8295 389.006 33.9156C388.837 34.2986 389.358 34.573 389.513 34.9205C389.608 34.9367 389.689 34.9535 389.776 34.9716C390.418 34.7128 390.675 34.4028 390.736 34.1958L390.898 34.4306C391.425 34.2262 391.398 33.7441 391.858 33.504C392.952 33.7894 393.473 33.396 394.088 33.0433C394.129 33.3209 393.703 33.3714 393.771 33.6626C395.244 33.5331 394.102 33.9052 394.73 33.9725C394.859 33.6302 396.285 33.9104 396.954 33.8185C397.015 33.9453 397.272 33.9725 397.272 34.131L397.745 34.0528L398.225 33.9751C399.732 33.1908 397.056 31.9303 395.055 31.4987C395.603 30.4187 394.42 30.3133 394.441 29.1847C394.948 29.1718 395.663 29.2579 395.718 29.0281C395.691 28.4244 394.17 28.5435 394.123 27.9456C395.035 27.6602 395.738 27.2804 395.42 26.4023C395.096 26.4049 394.785 26.4023 394.467 26.4023C394.183 25.6853 395.447 24.923 396.38 25.3242L396.704 25.2459L397.022 25.1651C397.853 24.9036 396.637 23.6321 398.624 23.9337C399.198 24.2352 398.36 24.7147 397.974 25.0136C398.427 25.2563 398.772 25.5527 399.562 25.6336L399.718 25.4045L399.874 25.1702C401.09 24.9735 399.712 24.4779 400.522 24.087L400.367 23.858L400.522 23.6263C399.651 23.691 400.238 23.0497 399.583 23.0064C398.076 23.2193 397.494 22.5211 396.724 22.8498C396.832 23.0549 397.278 23.0925 397.352 23.3131C396.811 23.2536 396.75 23.4315 396.71 23.6205C396.082 23.6179 395.446 23.6179 394.811 23.6179C394.264 22.9042 393.236 22.4266 392.594 21.764C392.486 22.1704 391.749 22.2842 390.999 22.3781L390.837 22.6071L390.357 22.6854C391.499 23.0866 390.195 23.5985 390.343 24.3879C390.114 24.4597 389.918 24.4882 389.716 24.5264C389.634 24.0592 388.246 23.4406 389.62 23.0976C388.958 22.8582 387.823 22.7715 386.383 22.7851C386.363 22.5185 386.735 22.3839 387.309 22.3218C386.845 22.0034 386.188 22.1218 385.572 22.2622C385.516 22.0202 385.385 21.742 385.229 21.443C385.296 21.4236 385.391 21.4133 385.457 21.3932C385.459 21.3169 385.295 21.212 385.086 21.1143C385.005 20.9105 384.941 20.7067 384.971 20.5151C385.474 20.5688 385.555 20.4096 385.597 20.2336C385.614 20.2259 385.627 20.2168 385.644 20.209C386.529 20.4135 386.847 20.3126 387.17 20.1683C387.31 20.2388 387.468 20.3029 387.789 20.3132C387.614 20.0389 388.2 20.0182 388.821 20.013C388.857 20.5164 388.995 20.9758 389.742 21.1409C390.303 21.0004 390.147 20.5132 391.337 20.6801C391.276 21.0626 391.493 21.3214 391.973 21.4534C392.454 21.2929 393.206 21.0716 393.591 20.7856C393.807 20.7934 393.971 20.7895 394.172 20.7927C394.166 20.8639 394.15 20.9396 394.183 20.9927C396.494 21.0839 397.622 22.4855 400.231 21.9277C401.13 22.2131 401.542 22.7249 403.076 22.7029C403.076 22.908 403.076 23.1151 403.076 23.3176C402.063 23.4522 401.873 23.1856 401.495 23.0077C401.454 23.2963 401.285 23.5254 400.846 23.6276L401.001 23.8592L400.846 24.0909C400.981 24.2307 401.13 24.3679 401.481 24.3976C401.468 24.8609 400.907 25.0492 400.197 25.1709L400.353 25.4563L399.873 25.6342C399.9 27.4201 400.819 28.0187 399.846 29.6513C400.549 30.1819 401.386 30.5779 400.792 31.3512C401.617 32.1782 403.124 32.6848 404.59 33.2128C403.563 33.361 404.428 33.9563 403.624 34.4468C404.334 34.7264 405.726 34.573 405.854 34.7568C404.813 35.6025 407.672 35.9746 406.787 36.4593C407.456 36.3945 407.631 36.5667 408.057 36.6152C408.659 36.1894 408.97 35.6129 409.983 35.3812C407.091 34.4947 408.868 33.0213 409.051 31.9814C409.436 31.6016 410.247 32.3024 410.646 31.8307C410.565 31.6611 410.018 31.7252 410.004 31.5181C410.748 31.0522 411.369 31.4295 412.559 31.5207L412.403 31.2916L412.876 31.3673C413.532 31.3266 412.958 30.6853 413.83 30.7533C414.505 30.8904 414.864 31.1816 415.425 31.3732C415.918 30.7966 416.864 30.6782 418.29 30.9125C418.695 30.2874 419.223 29.716 419.257 28.9052C420.629 28.8081 421.305 29.045 421.798 29.3711C422.846 29.3659 423.366 29.1045 423.717 28.7544C425.015 28.6897 426.907 29.5251 428.489 28.9188C428.773 29.188 429.198 29.395 429.759 29.538C430.948 28.9052 431.449 29.2954 432.935 29.5432C432.902 29.2656 433.327 29.2145 433.26 28.9233C432.935 28.5648 432.165 28.4251 432.314 27.8401C433.786 27.6492 434.877 27.2771 436.077 26.9575C436.724 27.1658 437.338 27.3917 437.869 27.6589C437.928 27.7217 437.979 27.7864 438.044 27.8459C438.058 27.8395 438.072 27.833 438.086 27.8265C438.389 28.0006 438.65 28.1954 438.855 28.4186C438.69 29.0191 438.548 29.5665 439.302 30.0091C440.978 28.5707 444.161 30.136 446.925 30.3301L447.087 30.101L447.243 29.8694C447.211 29.7263 447.253 29.6222 447.31 29.5258C447.83 29.5685 448.353 29.6163 448.872 29.6526C449.187 29.7678 449.478 29.8907 449.892 29.9742C449.848 29.8797 449.874 29.8072 449.903 29.7361C453.307 29.9496 456.684 30.0305 460.023 30.0117C459.659 30.5126 458.977 31.0341 458.692 31.5336C460.591 32.4441 461.139 33.8049 464.227 34.3219C464.7 34.9878 465.167 35.6582 467.937 35.5611C469.073 36.3156 468.492 36.7789 471.174 37.1102C473.101 36.7381 473.857 35.4504 477.209 36.0354L476.979 35.8063L477.675 35.8846C478.601 35.2188 481.379 33.9719 478.155 33.2549C479.298 33.1229 480.176 32.9022 481.872 32.9534C484.156 33.317 481.811 34.7768 484.17 34.8092C484.318 35.1677 484.095 35.4045 483.704 35.5799C486.164 35.7442 486.677 36.5524 490.198 36.3641C490.637 35.3534 492.854 35.7416 493.456 34.6694C495.456 34.7289 496.538 35.0868 498.552 35.1379C499.255 34.804 501.221 34.8933 501.35 34.3672C505.148 34.4992 506.04 35.5902 509.689 35.7708C509.581 36.7271 510.912 37.215 512.919 37.4706C513.967 37.2901 514.974 37.0319 515.704 37.4765C515.251 37.4816 515.346 37.6648 515.238 37.7864C518.306 37.5923 517.866 38.5623 519.408 38.8722C520.584 38.4193 520.719 38.4225 520.347 37.6408C525.186 38.5053 521.868 35.2725 526.396 35.1728C528.329 35.4077 528.146 36.3395 530.552 36.4152C530.525 37.2558 530.376 38.0504 531.471 38.5817C532.755 38.735 532.897 37.7411 533.323 38.121C532.586 38.614 532.931 39.1421 533.782 39.5083C535.479 39.5135 537.189 39.5135 538.885 39.5193C538.216 38.889 537.655 38.0401 539.824 37.6635C539.878 37.7871 541.365 38.1371 541.223 37.822C540.466 37.4072 540.162 37.2319 541.23 36.8954C544.94 37.1542 543.825 39.0159 548.644 38.913C548.569 38.528 549.367 38.4335 549.562 38.1423C549.373 37.8459 548.576 37.7515 548.65 37.369C549.238 37.1025 549.61 36.7627 550.975 36.7524C552.556 36.7951 551.907 37.5742 553.279 37.6816C554.543 36.8197 559.578 38.4626 560.713 37.2293C559.227 36.6204 561.862 36.3538 562.112 35.8387H561.193C565.147 35.6478 568.08 34.7315 571.317 33.9932L575.359 33.2549L575.129 33.5383C578.522 33.4678 582.218 32.7489 584.408 32.7786C584.401 32.9864 584.401 33.1908 584.401 33.3985C581.955 33.5603 580.529 34.0637 577.434 34.01C576.589 34.6513 575.744 35.2977 574.642 35.8581C575.27 36.0063 575.237 36.3809 576.028 36.4748C575.399 36.8333 574.359 37.0539 573.236 37.248C573.98 37.8084 578.116 37.9268 578.812 37.2532C578.907 36.7576 577.994 36.5984 578.352 36.0166C578.771 35.7442 579.468 35.5669 579.758 35.246C581.637 35.2324 581.17 36.0056 582.989 36.0244C584.11 35.7792 585.05 35.4724 585.786 35.1004C585.091 34.9658 585.111 34.5995 584.861 34.3245C586.821 34.0392 588.544 33.5137 586.733 32.7806C588.389 32.7185 589.287 32.3982 589.983 32.0151C589.983 31.7084 589.997 31.3958 589.997 31.0885L589.138 31.1609C589.395 30.9131 589.577 30.7921 589.76 30.5443L590.463 30.6251C591.51 30.4123 592.254 30.0913 593.247 29.8577C592.422 29.7173 592.666 29.2274 590.936 29.3892C589.375 28.1041 592.544 27.0183 592.356 26.1454C592.633 26.4767 594.37 26.016 593.748 25.5313C595.255 25.5714 595.985 25.3482 596.072 24.9172C594.335 24.3484 595.025 23.7318 595.16 22.754C596.478 22.5709 598.235 22.5411 598.877 22.1374C596.004 22.1594 598.343 20.5934 599.816 20.5934C599.336 22.2474 598.837 23.2413 600.255 24.7691L600.945 24.6882C600.668 24.947 600.708 25.2058 600.945 25.464L600.249 25.3831C600.248 25.3864 600.242 25.387 600.24 25.3902C600.438 25.0311 600.291 24.8169 598.667 24.5697C598.438 25.2945 597.032 25.4265 596.681 26.0943C597.179 26.0865 597.544 26.146 597.92 26.1997C598.551 27.2694 597.189 27.6777 596.045 28.1604C597.964 28.6807 600.992 28.4619 603 28.6321C601.864 28.6483 602.898 29.144 603.452 29.0954C604.75 28.581 605.946 29.3944 607.636 29.2546C608.487 28.4574 609.602 27.7463 611.826 27.4065C611.684 27.7702 610.819 28.0718 612.285 28.1798C614.171 27.5787 619.071 29.0987 619.246 27.7269C620.672 28.2284 623.01 27.8129 624.822 27.5787C626.708 29.1653 621.375 30.1541 621.538 31.1299C621.247 31.3428 619.753 31.1512 619.68 31.4346C619.294 31.8734 620.329 31.8384 620.139 32.2105C619.342 32.2403 618.943 31.9465 618.747 32.2105C619.173 32.3237 619.45 32.4907 619.673 32.6738C618.328 32.7411 617.551 32.9948 617.348 33.4419C618.335 33.8379 616.909 34.3174 617.808 34.5219C619.917 34.7186 619.275 33.9829 620.586 33.9104C622.35 34.751 624.641 33.5144 626.168 33.913L626.844 33.9939C626.249 34.1207 625.844 34.2443 625.708 34.3336C625.465 34.716 626.222 34.9884 626.439 35.3385C626.581 35.3547 626.702 35.3683 626.837 35.387C627.77 35.1308 628.142 34.8182 628.243 34.6138L628.466 34.848C629.244 34.6403 629.203 34.1608 629.865 33.9188C631.46 34.2068 632.23 33.8166 633.122 33.4607C633.176 33.7408 632.548 33.7868 632.656 34.0832C634.805 33.9512 633.136 34.3258 634.035 34.3931C634.244 34.0456 636.326 34.3316 637.285 34.2397C637.366 34.3633 637.752 34.3931 637.752 34.5497L638.454 34.474L639.144 34.3989C641.354 33.6173 637.441 32.3541 634.521 31.92C635.319 30.8367 633.595 30.7293 633.622 29.6002C634.345 29.5892 635.386 29.6785 635.467 29.4468C635.434 28.8463 633.21 28.9647 633.163 28.3636C634.474 28.0834 635.495 27.701 635.035 26.8229C634.569 26.8229 634.102 26.8203 633.636 26.8203C633.224 26.104 635.062 25.3443 636.427 25.7455L636.887 25.6672L637.36 25.5921C638.576 25.3255 636.799 24.054 639.698 24.3556C640.523 24.6545 639.313 25.1392 638.759 25.4362C639.421 25.6788 639.914 25.9752 641.063 26.0554L641.3 25.8264L641.536 25.5947C643.287 25.4006 641.293 24.9023 642.476 24.5141L642.253 24.2824L642.483 24.0475C641.199 24.1148 642.044 23.4768 641.084 23.4283C638.894 23.6386 638.049 22.9436 636.914 23.2691C637.083 23.4736 637.732 23.5143 637.84 23.7324C637.042 23.6761 636.961 23.8534 636.907 24.0424C635.981 24.0398 635.056 24.0398 634.123 24.0398C633.339 23.3228 631.825 22.8517 630.893 22.1807C630.731 22.5929 629.676 22.6977 628.568 22.7974L628.339 23.0264L627.636 23.1041C629.292 23.5053 627.399 24.0152 627.629 24.804C623.581 25.6743 622.473 23.8825 620.222 23.2497C621.703 22.8964 619.574 21.7976 619.77 20.9299C620.56 20.9862 620.648 20.8083 620.702 20.6225C623.372 21.0541 622.534 20.1948 625.345 20.3158C625.386 20.8678 625.548 21.377 626.73 21.555C627.555 21.4178 627.311 20.9306 629.049 21.0943C628.974 21.4799 629.285 21.7381 629.967 21.8701C631.184 21.5899 633.779 21.1667 632.299 20.4828C633.982 20.3404 632.941 21.0917 633.225 21.4094C636.59 21.5039 638.233 22.9074 642.024 22.3496C643.342 22.6324 643.95 23.1494 646.194 23.1254C646.194 23.3299 646.194 23.5402 646.194 23.7421C644.714 23.8767 644.43 23.6075 643.883 23.4322C643.809 23.7201 643.573 23.9492 642.951 24.0463L643.174 24.2811L642.937 24.516C643.14 24.6506 643.342 24.7904 643.87 24.826C643.856 25.2867 643.032 25.4724 641.997 25.5967L642.234 25.8768L641.531 26.0574C641.579 27.8407 642.923 28.4412 641.504 30.0712C642.525 30.6019 643.755 31.0037 642.883 31.7769C644.099 32.6039 646.302 33.108 648.424 33.6386C646.931 33.7842 648.208 34.3853 647.025 34.87C648.073 35.1528 650.08 34.9994 650.283 35.1825C648.769 36.0257 652.925 36.403 651.648 36.8876C652.614 36.8203 652.878 36.9924 653.506 37.0442C654.391 36.621 654.817 36.0393 656.297 35.8102C652.08 34.9211 654.662 33.4503 654.932 32.4104C655.486 32.0332 656.682 32.7308 657.257 32.2597C657.149 32.0901 656.331 32.1516 656.331 31.9471C657.412 31.4838 658.311 31.8611 660.048 31.9555L659.804 31.7239L660.507 31.799C661.467 31.7588 660.622 31.115 661.907 31.1823C662.88 31.3246 663.4 31.61 664.225 31.8015C664.948 31.2308 666.313 31.1092 668.395 31.3434C668.989 30.7183 669.767 30.147 669.814 29.3387C671.801 29.2417 672.794 29.4817 673.511 29.8072C675.045 29.8021 675.795 29.538 676.309 29.1932C678.194 29.1259 680.972 29.9638 683.263 29.3569C683.682 29.6267 684.297 29.837 685.115 29.9768C686.852 29.3465 687.582 29.7373 689.758 29.9826C689.697 29.705 690.319 29.6565 690.224 29.3659C689.751 29.0074 688.636 28.8644 688.838 28.2827C691.407 28.0562 693.129 27.5528 695.346 27.2079C696.259 27.4693 696.61 27.919 697.191 28.2937C697.651 28.1378 698.117 27.9812 698.583 27.833C698.745 28.8431 697.333 29.7671 699.022 30.4601C701.482 29.0217 706.132 30.5837 710.16 30.783L710.396 30.552L710.626 30.3204C710.497 29.9671 710.748 29.7412 711.565 29.7063L711.336 29.472L712.032 29.3963C711.667 28.9925 708.18 28.8308 709.721 28.3112C709.646 28.9951 710.856 28.2976 712.032 28.4704L711.803 28.3138L712.039 28.1604C712.715 27.2661 710.255 27.4143 709.261 27.0772C710.707 26.7349 707.255 26.7245 708.349 25.9888C709.957 25.8704 710.127 26.2256 711.586 26.1506L711.357 25.9189L712.052 25.8432C710.903 25.4718 710.052 24.725 712.059 24.4533C712.369 25.2239 714.614 25.3534 715.763 25.849C714.343 25.2479 719.378 24.8409 720.419 25.0835C720 25.1508 719.581 25.2181 719.487 25.3883C720.23 25.3475 720.284 25.5365 720.872 25.5468L721.568 25.4718L722.271 25.5468C722.744 25.4524 724.386 24.8467 723.669 24.0061L723.041 23.8178C723.987 23.7337 724.582 23.4568 724.974 23.1766L725.535 23.3869C726.454 23.4432 726.988 23.3578 726.921 23.0802C728.84 22.9611 727.786 23.8237 729.705 23.7026C731.077 23.5461 731.077 22.9236 733.422 23.0912C733.868 23.7027 730.833 23.1507 731.097 23.7026C732.138 23.7725 731.273 24.4649 731.557 24.7859C732.368 24.8771 734.274 24.6053 734.335 24.9476C732.922 25.3598 732.023 25.0906 730.158 24.9399C726.543 25.2362 729.138 29.1563 732.922 27.4182C732.389 27.2351 732.402 26.8714 732.463 26.489C733.733 26.7368 734.693 27.0895 736.639 27.1115C736.646 26.6967 734.693 26.3867 736.646 26.1849L737.341 26.1117L737.571 26.3408C738.551 26.3033 739.956 26.0982 741.288 26.3486L741.821 26.1176L742.673 26.1926C742.603 25.871 742.732 25.4815 742.673 25.1547C758.365 28.0038 777.214 31.0885 798.097 29.6603C799.171 31.1447 800.178 32.6667 803.077 33.2193C806.361 32.0151 817.729 33.8204 818.04 31.6922C826.907 36.2205 839.599 30.598 848.952 34.2378C851.885 32.8479 857.684 32.9314 858.92 30.6737C863.32 30.8866 866.618 30.5365 868.896 29.661C871.585 31.8488 880.838 34.1194 883.845 31.6922C884.602 29.9541 879.797 31.0483 880.851 29.1517C882.176 29.1459 881.764 28.2594 882.858 28.1332L882.351 27.371C883.385 27.899 884.859 27.8369 886.21 27.9605L883.851 27.5994C884.378 25.5002 888.021 24.9968 891.819 24.5736L891.332 23.8114C892.65 24.0838 893.982 23.9867 895.32 23.8114L894.82 24.5736C895.941 25.8639 899.239 26.0496 902.795 26.0982L904.288 25.8451C903.626 26.2923 903.085 26.7854 902.795 27.1167V26.6074C892.144 27.8841 899.936 31.6048 896.8 33.7279C901.348 33.1384 908.336 31.5214 909.769 34.7438C922.367 35.4039 924.88 32.3438 935.694 34.2372C936.761 31.0503 945.405 31.7342 949.662 30.1664L950.156 30.4226C950.243 30.6594 950.359 30.8969 950.453 31.1363C952.487 31.7342 954.981 31.1901 957.13 31.6107L951.48 30.6491C957.481 30.3747 961.272 27.6207 966.605 28.6418L966.105 28.1326L968.599 29.4093L967.612 29.1511C968.065 30.7429 966.733 31.4191 963.611 31.1849C964.186 33.4367 970.599 32.7042 970.599 35.2557L972.086 34.9994L971.593 35.7617C973.046 35.4867 976.742 36.3544 976.573 35.255L976.08 34.4895C976.742 34.4682 977.405 34.3951 978.074 34.32L977.58 35.255C981.804 35.4893 988.002 36.7931 991.536 35.7617C991.658 33.8677 983.818 34.3582 987.542 32.2027C985.278 31.8365 982.453 31.7478 980.574 31.1849V31.6915L980.067 29.9134L980.574 30.673C983.311 30.0486 991.651 30.2582 991.536 32.7126C994.989 32.9818 1000.99 31.9555 1001.51 33.7279C999.321 33.6341 998.334 34.1427 998.51 35.2557C1003.84 34.4015 1002.84 36.7802 1006.49 36.7802C1006.34 35.5164 1006.3 34.3096 1008.49 34.2372C1018.78 35.5223 1035.13 39.3045 1042.39 34.7438C1044.28 36.1499 1051.32 34.9347 1052.36 36.7808L1053.85 37.0339L1053.35 37.7961C1059.11 37.5696 1063.26 38.1675 1065.32 39.8299C1060.46 40.2744 1058.7 39.1343 1055.35 38.814C1052.47 43.2452 1062.64 45.1988 1071.3 45.4278C1071.42 46.6909 1073.17 46.9983 1071.3 47.9708C1079.32 49.0081 1091.65 50.4013 1101.21 48.9868C1100.9 47.7936 1099.64 47.0766 1100.21 45.4285L1098.39 45.6815C1098.69 44.9994 1098.67 44.3239 1098.72 43.6477L1100.21 43.9007C1103.66 43.8444 1104.85 44.927 1104.21 46.953C1111.66 47.1173 1115.92 47.9708 1126.14 46.953C1126.38 41.4787 1139.7 42.6719 1144.08 39.3206C1146.74 39.3284 1149.79 39.1298 1151.08 39.8299C1151.15 37.4991 1157.77 38.504 1162.04 38.3021C1159.29 35.6323 1162.25 33.0595 1166.03 32.2027L1165.53 31.4379L1167.03 31.1849C1166.08 30.1398 1163.1 30.134 1163.04 28.6418C1168.76 27.7612 1176.79 28.7253 1177.99 24.5736C1175.65 24.0728 1173.09 23.6819 1170.01 23.5551L1170.51 24.3206L1168.51 22.2868L1170.01 22.5398C1170.01 22.0332 1170.01 21.5239 1170.01 21.0147C1170.63 20.3061 1173.86 20.937 1174 19.9936L1172.51 19.4041C1173.84 19.175 1175.16 18.9757 1176.5 18.5525L1176 19.4876C1180.01 19.1375 1181.69 19.9729 1184.98 19.9942C1185.24 18.2458 1188.83 15.552 1190.96 16.4353C1191.66 18.3183 1189.25 18.6198 1189.96 20.5035C1193.48 20.231 1195.1 20.9344 1195.94 22.0338C1194.1 22.7637 1195.73 24.4772 1197.94 25.5928C1202.32 25.6251 1206.08 25.3372 1206.91 23.5558H1204.91V22.5405C1204.25 22.5405 1203.59 22.5405 1202.92 22.5405C1202.42 20.9377 1205.09 20.5526 1202.92 19.4882C1209.19 17.9417 1216.31 17.9714 1223.85 18.9815C1224.4 17.3651 1230.59 16.0043 1233.83 17.4512C1232.07 17.8983 1230.92 19.065 1228.84 17.963C1227.35 20.0156 1229.01 20.5248 1223.85 20.5035C1224.84 23.2943 1215.73 24.3452 1220.87 26.0988C1216.11 26.2793 1214.29 25.013 1212.89 27.1173C1214.25 30.0674 1222.73 26.6779 1222.87 29.6603C1222.21 29.6603 1221.53 29.6603 1220.87 29.6603L1221.37 30.4226L1219.87 30.673C1219.25 31.7129 1214.83 30.8186 1215.88 32.7126L1217.37 33.308L1216.88 34.2372C1219.08 34.8111 1218.43 36.8371 1220.87 37.2869C1218.2 37.9928 1217.13 39.1485 1218.87 40.8458L1220.37 41.1014L1220.87 41.8663C1221.2 41.8663 1221.53 41.8663 1221.87 41.8663C1223.57 40.5676 1220.72 40.0855 1222.87 39.3206C1225.23 40.0855 1225.08 40.8452 1225.85 41.357C1235.42 40.134 1249.92 41.4275 1252.77 36.7795C1251.88 35.882 1249.1 35.9364 1248.79 34.7425C1253.02 34.1957 1254.41 32.1911 1256.77 30.6717C1266.23 30.2544 1266.78 25.2699 1276.7 25.079C1276.7 24.5723 1276.7 24.0663 1276.7 23.5538L1275.2 22.9611L1275.7 22.0319C1274.22 21.5932 1273.56 20.7494 1273.72 19.4863C1275.13 19.6105 1275.39 20.3242 1276.7 20.5022C1277.97 19.287 1280.35 18.6328 1279.7 16.434C1276.56 15.8548 1277.28 17.2338 1275.7 17.4499C1274.84 16.709 1274.21 15.8386 1271.72 15.9221L1270.72 16.1784C1270.59 15.8794 1270.11 15.2679 1269.23 14.6538L1270.72 14.9068C1272.61 15.8095 1277.31 15.2789 1280.69 15.4161C1279.55 13.8185 1282.26 14.1821 1282.7 13.3817L1281.2 12.7922L1287.18 11.9413L1286.67 12.8763C1291.81 12.2726 1290.68 14.0644 1289.67 15.4168L1291.03 16.0367L1290.67 16.9419C1294.74 16.3278 1298.25 13.2264 1303.64 14.9075L1305.12 15.1637L1304.62 15.9234C1308.15 16.3731 1309.77 14.6228 1310.61 16.4353L1312.44 16.179L1313.59 16.9413C1314.59 16.9413 1315.6 16.9413 1316.59 16.9413C1316.29 17.9436 1317.93 17.9514 1318.58 18.4716C1316.04 18.5253 1316.61 20.1741 1316.59 21.5239C1319.25 21.5239 1321.91 21.5239 1324.56 21.5239C1326.71 18.8864 1330.7 17.1865 1333.54 14.9075C1337.31 15.0266 1342.56 14.3795 1343.51 15.9228C1346.2 14.3633 1351.52 13.2018 1348.5 11.3511C1348.65 13.59 1345.68 11.4941 1344.5 11.3511V11.8578C1344.22 11.6689 1343.93 11.478 1343.71 11.2541C1342.8 11.1033 1341.43 11.1007 1340.52 11.3511V10.8419C1338.64 9.81819 1341.75 8.47614 1344.5 8.29884C1347.52 9.13099 1349.88 10.3113 1355.49 9.82337C1355.63 11.9406 1355.82 14.0663 1353.48 14.9068L1354.98 15.1631C1353.27 15.4381 1351.5 15.354 1350.79 15.5345C1350.61 15.7882 1350.33 16.2703 1350 16.6876L1349.5 15.9221C1344.1 16.9031 1344.06 20.6128 1339.52 22.0325C1330.26 21.6876 1325.25 27.5256 1318.58 30.1657C1315.78 29.5626 1315.9 27.4661 1314.59 26.0975C1308.89 25.5908 1307.47 31.4482 1302.64 28.1313C1304.74 27.501 1307.22 25.5346 1305.62 24.5723C1301.15 24.8338 1301.74 27.6732 1296.64 27.6246C1295.34 26.3505 1300.59 26.0296 1297.64 25.5908C1298.36 26.4178 1292.94 26.4178 1293.65 25.5908L1292.66 25.8438L1293.15 24.3193L1293.65 25.079C1296.18 24.4999 1295.91 22.4984 1297.64 21.5226C1295.65 21.5226 1293.65 21.5226 1291.66 21.5226C1290.28 21.8326 1291.51 23.4788 1289.67 23.5538L1290.16 24.0657C1289.36 24.2462 1288.93 24.9328 1288.67 25.3346L1287.67 25.0784C1286.33 24.9192 1285.77 24.3562 1283.69 24.5717C1284.15 26.1667 1281 25.9163 1280.69 27.1147C1281.62 27.6563 1284.38 27.2681 1283.69 28.6392C1283.08 28.6716 1282.5 28.7169 1282.7 29.1485L1283.19 29.9108L1282.7 30.6704C1283.46 30.7863 1283.84 31.0988 1283.69 31.689L1282.19 31.9445C1283.19 31.9776 1284.19 31.7135 1285.18 31.4359L1284.69 32.2008C1291.2 32.2629 1296.09 33.1656 1298.64 35.2531C1301.33 33.5746 1307.63 33.7253 1309.61 31.689C1311.49 32.6583 1309.02 32.613 1309.61 34.2346C1312.01 34.4423 1311.79 33.3054 1314.59 33.7253L1314.1 32.9631L1315.6 32.71C1315.81 32.1387 1316.7 31.918 1317.59 31.689C1317.59 31.8611 1317.59 32.028 1317.59 32.2008L1319.42 31.9445L1320.59 32.71C1326.67 32.6563 1328.37 34.8383 1331.55 36.2658C1329.81 36.3065 1328.45 36.1551 1327.55 35.7598C1326.76 37.5243 1329.05 37.7152 1328.56 39.3187C1334.47 39.0172 1337.43 40.213 1343.51 39.828C1343.16 37.9527 1345.99 37.7049 1348.5 37.2849C1348.08 32.8453 1356.81 28.8657 1365.45 28.1306C1376.76 27.1717 1389.25 30.9674 1399.35 31.1829C1401.23 30.2129 1398.77 30.2615 1399.35 28.6399C1401.94 27.9902 1402.35 27.5243 1405.33 28.1306C1404.06 25.7843 1409.23 26.7297 1410.31 25.5902C1408.7 25.8167 1408.7 22.8181 1410.31 23.0471C1410.33 24.0547 1413.04 23.6936 1412.32 25.0784C1409.04 26.3906 1412.27 29.0547 1409.32 29.6584C1412.36 29.0197 1413.19 29.2676 1415.3 30.1651C1417.97 28.3733 1414.69 26.7142 1418.3 25.5902C1422.11 25.6737 1419.87 28.858 1424.28 28.6399C1428.51 28.594 1423.76 23.9712 1429.26 24.5717C1428.78 26.6838 1431.1 27.3684 1432.26 28.6399C1436.16 27.778 1443.44 26.3958 1440.23 23.5532C1445.94 23.801 1446.15 20.1049 1449.21 20.5009C1446.33 18.8334 1453.82 18.13 1458.18 18.4697C1457.08 16.4223 1454.13 16.454 1456.18 13.8871C1459.32 13.634 1460.26 15.0887 1461.17 13.3804C1456.7 12.446 1454.37 10.409 1451.2 8.80357C1452.7 8.71751 1454.88 8.98669 1455.19 8.2969C1449.97 5.20902 1460.83 2.52039 1464.16 5.24461C1464.16 5.41479 1464.16 5.58433 1464.16 5.75128L1465.66 5.49827L1465.16 6.26377C1468.2 8.10666 1467.45 5.7681 1472.13 6.77043L1473.63 6.51742C1473.63 6.51742 1475.13 6.26441 1474.13 5.75192C1474.28 4.48558 1477.51 5.60374 1475.13 6.26377V7.28228C1474.4 7.87242 1473.8 8.79127 1473.42 9.28952C1474.05 9.648 1475.41 9.79878 1476.63 10.0764L1475.67 8.28461C1487.47 8.06654 1490.05 11.0515 1495.08 13.3817C1491.74 13.8424 1494.2 14.5192 1495.08 15.4161C1493.58 15.5048 1491.4 15.2356 1491.09 15.9221C1493.47 16.7465 1495.78 17.6007 1500.06 17.4499L1499.56 16.6876C1501.48 17.1561 1503.52 17.4369 1505.54 17.7061L1504.05 17.9624C1503.74 18.6496 1502.63 18.9324 1503.06 19.9936C1508.75 18.5978 1512.53 21.2489 1520 20.5028L1519.5 19.9936L1520 19.4869C1520 19.3174 1520 19.1504 1520 18.9802L1517.51 19.2332L1518.89 18.3092C1520.39 17.4874 1522.22 16.7976 1522.82 15.6685L1523.98 16.434C1525.2 16.3777 1526.35 16.2832 1525.98 15.4155C1526.64 15.4155 1527.31 15.4155 1527.97 15.4155L1528.48 14.6532C1529.5 15.1489 1530.79 15.717 1532.47 16.1777L1530.96 15.9215C1531.07 17.5735 1535.49 17.0131 1533.96 19.4856C1530.04 20.9836 1526.07 19.5529 1521.99 20.5015L1522.48 21.0134L1521.99 21.5226C1523.84 21.5932 1522.61 23.2439 1523.98 23.5538C1520.8 23.1093 1520.87 24.3355 1520 25.079L1521.7 25.4375C1521.01 25.9306 1520.41 26.4366 1520.17 27.369L1519 26.6068C1516.69 26.445 1515.17 26.6902 1514.01 27.116L1514.51 27.8783C1512.23 27.9831 1512.09 29.274 1511.17 30.2408L1510.19 30.928L1509.02 30.1657C1505.33 30.5268 1504.75 29.298 1501.06 29.659L1499.89 30.4213L1498.06 30.1651C1497.74 31.3453 1498.22 32.118 1499.06 32.7107C1504.37 32.611 1506.52 31.8565 1509.02 33.726C1507.56 33.8204 1508.12 34.9548 1508.03 35.7604C1517.33 34.7878 1525.72 38.4219 1533.96 37.7942C1537.43 37.5328 1538.5 35.4097 1542.93 35.7604C1542.93 34.9172 1542.93 34.0657 1542.93 33.2174C1539.44 32.501 1536.56 34.6422 1534.95 33.2174C1535.38 32.083 1539.88 33.0129 1541.94 32.7107C1541.98 32.0106 1541.46 31.5925 1540.94 31.1836L1539.44 30.5902C1541.05 30.2673 1541.83 30.0816 1543.43 29.7419L1542.93 30.6711C1544.92 31.1881 1547.19 31.555 1547.92 32.7107C1546.35 32.754 1544.46 32.6408 1544.92 33.726C1545.94 34.7367 1546.65 35.8976 1548.92 36.2664C1550.01 34.4106 1556.67 34.3918 1558.89 35.7604C1556.61 36.291 1556.12 37.7372 1553.9 38.3008L1554.41 38.8127L1554.9 39.3194C1557.7 41.5906 1565.5 38.9906 1570.86 39.3194C1570.92 37.8298 1573.14 37.4338 1574.84 36.7789C1581.4 36.6903 1582.05 35.0253 1585.8 33.2174C1589.25 31.566 1589.16 32.0293 1590.79 30.1651C1591.76 29.0708 1596.81 28.1119 1596.77 28.1313C1597.45 27.6279 1597.06 26.2942 1597.77 25.5908C1598.26 25.1094 1599.24 24.6118 1600 24.1304ZM736.204 24.0158C736.576 23.8838 737.481 23.9272 737.596 23.7085C737.677 23.1908 737.885 22.6395 738.116 22.0836C739.304 22.8938 740.51 23.6949 741.583 24.5639C741.636 24.6066 741.696 24.6442 741.747 24.6875L741.374 24.7192L740.84 24.4876C739.428 24.5277 739.178 24.9645 737.124 24.7917C736.927 24.4953 736.13 24.3983 736.204 24.0158ZM371.296 20.2116C371.279 20.2116 371.257 20.2052 371.241 20.2058C371.26 20.2045 371.282 20.1877 371.3 20.1877C371.3 20.1961 371.298 20.2032 371.296 20.2116ZM248.504 18.48C248.473 18.2199 248.83 18.1487 248.819 17.8944C250.881 18.8651 251.715 19.859 249.965 20.838C249.433 20.1191 249.355 18.878 248.504 18.48Z" />
<path class="elementor-shape-fill" d="M1279.71 29.6545L1279.21 30.4168L1280.7 30.6672C1281.63 32.7385 1275.3 32.4292 1273.72 31.6857C1275.16 30.7293 1275.96 29.4338 1279.71 29.6545Z" />
<path class="elementor-shape-fill" d="M1213.46 41.3091C1213.16 41.1984 1212.78 40.8995 1212.39 40.5869L1211.9 41.3518C1205.61 40.4439 1197.31 43.957 1190.96 41.3518L1191.46 40.5869L1189.96 40.3339C1191.75 39.8952 1193.09 39.2158 1193.96 38.2976V38.8094H1194.95C1198.17 40.9105 1206.29 39.111 1207.91 37.2816C1211.56 38.7389 1212.78 37.1548 1215.89 37.7909C1216.35 39.3426 1213.06 38.9764 1213.82 40.6788L1220.38 41.0962C1218.11 41.7375 1215.73 40.7972 1213.46 41.3091Z" />
<path class="elementor-shape-fill" d="M1182.98 26.0929C1186.97 26.5944 1188.97 26.5944 1192.96 26.0929C1193.65 28.3557 1187.52 32.1975 1192.96 32.1975C1191.21 34.0132 1185.58 33.8572 1181 34.2312C1180.33 32.7009 1177.16 32.4563 1178 30.1604L1177.51 29.6538L1177 29.1445C1178.77 27.7281 1185.82 28.445 1182.98 26.0929Z" />
<path class="elementor-shape-fill" d="M961.624 31.1797C962.455 32.6182 960.218 32.4972 960.624 33.7227L959.137 33.4697L957.644 33.7227C956.711 33.3513 956.123 32.8013 955.65 32.1982L957.137 31.6055L956.643 30.6679C959.461 30.2498 959.225 31.3919 961.624 31.1797Z" />
<path class="elementor-shape-fill" d="M1519.01 24.0617C1512.9 21.6636 1517.15 20.0906 1519.01 24.0617V24.0617Z" />
<path class="elementor-shape-fill" d="M795.109 32.7068C796.542 31.2036 795.873 33.8838 793.115 33.2134C791.297 32.8174 793.717 32.666 795.109 32.7068Z" />
<path class="elementor-shape-fill" d="M1461.39 9.81295C1460.89 9.98284 1460.36 10.1151 1459.68 10.0723L1461.39 9.81295Z" />
<path class="elementor-shape-fill" d="M1464.66 9.30892L1461.39 9.81295C1462.33 9.48424 1463.15 9.00997 1464.66 9.30892Z" />
<path class="elementor-shape-fill" d="M28.4976 22.4479L34.8164 21.5187C33.1409 22.3269 30.8157 23.0083 28.4976 22.4479Z" />
<path class="elementor-shape-fill" d="M1310.11 24.822C1310.71 24.5898 1311.91 24.6009 1313.1 24.5684L1310.11 24.822Z" />
<path class="elementor-shape-fill" d="M1599.27 32.1976L1600 32.204V32.2352C1599.76 32.2235 1599.52 32.206 1599.27 32.1976Z" />
<path class="elementor-shape-fill" d="M1541.94 39.3154L1551.22 38.9381C1548.13 39.2643 1545.38 39.9916 1541.94 39.3154Z" />
<path class="elementor-shape-fill" d="M1500.38 28.2135L1499.9 30.4174C1498.79 29.6461 1499.88 28.9538 1500.38 28.2135Z" />
<path class="elementor-shape-fill" d="M1462.67 6.51287L1465.66 5.49437C1464.53 5.99263 1463.47 6.30516 1463.16 6.6067C1463 6.57694 1462.84 6.54458 1462.67 6.51287Z" />
<path class="elementor-shape-fill" d="M1318.09 33.9732C1318.21 35.1101 1316.99 36.0853 1316.27 37.1141L1318.09 33.9732Z" />
<path class="elementor-shape-fill" d="M1310.62 17.1916L1312.44 16.1731C1311.94 16.5639 1311.19 16.9845 1310.62 17.1916Z" />
<path class="elementor-shape-fill" d="M1296.65 18.4664L1305.13 15.1579C1302.99 16.6798 1301.09 18.8462 1296.65 18.4664Z" />
<path class="elementor-shape-fill" d="M1291.03 16.0308L1288.18 16.6824C1289.19 16.3349 1290.11 16.2327 1291.03 16.0308Z" />
<path class="elementor-shape-fill" d="M1275.21 22.9572L1280.53 22.448C1278.5 22.8517 1276.85 22.8013 1275.21 22.9572Z" />
<path class="elementor-shape-fill" d="M1187.24 40.3714L1191.46 40.5869C1189.95 41.1647 1188.66 40.5394 1187.24 40.3714Z" />
<path class="elementor-shape-fill" d="M1221.38 30.4174C1220.61 30.2181 1219.86 30.0692 1219.38 29.9081L1221.38 30.4174Z" />
<path class="elementor-shape-fill" d="M1169.28 31.8151C1171.82 31.047 1174.38 30.0123 1177.51 29.6538L1169.28 31.8151Z" />
<path class="elementor-shape-fill" d="M1169.28 31.8151L1175.51 33.7226C1172.63 34.0378 1170.17 33.2024 1169.28 31.8151Z" />
<path class="elementor-shape-fill" d="M1165.53 31.4327L1169.28 31.8151C1168.18 31.8235 1166.83 31.6596 1165.53 31.4327Z" />
<path class="elementor-shape-fill" d="M1053.85 37.028C1052.24 37.4693 1050.43 37.6343 1048.68 37.9087L1053.85 37.028Z" />
<path class="elementor-shape-fill" d="M959.137 33.4697L961.124 34.7386C960.732 34.571 959.935 34.1239 959.137 33.4697Z" />
<path class="elementor-shape-fill" d="M1522.49 21.0088C1521.28 20.99 1520.7 20.4484 1519.91 20.1229L1522.49 21.0088Z" />
<path class="elementor-shape-fill" d="M1319.42 31.9413C1319.01 32.6181 1318.94 33.3022 1318.09 33.9732L1319.42 31.9413Z" />
<path class="elementor-shape-fill" d="M1314.11 40.42L1314.6 41.3524C1302.7 40.816 1289.17 41.0961 1283.69 37.2816C1282.63 35.385 1287.43 36.4786 1286.68 34.7386C1287.85 35.5041 1289.57 35.9861 1289.68 37.2816C1299.64 36.9341 1307.69 39.4584 1312.62 37.7909L1313.77 38.5531C1314.68 37.7611 1315.63 37.2811 1316.27 37.1141C1318.06 37.7334 1319.8 38.3836 1321.11 39.2403C1319.79 40.5041 1316.63 40.8457 1314.11 40.42Z" />
<path class="elementor-shape-fill" d="M0 23.4004V18.2846L6.90504 24.0611C4.5182 24.0041 2.18323 23.8003 0 23.4004Z" />
</svg>
