<svg viewBox="0 0 1600 46" xmlns="http://www.w3.org/2000/svg">
<path class="elementor-shape-fill" d="M242.871 37.5111C242.932 37.7423 245.635 38.7368 245.405 37.8749C245.196 37.0396 242.723 36.9142 242.871 37.5111Z"/>
<path class="elementor-shape-fill" d="M304.593 35.3256C303.694 36.2505 306.376 37.4028 307.134 36.4188C305.174 36.5305 306.188 35.3652 304.593 35.3256Z"/>
<path class="elementor-shape-fill" d="M264.862 36.0517C265.842 36.3622 267.126 36.5344 269.086 36.4188C270.573 34.7905 264.612 35.1106 264.862 36.0517Z"/>
<path class="elementor-shape-fill" d="M296.99 33.8686L297.402 34.5362L296.132 34.9617C297.571 35.6755 304.255 35.5632 303.742 34.2356C303.113 33.4126 299.01 34.0934 296.99 33.8686Z"/>
<path class="elementor-shape-fill" d="M936.143 34.5988C937.644 34.513 940.387 34.9651 939.529 33.8687C937.603 33.7667 936.346 33.961 936.143 34.5988Z"/>
<path class="elementor-shape-fill" d="M275.85 34.5988C277.776 34.7008 279.02 34.5098 279.236 33.8687C277.635 33.9545 277.364 33.4595 275.85 33.5056C275.85 33.8687 275.85 34.2357 275.85 34.5988Z"/>
<path class="elementor-shape-fill" d="M350.244 32.4189C349.65 33.6705 353.211 33.7198 354.468 33.1424C355.347 31.92 351.846 32.5773 350.244 32.4189Z"/>
<path class="elementor-shape-fill" d="M271.627 30.5958C268.41 30.916 270.045 33.4257 273.317 33.1425C273.451 31.95 275.27 30.7907 271.627 30.5958Z"/>
<path class="elementor-shape-fill" d="M188.765 32.7789C189.529 32.1313 190.813 31.7156 191.3 30.9589C187.785 29.6248 184.23 32.4983 188.765 32.7789Z"/>
<path class="elementor-shape-fill" d="M238.647 31.6856C238.606 31.1836 239.052 30.8868 239.492 30.5958C238.336 30.6088 237.64 30.4211 236.958 30.2295C235.626 30.7744 236.011 31.8578 238.647 31.6856Z"/>
<path class="elementor-shape-fill" d="M231.888 30.2295C231.442 30.7679 230.631 31.1472 230.185 31.6856C231.32 31.6856 232.456 31.6856 233.571 31.6856C233.808 30.8601 233.375 30.3191 231.888 30.2295Z"/>
<path class="elementor-shape-fill" d="M182.852 29.5026C180.743 29.45 179.337 29.6878 178.621 30.2295C181.662 30.2555 180.96 31.8903 184.535 31.6857C186.407 30.8868 183.055 30.4736 182.852 29.5026Z"/>
<path class="elementor-shape-fill" d="M441.56 30.5958C441.567 30.6224 438.695 30.3711 439.013 30.2295C436.985 31.1044 441.797 31.1706 441.56 30.5958Z"/>
<path class="elementor-shape-fill" d="M307.979 29.5026C310.574 29.2317 309.608 30.5003 312.203 30.2295C312.203 28.9214 309.243 28.4257 307.979 29.5026Z"/>
<path class="elementor-shape-fill" d="M231.888 28.0465C230.564 28.7733 227.698 29.8956 231.888 30.2295C232.551 29.9781 233.768 28.1985 231.888 28.0465Z"/>
<path class="elementor-shape-fill" d="M438.174 27.6866C437.39 28.0893 436.606 27.8016 433.951 28.0464C434.065 28.7232 434.511 29.2616 435.633 29.5026C435.998 28.8914 440.594 28.2907 438.174 27.6866Z"/>
<path class="elementor-shape-fill" d="M329.957 28.0464C329.815 28.9577 331.254 29.1857 332.504 29.5026C333.423 28.568 337.364 28.9278 336.722 27.3164C333.559 27.9737 331.917 27.0261 329.957 28.0464Z"/>
<path class="elementor-shape-fill" d="M18.8313 25.4964C17.6894 25.8563 17.1422 26.4708 16.2902 26.9534L17.5604 27.1351L17.1415 27.6873C18.5473 28.1725 17.7769 29.5922 20.5204 29.5032C23.5485 28.8323 24.6567 25.249 18.8313 25.4964Z"/>
<path class="elementor-shape-fill" d="M342.641 26.9533C342.655 27.9172 342.168 29.1 344.331 29.1396C343.81 28.39 345.696 26.6098 342.641 26.9533Z"/>
<path class="elementor-shape-fill" d="M83.9253 26.2266C85.0471 26.2298 84.7028 26.8638 85.6216 26.9535C86.5877 26.2104 84.2904 25.2192 83.9253 26.2266Z"/>
<path class="elementor-shape-fill" d="M23.9059 26.587C25.0478 26.7059 25.521 27.1087 27.2782 26.9535C28.6438 25.9428 23.6355 25.9524 23.9059 26.587Z"/>
<path class="elementor-shape-fill" d="M231.889 26.5868C232.726 26.5868 233.571 26.5868 234.416 26.5868C234.416 26.3491 234.416 26.1081 234.416 25.8633C233.571 25.8633 232.726 25.8633 231.889 25.8633C231.889 26.1075 231.889 26.3485 231.889 26.5868Z"/>
<path class="elementor-shape-fill" d="M31.5156 25.4964C32.0765 25.4964 32.6438 25.4964 33.1982 25.4964C33.1982 25.0145 33.1982 24.5288 33.1982 24.0371C32.6438 24.0371 32.0765 24.0371 31.5156 24.0371C31.5156 24.5294 31.5156 25.0145 31.5156 25.4964Z"/>
<path class="elementor-shape-fill" d="M333.343 23.6805C334.938 24.0832 337.337 24.1397 339.263 24.4106C339.222 23.9052 339.654 23.6045 340.101 23.3142C339.276 22.9998 334.775 23.1654 333.343 23.6805Z"/>
<path class="elementor-shape-fill" d="M324.036 23.6806C322.407 23.2415 319.751 22.29 318.123 22.9505C317.974 23.8624 320.015 23.8326 320.65 24.41C320.055 23.4195 324.638 24.6679 324.036 23.6806Z"/>
<path class="elementor-shape-fill" d="M17.9792 23.6804C20.5606 23.6966 22.2841 23.3433 23.0615 22.584C21.9333 21.98 18.2632 22.4618 17.1415 21.8571C16.79 22.7353 18.6821 22.6535 17.9792 23.6804Z"/>
<path class="elementor-shape-fill" d="M6.98987 20.0374C6.98987 20.5226 6.98987 21.0118 6.98987 21.4938C8.40213 21.4938 9.81517 21.4938 11.2209 21.4938C11.3429 20.3513 9.0512 20.2459 6.98987 20.0374Z"/>
<path class="elementor-shape-fill" d="M442.405 20.0374C441.838 20.0374 441.277 20.0374 440.709 20.0374C440.709 20.2817 440.709 20.5227 440.709 20.7637C441.276 20.7637 441.837 20.7637 442.405 20.7637C442.405 20.5234 442.405 20.2817 442.405 20.0374Z"/>
<path class="elementor-shape-fill" d="M1.92188 19.6745C1.39795 19.5101 0.757883 19.3951 -0.00012207 19.3302V20.3401C0.950464 20.3609 1.85055 20.1687 1.92188 19.6745Z"/>
<path class="elementor-shape-fill" d="M143.952 19.6745C144.939 19.9785 146.222 20.1531 148.189 20.0381C149.493 18.9411 143.817 19.077 143.952 19.6745Z"/>
<path class="elementor-shape-fill" d="M16.2896 18.9444C15.7352 18.9444 15.1679 18.9444 14.5999 18.9444C14.5999 19.1854 14.5999 19.4329 14.5999 19.6745C15.1672 19.6745 15.7352 19.6745 16.2896 19.6745C16.2896 19.4329 16.2896 19.1854 16.2896 18.9444Z"/>
<path class="elementor-shape-fill" d="M370.892 18.3019C371.134 18.1863 371.318 18.0467 371.377 17.8544C370.39 17.3952 367.87 17.5609 367.998 18.5845C369.346 18.656 370.334 18.5689 370.892 18.3019Z"/>
<path class="elementor-shape-fill" d="M375.608 17.1276C376.635 17.2068 376.128 17.5304 375.608 17.8545C376.878 17.7921 378.73 17.983 379 17.4874C377.872 17.5439 376.446 16.0052 375.608 17.1276Z"/>
<path class="elementor-shape-fill" d="M15.4385 17.4874C12.5997 16.3852 12.8837 18.839 15.4385 17.4874Z"/>
<path class="elementor-shape-fill" d="M135.504 14.575C137.552 13.3858 139.546 15.5889 135.504 14.575Z"/>
<path class="elementor-shape-fill" d="M308.823 37.148C313.811 36.7485 319.386 36.6032 320.65 34.5988C320.65 34.8001 321.339 35.0119 321.501 34.5988C317.447 32.8483 304.255 34.0706 308.823 37.148Z"/>
<path class="elementor-shape-fill" d="M43.4062 14.5035H0.00195312V0H1599.99C1600 0.500838 1600 4.0067 1600 0L1599.99 10.915C1598.96 10.8085 1599.6 10.1857 1598.59 10.0733C1597.47 10.1402 1598.36 10.75 1597.09 10.7682C1589.89 10.5779 1594.02 8.32291 1587.58 7.98906L1587.94 7.6532C1587.17 7.73114 1586.39 7.75126 1585.61 7.78958L1586.02 8.01491C1587.8 9.28535 1590.02 10.4311 1591.68 11.7366C1590.12 12.1529 1590.14 11.5931 1588.59 12.0055C1589.9 12.4322 1588.53 12.2862 1588.64 12.8948C1589.21 13.1 1590.06 13.2181 1590.99 13.3117C1592.11 13.2519 1591.23 12.6421 1592.51 12.6239C1599.11 13.1513 1590.52 14.6796 1592.74 16.6496C1588.46 18.0246 1581.83 17.0457 1578.69 16.1675C1576.94 16.2812 1578.89 17.388 1576.42 17.3159C1572.14 17.26 1574.32 15.2323 1568.54 15.6324C1567.03 15.8681 1572.44 16.667 1569.42 17.4133C1567.15 17.4997 1567 16.9411 1564.72 17.0275C1562.35 17.1775 1563.69 19.0611 1560.12 18.2109C1558.62 18.7578 1559.33 19.9042 1557.91 20.4739C1558.18 21.0045 1560.64 20.859 1560.31 21.5637L1559.15 21.6877C1560.23 21.9092 1561.12 22.1002 1561.8 22.5568L1562.69 22.2048C1563.34 22.1509 1563.42 22.2781 1563.48 22.4197C1565.29 22.3931 1567.11 22.3672 1568.93 22.3477L1568.55 22.7555C1569.33 22.7062 1570.11 22.6574 1570.88 22.6477L1570.48 22.3217C1572.45 22.1125 1568.24 21.5663 1570.42 21.2006C1577.4 22.1404 1585.41 23.8396 1584.71 26.3798C1580.83 25.9882 1579.44 26.435 1578.55 27.3541C1576.17 27.5548 1577.02 26.7623 1574.64 26.9662C1573.95 26.3369 1575.69 26.3707 1575.34 25.8323C1574.83 25.8407 1574.31 25.8492 1573.79 25.8583L1574.15 25.5153C1573.1 25.6225 1571.74 25.6757 1570.71 25.6997L1572.22 25.8764C1572.37 26.1381 1572.1 26.2798 1571.49 26.3343C1570.15 26.3623 1569.46 26.1921 1569.13 25.9206L1570.59 25.6953C1569.35 25.4316 1568.7 25.1782 1568.41 24.9216L1567.53 25.2659C1566.77 25.2717 1566.91 25.0061 1566.72 24.8308C1566.05 25.0146 1564.98 25.1003 1563.63 25.0951C1563.1 25.794 1565 25.7432 1564.47 26.4239C1560.81 26.5915 1557.36 24.8541 1556.52 23.3985C1551.73 23.0692 1553 24.3631 1549.57 24.3963C1549.28 24.9386 1551.02 24.8612 1550.42 25.5042C1547.44 26.2765 1543.62 25.6503 1540.33 26.0868C1539.95 27.1845 1543.9 26.9586 1545.08 27.5899L1543.91 27.7179C1544.58 27.6932 1545.24 27.7146 1545.93 27.7588C1546.16 27.8556 1546.4 27.9309 1546.66 28.0166L1545.07 27.8431C1544.67 28.9557 1546.75 29.4273 1545.23 30.2736C1535.51 29.9826 1540.8 25.1062 1528.61 25.5738C1525.62 26.6747 1520.78 27.2807 1515.49 27.7659C1515.61 28.3381 1516.96 28.5349 1517.89 28.8558C1517.12 29.4468 1514.85 29.6488 1514.08 30.2503C1514.07 31.848 1522.46 31.2926 1519.69 33.0827C1515.82 32.5975 1510.1 32.2287 1505.65 32.5976C1507.87 35.4846 1518.58 35.7729 1520.79 38.6568L1519.62 38.5678L1520.02 38.8906C1510.02 38.5386 1507.58 35.8795 1502.61 33.9726C1500.78 34.0024 1500.34 34.3987 1497.96 34.2669C1497.93 33.746 1497.9 33.225 1497.88 32.7008C1496.48 32.4501 1494.69 32.3066 1493.92 31.861C1492.53 31.8487 1492.3 32.1604 1490.84 32.126C1490.49 32.8411 1492.28 32.9015 1491.69 33.6822C1477.33 33.3776 1464.82 32.5085 1454.17 31.0575C1453.38 31.2147 1453.4 31.5837 1451.86 31.5369C1447.21 30.1905 1454.36 29.0577 1454.76 27.6957C1457.49 26.889 1462.46 26.6851 1464 25.5569C1463.64 25.1301 1460.97 25.418 1461.6 24.6873C1458.43 24.9042 1458.88 24.0058 1458.41 23.3933C1459.7 23.3719 1461 23.3583 1462.3 23.344C1462.31 23.5609 1462.32 23.7922 1462.33 24.013L1461.19 24.2922C1462.01 24.3955 1462.51 24.589 1462.99 24.754L1463.92 24.4391C1467.32 23.3031 1468 21.4279 1469.09 19.6658C1467.89 19.4105 1466.81 19.132 1465.91 18.8163C1464.87 18.9267 1463.96 19.0904 1463.78 19.5659C1463.84 19.8932 1463.82 20.2433 1463.71 20.635C1461.56 20.7986 1459.35 20.9323 1459.87 21.8092C1456.91 21.8007 1454.33 21.6845 1452.07 21.4637C1452.06 21.0915 1452.03 20.7227 1452.01 20.3505C1457.23 20.3628 1455.53 18.5111 1457.29 17.5913C1456.16 16.9847 1454.57 16.5209 1452.33 16.254C1451.54 16.7372 1451.04 17.455 1450.64 18.2272C1451.41 18.5968 1451.9 19.0897 1451.98 19.6775C1451.47 19.8269 1450.65 19.8938 1449.71 19.9288C1449.39 20.4218 1449.03 20.8564 1448.49 21.1292C1446.65 21.0286 1446.6 20.6251 1446.85 20.151L1445.89 20.0893L1445 20.4439C1444.04 20.1185 1441.28 19.556 1444.17 19.3326C1440.9 18.5902 1438.95 17.4478 1438.52 15.8318C1437.21 15.4369 1435.69 15.2875 1434.08 15.2336C1434.08 15.3712 1434 15.4772 1434.13 15.6707C1433.44 15.4791 1432.75 15.2876 1431.58 15.3038C1431.57 15.2752 1431.61 15.2408 1431.62 15.2096C1428.49 15.244 1425.1 15.3875 1421.84 14.9224C1421.73 15.179 1421.62 15.4428 1421.45 15.6707C1420.43 15.6415 1419.57 15.5434 1418.72 15.4427C1417.87 16.3494 1420.9 17.477 1420.74 18.0869L1419.57 18.2188L1419.99 18.5448C1419.64 19.5022 1414.7 18.4013 1414.57 19.2892C1411.7 19.032 1409.41 18.598 1408.26 17.8114C1404.41 18.7831 1409.24 21.3319 1411.65 22.462L1411.27 22.8042L1412.44 22.8971C1415.07 23.635 1409.42 24.4859 1411.79 25.1412L1411.01 25.1543L1411.03 25.3783C1410.46 25.8992 1406.67 25.5309 1404.82 25.6901C1404.97 25.3595 1407.12 25.5757 1407.12 25.2101C1406.92 24.973 1405.57 25.0841 1405.54 24.784C1403.67 25.2322 1403.2 26.0616 1402.54 26.8391C1395.8 27.2359 1397.06 25.1827 1389.25 25.8959C1389.64 25.5607 1390.37 25.3237 1390.76 24.9879C1384.61 24.9541 1379.64 25.3309 1372.84 24.784C1369.95 23.4603 1363.5 23.2427 1358.7 22.512C1358.31 21.7995 1357.14 21.3163 1357.01 20.5194C1363.9 20.3161 1370.29 20.7433 1377.31 21.1408C1378.03 20.9648 1378.45 20.7206 1378.82 20.4498C1372.62 18.6298 1361.12 18.4265 1358.3 15.5791C1361.21 14.8243 1367.92 16.48 1369.96 15.192C1372.69 16.1085 1377.46 16.3936 1380.19 17.2964C1380.82 17.0899 1382.33 17.1366 1382.51 16.8164C1381.97 15.7148 1377.16 16.0871 1374.67 15.7987C1374.01 15.7298 1373.67 15.2557 1373.08 15.1551C1371.25 14.8491 1369.04 15.1959 1366.83 15.0154C1366.71 15.0063 1366.93 14.5718 1366.81 14.5672C1359.61 14.2678 1352.95 13.993 1351.85 11.6392C1351.65 11.2138 1353.05 11.0741 1353.36 10.7273C1354.03 9.9576 1353.72 9.0328 1353.21 8.03711C1352.54 9.17894 1347.35 9.1055 1347.11 10.3597C1342.93 10.4279 1342.41 9.37375 1338.48 9.35817C1337.36 10.8416 1346.16 11.256 1348.01 12.5856C1344.8 14.6562 1331.03 14.0256 1326.3 13.997C1327.77 14.6861 1332.2 14.4763 1331.07 15.9487C1325.7 15.9922 1326.23 15.0979 1321.73 15.8455C1320.42 14.5335 1315.73 15.5785 1313.09 14.8511C1310.16 15.7104 1306.73 15.9494 1303.02 15.6617C1301.31 15.7072 1302.75 16.6053 1302.32 17.0126C1299.58 17.4367 1300.41 16.8898 1297.64 16.8508C1298 17.1944 1300.1 17.0054 1299.25 17.7218C1301.18 17.7316 1301.01 17.1698 1303.03 17.1997C1304.36 16.9853 1306.09 17.7004 1307.03 16.9899C1307.03 16.9711 1306.99 16.962 1306.99 16.9425C1307.02 16.9327 1307.08 16.9314 1307.11 16.9223C1307.18 16.8665 1307.25 16.8327 1307.31 16.7606C1307.56 16.7385 1307.67 16.7801 1307.79 16.8145C1309.37 16.5969 1311.88 16.7022 1312.45 17.0958L1311.29 17.3717L1311.41 17.4894C1311.57 17.4764 1311.72 17.4601 1311.85 17.4367C1312.14 17.3841 1312.38 17.3035 1312.38 17.1275C1313.25 17.1899 1313.24 17.3763 1312.84 17.5536C1312.26 17.8056 1310.85 18.0369 1309.84 17.8544C1309.86 17.8005 1309.98 17.7874 1310.04 17.751C1309.47 17.7315 1308.95 17.6978 1308.51 17.6407C1307.44 18.0641 1305.92 17.807 1304.37 17.5985C1304.83 18.1174 1304.27 18.5734 1304 19.2294C1308.95 20.442 1310.88 22.5821 1317.47 23.2926C1318.11 24.7677 1321.08 25.5212 1320.04 27.5217C1318.68 27.7341 1319.1 28.4323 1316.19 28.2329C1315.85 26.6715 1313.42 24.5398 1307.46 25.4446L1306.29 25.3483L1305.14 25.4763C1299.63 25.1788 1297.46 25.4355 1299 27.1229C1297.52 27.2437 1297.07 27.6287 1295.13 27.6287C1294.78 26.0777 1293.42 25.4692 1292.61 24.304C1291.55 24.1767 1291.14 23.846 1291.01 23.4258C1291.78 23.4239 1292.56 23.4077 1293.34 23.4019C1293.32 23.1018 1293.3 22.8088 1293.29 22.5048C1289.06 21.9794 1285.63 21.2104 1281.51 20.6505C1280.37 21.5377 1283.51 23.0588 1284.03 24.1922C1283.02 24.289 1282.83 24.6053 1281.73 24.6722C1279.44 24.6137 1279.17 23.9455 1277.78 23.6117C1275.8 23.8858 1276.32 24.8346 1276.34 25.6445C1274.51 25.8907 1273.4 26.3194 1271.72 26.6039C1265.67 24.8872 1268.48 20.4628 1258.87 19.8367C1256.49 19.838 1255.42 20.6719 1253.45 20.1328C1250.49 20.4354 1251.84 21.9035 1248.88 22.2172C1244.32 21.128 1239.5 21.1883 1239.34 18.5377C1237.87 18.9729 1238.75 18.9572 1236.24 18.8058C1236.5 19.3293 1237.51 19.6262 1237.09 20.3589C1236.41 20.4667 1235.73 20.5777 1235.57 20.8297C1232.61 20.9765 1230.61 20.831 1229.33 20.4621C1228.6 21.5195 1230.75 21.7001 1234.05 21.5169C1236.05 22.4249 1239.87 22.7724 1242.72 23.4187C1243.45 24.1247 1241.57 24.1357 1240.44 24.3397L1239.51 24.0182L1238.1 24.15C1238.09 24.074 1238.08 23.9981 1238.08 23.9221C1236.45 23.8527 1236.04 24.1079 1234.99 24.1936L1234.06 23.872L1232.81 24.7865L1234.23 24.6436C1233.52 25.7816 1237.76 25.3926 1238.21 26.1642C1238.44 27.2508 1234.13 27.1183 1230.48 27.167C1229.87 26.976 1229.62 26.6727 1229.65 26.2798C1226.62 26.2635 1225.64 26.8157 1223.46 27.0365C1218.75 26.7189 1218.14 25.5952 1211.75 26.2993C1211.13 26.1077 1210.88 25.8089 1210.92 25.4114C1205.54 25.8667 1197.94 24.8879 1199.87 23.1063C1195.85 22.9699 1197.68 24.4144 1193.72 24.304C1198.87 24.9197 1205.06 25.2354 1204.81 27.51C1199.88 27.5334 1195.43 27.0487 1193.94 28.3328C1190.92 27.8938 1185.29 28.2484 1183.78 27.3495L1184.14 27.0065C1182.8 27.0923 1181.5 26.9332 1180.24 26.8357L1180.65 27.1624C1178.38 27.3858 1181.15 27.884 1180.71 28.2835C1179.31 28.2744 1179.08 28.583 1177.61 28.5447C1177.64 29.1481 1177.67 29.7417 1177.72 30.3379C1175.9 30.4328 1174.38 30.8562 1173.81 30.1638C1171.33 30.0917 1173.58 31.281 1170.75 31.1043C1171.85 30.0112 1168.76 30.2003 1166.03 30.2698C1165.57 29.4696 1166 28.8888 1162.83 28.5277C1160.1 28.605 1158.93 29.0942 1158.21 29.7073C1156.26 29.139 1157.67 28.3815 1154.23 27.9736C1154.21 26.9474 1157.21 26.7214 1159.58 26.3291C1154.82 24.908 1153.39 22.4639 1145.32 22.0469C1143.34 22.104 1143.82 22.8211 1143.85 23.4141C1137.16 23.1536 1138.71 19.2573 1129.66 20.4732C1131.92 21.4209 1129.02 22.577 1129.85 23.8292C1133.74 24.5346 1136.06 25.7251 1137.82 27.0787L1136.64 26.9819L1137.04 27.3151C1134.84 27.1599 1135.05 27.6542 1133.17 27.5893C1133.4 28.911 1131.41 30.2542 1133.38 31.3934C1131.45 31.4473 1130.97 31.0693 1129.47 30.9946L1128.68 30.892L1127.91 31.0206C1127.55 30.5971 1125.68 30.6445 1126.29 29.9177C1126.98 29.7346 1128.04 29.6559 1129.41 29.6501C1131.81 26.8728 1124.96 25.7609 1125.13 22.9953C1124.04 23.5863 1120.71 23.57 1118.16 23.7648C1117.66 24.4605 1117.65 24.2 1118.22 24.8826C1114.71 25.0086 1111.06 25.4913 1109.64 24.5534C1103.74 25.2477 1101.9 24.178 1101.25 22.8881C1101.06 22.5179 1100.96 22.132 1100.91 21.7618C1098.84 21.8488 1097.31 22.0898 1096.32 22.4834C1096.31 22.4873 1096.3 22.4892 1096.29 22.4931C1097.26 22.801 1099.28 22.7945 1100.21 23.1088C1099.99 23.9298 1098.45 24.3968 1095.63 24.5163C1094.79 24.3695 1092.93 23.4089 1091.71 24.1175L1090.14 23.9194C1087.93 23.7636 1088.15 24.2651 1086.27 24.2007C1085.26 23.5077 1082.85 23.5453 1080.63 23.5609C1080.62 23.7025 1080.63 23.8493 1080.73 24.0363C1078.56 24.0025 1076.7 23.8311 1075.65 23.3128L1076.38 23.0686C1076.28 22.9958 1076.17 22.9263 1076.12 22.8302C1076.11 22.8055 1076.06 22.7952 1076.05 22.7685C1075.8 22.7601 1075.62 22.7705 1075.44 22.7822C1074.77 22.8296 1074.53 22.9894 1073.77 23.0167L1073.81 23.0679C1074.4 23.5557 1076.28 24.6476 1076.92 24.3248C1077.41 25.7472 1083.25 28.2022 1081.9 29.6253C1086.11 29.3369 1093.27 31.7823 1089.88 33.1028L1089.1 32.9931L1088.31 32.897C1084.49 32.6943 1081.57 31.5409 1082.73 30.5133C1079.9 30.3367 1081.99 31.4875 1080.45 31.6584C1077.33 31.6226 1074.76 31.7453 1074.26 32.4117C1075.36 32.7638 1077.05 32.9276 1076.67 33.7258L1076.31 34.0648L1076.71 34.3909C1074.07 34.639 1071.93 35.0125 1068.97 35.1736C1068.69 34.6533 1067.4 34.2701 1068.89 33.8284C1066.09 33.9661 1065.16 34.4616 1062.69 34.144C1062.42 34.5246 1063.31 34.5565 1064.26 34.5669C1063.59 35.0436 1062 35.2781 1059.64 35.3022C1058.8 35.1047 1059.35 34.4779 1057.26 34.6604C1057.38 33.9538 1056.65 33.0236 1057.93 32.6404C1055.52 32.5014 1056.47 33.2704 1054.06 33.1347C1054.72 32.2494 1049.95 33.034 1049.36 32.5319C1052.78 31.4434 1044.88 30.3957 1041.43 29.9482C1041.42 29.7312 1041.4 29.5033 1041.38 29.2754C1044.94 28.3946 1044.88 26.5435 1042.71 25.2361C1051.64 25.0055 1051.92 27.4223 1056.9 28.3901C1055.54 28.5193 1051.13 28.5446 1053.86 29.5552C1056.44 28.3199 1059.84 29.6813 1064.75 29.4124C1062.17 27.6191 1054.32 27.4503 1053.61 25.0932C1050.92 25.301 1050.6 24.799 1048.14 24.9438C1047.81 23.9066 1044.16 23.8863 1044.13 22.7549C1039.92 22.7471 1039.99 22.6179 1037.14 23.07C1036.08 22.5588 1035.21 21.9924 1032.41 22.0177C1032.05 21.5747 1032.22 21.2714 1032.52 21.0032L1032.11 20.944L1030.84 21.1292C1030.84 21.0104 1030.84 20.8818 1030.84 20.7629C1028.65 19.9283 1025.13 20.7193 1025.77 22.2164C1025.77 22.2177 1025.78 22.2191 1025.78 22.2197C1026.34 22.2197 1026.9 22.2197 1027.46 22.2197L1027.25 22.5575C1027.52 22.6133 1027.79 22.6699 1028.07 22.7251C1029.97 23.1089 1031.76 23.5239 1031.77 24.4871C1033.54 24.9372 1035.63 25.2828 1036.53 25.9901C1037.53 25.6907 1039.38 25.6647 1040.42 25.9368C1040.77 26.4038 1039.92 26.5421 1039.69 26.8429L1038.51 26.75L1038.93 27.0728C1037.69 27.4495 1033.74 27.4444 1031.91 26.9494C1031.65 26.8741 1031.31 26.3214 1031.09 26.2863C1029.66 26.0784 1028.36 26.022 1027.15 25.9863C1027.26 26.1655 1026.95 26.207 1026.08 25.9511C1025.59 25.9387 1025.17 25.9083 1024.75 25.8856C1024.98 26.0603 1025.22 26.2337 1025.34 26.4078L1025.59 26.5103C1027.58 26.6591 1029.19 26.9565 1029.67 27.3371C1030.53 27.3508 1031.37 27.4125 1032.11 27.5008H1029.82C1029.86 27.619 1029.83 27.7418 1029.63 27.871C1028.93 27.9984 1028.24 28.0134 1027.56 28.029C1025.83 28.7999 1022.3 28.8811 1020.7 28.0458L1020.27 27.686L1019.85 27.3157C1020.38 26.6565 1021.08 26.5421 1021.88 26.5194C1021.86 26.483 1021.78 26.4513 1021.76 26.4149C1022.44 26.3954 1023.13 26.4019 1023.81 26.4201C1024.18 26.3831 1024.54 26.3532 1024.92 26.2259C1023.94 26.2817 1023.42 26.1433 1023.23 25.8627L1023.7 25.7939C1023.24 25.7322 1022.8 25.6583 1022.49 25.5128C1022.02 25.2939 1021.84 25.0464 1021.8 24.8048L1021.54 25.1327C1020.27 24.5676 1016.34 23.2733 1013.93 24.4093L1012.66 24.2241L1013.09 24.7691C1012.47 25.1094 1011.55 25.3211 1010.54 25.4952C1008.16 25.551 1008.43 24.4683 1007.17 24.0357C1006.45 24.8248 1004.05 24.8841 1001.26 24.7684C1001.94 26.8157 1003.72 25.4321 1005.49 25.8615C1004.96 26.1817 1004.46 26.5084 1005.49 26.585C1000.9 29.752 995.849 24.7424 993.639 28.4115C988.726 28.7648 981.116 27.586 983.495 30.5945C977.003 31.2622 974.524 29.7885 971.341 28.4238C970.171 29.0389 969.04 29.665 966.916 30.021L968.275 32.5963C967.518 31.7032 966.242 30.8575 965.884 29.9528C964.838 29.7871 964.026 29.5534 964.282 28.9831L965.462 29.0836L963.095 28.6661L963.504 28.996C964.119 29.6753 961.394 29.4526 962.015 30.132C958.204 30.3457 958.991 29.1513 955.761 29.7755C955.81 29.7112 955.757 29.6728 955.772 29.6163C953.839 29.9274 952.849 30.0756 949.683 29.139C949.894 28.9532 949.954 28.7888 950.032 28.6219C948.715 28.5186 947.552 28.3479 947.113 28.0978C945.983 28.1706 946.479 28.6816 946.067 28.9466C946.151 29.0129 946.197 29.0688 946.296 29.139C945.394 29.215 944.708 29.1968 944.112 29.1403C944.396 29.6196 944.773 30.0683 947.205 29.8878C945.76 31.3966 950.176 31.0998 952.742 31.3823C951.746 32.3682 953.31 32.6936 952.085 33.6296C951.066 33.5672 950.84 33.2503 949.719 33.2159C951.476 35.6242 944.47 36.3835 941.285 35.3423C941.941 33.384 942.733 31.5784 938.692 30.6724C938.216 30.573 937.383 31.0407 937.184 31.1251C937.029 31.0959 936.239 31.0304 935.26 30.9518C935.276 30.9531 935.286 30.9568 935.301 30.9581C933.936 32.5663 935.2 34.1389 934.463 35.3242C931.186 35.2742 931.125 33.8511 928.536 33.5043L927.273 33.3224L927.698 33.8673C924.758 33.5737 924.44 34.4097 921.778 34.2344C919.202 32.7106 920.065 30.4028 919.125 28.8382C918.765 28.7726 918.459 28.722 918.319 28.7129C915.923 28.5914 915.718 28.8674 913.66 28.7824C911.872 28.2309 911.491 27.4202 909.651 26.8175C908.055 26.292 905.905 26.0407 903.765 25.7666C903.723 25.7615 903.682 25.7557 903.64 25.7505C902.743 25.6355 901.851 25.5146 901.003 25.3672C900.384 25.262 900.696 24.8068 900.192 24.7074C898.915 24.4651 896.916 25.0711 897.041 24.0787C894.555 24.4801 892.968 24.0065 892.329 23.2408C890.069 24.1942 879.689 23.6642 880.631 22.9634C877.992 23.2804 874.768 23.435 872.103 23.748C869.21 23.3246 865.845 22.4224 862.705 22.7517C864.504 23.813 865.508 23.7084 865.963 25.1744C862.027 25.2088 861.518 25.5211 858.179 25.2808C858.478 24.8073 857.602 24.6963 857.342 24.3969C851.063 24.3437 844.448 22.7536 848.595 20.9291C851.692 21.0908 852.503 21.0785 855.593 20.8427C858.002 20.9356 858.087 21.7455 861.091 21.6604C863.542 21.2798 861.869 20.2492 858.683 20.3499C860.161 19.3113 853.837 18.7917 850.854 19.5594C850.832 19.4106 850.822 19.2624 850.827 19.1176C849.255 19.4469 851.621 19.8717 850.116 20.4686C843.902 20.7596 835.896 21.2897 830.641 20.2829C830.873 19.7581 831.521 19.3495 832.123 18.9267C834.835 18.8637 840.12 19.2995 843.03 18.993C842.043 18.3454 837.797 18.828 836.728 17.7426C835.609 17.8777 832.693 17.5303 832.853 18.0097C830.473 17.6031 828.353 17.1198 827.296 16.2982C821.957 15.6409 818.791 16.6061 814.069 16.4801C815.604 16.6964 817.282 16.8639 816.482 17.7869C813.661 17.4511 808.463 17.6919 805.528 16.8164C801.014 15.4791 803.7 18.4583 804.012 17.5146C803.796 18.1738 803.568 18.5578 802.571 19.5399C803.221 19.7211 805.3 19.6288 806.499 20.1594C807.33 20.8265 804.79 20.5803 803.409 20.6518C804.003 20.8538 804.845 20.9713 805.763 21.0655C806.915 20.7134 808.075 20.3654 809.61 20.1225C812.739 20.1471 813.595 20.8688 815.898 21.1552C816.16 22.0762 814.918 22.0365 815.984 22.7172C825.904 21.7137 827.951 23.5187 833.978 24.2591C833.989 25.4009 837.866 25.3444 839.527 25.9777C839.504 26.9715 840.545 27.6411 843.51 27.7145C844.669 28.5011 843.814 29.9014 845.245 30.6035C845.342 31.0309 848.124 30.2172 849.134 30.7705C849.782 31.6701 847.534 31.8077 846.117 32.1526C848.898 32.9652 850.313 34.2031 854.798 34.5C855.125 35.306 856.064 35.5626 854.905 36.2861C851.75 36.4238 849.485 36.2751 849.415 35.4684C847.866 35.4943 848.462 36.0938 846.331 35.9574C842.692 35.3663 843.991 34.4455 839.205 34.0441L839.574 33.6978L836.497 34.187L837.649 34.0661C837.759 34.8949 836.474 35.3573 834.619 35.6691L834.218 35.336L833.847 35.6788C830.656 35.7437 830.274 34.9553 829.094 34.4032L830.269 34.2719L827.111 33.6432L827.519 33.9803C826.607 33.9556 826.146 34.044 825.984 34.2233C824.992 34.1758 825.166 33.7836 825.958 33.7745C824.031 33.7888 823.01 32.2812 820.393 31.8357C819.167 31.0738 822.527 30.8516 824.202 30.4372C824.514 30.3684 824.818 29.7715 824.946 29.7592C826.638 29.4929 829.36 29.7514 831.154 29.4468C831.848 30.1489 834.973 30.1015 834.371 31.1966C836.145 30.6673 837.65 29.832 840.539 30.2152C840.022 29.4683 838.664 28.9688 838.093 28.2394C833.515 28.6967 832.125 27.1163 828.653 26.5739C827.183 26.6909 827.295 27.2346 824.792 27.0755L825.161 26.7331L824.001 26.8682C823.75 26.8617 823.493 26.8695 823.222 26.8701C822.697 27.0663 822.048 27.5035 823.27 27.5431L822.895 27.8788L824.061 27.7619C825.885 27.8009 825.551 28.516 827.982 28.3777C826.083 28.822 825.377 29.5766 821.03 29.3681C820.773 28.1003 810.635 27.1826 809.3 28.4031C807.919 28.2212 806.86 27.9341 806.128 27.5503C806.439 27.117 806.368 26.5883 808.415 26.6331C807.201 25.8712 807.913 24.506 805.171 24.2073L805.533 23.8714L804.367 23.7713C803.346 22.2093 798.05 21.7189 797.951 20.5037C796.941 20.8031 795.103 20.8258 794.064 20.5576C796.204 21.9157 792.677 22.5399 791.113 23.5057L790.697 23.1757L789.551 23.3037C786.138 22.8276 786.329 21.2538 783.933 20.4712C784.616 20.288 785.671 20.2055 787.037 20.2068C784.538 19.6937 790.558 18.6857 785.389 18.663L785.76 18.4364L785.376 18.2148C785.203 17.6524 786.519 17.4939 787.648 17.2867C785.516 17.1757 786.467 16.1313 785.22 15.7559C784.609 15.8793 783.976 16.0019 782.896 16.0039L781.972 15.6825C781.694 16.1566 780.292 16.4657 778.638 16.4033L779.047 16.7293C778.154 16.9326 776.975 17.0601 775.177 17.0146C774.274 16.5054 775.312 16.4086 773.55 15.9118L771.217 15.9435C769.84 16.5456 771.595 16.6125 770.526 17.3016C764.701 16.8087 765.99 18.6195 764.299 17.5991C762.623 17.5796 764.003 18.398 763.595 18.7292C759.904 18.4993 756.218 19.2054 753.444 18.4221C755.609 17.2907 751.775 16.8853 750.227 16.2313C750.979 15.7701 751.501 15.2558 753.258 15.0661C752.533 14.6816 751.495 14.3952 750.107 14.2204C750.405 13.7827 751.747 13.632 751.596 13.0773L752.762 13.1734L752.36 12.844C753.412 12.4725 754.525 12.1095 755.404 11.6789C754.776 11.3463 753.848 11.0995 753.278 10.7403C753.373 10.9228 753.546 11.0729 753.54 11.2989C752.478 11.2697 751.283 11.2989 750.128 11.3119C747.397 11.5542 743.835 11.1657 742.868 10.2863C741.049 10.309 739.238 10.3356 737.425 10.3616L737.796 9.94662L736.252 10.2615C736.014 10.4902 735.799 10.715 735.513 10.9469L736.66 10.8156C737.517 10.8611 737.221 11.2554 738.248 11.2456C737.641 11.8166 735.562 11.9887 734.421 12.4161C743.203 12.5667 743.768 15.2692 745.58 16.9664C747.745 16.7131 744.417 16.3826 746.305 16.0572C748.981 16.0766 747.051 17.5005 750.281 17.3459C750.287 17.5739 750.308 17.794 750.313 18.0187L749.141 17.922C749.78 18.287 748.999 18.589 748.411 18.828L749.59 18.9241C751.354 19.584 753.17 19.8757 756.629 19.4996C757.638 20.5446 758.713 21.5903 763.742 21.4169C763.134 22.0534 764.873 21.9788 764.587 22.5218C762.287 23.4246 762.461 23.6759 763.921 24.7729C761.837 25.0781 762.042 25.6588 759.296 25.2801L758.888 24.9541C758.399 25.223 757.742 25.7108 757.212 25.788C756.476 25.7471 755.546 25.6965 754.909 25.5159C755.589 25.1477 755.986 24.7762 755.958 24.3644C756.332 24.2858 756.713 24.1922 757.285 24.076L756.098 24.2066C751.652 23.0641 740.921 23.8525 741.156 21.2753C738.864 21.943 742.98 23.0452 739.728 23.5355C740.804 24.3247 743.112 25.5328 740.652 26.2057L739.478 26.1057L738.312 26.2408C736.95 25.8965 735.445 25.5978 735.899 24.7028C732.785 24.5989 732.804 25.3361 729.691 25.2354C729.023 24.9899 728.634 24.6489 728.845 24.1345C727.007 24.1462 726.583 24.5423 724.201 24.4137C722.739 23.7902 722.89 23.7305 723.336 22.8608C724.628 22.8465 725.926 22.829 727.217 22.8075C726.561 22.1782 724.567 21.9533 724.02 21.2895C721.638 21.1544 721.194 21.5534 719.368 21.5689L719.736 21.2299C718.124 21.3377 716.858 21.8221 715.077 21.5195L715.493 21.843C715.222 21.854 714.979 21.8553 714.715 21.8631C713.94 23.0647 716.643 21.8053 716.309 22.7341C712.702 22.8809 711.14 23.1018 707.762 22.8466C708.376 22.2536 705.331 21.6586 707.675 21.2838C705.811 21.4508 701.498 21.4851 701.373 20.027C700.254 20.1621 699.49 20.4031 699.074 20.7304L697.908 20.6304L698.31 20.9635C695.434 20.833 692.546 19.8211 693.537 19.2359C692.814 19.0216 687.993 19.0566 686.491 18.4402C685.049 18.4889 686.042 19.2014 684.982 19.3521C682.508 19.5801 682.552 19.0313 681.06 18.9533L681.435 18.6175L680.269 18.5207C680.094 17.8251 683.393 18.0434 684.111 17.5712C681.667 17.0341 677.388 17.0496 676.241 16.1189C673.392 16.0143 673.204 16.6189 673.183 17.2769C675.717 17.5224 673.733 16.5424 676.267 16.7847C675.567 17.7557 674.846 18.3877 674.839 19.045C672.125 18.9053 671.874 19.4197 669.402 19.3443C667.273 18.9046 665.141 17.2289 670.052 17.0931C668.535 16.3312 669.932 15.9675 672.311 15.7272C670.576 14.8114 666.601 14.5926 664.414 13.8164C665.642 13.0136 670.111 13.9027 670.583 12.607C667.32 12.3238 663.117 12.3121 662.719 11.1515C667.473 10.8299 663.647 8.91383 666.494 9.084C667.639 8.12078 662.164 9.19384 663.33 8.23516C662.142 8.81777 656.447 9.84783 655.56 8.56246C653.702 8.72224 652.034 8.93394 649.359 8.87484C650.032 9.41718 650.438 10.0584 650.244 10.8728C650.134 11.3522 653 10.9404 654.138 11.0476C652.255 12.0452 654.719 12.1309 657.315 12.1173C656.73 12.9344 659.142 13.1786 657.409 13.6865C656.484 13.6618 656.732 13.2884 656.585 13.0234C653.557 13.6722 653.981 15.2564 647.353 14.9459C646.453 14.9894 646.712 15.3577 646.617 15.624C644.213 15.9507 642.268 15.0212 641.165 15.6993C639.178 15.7051 640.009 14.8406 638.002 14.8465C635.577 15.231 635.925 15.329 632.571 15.1387C631.61 16.0422 635.455 15.6486 633.416 16.2546C635.765 15.9415 636.423 16.0357 638.094 16.4092C638.463 17.1724 635.802 17.1165 635.038 17.5737C634.582 18.548 636.916 18.665 639.007 18.8553C638.809 19.3158 636.93 19.3268 636.733 19.7906C638.16 20.8616 640.644 21.6201 645.401 21.6818C643.411 23.2712 647.9 23.055 647.123 24.7911L645.693 24.6988L644.803 25.0502C642.946 24.1039 638.155 24.0565 635.378 23.3855C633.972 23.3764 633.74 23.681 632.266 23.6499C631.276 24.224 635.929 24.1435 633.098 24.5306L631.932 24.4378C632.15 24.5885 632.247 24.7339 632.337 24.8794L633.124 24.9755C634.815 25.1464 635.907 25.4912 635.537 26.2966C631.487 27.2117 628.437 25.5289 631.549 24.78C626.9 25.3815 623.631 23.7577 619.026 23.6077C619.402 22.3795 619.395 21.7539 619.65 20.9109C620.682 20.5069 624.19 21.2162 625.865 20.6063L625.885 20.8232L626.663 20.8181C627.36 20.9779 628.421 21.033 629.793 20.9979L630.568 21.1005L631.342 20.9799C631.215 21.1663 631.659 21.1857 632.132 21.1915C631.984 20.998 632.43 20.9778 632.904 20.9577C632.888 20.8096 632.879 20.6577 632.871 20.5129C631.972 20.4849 631.495 20.5765 631.335 20.7558L630.547 20.6564L629.773 20.5498C628.725 20.5673 627.683 20.5842 626.649 20.5972L627.018 20.2511L625.85 20.3822C625.824 20.1653 624.889 20.2198 624.289 20.173L624.664 19.838L623.484 19.7413C623.727 19.2885 623.283 19.0449 621.888 19.0943L621.479 18.7643L621.11 19.1033C620.148 19.0163 619.49 18.8351 619.522 18.4525C617.88 19.106 615.386 18.8825 612.523 18.7779C610.698 18.8 612.843 19.3814 614.119 19.2008C610.782 20.4135 615.498 20.9583 617.383 21.8436C617.346 23.7187 612.023 22.0606 610.431 23.0511L610.059 23.2817L610.465 23.5032C604.643 23.5454 609.86 25.1294 607.481 25.7822C608.374 25.7276 608.859 25.8128 609.035 25.9804C609.127 26.2993 609.199 26.611 608.306 26.6584L607.505 26.281L605.952 26.2454L607.5 26.2233C607.194 26.072 606.814 25.905 606.693 25.6796L605.918 25.8011C604.378 26.0433 602.607 26.2259 602.077 26.7474C600.476 26.7071 601.831 25.7614 599.697 25.8816L600.059 25.5459L598.887 25.4459C597.629 24.3696 598.765 23.6961 595.67 23.4759C594.986 22.8576 596.722 22.8848 596.373 22.3496L596.759 22.123C596.182 22.2139 594.619 22.2613 593.659 22.2717L594.824 22.3788C592.104 22.5067 585.571 23.9176 584.708 22.5094L585.859 22.2334L585.453 21.8241C585.71 21.8202 585.96 21.8229 586.23 21.8112C586.874 21.089 583.67 21.5331 583.08 21.1869C582.679 21.6877 584.585 21.4851 584.669 21.83L583.524 22.1132L583.937 22.5231C583.468 22.8283 580.94 22.5899 580.84 23.0115C581.911 23.3596 584.94 23.12 584.782 23.8552L584.4 23.9662C584.831 23.9929 585.017 24.0857 585.198 24.1779L584.802 24.076C583.26 24.0909 583.836 24.6937 581.705 24.5612C581.993 25.0737 581.638 25.4244 581.001 25.6953C579.594 25.7407 579.332 25.4374 577.871 25.5075C577.725 24.96 577.674 24.428 579.365 24.3715C579.368 24.2994 579.356 24.2235 579.359 24.1475C577.909 23.6032 574.747 23.5817 573.065 23.1141C573.597 21.8625 580.142 22.2301 579.943 20.7856C578.493 20.6823 578.42 21.0791 579.179 21.0193C576.949 21.207 572.012 20.1971 573.622 19.3047C573.107 19.3093 572.587 19.3145 572.073 19.3229L572.436 18.98C571.136 19.2476 569.813 19.2319 568.943 19.143L568.956 19.367C565.912 19.86 563.787 20.6168 560.496 21.0487L559.714 20.9461C560.021 21.3325 560.249 21.5989 559.89 22.0684L561.313 21.9333C561.776 22.4698 564.355 22.3652 563.733 23.2401C560.005 23.1219 558.738 23.6602 555.185 23.5836C553.123 23.1406 554.461 22.7152 553.55 22.2567C551.939 23.3985 545.664 22.7608 541.524 22.8627C541.356 22.9634 541.198 23.066 540.897 23.1355L541.084 22.8789C540.191 22.9153 539.377 22.9789 538.807 23.1296C538.584 23.8285 540.661 24.1696 538.894 24.6957C536.244 24.0442 534.863 24.1435 530.314 24.3663C529.914 23.505 529.412 23.5791 531.017 23.0153C527.796 23.5459 523.867 23.8843 524.929 25.5588L523.778 25.8342L524.186 26.237C522.847 26.2506 522.179 26.4344 521.879 26.717C520.54 26.2902 518.716 26.0161 516.381 25.8953C515.658 24.8281 517.019 24.3053 517.803 23.6421C517.909 23.0796 516.574 22.9563 515.424 22.7731C512.942 22.8426 512.899 23.5648 510.818 23.7434C509.19 23.6993 510.537 22.7568 509.189 22.6406C505.923 22.4516 503.941 23.181 502.176 22.7341L502.576 22.5002C501.5 22.5457 500.214 22.1737 499.421 21.9873L499.823 22.3211C497.616 21.9957 496.535 22.6198 494.366 22.1683C495.025 21.8287 495.49 21.4436 497.444 21.4552C497.383 20.7856 495.37 20.7265 495.03 20.1445L496.181 19.8684L495.775 19.4664C496.096 19.1306 496.758 19.5353 498.108 19.4274C497.43 18.9208 496.74 18.3045 496.426 17.6778C495.922 17.8733 495.2 17.9738 493.974 17.8576C493.96 17.4361 493.98 16.9997 493.976 16.5755C491.863 16.4378 492.038 16.9138 490.171 16.8573C491.823 16.1831 490.815 15.5876 490.489 15.1284C489.524 15.257 488.408 15.2186 487.147 15.0647C486.949 15.2699 486.633 15.472 486.347 15.6714L487.764 15.5505C487.243 16.2384 488.598 16.3482 488.621 16.8724C487.52 16.8704 486.404 16.8613 486.288 17.1309C487.488 17.9038 489.657 18.3766 491.081 19.0794C485.337 20.1413 485.788 17.364 479.331 17.8972C480.468 16.5404 475.328 16.8035 474.517 15.5006C478.158 15.5967 479.498 15.0764 482.281 14.9419L482.69 15.2791L482.26 14.497L482.267 14.7179C481.675 14.436 481.019 14.2411 480.372 14.0774C478.756 13.889 477.077 13.7729 475.375 13.8548C474.12 13.949 473.793 14.2093 473.79 14.5224C474.095 14.7386 474.176 14.9732 474.052 15.2155C474.215 15.55 474.292 15.8598 473.679 16.0345C473.435 16.0163 473.275 15.9617 473.051 15.9344C473.027 15.9429 473.02 15.9552 472.995 15.9636C467.92 15.7213 467.092 16.0734 462.115 16.3423C461.32 16.0513 459.979 15.9279 459.729 15.4765L460.506 15.4674C459.875 15.3194 459.195 15.2394 458.522 14.9354L458.937 15.2615C458.251 15.4089 457.556 15.5532 457.382 15.2837C456.359 15.181 457.105 16.4007 458.984 16.1545C458.289 16.5585 456.588 16.6878 454.345 16.6658C454.763 16.2124 454.167 16.0682 453.573 15.9221C452.879 16.215 452.209 16.5054 451.54 16.7931C453.057 17.2601 455.548 17.4231 455.987 18.2096C454.946 18.2265 453.917 18.2434 452.869 18.257C452.477 17.7251 452.444 17.4517 451.431 16.8399C449.936 17.4855 448.657 18.1603 447.775 18.917C447.883 19.1534 447.982 19.3879 448.277 19.6613C447.976 19.7588 447.473 19.8003 447.011 19.8529C446.869 20.1101 446.705 20.362 446.682 20.6472C447.415 20.3354 448.629 20.1212 449.846 19.636C452.022 19.6464 453.166 19.9809 453.009 20.7162C451.869 21.0682 448.565 20.8427 449.174 21.6663C448.47 21.4987 447.403 21.4467 446.051 21.4786C445.931 21.1623 446.112 20.9552 446.403 20.7772C444.958 20.8928 444.74 20.5173 444.948 20.1036C442.936 19.8522 444.842 18.3987 441.981 18.4045L442.353 18.1739C441.894 18.1544 440.964 18.057 440.01 17.8693L440.412 18.1993C440.437 18.7202 440.461 19.2411 440.498 19.7685C438.023 20.0511 437.759 19.86 435.075 20.2886C433.569 20.0509 430.553 18.1083 434.995 18.7227C434.632 18.4513 433.968 18.2772 432.635 18.3019C434.224 18.0739 433.219 17.1444 435.686 17.1477C435.56 16.6475 432.381 17.0958 431 16.9821C430.9 15.5441 425.395 15.4934 421.143 15.1381C420.899 15.1946 420.648 15.205 420.41 15.3076C420.41 15.433 420.41 15.5526 420.41 15.6747L418.721 15.3076C415.409 15.2849 412.375 15.1329 410.273 14.5782L410.447 14.3535C409.538 14.4106 409.117 14.3184 408.791 14.1976C408.36 14.0378 408.009 13.8528 406.699 13.9632C403.728 14.5043 407.252 14.8725 403.629 14.8998C405.362 16.1085 409.068 16.7183 411.572 17.6971C411.815 18.3505 409.853 18.4077 410.09 19.0611C410.453 19.5528 414.222 19.0144 414.783 19.4469C414.707 19.9373 412.847 19.9523 410.928 19.9452C410.797 20.6661 412.352 20.8758 411.799 21.7221C406.432 22.1638 410.025 24.4307 407.32 25.1406C405.742 24.7905 406.338 25.1691 404.208 25.1847C401.117 24.3871 404.737 24.5151 404.899 23.6058C404.909 23.5408 402.301 22.3983 405.617 22.4795C405.779 21.8235 403.826 21.8157 403.974 21.1525L404.353 20.9331L403.955 20.7044C406.831 20.3576 401.663 20.7141 402.373 20.2886L402.741 19.9496L400.6 20.9837L400.693 21.274C401.066 21.6611 402.177 21.9963 401.062 22.4276L402.485 22.299C402.139 23.0037 404.231 23.1497 402.559 23.644C400.939 23.7557 400.488 23.5123 399.435 23.4571L399.817 23.118C399.036 23.207 398.253 23.2264 397.48 23.2576L397.886 23.4751C395.861 23.8031 396.455 24.489 397.194 25.0574C394.101 25.2321 388.267 25.447 385.483 24.5371C386.263 23.5596 387.969 22.397 386.101 21.6208C387.11 21.3435 387.321 21.5261 388.441 21.5897C390.704 19.2658 395.105 17.4802 395.352 15.3901C394.505 15.3193 393.719 15.2374 392.942 15.1264L395.358 15.3596C395.397 14.9582 395.336 14.5489 395.018 14.1183C397.624 13.4435 397.872 12.959 398.264 12.3024C396.286 12.3829 394.341 12.4374 392.509 12.3978C394.009 13.6559 395.253 12.9162 394.199 14.944L392.942 15.1264L393.36 15.6739C389.366 16.9223 384.291 15.0263 381.526 15.6739C380.709 14.3496 385.318 15.3668 384.899 14.2146C384.664 13.2643 382.871 12.9824 380.662 12.8791C380.989 13.1389 381.098 13.465 380.992 13.8573C378.891 14.3126 377.448 14.2931 375.405 14.3243C374.532 14.5497 373.399 14.5867 372.525 14.4256C372.494 14.4276 372.478 14.4262 372.445 14.4282C372.437 14.4152 372.395 14.412 372.385 14.3996C371.936 14.3002 371.547 14.1605 371.374 13.9215C370.245 13.6344 368.579 13.5118 367.713 13.1455L368.857 12.8654L368.845 12.8539C368.168 12.8026 367.531 12.7343 366.909 12.6596L366.522 12.7525L366.928 13.1545C365.703 13.1948 363.957 13.0883 363.838 13.4228L362.99 13.3702C362.982 13.4026 362.952 13.4241 362.945 13.4572L364.239 13.7527C363.848 13.7072 363.371 13.6104 362.93 13.4889L362.928 13.491L362.253 13.3929L361.91 13.5235C362.552 14.0574 362.425 14.5873 361.651 15.1251L362.928 14.9432C365.111 16.4923 366.983 17.3672 366.301 19.306L365.03 19.7386L365.463 20.4057C361.786 20.885 360.739 20.6103 357.853 20.0394C355.744 21.3403 351.595 21.945 347.702 21.4955L348.135 20.9473C346.573 21.1786 345.337 21.1058 343.891 21.1324L344.323 21.4955C342.141 22.3906 340.262 21.1058 339.255 20.4057C337.72 21.0825 334.983 21.2351 332.496 21.4955C331.739 20.8454 330.131 20.5712 330.794 19.306C327.387 19.256 328.557 20.2471 329.104 21.1324C320.879 21.9813 313.303 21.3539 314.729 25.8654C311.614 26.222 310.545 27.4573 307.971 28.0483C304.936 27.9132 304.876 27.0709 302.05 27.6885C302.699 27.3612 302.956 26.8623 302.896 26.2284L303.314 25.6764C302.477 25.5615 301.638 25.4589 300.78 25.3166L301.206 25.8648C301.206 26.109 301.206 26.3506 301.206 26.5884L299.936 26.4096L299.517 26.9547C299.233 26.9547 298.95 26.9547 298.666 26.9547C297.99 27.0274 297.828 27.3209 296.983 27.3176C296.544 28.6452 300.68 28.9525 298.666 29.867C295.003 29.2396 290.096 30.4321 286.826 29.1409L287.251 28.4706L285.717 28.8207C284.318 29.2111 283.088 29.7059 281.338 29.8047L282.601 30.2308C282.385 31.446 277.08 31.674 274.999 30.9608C274.904 29.0552 276.12 29.5871 276.688 27.6879C275.404 27.1624 269.822 29.385 267.382 28.414C266.361 30.7854 267.368 31.9513 269.078 33.87C268.361 34.2135 263.691 34.65 263.158 33.87C262.909 34.1174 262.469 34.2954 262.078 34.4922C262.136 34.4941 262.178 34.4921 262.237 34.4941C262.838 35.1696 261.487 35.3197 261.533 35.8451C259.457 35.8757 257.38 35.9029 255.305 35.9295C255.319 35.8379 255.427 35.79 255.463 35.7081C250.309 35.7607 244.756 34.4707 245.398 32.0507C245.06 31.3505 242.127 31.7668 242.864 30.5977C245.08 30.8516 245.461 30.3249 246.394 30.0313C245.401 30.1229 244.436 30.2217 243.314 30.2775C243.297 29.9093 243.272 29.5286 243.256 29.1564C244.905 29.1038 246.11 28.9311 247.152 28.7142C247.697 26.0596 253.05 25.6758 256.379 26.954C256.441 26.7865 256.485 26.6246 256.339 26.5194C258.148 26.4174 259.681 26.2434 260.188 25.7939C260.372 25.8452 260.453 25.8985 260.564 25.9511C260.667 25.11 260.845 24.3008 263.16 24.4118L263.579 24.9502L264.708 23.8603L263.16 24.039C263.16 23.9195 263.16 23.8013 263.16 23.6818C259.017 22.7172 251.813 23.7844 247.095 22.9517L247.528 22.4035C246.71 23.0835 246.197 23.2356 244.98 23.4967L246.258 23.6818C245.778 25.538 239.155 24.7482 236.114 25.4977C232.816 24.2493 226.537 24.2858 224.274 22.5854C222.233 22.4399 222.436 23.2524 220.043 22.9517C214.528 20.277 204.627 27.9055 195.524 24.0384C195.416 23.3908 196.565 23.2719 196.376 22.5848C195.173 22.6179 193.984 22.6503 193.835 22.2216C192.077 23.496 191.942 23.1661 188.759 24.0384C190.523 24.8866 192.335 23.635 193.835 24.771C195.687 26.1544 192.145 26.1512 192.145 27.6873L190.875 27.5022L190.455 28.0471C190.168 27.8886 189.781 27.7742 189.369 27.6697C188.755 27.6885 188.096 27.6658 187.497 27.6749L188.918 27.5645C187.384 27.2677 185.253 27.2319 182.845 27.317C183.534 26.2869 181.642 26.3759 182 25.4971C180.845 26.3557 173.952 26.6299 171.856 25.8642L172.275 25.316C171.438 25.2036 170.579 25.095 169.734 24.9495L170.16 25.4977C168.47 25.4977 166.788 25.4977 165.085 25.4977C164.436 25.1775 164.179 24.6755 164.247 24.0384C162.557 24.0384 160.869 24.0384 159.165 24.0384C159.165 24.4112 159.165 24.771 159.165 25.1347L157.908 24.9495L157.482 25.4977C156.259 25.0547 156.198 24.1111 154.941 23.6818C150.926 23.8337 148.851 23.1498 145.648 22.9517C146.013 21.185 156.718 20.0951 158.327 22.2216C160.07 22.1255 159.124 20.8681 160.868 20.7648C157.11 17.8752 150.23 18.1428 138.884 18.2188L139.303 17.5477L138.032 17.1282C140.972 16.3293 147.589 17.1152 149.866 16.0318C149.076 14.2385 150.893 13.5644 152.414 12.7551C152.117 11.5535 147.203 12.3258 148.183 10.5754C141.837 11.421 139.628 12.1212 131.261 11.6652C126.071 14.5646 115.967 11.5126 110.98 12.7544L110.135 12.5765C110.081 13.0851 109.621 13.389 109.203 13.8151L110.98 13.8514C111.371 14.6276 109.771 14.5451 108.452 14.575C108.587 15.0011 108.263 15.2226 107.601 15.3044C107.763 15.5987 108.452 15.6713 108.452 16.0312L107.175 16.213L107.601 16.7612C104.695 15.9916 102.424 17.2172 100.829 16.0312C99.2336 16.074 100.248 17.2327 98.2876 17.1275L97.8689 16.5793C97.531 17.0782 96.1927 17.6628 95.3414 17.8544L95.7603 18.218C96.1183 18.9773 95.1792 19.182 94.9153 19.6743C92.8138 19.7302 92.2931 19.0995 90.6915 18.9443C87.4209 20.5167 80.4731 19.575 76.3168 18.5845C77.5132 21.3157 66.7065 20.7375 64.4832 22.2204L63.2058 22.0418C63.8004 22.4016 63.8479 22.7718 64.0645 23.1317L63.6383 22.5835C60.2659 21.7839 57.874 22.818 53.4874 22.5835C53.4128 21.2293 52.5414 21.5461 53.4874 20.4036C52.6426 20.4036 51.7983 20.4036 50.9535 20.4036C49.8044 20.516 50.2505 21.3149 50.1156 21.8566C48.953 20.896 45.0742 21.1168 43.3442 20.4036L43.7694 19.7367L42.4922 19.3041C44.8303 18.5013 44.8912 17.7978 44.1813 16.3975C48.77 17.1502 54.0682 17.6426 58.5624 17.4867C58.2382 16.2948 56.0823 15.885 55.1835 14.9407C48.7902 14.7328 48.1283 15.6512 43.3436 14.9407C43.2554 14.7458 43.37 14.6418 43.4062 14.5035ZM257.512 27.5457C258.328 28.0705 258.934 28.6998 258.937 29.5026C261.005 29.2681 259.072 27.8016 258.099 27.6866C259.806 27.7373 260.278 27.258 260.451 26.6507C259.743 27.0034 258.396 27.3287 257.512 27.5457ZM927.518 24.3864C926.469 23.4154 925.465 22.425 924.318 21.4936H925.163V21.1305C925.845 21.061 926.007 20.7642 926.859 20.7642C927.154 19.6126 925.683 19.2222 924.255 18.8169C923.223 19.3989 923.767 20.0269 924.882 20.7946C923.749 20.8453 923.488 21.0044 923.47 21.2136L924.508 21.3852C924.18 21.3455 923.832 21.3312 923.486 21.3143C923.547 21.6429 923.92 22.0599 922.643 22.3918C919.719 22.7561 921.107 21.7962 918.723 21.9969C919.648 22.6835 918.535 22.5945 919.567 23.0979C921.773 23.2603 921.559 22.7595 923.442 22.8277C924.076 23.5694 925.955 23.9311 927.518 24.3864ZM928.682 26.0056L929.516 26.0933C929.447 26.04 929.388 25.9836 929.32 25.9297L928.682 26.0056ZM1447.06 13.5183C1447.04 13.5027 1446.97 13.4993 1446.96 13.4818C1446.72 13.4967 1446.6 13.5319 1446.39 13.5521C1446.61 13.5352 1446.84 13.5248 1447.06 13.5183ZM412.973 12.6479C412.666 12.6148 412.319 12.5934 412.061 12.5453C412.307 12.8986 411.36 12.935 411.324 13.2233L411.478 13.3481C412.233 13.2247 412.877 13.0538 412.973 12.6479ZM463.466 12.5025L467.094 12.7668C467.317 12.6064 467.47 12.4166 467.585 12.2101C466.986 11.9983 466.565 11.7302 464.975 11.8186C465.427 12.3076 463.545 12.1712 463.466 12.5025ZM493.958 16.2961C493.949 16.1734 493.955 16.0423 493.93 15.9254C493.321 16.0046 493.72 16.113 493.958 16.2961ZM497.562 16.6385L497.546 16.6041C497.541 16.6151 497.534 16.6249 497.529 16.636L497.562 16.6385ZM947.494 26.1388C946.574 25.6211 945.871 25.0841 946.295 24.4099C947.213 24.434 947.689 24.2721 948.261 24.1513C946.955 24.1656 945.522 24.1636 943.766 24.1175C942.185 23.2394 943.883 20.9889 941.95 19.6697L941.964 19.6574C941.724 19.595 941.505 19.5235 941.243 19.4696C940.49 19.5554 939.762 19.6073 939.221 19.5911L940.396 19.6911C940.75 20.2231 939.007 20.1964 939.684 20.8219C938.618 20.8765 937.738 20.8751 936.959 20.8433C938.67 22.8789 942.614 23.9519 945.444 25.4964C945.533 25.6601 945.571 25.8069 945.592 25.9485C946.229 26.0226 946.862 26.0816 947.494 26.1388ZM965.567 24.2721C966.356 24.3501 966.9 24.3838 967.355 24.4007C967.328 24.0169 967.455 23.6993 968.272 23.6805C968.173 23.6331 968.057 23.6143 967.953 23.5707C967.925 23.5714 967.896 23.5714 967.867 23.572C967.867 23.5616 967.865 23.5512 967.865 23.5401C967.065 23.2108 966.201 23.0024 965.311 22.8829C964.582 23.2135 963.556 23.4701 962.021 23.5376L964.22 22.7595C963.277 22.7121 962.361 22.7731 961.492 22.8965C961.744 23.0303 962.042 23.1453 962.402 23.1875L962.021 23.5376L963.2 23.6375C962.531 24.4442 960.235 23.9395 958.455 23.7797C957.515 24.2708 956.98 24.8697 957.283 25.4964C957.585 26.218 959.072 26.4292 960.209 26.791C959.925 26.4312 958.204 26.5162 958.647 25.9278C960.81 25.338 964.666 25.2016 965.567 24.2721ZM1055.11 22.8946C1054.82 22.2399 1055.04 21.5644 1056.2 21.1311C1056.26 21.1552 1056.34 21.1663 1056.4 21.1896C1057.23 20.9805 1058.61 20.9221 1060.38 20.9656C1060.56 21.3956 1060.4 21.7306 1059.87 21.9663C1063.27 22.4151 1066.89 22.1398 1070.58 22.1008C1068.49 21.4721 1066.23 20.8993 1064.99 20.0062C1060.26 20.2485 1059.97 19.1216 1058.67 18.3078C1056.55 18.954 1054.81 18.1954 1053.19 17.4835C1052.93 17.9096 1053.32 18.3597 1054.51 18.5851L1053.25 19.0047L1053.66 19.675C1050.09 19.2158 1048.24 19.9165 1046.06 19.3053C1043.74 19.5203 1044.78 20.1042 1044.87 20.6174C1045.39 20.6674 1045.92 20.7181 1046.39 20.7843C1046.9 20.4414 1047.97 20.3375 1049.44 20.4057C1049.54 20.8045 1049.3 21.0539 1048.89 21.2299C1051.14 21.73 1052.93 22.3704 1055.11 22.8946Z"/>
<path class="elementor-shape-fill" d="M167.632 30.2295C164.577 31.8182 162.914 28.4161 165.09 27.6867C164.002 27.66 163.915 27.2138 162.563 27.3164L162.982 27.8646L161.712 28.0465C161.712 28.1653 161.712 28.2907 161.712 28.4128C159.103 28.1582 160.09 28.1582 157.488 28.4128C157.522 29.6053 158.914 30.223 158.333 31.6857C161.719 31.6993 166.517 32.9938 168.477 32.4189C165.685 32.2078 169.537 30.0613 167.632 30.2295Z"/>
<path class="elementor-shape-fill" d="M41.6599 19.3048C38.0916 17.6992 34.4353 17.0652 29.8198 17.1282L30.2386 17.6667L28.9813 17.8551C28.9677 18.2214 29.657 18.2845 29.8191 18.5852C26.7307 18.9515 23.6286 19.3113 23.0605 20.7649C27.0885 21.3228 38.8542 22.1523 42.4971 20.4051L41.2397 19.979L41.6599 19.3048Z"/>
<path class="elementor-shape-fill" d="M329.956 29.8657C327.624 32.0227 328.273 30.7315 323.191 30.2295C324.752 32.7762 319.474 30.4866 317.271 31.6856C317.426 33.2146 320.488 33.8915 322.34 32.7788C323.894 33.4063 324.881 34.4863 322.34 34.9617C324.313 34.9617 326.3 34.9617 328.267 34.9617C327.611 33.7069 328.733 33.225 331.653 33.5056C331.707 32.8717 331.457 32.3761 330.802 32.0488C333.112 32.0825 332.504 31.4447 334.188 32.0488C334.667 31.2895 336.283 31.0088 335.87 29.8657C333.95 30.0443 331.558 30.5899 329.956 29.8657Z"/>
<path class="elementor-shape-fill" d="M357.86 32.7789C357.752 32.4054 361.503 32.039 358.705 31.6857C359.158 32.2144 355.407 32.5743 357.86 32.7789Z"/>
<path class="elementor-shape-fill" d="M717.172 26.5869C717.179 26.5992 717.182 26.6032 717.189 26.6155C717.168 26.5799 717.148 26.5442 717.13 26.5144C717.148 26.5436 717.146 26.5408 717.172 26.5869Z"/>
<path class="elementor-shape-fill" d="M414.508 20.7643L414.927 21.3125L414.508 21.8573C416.467 22.1054 416.765 23.0694 418.725 23.3137C419.144 22.8843 419.638 22.4881 420.415 22.2205L419.996 21.6748L420.415 21.13C418.333 20.6721 416.096 19.5094 414.508 20.7643Z"/>
<path class="elementor-shape-fill" d="M373.918 16.7614C373.046 16.4938 373.242 14.3465 368.849 14.5751C368.876 15.0772 368.444 15.3812 367.998 15.6715C369.606 15.9787 372.87 17.4219 373.918 16.7614Z"/>
<path class="elementor-shape-fill" d="M284.845 34.1598L293.501 34.4195C293.646 34.7007 294.146 34.8676 294.98 34.9417C294.96 34.7182 295.574 34.6741 295.727 34.4858L297.402 34.5362C293.314 34.166 288.982 33.407 284.845 34.1598Z"/>
<path class="elementor-shape-fill" d="M988.344 31.5013L983.789 31.6062C985.465 32.1736 986.911 31.8741 988.344 31.5013Z"/>
<path class="elementor-shape-fill" d="M992.154 30.8601C990.789 30.7939 989.567 31.1707 988.344 31.5013L995.331 31.3193C994.148 31.3161 992.648 31.4778 992.154 30.8601Z"/>
<path class="elementor-shape-fill" d="M17.5596 27.1344L15.4374 27.316C15.8232 27.3653 16.6816 27.2635 17.5596 27.1344Z"/>
<path class="elementor-shape-fill" d="M458.896 18.7663C459.49 18.7364 460.085 18.6968 460.375 18.6312C461.179 18.1557 460.842 17.5251 461.092 16.9996L458.896 18.7663Z"/>
<path class="elementor-shape-fill" d="M190.88 27.5015L192.205 28.3568C191.894 28.1393 191.638 27.9276 190.88 27.5015Z"/>
<path class="elementor-shape-fill" d="M159.09 25.6355L162.982 27.8646C161.955 27.0391 160.455 26.359 159.09 25.6355Z"/>
<path class="elementor-shape-fill" d="M131.145 18.0759L123.244 18.5837C125.84 18.5539 128.468 18.3165 131.145 18.0759Z"/>
<path class="elementor-shape-fill" d="M139.309 17.5472C136.531 17.59 133.815 17.8344 131.146 18.075L139.309 17.5472Z"/>
<path class="elementor-shape-fill" d="M107.18 16.213L110.1 18.0986C109.255 17.4419 109.046 16.5832 107.18 16.213Z"/>
<path class="elementor-shape-fill" d="M30.2386 17.6667C28.6169 17.2471 27.4273 16.8938 25.589 16.7613L30.2386 17.6667Z"/>
<path class="elementor-shape-fill" d="M1035.49 23.4954C1034.54 22.9343 1033.12 22.4848 1031.69 22.1614L1035.49 23.4954Z"/>
<path class="elementor-shape-fill" d="M1020.27 27.6864C1018.86 27.6138 1017.46 27.4588 1016.04 27.5016L1020.27 27.6864Z"/>
<path class="elementor-shape-fill" d="M1012.66 24.2253L1016.04 25.3151C1015.12 24.9319 1014.04 24.5455 1012.66 24.2253Z"/>
<path class="elementor-shape-fill" d="M422.111 16.7613L419.576 15.4895C419.712 16.0247 420.78 16.7151 422.111 16.7613Z"/>
<path class="elementor-shape-fill" d="M299.944 26.4084V27.1351C300.268 26.9662 300.065 26.6857 299.944 26.4084Z"/>
<path class="elementor-shape-fill" d="M927.269 33.3237L928.114 34.0569C927.925 33.8127 927.736 33.5653 927.269 33.3237Z"/>
<path class="elementor-shape-fill" d="M433.525 22.1605C429.065 21.8142 424.53 21.7448 419.995 21.6754L433.525 22.1605Z"/>
<path class="elementor-shape-fill" d="M1486.09 44.7297C1486.61 44.7212 1487.13 44.7128 1487.65 44.7076C1487.66 44.4225 1488.62 44.3828 1488.39 44.0223C1487.86 44.0346 1487.35 44.0393 1486.82 44.0445C1486.8 44.3329 1485.85 44.3731 1486.09 44.7297Z"/>
<path class="elementor-shape-fill" d="M1526.72 33.4322L1526.35 33.7758L1525.18 33.6758C1524.21 34.6546 1527.43 34.3519 1528.34 34.7526C1526.12 35.9523 1529.82 36.522 1533.12 36.7045L1534.13 36.394L1535.44 36.2245C1534.29 34.9034 1530.51 33.1945 1526.72 33.4322Z"/>
<path class="elementor-shape-fill" d="M986.156 44.1302C986.078 44.6862 986.075 45.2215 987.778 45.2292C987.751 44.7843 989.884 44.9175 989.273 44.3141C988.227 44.2628 987.775 44.0152 986.156 44.1302Z"/>
<path class="elementor-shape-fill" d="M1180.63 40.8237C1180.45 41.3349 1180.88 41.6575 1182.25 41.6952C1182.04 41.299 1182.96 40.5613 1180.63 40.8237Z"/>
<path class="elementor-shape-fill" d="M864.769 45.5517C866.446 44.8494 869.765 45.7462 864.769 45.5517Z"/>
<path class="elementor-shape-fill" d="M1519.78 34.6481C1519.25 35.6288 1522.86 35.623 1523.7 35.0469C1522.2 34.9644 1522.25 34.4266 1519.78 34.6481Z"/>
<path class="elementor-shape-fill" d="M1484.77 35.1236C1484.26 35.7322 1486.4 35.5399 1487.14 35.7653C1487.25 35.271 1486.47 35.056 1484.77 35.1236Z"/>
<path class="elementor-shape-fill" d="M1134.66 40.1013C1134.67 40.2459 1134.68 40.3938 1134.68 40.5455C1135.2 40.541 1135.72 40.5286 1136.23 40.5202C1136.22 40.3762 1136.21 40.2245 1136.21 40.0728C1135.69 40.0877 1135.18 40.0929 1134.66 40.1013Z"/>
<path class="elementor-shape-fill" d="M870.011 41.9042C865.77 42.0153 865.35 43.1449 864.688 44.2146C868.044 44.3036 867.815 43.441 870.883 43.4611C870.841 42.8674 871.104 42.177 870.011 41.9042Z"/>
<path class="elementor-shape-fill" d="M1148.62 39.2366C1145.25 39.1912 1149.36 37.9359 1148.62 39.2366Z"/>
<path class="elementor-shape-fill" d="M1004.63 40.2976C1010.55 41.4089 1013 39.5396 1012.29 37.9561C1006.37 37.834 1003.82 38.6147 1004.63 40.2976Z"/>
<path class="elementor-shape-fill" d="M1060.95 38.0841L1059.78 37.9911C1057.95 38.3718 1055.74 38.6575 1055.2 39.3882C1057.63 40.1676 1064.9 39.6869 1064.48 38.3665C1064.44 37.9976 1062.31 38.273 1062.12 37.9528L1060.95 38.0841Z"/>
<path class="elementor-shape-fill" d="M877.582 37.9971L877.984 38.3309L876.81 38.2302C877.995 39.0856 878.161 40.2476 880.833 40.6432L881.735 40.2878L883.165 40.3841C884.766 39.1013 881.522 36.2389 877.582 37.9971Z"/>
<path class="elementor-shape-fill" d="M1526.65 32.3189C1526.85 32.0033 1526.11 31.4491 1525.85 31.8759C1525.67 32.1883 1526.39 32.7463 1526.65 32.3189Z"/>
<path class="elementor-shape-fill" d="M1034.16 39.2239C1034.39 38.9265 1035.24 38.7842 1034.89 38.3256C1032.22 38.1905 1031.89 39.2161 1034.16 39.2239Z"/>
<path class="elementor-shape-fill" d="M535.339 44.4375L535.741 44.7713L534.589 44.8953C534.94 45.3149 536.288 45.4318 536.204 45.9904C538.006 46.0365 539.187 45.9124 540.085 45.713C540.441 44.6978 538.859 44.2719 535.339 44.4375Z"/>
<path class="elementor-shape-fill" d="M1135.24 36.7435C1135.27 36.9604 1134.63 37.011 1134.5 37.1935C1135.49 37.1902 1135.58 37.4625 1136.85 37.3793C1136.83 37.1624 1136.81 36.9382 1136.8 36.7141C1136.27 36.7193 1135.76 36.7279 1135.24 36.7435Z"/>
<path class="elementor-shape-fill" d="M1057.45 38.0184C1057.83 36.5842 1050.94 38.0886 1055.12 38.2737C1054.94 37.4157 1055.76 38.1801 1057.45 38.0184Z"/>
<path class="elementor-shape-fill" d="M842.686 40.4904C844.061 40.669 845.133 41.1945 845.799 40.443C845.313 40.3794 842.766 39.9201 842.686 40.4904Z"/>
<path class="elementor-shape-fill" d="M1034.87 38.1009C1035.35 37.4202 1037.82 37.2787 1037.11 36.2765C1034.52 36.3479 1032.33 38.0034 1034.87 38.1009Z"/>
<path class="elementor-shape-fill" d="M865.977 39.5019C865.798 40.0059 866.22 40.3359 867.592 40.3729C867.401 39.9767 868.31 39.2388 865.977 39.5019Z"/>
<path class="elementor-shape-fill" d="M1065.93 36.5609C1067.46 37.5651 1072.39 36.6421 1071.33 35.5886C1068.93 35.7568 1065.82 35.7218 1065.93 36.5609Z"/>
<path class="elementor-shape-fill" d="M897.494 32.1266C894.574 32.0825 893.533 33.2055 895.261 33.7277L896.664 33.5991C896.532 33.7459 896.472 33.8934 896.428 34.0525L895.267 33.9518C890.151 35.4872 895.727 37.0252 894.764 38.8867C895.827 38.8588 896.472 38.968 897.11 39.0726C897.844 38.4991 899.571 37.7631 897.023 37.5065C903.617 37.4156 898.78 34.9065 897.594 33.9206C900.806 33.6172 897.452 32.8132 897.494 32.1266Z"/>
<path class="elementor-shape-fill" d="M1013.8 37.2601C1010.89 36.6318 1016.12 36.4781 1013.8 37.2601Z"/>
<path class="elementor-shape-fill" d="M1404.88 26.8078C1402.9 28.5888 1410.06 29.4294 1413.64 30.2685L1413.61 29.8236L1415.16 29.8047C1412.14 28.6797 1409.74 27.3658 1404.88 26.8078Z"/>
<path class="elementor-shape-fill" d="M1008.91 33.5262C1008.9 33.3814 1008.9 33.2293 1008.89 33.0819L1007.73 33.206C1008.3 33.0898 1008.67 33.0034 1009.04 32.9281C1009.34 32.6351 1009 32.3096 1008.44 32.0791L1007.95 32.8578C1005.94 32.7299 1006.83 31.7212 1003.39 32.0323C1003.79 33.7574 1004.12 34.3751 1003.62 36.2854C1007.55 37.3889 1010.88 35.5838 1009.73 33.9619C1012.97 34.44 1017.91 33.7516 1018.22 32.7325C1014.26 32.376 1012.52 33.2092 1008.91 33.5262Z"/>
<path class="elementor-shape-fill" d="M1120.28 33.8043C1120.42 34.3765 1121.47 34.6565 1123.44 34.6611C1123.42 34.361 1123.41 34.0681 1123.39 33.768C1122.35 33.7745 1121.32 33.7913 1120.28 33.8043Z"/>
<path class="elementor-shape-fill" d="M1271.2 31.3095C1271.21 31.458 1271.21 31.6053 1271.22 31.7571C1271.74 31.7486 1272.26 31.7369 1272.78 31.7317C1272.79 31.5839 1272.77 31.4355 1272.76 31.2837C1272.23 31.2928 1271.72 31.3011 1271.2 31.3095Z"/>
<path class="elementor-shape-fill" d="M1038.53 34.0225C1038.5 34.1595 1038.43 34.2889 1037.77 34.2557C1037.88 34.5279 1038.03 34.7831 1039.35 34.6818C1039.21 34.4207 1039.46 34.0439 1038.53 34.0225Z"/>
<path class="elementor-shape-fill" d="M845.584 36.6382C845.467 37.1318 846.245 37.3469 847.957 37.2793C847.943 37.063 847.917 36.8311 847.91 36.6103C847.132 36.6201 846.368 36.6291 845.584 36.6382Z"/>
<path class="elementor-shape-fill" d="M486.878 41.2912C486.929 41.6023 486.537 41.779 486.146 41.9733C487.192 42.0246 487.652 42.2649 489.271 42.1499C488.918 41.7264 488.929 41.1919 486.878 41.2912Z"/>
<path class="elementor-shape-fill" d="M950.58 34.763C950.594 34.9975 950.607 35.2183 950.627 35.4392C951.398 35.4301 952.183 35.417 952.96 35.4073C953.077 34.9208 952.286 34.7026 950.58 34.763Z"/>
<path class="elementor-shape-fill" d="M1216.62 30.0378C1211.78 29.9754 1209.38 30.5802 1208.14 31.4954C1211.39 31.9078 1217.37 31.4082 1216.62 30.0378Z"/>
<path class="elementor-shape-fill" d="M521.134 41.0489C521.182 41.0456 521.066 40.8384 521.114 40.828C524.749 39.5608 517.403 41.2847 521.134 41.0489Z"/>
<path class="elementor-shape-fill" d="M1038.45 32.4527C1037.96 33.286 1039.73 33.429 1042.38 33.2998C1042.21 32.6769 1040.98 32.3591 1038.45 32.4527Z"/>
<path class="elementor-shape-fill" d="M743.565 36.4668C746.384 36.6506 744.447 37.178 747.506 37.2995C748.444 37.3391 751.269 36.9162 752.93 36.783C752.911 36.4862 752.888 36.1862 752.876 35.8861C750.047 35.5432 746.628 35.5257 743.565 36.4668Z"/>
<path class="elementor-shape-fill" d="M1379.2 27.1552C1374.81 27.2572 1378.19 28.351 1380.05 28.488C1380.58 27.7924 1378.67 27.8463 1379.2 27.1552Z"/>
<path class="elementor-shape-fill" d="M1155.98 31.537C1158.97 31.6721 1158.91 30.4211 1155.93 30.6368C1155.95 30.9297 1155.96 31.233 1155.98 31.537Z"/>
<path class="elementor-shape-fill" d="M798.763 34.8182C798.125 35.3749 798.068 36.3426 801.177 36.3491C802.144 35.6885 801.839 34.8247 798.763 34.8182Z"/>
<path class="elementor-shape-fill" d="M1355.92 28.5887C1355.91 28.3718 1355.89 28.1438 1355.88 27.9237C1353.6 27.6223 1353.68 28.9531 1355.92 28.5887Z"/>
<path class="elementor-shape-fill" d="M1218.21 30.4601C1218.72 30.4555 1219.24 30.451 1219.76 30.4387C1219.79 30.1535 1220.73 30.1171 1220.51 29.7566C1219.72 29.769 1218.94 29.778 1218.17 29.7877C1218.19 30.0118 1218.2 30.2431 1218.21 30.4601Z"/>
<path class="elementor-shape-fill" d="M822.087 34.2748C820.209 34.2098 820.411 34.7035 818.212 34.5521C817.096 35.6849 824.455 35.7504 824.466 35.1438C823.317 34.9612 821.981 34.8373 822.087 34.2748Z"/>
<path class="elementor-shape-fill" d="M523.346 39.0032C522.843 39.7891 526.122 39.7682 527.267 39.3947C528.022 38.6367 524.818 39.0811 523.346 39.0032Z"/>
<path class="elementor-shape-fill" d="M1200.24 29.5838C1200.24 29.9703 1200.88 30.1549 1201.84 30.2419C1202.94 29.8892 1202.94 29.3546 1200.24 29.5838Z"/>
<path class="elementor-shape-fill" d="M811.984 34.6363C812.002 34.9331 812.02 35.2372 812.032 35.5333C812.809 35.5203 813.587 35.5112 814.365 35.5021C814.551 34.9045 814.028 34.5408 811.984 34.6363Z"/>
<path class="elementor-shape-fill" d="M1422.74 26.1187C1424.59 26.1616 1424.24 26.8734 1426.67 26.7344C1427.02 26.1499 1423.85 25.503 1422.74 26.1187Z"/>
<path class="elementor-shape-fill" d="M762.951 35.0825C765.329 35.3339 769.373 35.0761 770.767 35.6418C771.055 35.3197 771.679 35.2547 770.736 34.9728L769.553 34.7318L769.918 34.309C767.838 33.7725 762.377 33.7536 762.951 35.0825Z"/>
<path class="elementor-shape-fill" d="M773.021 34.0447L774.438 33.9161L775.367 34.2376C777.233 34.0096 777.37 33.3101 777.607 32.6404C774.795 32.6157 774.64 33.3082 772.204 33.3887C772.187 33.692 772.594 33.87 773.021 34.0447Z"/>
<path class="elementor-shape-fill" d="M514.734 38.0017C515.007 38.5103 514.652 38.861 514.022 39.1318C519.152 38.898 522.957 38.3121 524.018 36.9832C519.216 35.9823 517.873 38.5577 514.734 38.0017Z"/>
<path class="elementor-shape-fill" d="M1122.4 30.1929C1121.27 29.9634 1120.5 29.9764 1120.1 30.4549C1121.16 30.4238 1121.8 30.536 1122.43 30.6404C1122.43 30.4926 1122.42 30.3407 1122.4 30.1929Z"/>
<path class="elementor-shape-fill" d="M794.005 33.3114C794.295 32.4657 792.298 32.3164 790.814 32.0176L789.628 31.9169L790.017 31.5779C785.777 31.6565 784.476 30.8504 780.632 30.8094C779.034 32.4033 783.979 33.8441 789.36 34.0461C790.598 34.0129 789.952 33.4672 791.678 33.5699C791.171 34.2655 791.159 34.0052 791.746 34.6878C793.224 34.7625 793.726 35.1405 795.662 35.0795C797.259 34.5274 796.035 33.4575 794.005 33.3114Z"/>
<path class="elementor-shape-fill" d="M1006.45 31.3227C1007 30.4796 1005.52 30.2419 1003.29 30.2458C1003.06 30.7706 1003.46 31.1084 1004.13 31.3579C1004.91 31.3416 1005.69 31.3356 1006.45 31.3227Z"/>
<path class="elementor-shape-fill" d="M1290.36 26.1251C1290.44 26.5342 1286.43 26.937 1288.88 27.2611C1288.87 26.8668 1293.21 26.555 1290.36 26.1251Z"/>
<path class="elementor-shape-fill" d="M1104.42 28.6544C1103.24 30.0833 1108.57 29.8981 1108.33 28.8186C1107.4 28.6491 1106.22 28.5556 1104.42 28.6544Z"/>
<path class="elementor-shape-fill" d="M899.807 31.6513C899.28 31.6597 898.764 31.6649 898.244 31.6727C898.253 31.8244 898.262 31.9723 898.264 32.124C898.799 32.1117 899.305 32.1033 899.826 32.102C899.818 31.9503 899.808 31.8024 899.807 31.6513Z"/>
<path class="elementor-shape-fill" d="M575.323 35.6126C575.22 36.0958 576.011 36.3141 577.696 36.2505C577.819 35.7601 577.021 35.545 575.323 35.6126Z"/>
<path class="elementor-shape-fill" d="M1428.01 23.1361C1426.72 23.5155 1427.38 24.3001 1428.87 24.4689C1430.18 24.0896 1429.53 23.305 1428.01 23.1361Z"/>
<path class="elementor-shape-fill" d="M1108.27 27.9219C1108.08 28.5162 1108.61 28.8871 1110.66 28.787C1110.3 28.3642 1110.32 27.8296 1108.27 27.9219Z"/>
<path class="elementor-shape-fill" d="M895.885 31.2556C895.363 31.264 894.849 31.2797 894.322 31.2738C894.337 31.4256 894.353 31.578 894.356 31.7291C894.869 31.7207 895.39 31.7122 895.91 31.7038C895.908 31.5514 895.9 31.4002 895.885 31.2556Z"/>
<path class="elementor-shape-fill" d="M751.945 33.2152C751.954 33.3598 751.964 33.5071 751.972 33.6588C752.75 33.6497 753.534 33.6374 754.305 33.6244C754.296 33.4805 754.287 33.3286 754.279 33.184C753.513 33.1938 752.729 33.2029 751.945 33.2152Z"/>
<path class="elementor-shape-fill" d="M1417.19 24.1758C1417.7 24.1674 1418.22 24.166 1418.74 24.157C1418.74 24.013 1418.73 23.8646 1418.72 23.7129C1418.2 23.7252 1417.68 23.7265 1417.16 23.7278C1417.17 23.8795 1417.18 24.0241 1417.19 24.1758Z"/>
<path class="elementor-shape-fill" d="M1328.38 23.3745C1327.67 24.7969 1330.13 25.2594 1333.94 25.31C1334.55 23.9039 1332.48 23.3232 1328.38 23.3745Z"/>
<path class="elementor-shape-fill" d="M619.649 34.5597C620.569 34.7402 621.75 34.8259 623.559 34.7304C624.426 34.4551 624.395 33.9341 624.249 33.3794C621.235 33.3742 618.876 33.5464 619.649 34.5597Z"/>
<path class="elementor-shape-fill" d="M538.264 27.3839C540.003 29.3409 534.14 30.7056 533.108 32.606C538.533 33.7914 543.396 30.8693 541.496 29.3624C543.956 29.582 543.353 28.9824 544.587 28.8661C546.079 29.7722 543.357 31.0244 545.531 31.9851C540.673 32.8008 540.54 34.4474 541.073 35.8517C548.998 35.9712 544.656 32.7554 549.459 32.6079C548.499 31.7369 550.353 31.0095 547.777 30.3951C551.061 30.1801 551.411 29.1682 551.538 28.1037C548.03 27.6581 542.929 26.0641 538.264 27.3839Z"/>
<path class="elementor-shape-fill" d="M751.114 32.1071C750.594 32.1156 750.073 32.1248 749.552 32.1293C749.568 32.281 749.576 32.4216 749.578 32.5805C750.099 32.5649 750.612 32.5598 751.134 32.5513C751.125 32.3996 751.115 32.2517 751.114 32.1071Z"/>
<path class="elementor-shape-fill" d="M1450.53 21.7118C1449.75 21.7208 1448.97 21.7338 1448.19 21.7468C1448 22.258 1448.43 22.5807 1449.8 22.6145C1450.03 22.3138 1450.88 22.1749 1450.53 21.7118Z"/>
<path class="elementor-shape-fill" d="M801.628 30.5218C799.441 30.1964 799.527 31.5201 800.904 31.4311C800.699 31.0096 801.744 30.9278 801.628 30.5218Z"/>
<path class="elementor-shape-fill" d="M1118.32 26.6764C1115.41 26.0299 1120.64 25.8834 1118.32 26.6764Z"/>
<path class="elementor-shape-fill" d="M774.411 31.1109C774.899 30.5934 771.342 30.6757 772.084 31.1459C772.336 31.3287 774.158 31.3858 774.411 31.1109Z"/>
<path class="elementor-shape-fill" d="M795.379 30.1613C795.393 30.3821 794.762 30.4366 794.636 30.6152C795.623 30.623 795.715 30.8952 796.975 30.812C796.96 30.5919 796.949 30.36 796.942 30.1398C796.421 30.1515 795.894 30.1567 795.379 30.1613Z"/>
<path class="elementor-shape-fill" d="M1417.85 22.1601C1420.75 22.1354 1422.28 21.7372 1423.25 21.1877C1421.56 20.8435 1417.4 21.2443 1417.85 22.1601Z"/>
<path class="elementor-shape-fill" d="M770.455 30.0579C770.464 30.2025 770.472 30.3472 770.482 30.5021C771.004 30.4898 771.517 30.4814 772.037 30.4801C772.035 30.3284 772.026 30.1806 772.01 30.0321C771.496 30.0412 770.976 30.0424 770.455 30.0579Z"/>
<path class="elementor-shape-fill" d="M741.682 30.6622C742.681 30.6668 742.768 30.9338 744.028 30.8547C745.208 30.2912 741.35 30.233 741.682 30.6622Z"/>
<path class="elementor-shape-fill" d="M751.784 30.3009C753.252 30.234 753.514 30.5303 754.915 30.492C755.933 29.4807 751.274 29.326 751.784 30.3009Z"/>
<path class="elementor-shape-fill" d="M1563.26 18.6196C1564.86 18.7177 1564.82 19.2665 1566.38 18.7963C1567.6 18.1636 1562.98 18.226 1563.26 18.6196Z"/>
<path class="elementor-shape-fill" d="M798.417 28.7753C797.897 28.7804 797.376 28.7889 796.861 28.8012C796.877 28.9491 796.873 29.0968 796.888 29.2453C797.402 29.2368 797.924 29.2318 798.45 29.2272C798.442 29.0716 798.433 28.9237 798.417 28.7753Z"/>
<path class="elementor-shape-fill" d="M591.379 30.4685C590.281 31.0128 589.771 30.9129 590.676 31.6026C592.739 31.5754 595.114 31.4539 596.141 31.7442C596.373 30.7641 593.582 30.703 591.379 30.4685Z"/>
<path class="elementor-shape-fill" d="M731.445 28.5693C731.454 28.9415 731.476 29.3145 731.498 29.6866C732.282 29.6775 733.06 29.6606 733.838 29.6554C733.713 29.0903 733.63 28.5076 731.445 28.5693Z"/>
<path class="elementor-shape-fill" d="M659.116 30.2243C659.337 30.0821 661.002 29.3384 659.069 29.3312C659.834 29.7378 656.774 30.1074 659.116 30.2243Z"/>
<path class="elementor-shape-fill" d="M1038.74 23.7245C1038.51 24.2499 1038.9 24.5793 1039.57 24.8326C1040.35 24.8202 1041.13 24.8104 1041.91 24.7942C1041.82 24.1466 1041.55 23.54 1038.74 23.7245Z"/>
<path class="elementor-shape-fill" d="M600.758 30.7848C600.555 30.3704 601.599 30.2886 601.482 29.8827C600.441 29.8996 599.406 29.9131 598.358 29.9268C598.723 30.3535 598.706 30.8881 600.758 30.7848Z"/>
<path class="elementor-shape-fill" d="M508.164 32.0429C508.15 31.826 508.144 31.5941 508.123 31.3739C505.834 31.0842 505.915 32.4112 508.164 32.0429Z"/>
<path class="elementor-shape-fill" d="M1347.61 19.3074C1347.63 19.6042 1347.64 19.9037 1347.66 20.2044C1348.7 20.1876 1349.73 20.1706 1350.77 20.1531C1351.33 19.3788 1350.27 19.0918 1347.61 19.3074Z"/>
<path class="elementor-shape-fill" d="M560.956 29.3194C559.917 30.7749 564.141 30.6133 567.265 30.7971C568.331 30.4224 569.993 30.2099 569.524 29.424C566.543 28.5667 563.639 29.5883 560.956 29.3194Z"/>
<path class="elementor-shape-fill" d="M696.344 27.7035C695.281 27.7236 694.629 27.6191 694.004 27.5107C693.677 28.2083 696.141 28.3225 696.344 27.7035Z"/>
<path class="elementor-shape-fill" d="M729.722 25.6835C729.504 26.2161 727.045 26.1374 727.443 26.8285C729.94 26.5246 728.09 27.5482 730.581 27.2326C731.631 26.9234 731.981 25.6555 729.722 25.6835Z"/>
<path class="elementor-shape-fill" d="M703.341 27.3852C705.607 27.1546 705.721 27.1521 708.001 27.3191C707.956 27.0112 708.34 26.8273 708.751 26.6409C707.757 26.4421 703.927 26.8065 703.341 27.3852Z"/>
<path class="elementor-shape-fill" d="M637.979 28.0504C637.914 27.7386 638.305 27.5515 638.71 27.365C637.641 27.3962 637.002 27.2878 636.356 27.1722C636.179 27.6899 636.601 28.0127 637.979 28.0504Z"/>
<path class="elementor-shape-fill" d="M556.184 27.5957C554.128 28.288 556.724 28.9429 559.376 28.8896C559.53 28.0816 559.483 27.3443 556.184 27.5957Z"/>
<path class="elementor-shape-fill" d="M465.95 29.2636C465.975 29.5643 465.992 29.8606 466.01 30.1535C467.813 30.21 468.987 30.0859 469.88 29.8793C470.204 29.1824 468.19 29.1882 465.95 29.2636Z"/>
<path class="elementor-shape-fill" d="M716.382 23.8473C712.468 23.3985 707.832 24.0253 707.895 25.3087C709.128 25.612 710.629 25.8348 711.065 26.3824C715.741 26.4291 717.927 25.6693 717.984 24.9438C718.043 24.5606 714.157 24.3136 716.382 23.8473Z"/>
<path class="elementor-shape-fill" d="M516.497 28.1302C517.668 28.0783 519.382 28.1738 519.607 27.8659C518.808 27.7048 516.659 26.828 515.694 27.4671C516.598 27.495 516.555 27.8126 516.497 28.1302Z"/>
<path class="elementor-shape-fill" d="M463.577 28.3985C469.014 28.5473 470.877 27.7296 472.044 26.7242C468.304 26.3708 463.021 26.9281 463.577 28.3985Z"/>
<path class="elementor-shape-fill" d="M568.474 24.5118C569.158 25.138 567.415 25.1074 567.757 25.642C568.727 26.8416 576.751 26.8143 574.723 24.8794C572.993 24.6501 571.514 24.3442 568.474 24.5118Z"/>
<path class="elementor-shape-fill" d="M612.116 25.2693C613.652 25.1745 613.668 25.5433 614.482 25.679C616.677 25.3069 612.892 24.6308 612.116 25.2693Z"/>
<path class="elementor-shape-fill" d="M416.045 27.9255C416.062 28.0773 416.063 28.2251 416.073 28.3769C416.851 28.3639 417.628 28.3548 418.412 28.3457C418.404 28.194 418.395 28.0423 418.378 27.8977C417.607 27.9035 416.83 27.9158 416.045 27.9255Z"/>
<path class="elementor-shape-fill" d="M1056.37 19.0041C1055.84 19.0196 1055.35 19.0215 1054.81 19.0261C1054.81 19.0579 1054.81 19.0863 1054.82 19.1174C1054.83 19.238 1054.84 19.3561 1054.84 19.4741C1055.36 19.4689 1055.88 19.4605 1056.4 19.4521C1056.39 19.3068 1056.38 19.1591 1056.37 19.0041Z"/>
<path class="elementor-shape-fill" d="M500.857 26.7768C501.333 26.8981 504.574 27.2482 504.746 26.7268C504.27 26.5991 501.029 26.2516 500.857 26.7768Z"/>
<path class="elementor-shape-fill" d="M472.828 26.935C473.507 27.2611 475.361 27.2208 476.751 27.3299C477.404 26.2861 473.111 25.8867 472.828 26.935Z"/>
<path class="elementor-shape-fill" d="M530.375 25.4803C529.379 25.794 529.39 26.3291 531.2 26.3642C532.197 26.0498 531.64 25.6862 530.375 25.4803Z"/>
<path class="elementor-shape-fill" d="M663.461 24.3507C663.656 23.7525 662.341 23.6291 660.31 23.722C659.57 24.4728 661.431 24.4325 663.461 24.3507Z"/>
<path class="elementor-shape-fill" d="M510.928 25.7427C511.011 26.098 510.863 26.522 512.51 26.3895C512.507 26.2447 512.498 26.0966 512.49 25.9414C511.712 25.9544 511.562 25.7791 510.928 25.7427Z"/>
<path class="elementor-shape-fill" d="M828.311 20.3194C827.837 20.1258 825.695 20.0836 825.161 19.9115C823.889 19.4854 824.899 18.5495 822.009 19.0587C821.158 19.4971 820.112 19.8719 819.75 20.4278C822.757 20.8812 825.803 22.5135 830.71 21.6224C827.562 21.8036 829.178 20.6656 828.311 20.3194Z"/>
<path class="elementor-shape-fill" d="M684.385 22.4931C684.403 22.7932 684.421 23.0862 684.432 23.3895C686.995 23.3466 689.941 23.4057 689.835 22.6418C689.466 22.1463 686.004 22.6087 684.385 22.4931Z"/>
<path class="elementor-shape-fill" d="M467.337 26.1126C468.669 26.1028 469.331 25.9116 469.65 25.6302C468.299 25.6399 467.671 25.835 467.337 26.1126Z"/>
<path class="elementor-shape-fill" d="M507.751 24.6696C507.753 24.8103 507.761 24.9692 507.784 25.1138C508.291 25.1054 508.812 25.104 509.332 25.095C509.316 24.951 509.315 24.7961 509.305 24.6476C508.784 24.656 508.271 24.6573 507.751 24.6696Z"/>
<path class="elementor-shape-fill" d="M819.704 19.5347C819.679 19.2386 819.662 18.9385 819.651 18.6417C818.285 18.6482 817.235 18.73 816.546 18.9066C816.338 19.5003 817.666 19.6237 819.704 19.5347Z"/>
<path class="elementor-shape-fill" d="M466.374 22.7706C464.868 22.262 465.027 22.1484 462.419 21.7067C464.77 21.0897 458.18 20.4292 456.15 21.1144C456.464 22.5713 463.476 24.8919 466.374 22.7706Z"/>
<path class="elementor-shape-fill" d="M331.698 23.257C328.624 23.2758 328.304 24.8261 329.459 25.3016C330.25 25.2892 331.021 25.2764 331.806 25.2634C332.37 24.7353 333.254 23.7006 331.698 23.257Z"/>
<path class="elementor-shape-fill" d="M440.625 21.7761C440.549 21.8618 440.555 21.9261 440.578 21.9859C438.265 21.1616 435.592 20.1816 433.093 21.4937L433.525 22.1605L432.248 22.5842C434.958 23.0037 441.406 23.561 442.405 22.5842C442.031 22.4848 441.635 22.3555 441.23 22.2152C442.245 22.297 444.008 22.021 443.728 21.7391C441.605 21.7437 442.181 22.1262 440.625 21.7761Z"/>
<path class="elementor-shape-fill" d="M484.113 19.8429C486.43 18.9889 486.783 20.479 484.113 19.8429Z"/>
<path class="elementor-shape-fill" d="M371.957 19.1256C370.652 19.1503 369.36 19.1574 368.055 19.1827C363.65 20.8422 371.297 22.5407 374.376 20.6643C373.035 20.3122 373.332 19.4627 371.957 19.1256Z"/>
<path class="elementor-shape-fill" d="M424.119 19.0951C423.793 19.7998 425.139 19.9881 426.513 20.1772C426.217 19.6608 425.664 19.2237 424.119 19.0951Z"/>
<path class="elementor-shape-fill" d="M388.294 18.9056C385.373 18.263 390.609 18.1204 388.294 18.9056Z"/>
<path class="elementor-shape-fill" d="M659.556 10.2981C659.453 10.5605 658.194 10.8247 659.589 10.9709C659.686 10.7046 660.944 10.4442 659.556 10.2981Z"/>
<path class="elementor-shape-fill" d="M1502.04 37.5756C1500.75 36.6032 1498.75 35.8537 1495.68 35.4244C1494.22 36.4961 1489.04 36.5597 1489.61 38.1919C1484.94 38.6154 1481.7 39.4388 1475.66 39.4967C1475.55 41.1256 1483.31 40.3392 1483.59 41.8526C1487.36 41.9175 1492.01 41.7025 1493.75 42.3806L1494.89 42.2591L1494.54 42.602C1495.56 42.8917 1497.93 42.767 1499.99 42.7475C1501.56 40.5756 1504.45 39.0979 1505.9 37.0721C1503.63 36.4369 1504.59 37.6476 1502.04 37.5756Z"/>
<path class="elementor-shape-fill" d="M1425.45 18.9183C1423.94 18.854 1424.79 18.0539 1422.3 18.2936L1422.71 18.6234L1421.55 18.7404C1421.82 19.0035 1424.98 19.4737 1425.45 18.9183Z"/>
<path class="elementor-shape-fill" d="M1413.35 25.1301L1413.75 25.4523L1412.59 25.5841C1413.94 25.9933 1417.43 26.4961 1419.61 25.9388C1419.04 24.7794 1417.11 24.9203 1413.35 25.1301Z"/>
<path class="elementor-shape-fill" d="M1308.26 25.6529L1307.36 26.0077L1305.94 25.9193C1306.17 26.5617 1304.21 26.626 1304.46 27.2723C1306.87 27.3717 1306.57 28.301 1309.18 28.3309C1308.23 27.041 1313.14 26.1427 1308.26 25.6529Z"/>
<path class="elementor-shape-fill" d="M1242.12 26.5552C1242.5 25.5621 1246.24 25.4601 1247.47 24.6937C1246.49 23.7786 1243.61 24.7651 1241.24 24.7781L1240.31 25.0932L1238.92 25.03C1239.53 25.6802 1240.87 26.107 1242.12 26.5552Z"/>
<path class="elementor-shape-fill" d="M1139.52 29.745C1141.09 29.9437 1142.86 30.0827 1143.46 30.5776C1140.91 33.4829 1143.44 34.7696 1145.41 37.4917C1151.64 37.6313 1153.12 39.2312 1160.28 39.0785C1161.57 37.7808 1156.95 38.2776 1157.08 37.3358C1161.74 37.3495 1155.22 34.102 1155.26 32.8809C1147.71 32.2314 1153.21 28.6615 1149.49 27.141C1145.55 27.3671 1143.82 28.2037 1139.41 27.727L1138.64 27.8484L1137.85 27.749C1138.15 28.4862 1140.16 28.7077 1139.52 29.745Z"/>
<path class="elementor-shape-fill" d="M1088.41 34.6884C1091.36 34.7222 1093.7 35.8081 1096.99 35.0176C1097.41 34.2096 1096.03 33.948 1095.35 33.4777C1092.47 33.7343 1093.34 33.9785 1089.92 33.77L1089.54 34.1123L1088.37 34.0123C1088.38 34.2403 1088.4 34.4643 1088.41 34.6884Z"/>
<path class="elementor-shape-fill" d="M1083.66 33.4056C1081.47 33.4783 1078.32 33.2835 1078.25 33.933L1078.65 34.259L1077.48 34.387C1079.13 35.6418 1083.08 34.7976 1086.13 35.6134C1085.77 35.0814 1087.51 35.1054 1086.84 34.4864C1083.34 34.8722 1085.11 33.6498 1083.66 33.4056Z"/>
<path class="elementor-shape-fill" d="M834.631 35.8924L834.629 36.1165L833.872 36.1366C832.999 36.1879 832.668 36.3977 832.331 36.5965C833.8 36.7543 835.207 36.9329 837.03 36.979C837.363 36.2736 836.003 36.0808 834.631 35.8924Z"/>
<path class="elementor-shape-fill" d="M788.22 27.5717C789.482 27.3982 789.554 28.6129 788.266 28.4687L788.669 28.5738L789.059 28.6798C789.155 29.0675 788.928 29.3792 788.341 29.5825C790.786 29.4435 791.401 29.8632 793.021 29.9645C792.982 29.4397 794.339 29.2896 793.738 28.6213C797.482 28.4576 799.482 27.8153 799.061 26.5279C801.551 26.2415 803.209 25.7329 802.856 24.6879L801.69 24.819L801.288 24.4825C796.366 25.362 792.591 26.5441 788.22 27.5717Z"/>
<path class="elementor-shape-fill" d="M781.162 26.5513C777.555 27.1177 776.076 25.0769 770.207 25.5771C769.568 26.9976 773.83 26.4714 771.863 27.3521C772.928 27.8847 774.189 26.9125 774.987 27.525C771.28 28.9175 763.621 26.9651 761.84 29.0558L763.016 29.2935L762.644 29.708C765.378 30.0464 761.88 31.2681 765.862 31.4506L766.238 31.1149L767.404 31.2077C766.492 29.6144 772.905 29.734 775.047 28.6454C777.793 29.0131 779.273 27.9529 782.831 28.5427L782.531 28.1453L783.56 27.8575C785.012 27.0722 779.745 27.0963 781.162 26.5513Z"/>
<path class="elementor-shape-fill" d="M767.411 31.4402L767.049 31.7759L765.875 31.6831C765.493 32.4775 766.598 32.8223 768.282 32.9899C769.573 32.5995 771.404 32.3676 771.319 31.6076C770.412 31.431 769.226 31.3414 767.411 31.4402Z"/>
<path class="elementor-shape-fill" d="M761.057 29.0616C758.522 29.0402 757.329 29.3773 757.215 30.008C758.227 30.3015 761.896 30.3398 761.874 29.7248L760.685 29.4728L761.057 29.0616Z"/>
<path class="elementor-shape-fill" d="M788.114 25.5608C790.492 25.3569 789.637 26.1525 792.015 25.9596C791.184 25.4764 796.181 23.9111 791.123 23.7266L790.748 24.0656L789.576 23.9767C789.743 24.6762 787.558 24.7489 788.114 25.5608Z"/>
<path class="elementor-shape-fill" d="M740.676 26.6579L739.253 26.7826L738.323 26.4611C735.892 26.3903 734.575 26.7943 736.031 27.1652L737.203 27.2581L736.841 27.601C738.754 27.601 740.593 27.5893 741.486 27.3139C741.51 27.0067 741.097 26.8287 740.676 26.6579Z"/>
<path class="elementor-shape-fill" d="M699.878 21.1591L699.1 21.1792C698.908 21.6897 699.337 22.0171 700.716 22.0503C702.386 21.5599 702.262 21.1864 699.865 20.9422L699.878 21.1591Z"/>
<path class="elementor-shape-fill" d="M623.521 20.4122L622.733 20.1213L622.71 19.7523C622.66 19.6178 622.576 19.4872 621.92 19.5372L621.551 19.8764L620.392 20.0004C619.841 20.5077 623.303 20.8864 623.521 20.4122Z"/>
<path class="elementor-shape-fill" d="M605.954 26.4675C601.474 27.5081 608.735 28.8161 604.586 29.8456C606.978 29.6488 606.122 30.4379 608.507 30.234C611.067 29.6806 608.833 27.8269 612.249 27.5041C611.754 27.1229 608.549 27.5704 608.327 27.1125C608.318 26.9605 608.316 26.8092 608.307 26.6566L606.883 26.7923L605.954 26.4675Z"/>
<path class="elementor-shape-fill" d="M598.184 26.7948L597.012 26.7019L597.38 26.3668C593.918 26.3778 594.666 27.5392 592.802 27.9841L593.99 28.236L593.626 28.655C595.612 28.6485 596.365 29.0258 597.547 29.2668C599.735 29.118 600.823 28.679 602.964 28.5224C603.624 27.2617 600.288 27.2163 598.184 26.7948Z"/>
<path class="elementor-shape-fill" d="M586.632 28.9687C583.148 28.8356 582.326 29.426 582.026 30.1528C583.804 30.5997 587.168 30.2398 587.443 29.6254L586.268 29.3845L586.632 28.9687Z"/>
<path class="elementor-shape-fill" d="M1552.32 31.7441C1553.23 30.5945 1555.02 29.6825 1556.83 28.7777C1554.92 27.682 1558.26 24.9956 1551.19 25.4932C1550.97 26.0147 1551.36 26.348 1552.03 26.6019C1548.98 26.661 1548.48 27.4072 1546.65 27.7982L1546.66 28.0184L1545.88 28.0203C1548.59 29.092 1548.04 31.153 1552.32 31.7441Z"/>
<path class="elementor-shape-fill" d="M642.982 20.1492C646.648 18.767 650.76 20.6642 651.63 21.5917C652.922 21.5807 654.22 21.5639 655.525 21.5424C656.711 22.3153 658.973 23.7144 661.846 23.248C659.711 21.6697 662.672 21.0598 665.562 20.2837C664.961 20.2447 664.66 20.1141 664.763 19.8517C665.027 19.8478 665.277 19.8466 665.541 19.8427L665.132 19.5159L665.502 19.1697C663.603 18.678 664.272 18.469 664.637 17.6168C663.697 17.3713 661.873 17.4004 659.957 17.4589C658.885 17.6128 659.897 18.3143 658.456 18.3708C658.181 17.6161 657.969 16.851 656.779 16.382C651.985 16.6743 647.533 16.5763 642.003 16.8062C645.992 17.9071 642.482 19.5003 642.982 20.1492Z"/>
<path class="elementor-shape-fill" d="M1477.13 37.9132C1476.73 38.4581 1472.11 37.871 1472.51 38.6485C1473.94 39.2031 1478.59 38.0814 1477.13 37.9132Z"/>
<path class="elementor-shape-fill" d="M871.944 34.7123C875.127 34.496 872.015 31.9811 874.069 30.8802C872.371 30.9478 871.573 30.7327 871.69 30.2456C875.683 29.854 875.071 30.8803 878.715 30.5932C878.638 28.7168 870.62 27.6638 869.33 29.8248C866.831 29.1058 861.895 30.4775 859.201 29.7377C859.331 30.9575 854.389 30.7886 855.459 32.25C857.566 32.552 860.528 32.0948 862.485 32.8288C861.347 33.108 860.632 33.4977 858.643 33.5549C858.679 34.155 858.708 34.748 858.743 35.341C859.35 35.3845 860.278 35.33 860.306 35.5437C862.583 35.5697 862.969 35.0857 864.16 34.8214C865.648 35.8788 869.162 36.3238 873.592 36.4829C875.058 35.673 873.279 35.2624 871.944 34.7123Z"/>
<path class="elementor-shape-fill" d="M658.471 32.469C660.093 32.0929 661.243 31.6045 660.698 30.651C657.239 30.373 658.706 31.4343 656.072 31.3863C654.471 30.273 657.14 30.7556 657.534 29.791C654.433 29.5104 652.158 29.828 647.424 29.9364C647.431 30.1534 647.444 30.3847 647.457 30.6088L648.631 30.6978L648.269 31.0407C648.276 31.0407 648.276 31.0407 648.289 31.0407L647.773 31.548C648.049 31.3811 648.298 31.2141 648.445 31.0498C653.701 31.3154 654.248 34.6143 651.613 35.2496C653.402 35.5341 654.506 34.6286 654.73 35.2093C653.058 36.6142 652.439 38.4788 659.57 38.2788C658.198 37.1895 662.422 36.5551 659.424 35.5886C662.964 35.6574 660.627 34.283 661.683 34.2122C663.663 34.6682 665.084 35.2988 668.742 35.2469C668.837 33.6939 665.957 33.0614 665.431 31.7033C662.213 31.4668 660.393 32.6314 658.471 32.469Z"/>
<path class="elementor-shape-fill" d="M665.09 25.67C662.383 25.52 662.118 26.0369 659.66 25.9622C659.462 25.5414 660.5 25.4589 660.384 25.0562C656.502 24.8892 655.101 25.3972 654.209 26.0369C655.582 26.2227 656.941 26.4156 656.616 27.1197L657.775 27.2197L658.191 27.5432C659.822 26.604 660.016 27.7809 662.87 27.7081C663.246 26.9287 664.889 26.4884 665.09 25.67Z"/>
<path class="elementor-shape-fill" d="M1541.38 37.821C1539.76 37.369 1537.71 37.0669 1535.8 36.7272L1541.38 37.821Z"/>
<path class="elementor-shape-fill" d="M877.984 38.3309L875.977 37.2344C876.05 37.6871 876.415 38.1393 877.984 38.3309Z"/>
<path class="elementor-shape-fill" d="M535.741 44.7713L534.001 44.4154C534.462 44.5795 534.896 44.7577 535.741 44.7713Z"/>
<path class="elementor-shape-fill" d="M534.001 44.4154C533.613 44.2805 533.239 44.1536 532.598 44.1354L534.001 44.4154Z"/>
<path class="elementor-shape-fill" d="M1413.61 29.8236L1416.9 30.6354C1416.05 30.2924 1414.69 30.1035 1413.61 29.8236Z"/>
<path class="elementor-shape-fill" d="M774.438 33.9161L769.553 34.7318C771.149 34.4388 773.936 34.6007 774.438 33.9161Z"/>
<path class="elementor-shape-fill" d="M789.628 31.9169C790.323 31.6935 790.941 31.3973 791.148 31.2258L789.628 31.9169Z"/>
<path class="elementor-shape-fill" d="M1419.57 18.2188L1422.71 18.622C1421.57 18.364 1420.88 18.342 1419.57 18.2188Z"/>
<path class="elementor-shape-fill" d="M1239.5 24.017C1239.35 24.4847 1239.87 24.7009 1240.31 25.0932L1239.5 24.017Z"/>
<path class="elementor-shape-fill" d="M1136.64 26.9832L1138.64 27.8484C1138.37 27.6432 1138 27.3709 1136.64 26.9832Z"/>
<path class="elementor-shape-fill" d="M1125.83 33.1743L1127.92 31.5136C1126.92 32.0228 1125.46 32.4183 1125.83 33.1743Z"/>
<path class="elementor-shape-fill" d="M1089.09 32.9944C1089.08 33.3698 1089.08 33.7421 1089.54 34.1123L1089.09 32.9944Z"/>
<path class="elementor-shape-fill" d="M801.69 24.819L804.768 24.0591C803.552 24.2695 801.929 24.3014 801.69 24.819Z"/>
<path class="elementor-shape-fill" d="M788.669 28.5738C786.8 28.2425 784.939 28.1051 782.531 28.1453L788.669 28.5738Z"/>
<path class="elementor-shape-fill" d="M790.748 24.0656L790.695 23.1764C790.314 23.479 790.467 23.7727 790.748 24.0656Z"/>
<path class="elementor-shape-fill" d="M681.435 18.6175L679.119 18.984C679.737 18.9199 680.348 18.8327 681.435 18.6175Z"/>
<path class="elementor-shape-fill" d="M597.874 26.3793L600.062 25.5433C599.248 25.6283 598.775 25.6628 598.346 25.7264C598.246 25.9421 598.177 26.1805 597.874 26.3793Z"/>
<path class="elementor-shape-fill" d="M593.99 28.236C591.747 28.3841 589.945 28.7966 588.008 29.1214L593.99 28.236Z"/>
<path class="elementor-shape-fill" d="M523.78 25.831L525.647 26.2499C525.198 26.1001 524.729 25.9393 523.78 25.831Z"/>
<path class="elementor-shape-fill" d="M621.551 19.8764L621.493 18.8891C621.443 19.1814 621.033 19.5673 621.551 19.8764Z"/>
<path class="elementor-shape-fill" d="M648.276 33.8707C648.388 33.7531 648.446 33.62 648.254 33.5096C647.129 33.381 646.546 33.2121 646.315 33.0179L642.738 36.6019C645.223 35.7803 644.952 34.4831 648.276 33.8707Z"/>
<path class="elementor-shape-fill" d="M646.315 33.0179L647.773 31.548C646.939 32.0702 645.841 32.6002 646.315 33.0179Z"/>
<path class="elementor-shape-fill" d="M657.775 27.2197L655.451 27.6126C656.385 27.5873 657.278 27.5569 657.775 27.2197Z"/>
<path class="elementor-shape-fill" d="M652.775 28.0665L655.451 27.6126C654.708 27.6327 653.944 27.6392 653.344 27.7909C653.199 27.8979 652.987 27.9822 652.775 28.0665Z"/>
</svg>
