<svg viewBox="0 0 1600 46" xmlns="http://www.w3.org/2000/svg">
	<path class="elementor-shape-fill" fill-rule="evenodd" clip-rule="evenodd" d="M0.00195312 14.5039H43.4062C43.37 14.642 43.2558 14.7458 43.3438 14.9404C48.1284 15.6509 48.7903 14.7325 55.1836 14.9404C56.0823 15.8846 58.238 16.2947 58.5625 17.4863C54.0684 17.6422 48.7703 17.1501 44.1816 16.3975C44.8915 17.7977 44.8301 18.5009 42.4922 19.3037L43.7695 19.7363L43.3438 20.4033C45.0736 21.1165 48.9523 20.8961 50.1152 21.8564C50.2501 21.3148 49.8045 20.5158 50.9531 20.4033H53.4873C52.5413 21.5458 53.4127 21.2298 53.4873 22.584C57.8739 22.8185 60.2663 21.7844 63.6387 22.584L64.0645 23.1318C63.8479 22.772 63.8004 22.4017 63.2061 22.042L64.4834 22.2207C66.7066 20.7378 77.5121 21.3159 76.3164 18.585C80.4727 19.5755 87.4208 20.5167 90.6914 18.9443C92.2929 19.0995 92.8137 19.7297 94.915 19.6738C95.1791 19.1817 96.1187 18.9769 95.7607 18.2178L95.3418 17.8545C96.1931 17.6628 97.5313 17.0779 97.8691 16.5791L98.2871 17.1279C100.248 17.2331 99.2337 16.0741 100.829 16.0312C102.424 17.2171 104.695 15.9914 107.601 16.7607L107.175 16.2129L108.452 16.0312C108.452 15.6714 107.763 15.5989 107.601 15.3047C108.262 15.2229 108.587 15.0012 108.452 14.5752C109.771 14.5453 111.371 14.6274 110.98 13.8516L109.203 13.8154C109.621 13.3893 110.081 13.0848 110.135 12.5762L110.98 12.7549C115.968 11.5133 126.071 14.5643 131.261 11.665C139.628 12.121 141.837 11.4208 148.183 10.5752C147.203 12.3255 152.117 11.5536 152.414 12.7549C150.893 13.5642 149.076 14.2389 149.866 16.0322C147.589 17.1156 140.972 16.3292 138.032 17.1279L139.3 17.5469L139.303 17.5479L138.884 18.2188C150.23 18.1428 157.11 17.875 160.868 20.7646C159.124 20.8679 160.07 22.1255 158.327 22.2217C156.718 20.0952 146.013 21.1854 145.648 22.9521C148.851 23.1503 150.927 23.8335 154.941 23.6816C156.198 24.111 156.26 25.0551 157.482 25.498L157.908 24.9492L159.165 25.1348V24.0381H164.247C164.179 24.6752 164.436 25.1778 165.085 25.498H170.16L169.734 24.9492C170.579 25.0947 171.438 25.204 172.275 25.3164L171.856 25.8643C173.953 26.6298 180.845 26.3556 182 25.4971C181.642 26.3759 183.534 26.2873 182.845 27.3174C185.253 27.2323 187.384 27.2677 188.918 27.5645L187.497 27.6748C188.096 27.6657 188.755 27.6887 189.369 27.6699C189.781 27.7744 190.168 27.8884 190.455 28.0469L190.875 27.502H190.881L192.145 27.6875C192.145 26.1515 195.686 26.1547 193.835 24.7715C192.335 23.6355 190.523 24.8863 188.759 24.0381C191.942 23.1658 192.077 23.496 193.835 22.2217C193.984 22.6503 195.173 22.6181 196.376 22.585C196.565 23.2719 195.417 23.3907 195.524 24.0381C204.627 27.905 214.528 20.2775 220.043 22.9521C222.436 23.2528 222.233 22.4395 224.274 22.585C226.537 24.2853 232.816 24.2497 236.114 25.498C239.155 24.7486 245.778 25.5378 246.258 23.6816L244.98 23.4971C246.197 23.236 246.71 23.0833 247.528 22.4033L247.095 22.9521C251.813 23.7848 259.017 22.717 263.16 23.6816V24.0391L264.708 23.8604L263.579 24.9502L263.16 24.4121C260.845 24.3011 260.667 25.1101 260.564 25.9512C260.453 25.8986 260.372 25.8452 260.188 25.7939C259.68 26.2433 258.148 26.4176 256.339 26.5195C256.485 26.6247 256.441 26.7866 256.379 26.9541C253.05 25.676 247.698 26.0596 247.152 28.7139C246.11 28.9308 244.905 29.1036 243.256 29.1562C243.272 29.5284 243.297 29.9092 243.314 30.2773C244.436 30.2215 245.401 30.1228 246.394 30.0312C245.461 30.3249 245.08 30.8515 242.864 30.5977C242.127 31.7668 245.06 31.3506 245.398 32.0508C244.756 34.4708 250.309 35.7606 255.463 35.708C255.427 35.7899 255.319 35.8381 255.305 35.9297C257.38 35.9031 259.457 35.8753 261.533 35.8447C261.488 35.3197 262.838 35.1693 262.237 34.4941C262.178 34.4921 262.136 34.4941 262.078 34.4922C262.469 34.2954 262.909 34.1175 263.158 33.8701C263.692 34.6499 268.361 34.2136 269.078 33.8701C267.368 31.9514 266.361 30.7854 267.382 28.4141C269.821 29.3849 275.402 27.1629 276.688 27.6875C276.119 29.5867 274.904 29.0553 274.999 30.9609C277.08 31.6741 282.385 31.4457 282.601 30.2305L281.338 29.8047C283.088 29.7059 284.318 29.2107 285.717 28.8203L287.251 28.4707L286.826 29.1406C290.096 30.4318 295.003 29.2398 298.666 29.8672C300.68 28.9527 296.544 28.645 296.983 27.3174C297.828 27.3206 297.99 27.0278 298.666 26.9551H299.517L299.936 26.4092L299.944 26.4102V27.1348C300.267 26.9662 300.065 26.6867 299.944 26.4102L301.206 26.5889V25.8652L300.78 25.3164C301.638 25.4587 302.478 25.5619 303.314 25.6768L302.896 26.2285C302.955 26.8624 302.699 27.3612 302.05 27.6885C304.876 27.0709 304.936 27.9127 307.971 28.0479C310.545 27.4569 311.614 26.2219 314.729 25.8652C313.303 21.3541 320.879 21.9816 329.104 21.1328C328.557 20.2475 327.387 19.2557 330.794 19.3057C330.131 20.5708 331.739 20.8451 332.496 21.4951C334.983 21.2347 337.72 21.0821 339.255 20.4053C340.262 21.1054 342.141 22.3902 344.323 21.4951L343.891 21.1328C345.337 21.1062 346.573 21.1785 348.135 20.9473L347.702 21.4951C351.595 21.9446 355.744 21.3399 357.853 20.0391C360.739 20.61 361.786 20.8846 365.463 20.4053L365.03 19.7383L366.301 19.3057C366.983 17.367 365.111 16.4924 362.928 14.9434L361.651 15.125C362.425 14.5873 362.552 14.0573 361.91 13.5234L362.253 13.3926L362.928 13.4912L362.93 13.4893C363.371 13.6108 363.848 13.7074 364.239 13.7529L362.945 13.457C362.952 13.4241 362.982 13.4024 362.99 13.3701L363.838 13.4229C363.957 13.0884 365.703 13.1946 366.928 13.1543L366.522 12.7529L366.909 12.6592C367.531 12.7339 368.168 12.8022 368.845 12.8535L368.857 12.8652L367.713 13.1455C368.579 13.5118 370.245 13.6348 371.374 13.9219C371.547 14.1607 371.936 14.3001 372.385 14.3994C372.395 14.4118 372.437 14.4149 372.445 14.4277C372.478 14.4258 372.494 14.4278 372.525 14.4258C373.399 14.5868 374.532 14.5496 375.405 14.3242C377.448 14.293 378.891 14.3127 380.992 13.8574C381.098 13.4651 380.989 13.1387 380.662 12.8789C382.871 12.9822 384.664 13.2646 384.899 14.2148C385.317 15.3665 380.709 14.3497 381.526 15.6738C384.291 15.0265 389.367 16.9222 393.36 15.6738L392.942 15.126L394.199 14.9443C395.253 12.9165 394.009 13.6556 392.509 12.3975C394.341 12.4371 396.286 12.3832 398.264 12.3027C397.872 12.9591 397.623 13.4435 395.018 14.1182C395.336 14.5487 395.397 14.9581 395.358 15.3594L392.942 15.126C393.719 15.2369 394.505 15.3189 395.352 15.3896C395.105 17.4797 390.704 19.266 388.441 21.5898C387.321 21.5262 387.11 21.3438 386.101 21.6211C387.968 22.3972 386.263 23.5596 385.483 24.5371C388.268 25.4469 394.101 25.2323 397.194 25.0576C396.455 24.4892 395.861 23.8036 397.886 23.4756L397.48 23.2578C398.253 23.2266 399.037 23.2071 399.817 23.1182L399.435 23.457C400.487 23.5122 400.939 23.7552 402.559 23.6436C404.231 23.1493 402.139 23.0035 402.485 22.2988L401.062 22.4277C402.176 21.9966 401.067 21.6613 400.693 21.2744L400.6 20.9834L402.741 19.9492L402.373 20.2891C401.664 20.7144 406.831 20.3574 403.955 20.7041L404.353 20.9326L403.974 21.1523C403.826 21.8155 405.779 21.8235 405.617 22.4795C402.307 22.3984 404.901 23.5369 404.899 23.6055C404.737 24.5148 401.117 24.387 404.208 25.1846C406.338 25.169 405.742 24.7905 407.32 25.1406C410.025 24.4306 406.432 22.1634 411.799 21.7217C412.351 20.8756 410.797 20.666 410.928 19.9453C412.846 19.9524 414.706 19.9373 414.783 19.4473C414.222 19.0148 410.454 19.5529 410.09 19.0615C409.853 18.4082 411.815 18.3504 411.572 17.6973C409.068 16.7185 405.362 16.1081 403.629 14.8994C407.252 14.8721 403.728 14.504 406.699 13.9629C408.009 13.8525 408.36 14.0375 408.791 14.1973C409.117 14.3181 409.538 14.4106 410.447 14.3535L410.273 14.5781C412.375 15.1327 415.409 15.2849 418.721 15.3076L419.577 15.4932C419.717 16.0278 420.783 16.7156 422.111 16.7617L419.591 15.4961L420.41 15.6748V15.3076C420.648 15.2051 420.899 15.1941 421.143 15.1377C425.395 15.493 430.9 15.5444 431 16.9824C432.381 17.0961 435.558 16.6478 435.686 17.1475C433.219 17.1443 434.224 18.0738 432.635 18.3018C433.968 18.2771 434.632 18.4513 434.995 18.7227C430.553 18.1083 433.569 20.0514 435.075 20.2891C437.759 19.8605 438.023 20.0512 440.498 19.7686C440.461 19.2412 440.437 18.7201 440.412 18.1992L440.01 17.8691C440.963 18.0568 441.893 18.1543 442.353 18.1738L441.981 18.4043C444.842 18.3987 442.936 19.8521 444.948 20.1035C444.74 20.5172 444.958 20.8929 446.403 20.7773C446.112 20.9553 445.931 21.1623 446.051 21.4785C447.403 21.4466 448.47 21.4985 449.174 21.666C448.566 20.8428 451.869 21.0677 453.009 20.7158C453.165 19.9807 452.021 19.6461 449.846 19.6357C448.629 20.1209 447.415 20.3357 446.682 20.6475C446.705 20.3623 446.869 20.1097 447.011 19.8525C447.473 19.7999 447.976 19.7586 448.277 19.6611C447.982 19.3878 447.883 19.1533 447.775 18.917C448.657 18.1604 449.936 17.4854 451.431 16.8398C452.444 17.4516 452.477 17.725 452.869 18.2568C453.917 18.2432 454.946 18.2269 455.987 18.21C455.548 17.4235 453.057 17.26 451.54 16.793C452.209 16.5053 452.879 16.2148 453.573 15.9219C454.167 16.068 454.763 16.2127 454.345 16.666C456.588 16.688 458.289 16.5583 458.984 16.1543C457.105 16.4005 456.359 15.1816 457.382 15.2842C457.556 15.5532 458.251 15.409 458.937 15.2617L458.522 14.9355C459.195 15.2394 459.875 15.3198 460.506 15.4678L459.729 15.4766C459.979 15.928 461.32 16.0518 462.115 16.3428C467.092 16.0739 467.92 15.7216 472.995 15.9639C473.02 15.9555 473.027 15.9431 473.051 15.9346C473.275 15.9619 473.435 16.016 473.679 16.0342C474.292 15.8595 474.215 15.5503 474.052 15.2158C474.176 14.9735 474.095 14.7387 473.79 14.5225C473.793 14.2094 474.12 13.9487 475.375 13.8545C477.077 13.7726 478.756 13.8887 480.372 14.0771C481.019 14.2408 481.675 14.436 482.267 14.7178L482.26 14.4971L482.69 15.2793L482.281 14.9424C479.498 15.0769 478.158 15.5971 474.517 15.501C475.328 16.8038 480.468 16.5407 479.331 17.8975C485.788 17.3643 485.337 20.141 491.081 19.0791C489.657 18.3763 487.488 17.9037 486.288 17.1309C486.404 16.8613 487.52 16.8701 488.621 16.8721C488.598 16.3482 487.243 16.2382 487.764 15.5508L486.347 15.6719C486.633 15.4725 486.949 15.2697 487.147 15.0645C488.408 15.2183 489.524 15.2565 490.489 15.1279C490.815 15.5871 491.823 16.1832 490.171 16.8574C492.038 16.9139 491.863 16.4376 493.976 16.5752C493.98 16.9993 493.96 17.436 493.974 17.8574C495.199 17.9736 495.922 17.8732 496.426 17.6777C496.74 18.3044 497.43 18.9211 498.108 19.4277C496.758 19.5356 496.096 19.131 495.775 19.4668L496.181 19.8682L495.03 20.1445C495.371 20.7264 497.383 20.7856 497.444 21.4551C495.491 21.4435 495.025 21.8284 494.366 22.168C496.535 22.6194 497.616 21.9959 499.823 22.3213L499.421 21.9873C500.214 22.1737 501.5 22.5455 502.576 22.5L502.176 22.7344C503.941 23.1813 505.923 22.4516 509.189 22.6406C510.537 22.757 509.191 23.6991 510.818 23.7432C512.899 23.5645 512.942 22.843 515.424 22.7734C516.574 22.9566 517.909 23.0801 517.803 23.6426C517.019 24.3056 515.658 24.8285 516.381 25.8955C518.716 26.0163 520.54 26.29 521.879 26.7168C522.179 26.4342 522.847 26.2509 524.186 26.2373L523.778 25.834L523.785 25.832L525.647 26.25C525.199 26.1005 524.731 25.9393 523.786 25.8311L524.929 25.5586C523.867 23.8844 527.796 23.5462 531.017 23.0156C529.412 23.5792 529.914 23.505 530.314 24.3662C534.863 24.1434 536.244 24.044 538.894 24.6953C540.66 24.1693 538.584 23.8285 538.807 23.1299C539.377 22.9792 540.191 22.9153 541.084 22.8789L540.896 23.1357C541.197 23.0662 541.356 22.963 541.524 22.8623C545.664 22.7605 551.939 23.3984 553.55 22.2568C554.461 22.7153 553.123 23.141 555.185 23.584C558.738 23.6606 560.005 23.122 563.733 23.2402C564.355 22.3655 561.775 22.4701 561.312 21.9336L559.89 22.0684C560.249 21.5989 560.021 21.3327 559.714 20.9463L560.496 21.0488C563.787 20.6169 565.912 19.8602 568.956 19.3672L568.943 19.1426C569.813 19.2314 571.136 19.2479 572.436 18.9805L572.073 19.3232C572.587 19.3148 573.107 19.3093 573.622 19.3047C572.012 20.197 576.949 21.2071 579.179 21.0195C578.42 21.0792 578.494 20.6819 579.943 20.7852C580.142 22.2296 573.597 21.8627 573.065 23.1143C574.748 23.5817 577.91 23.6032 579.359 24.1475C579.356 24.2233 579.368 24.2991 579.365 24.3711C577.674 24.4276 577.725 24.9603 577.871 25.5078C579.332 25.4377 579.594 25.7407 581.001 25.6953C581.638 25.4245 581.993 25.0739 581.705 24.5615C583.836 24.694 583.26 24.0911 584.802 24.0762L585.198 24.1777C585.017 24.0856 584.831 23.9925 584.4 23.9658L584.782 23.8555C584.94 23.1203 581.911 23.3598 580.84 23.0117C580.94 22.5903 583.466 22.8281 583.937 22.5234L583.524 22.1133L584.669 21.8301C584.585 21.4852 582.679 21.6873 583.08 21.1865C583.67 21.5327 586.873 21.0893 586.229 21.8115C585.96 21.8232 585.71 21.8203 585.453 21.8242L585.859 22.2334L584.708 22.5098C585.572 23.9175 592.104 22.5068 594.824 22.3789L593.659 22.2715C594.619 22.2611 596.182 22.2139 596.759 22.123L596.373 22.3496C596.722 22.8847 594.986 22.8575 595.67 23.4756C598.765 23.6958 597.629 24.37 598.887 25.4463L600.044 25.5439C599.241 25.6276 598.772 25.6634 598.346 25.7266C598.246 25.9422 598.177 26.1802 597.874 26.3789L600.055 25.5449L600.059 25.5459L599.697 25.8818C601.831 25.7617 600.476 26.7068 602.077 26.7471C602.607 26.2257 604.378 26.0429 605.918 25.8008L606.693 25.6797C606.814 25.905 607.194 26.0724 607.5 26.2236L605.952 26.2451L607.505 26.2812L608.302 26.6562L606.883 26.792L605.954 26.4678C601.474 27.5084 608.735 28.8162 604.586 29.8457C606.978 29.6489 606.122 30.4382 608.507 30.2344C611.067 29.681 608.833 27.8267 612.249 27.5039C611.754 27.1228 608.549 27.5702 608.327 27.1123C608.318 26.9606 608.316 26.8096 608.307 26.6572C609.199 26.6097 609.127 26.2992 609.035 25.9805C608.859 25.8129 608.374 25.7277 607.481 25.7822C609.859 25.1294 604.643 23.5452 610.465 23.5029L610.059 23.2812L610.431 23.0508C612.023 22.0603 617.346 23.7186 617.383 21.8438C615.498 20.9585 610.782 20.4138 614.119 19.2012C612.843 19.3818 610.698 18.8004 612.523 18.7783C615.386 18.8829 617.88 19.1055 619.521 18.4521C619.489 18.8347 620.148 19.0165 621.11 19.1035L621.479 18.7646L621.888 19.0947C623.282 19.0453 623.727 19.2886 623.484 19.7412L624.664 19.8379L624.289 20.1729C624.889 20.2196 625.822 20.1654 625.85 20.3818L627.018 20.251L626.649 20.5977C627.683 20.5847 628.726 20.5673 629.773 20.5498L630.547 20.6562L631.335 20.7559C631.495 20.5766 631.972 20.4847 632.871 20.5127C632.879 20.6575 632.888 20.8099 632.904 20.958C632.43 20.9781 631.984 20.998 632.132 21.1914C631.659 21.1856 631.215 21.1659 631.342 20.9795L630.568 21.1006L629.793 20.998C628.421 21.0331 627.36 20.9781 626.663 20.8184L625.885 20.8232L625.865 20.6064C624.19 21.2163 620.683 20.5073 619.65 20.9111C619.395 21.754 619.402 22.3795 619.026 23.6074C623.631 23.7575 626.9 25.3817 631.549 24.7803C628.437 25.5292 631.487 27.212 635.537 26.2969C635.907 25.4915 634.815 25.1465 633.124 24.9756L632.337 24.8799C632.247 24.7344 632.15 24.5882 631.932 24.4375L633.098 24.5303C635.929 24.1432 631.276 24.2235 632.266 23.6494C633.74 23.6805 633.972 23.3767 635.378 23.3857C638.155 24.0567 642.945 24.1037 644.803 25.0498L645.693 24.6992L647.123 24.791C647.9 23.055 643.411 23.271 645.401 21.6816C640.645 21.6199 638.16 20.8618 636.733 19.791C636.93 19.3273 638.808 19.3158 639.007 18.8555C636.916 18.6652 634.582 18.5475 635.038 17.5732C635.802 17.1162 638.463 17.1723 638.094 16.4092C636.423 16.0357 635.765 15.9418 633.416 16.2549C635.455 15.6489 631.61 16.0422 632.571 15.1387C635.925 15.3289 635.577 15.2312 638.002 14.8467C640.009 14.8408 639.178 15.705 641.165 15.6992C642.268 15.0212 644.213 15.9507 646.617 15.624C646.712 15.3578 646.453 14.9899 647.353 14.9463C653.98 15.2568 653.557 13.6722 656.585 13.0234C656.732 13.2884 656.484 13.6618 657.409 13.6865C659.142 13.1787 656.73 12.9343 657.315 12.1172C654.72 12.1308 652.255 12.0453 654.138 11.0479C653 10.9408 650.135 11.3521 650.244 10.873C650.438 10.0588 650.032 9.41729 649.359 8.875C652.034 8.93407 653.702 8.72227 655.56 8.5625C656.447 9.84786 662.142 8.81796 663.33 8.23535C662.164 9.19393 667.639 8.1209 666.494 9.08398C663.647 8.91381 667.473 10.8298 662.719 11.1514C663.117 12.312 667.32 12.3242 670.583 12.6074C670.11 13.9026 665.642 13.0137 664.414 13.8164C666.601 14.5926 670.575 14.8118 672.311 15.7275C669.932 15.9678 668.535 16.331 670.052 17.0928C665.141 17.2286 667.273 18.905 669.402 19.3447C671.874 19.4201 672.125 18.9053 674.839 19.0449C674.846 18.3878 675.567 17.7558 676.267 16.7852C673.733 16.543 675.716 17.5228 673.183 17.2773C673.204 16.6193 673.392 16.0145 676.241 16.1191C677.389 17.0497 681.667 17.0342 684.111 17.5713C683.393 18.0434 680.095 17.8252 680.269 18.5205L681.435 18.6172L681.06 18.9531C682.552 19.0311 682.508 19.5805 684.982 19.3525C686.042 19.2017 685.049 18.4891 686.491 18.4404C687.993 19.0567 692.814 19.022 693.537 19.2363C692.546 19.8215 695.434 20.8333 698.31 20.9639L697.908 20.6309L699.074 20.7305C699.49 20.4032 700.254 20.1624 701.373 20.0273C701.499 21.485 705.811 21.4511 707.675 21.2842C705.331 21.659 708.376 22.2537 707.762 22.8467C711.14 23.1019 712.702 22.8812 716.309 22.7344C716.643 21.8056 713.94 23.0645 714.715 21.8633C714.979 21.8555 715.222 21.8538 715.493 21.8428L715.077 21.5195C716.858 21.8221 718.124 21.3373 719.736 21.2295L719.368 21.5693C721.194 21.5538 721.638 21.1541 724.02 21.2891C724.567 21.9528 726.561 22.1783 727.217 22.8076C725.926 22.8291 724.628 22.8461 723.336 22.8604C722.89 23.7301 722.739 23.7906 724.201 24.4141C726.583 24.5426 727.007 24.1465 728.845 24.1348C728.634 24.649 729.024 24.9899 729.691 25.2354C732.804 25.336 732.786 24.5992 735.899 24.7031C735.446 25.598 736.95 25.897 738.312 26.2412L739.478 26.1055L740.652 26.2061C743.112 25.5331 740.804 24.3243 739.728 23.5352C742.98 23.0449 738.864 21.9431 741.156 21.2754C740.921 23.8525 751.652 23.0646 756.098 24.207L757.285 24.0762C756.713 24.1924 756.332 24.2857 755.958 24.3643C755.986 24.776 755.589 25.1475 754.909 25.5156C755.546 25.6962 756.476 25.7472 757.212 25.7881C757.742 25.7109 758.399 25.223 758.888 24.9541L759.296 25.2803C762.042 25.659 761.837 25.0777 763.921 24.7725C762.461 23.6756 762.287 23.4242 764.587 22.5215C764.872 21.9787 763.134 22.0534 763.742 21.417C758.713 21.5904 757.638 20.545 756.629 19.5C753.17 19.8761 751.354 19.5837 749.59 18.9238L748.411 18.8281C748.999 18.5891 749.78 18.2869 749.141 17.9219L750.312 18.0186C750.307 17.7939 750.287 17.5737 750.281 17.3457C747.051 17.5003 748.981 16.077 746.305 16.0576C744.417 16.383 747.745 16.7135 745.58 16.9668C743.768 15.2696 743.203 12.5666 734.421 12.416C735.562 11.9886 737.641 11.8161 738.248 11.2451C737.221 11.2549 737.517 10.861 736.66 10.8154L735.513 10.9473C735.799 10.7154 736.014 10.4904 736.252 10.2617L737.796 9.94629L737.425 10.3613C739.238 10.3353 741.049 10.3088 742.868 10.2861C743.835 11.1655 747.397 11.5538 750.128 11.3115C751.283 11.2985 752.478 11.2696 753.54 11.2988C753.546 11.0729 753.373 10.9227 753.278 10.7402C753.848 11.0994 754.776 11.3461 755.404 11.6787C754.525 12.1093 753.412 12.4723 752.36 12.8438L752.762 13.1738L751.596 13.0771C751.747 13.6318 750.405 13.783 750.107 14.2207C751.495 14.3955 752.533 14.682 753.258 15.0664C751.501 15.2561 750.979 15.7703 750.227 16.2314C751.774 16.8854 755.609 17.2906 753.444 18.4219C756.218 19.205 759.904 18.4996 763.595 18.7295C764.003 18.3983 762.623 17.5792 764.299 17.5986C765.99 18.619 764.701 16.8089 770.526 17.3018C771.595 16.6128 769.84 16.5454 771.217 15.9434L773.55 15.9121C775.312 16.4089 774.274 16.5055 775.177 17.0146C776.975 17.0601 778.154 16.9328 779.047 16.7295L778.638 16.4033C780.291 16.4657 781.693 16.1566 781.972 15.6826L782.896 16.0039C783.975 16.0019 784.609 15.8792 785.22 15.7559C786.467 16.1313 785.516 17.1761 787.648 17.2871C786.519 17.4943 785.203 17.6524 785.376 18.2148L785.76 18.4365L785.389 18.6631C790.558 18.6858 784.538 19.6939 787.037 20.207C785.671 20.2057 784.616 20.2885 783.933 20.4717C786.329 21.2543 786.138 22.8276 789.551 23.3037L790.697 23.1758L791.113 23.5059C792.677 22.5402 796.204 21.9155 794.064 20.5576C795.104 20.8257 796.941 20.8033 797.951 20.5039C798.051 21.7189 803.346 22.2096 804.367 23.7715L805.533 23.8711L805.171 24.207C807.913 24.5057 807.201 25.8709 808.415 26.6328C806.368 26.588 806.439 27.1175 806.128 27.5508C806.86 27.9345 807.919 28.2214 809.3 28.4033C810.635 27.1828 820.773 28.1004 821.03 29.3682C825.377 29.5766 826.083 28.8222 827.982 28.3779C825.551 28.5162 825.885 27.8007 824.061 27.7617L822.895 27.8789L823.27 27.543C822.048 27.5033 822.697 27.0663 823.222 26.8701C823.493 26.8695 823.75 26.8617 824.001 26.8682L825.161 26.7334L824.792 27.0752C827.295 27.2343 827.183 26.6912 828.653 26.5742C832.125 27.1167 833.515 28.6965 838.093 28.2393C838.664 28.9686 840.022 29.4681 840.539 30.2148C837.65 29.8317 836.145 30.667 834.371 31.1963C834.972 30.1017 831.849 30.1489 831.154 29.4473C829.36 29.7518 826.638 29.4926 824.946 29.7588C824.818 29.7711 824.514 30.3686 824.202 30.4375C822.527 30.8519 819.167 31.0741 820.393 31.8359C823.01 32.2814 824.031 33.7887 825.958 33.7744C825.166 33.7835 824.992 34.1761 825.984 34.2236C826.146 34.0444 826.607 33.9558 827.519 33.9805L827.111 33.6436L830.269 34.2715L829.094 34.4033C830.274 34.9554 830.656 35.7436 833.847 35.6787L834.218 35.3359L834.619 35.6689C836.474 35.3572 837.759 34.895 837.649 34.0664L836.497 34.1865L839.574 33.6982L839.205 34.0439C843.991 34.4453 842.692 35.3659 846.331 35.957C848.462 36.0934 847.866 35.4946 849.415 35.4688C849.486 36.2751 851.751 36.4238 854.905 36.2861C856.064 35.5627 855.125 35.306 854.798 34.5C850.313 34.2031 848.898 32.9649 846.117 32.1523C847.534 31.8075 849.782 31.6701 849.134 30.7705C848.124 30.2174 845.342 31.0308 845.245 30.6035C843.814 29.9014 844.669 28.5014 843.51 27.7148C840.545 27.6414 839.504 26.9713 839.527 25.9775C837.866 25.3442 833.989 25.4006 833.978 24.2588C827.951 23.5184 825.904 21.7134 815.984 22.7168C814.918 22.0361 816.16 22.0761 815.898 21.1553C813.596 20.8689 812.739 20.1467 809.61 20.1221C808.075 20.365 806.915 20.7133 805.763 21.0654C804.845 20.9712 804.003 20.8533 803.409 20.6514C804.79 20.5799 807.33 20.8262 806.499 20.1592C805.3 19.6287 803.222 19.7211 802.571 19.54C803.568 18.5581 803.796 18.1737 804.012 17.5146C803.7 18.4579 801.015 15.4792 805.528 16.8164C808.463 17.6918 813.662 17.4513 816.482 17.7871C817.282 16.8643 815.604 16.6967 814.069 16.4805C818.791 16.6064 821.957 15.6406 827.296 16.2979C828.353 17.1194 830.473 17.6032 832.853 18.0098C832.693 17.5306 835.608 17.8771 836.728 17.7422C837.797 18.8276 842.043 18.3456 843.03 18.9932C840.12 19.2997 834.835 18.8638 832.123 18.9268C831.521 19.3496 830.873 19.7584 830.641 20.2832C835.896 21.29 843.902 20.7598 850.116 20.4688C851.621 19.8719 849.255 19.4465 850.827 19.1172C850.822 19.262 850.832 19.4108 850.854 19.5596C853.837 18.7919 860.161 19.311 858.683 20.3496C861.869 20.2489 863.542 21.2796 861.091 21.6602C858.087 21.7452 858.002 20.9357 855.593 20.8428C852.503 21.0786 851.692 21.0904 848.595 20.9287C844.448 22.7532 851.063 24.3433 857.342 24.3965C857.602 24.6959 858.478 24.8077 858.179 25.2812C861.518 25.5215 862.027 25.2092 865.963 25.1748C865.508 23.7088 864.504 23.8132 862.705 22.752C865.845 22.4227 869.21 23.3246 872.103 23.748C874.767 23.4351 877.992 23.2809 880.631 22.9639C879.691 23.6646 890.069 24.1945 892.329 23.2412C892.968 24.0067 894.555 24.4804 897.041 24.0791C896.917 25.0709 898.916 24.4648 900.192 24.707C900.696 24.8065 900.384 25.262 901.003 25.3672C901.851 25.5146 902.743 25.636 903.64 25.751C903.682 25.7562 903.723 25.7615 903.765 25.7666C905.905 26.0407 908.055 26.2919 909.651 26.8174C911.491 27.4201 911.872 28.2308 913.66 28.7822C915.718 28.8672 915.923 28.5914 918.319 28.7129C918.459 28.7221 918.765 28.7724 919.125 28.8379C920.065 30.4025 919.202 32.7106 921.778 34.2344C924.44 34.4096 924.758 33.5736 927.698 33.8672L927.285 33.3379L928.114 34.0566C927.927 33.8141 927.739 33.5682 927.278 33.3281L927.273 33.3223L928.536 33.5039C931.125 33.8507 931.186 35.2742 934.463 35.3242C935.2 34.1389 933.936 32.5662 935.301 30.958C935.286 30.9567 935.276 30.9534 935.26 30.9521C936.238 31.0307 937.028 31.0958 937.184 31.125C937.383 31.0406 938.216 30.5735 938.692 30.6729C942.733 31.5789 941.941 33.3845 941.285 35.3428C944.47 36.3838 951.476 35.624 949.719 33.2158C950.84 33.2502 951.066 33.5675 952.085 33.6299C953.31 32.6939 951.746 32.3677 952.742 31.3818C950.176 31.0993 945.76 31.3965 947.205 29.8877C944.774 30.0681 944.396 29.6198 944.112 29.1406C944.708 29.1971 945.394 29.2146 946.296 29.1387C946.197 29.0686 946.151 29.0125 946.067 28.9463C946.479 28.6812 945.984 28.1704 947.113 28.0977C947.552 28.3477 948.715 28.5188 950.032 28.6221C949.954 28.789 949.894 28.9529 949.683 29.1387C952.848 30.0752 953.839 29.9273 955.771 29.6162C955.757 29.6727 955.81 29.7111 955.761 29.7754C958.991 29.1512 958.204 30.3454 962.015 30.1318C961.395 29.4528 964.119 29.6753 963.504 28.9961L963.095 28.666L965.462 29.084L964.282 28.9834C964.026 29.5536 964.838 29.7874 965.884 29.9531C966.242 30.8577 967.518 31.7037 968.275 32.5967L966.916 30.0215C969.04 29.6655 970.171 29.0389 971.341 28.4238C974.524 29.7885 977.003 31.2624 983.495 30.5947C981.116 27.5863 988.726 28.7644 993.639 28.4111C995.849 24.7423 1000.9 29.7519 1005.49 26.585C1004.46 26.5084 1004.96 26.1815 1005.49 25.8613C1003.72 25.4319 1001.94 26.8158 1001.26 24.7686C1004.05 24.8842 1006.45 24.825 1007.17 24.0361C1008.43 24.4688 1008.16 25.5509 1010.54 25.4951C1011.55 25.321 1012.47 25.1097 1013.09 24.7695L1012.66 24.2236L1013.93 24.4092C1016.34 23.2732 1020.27 24.5677 1021.54 25.1328L1021.8 24.8047C1021.84 25.0463 1022.02 25.2938 1022.49 25.5127C1022.8 25.6581 1023.24 25.7323 1023.7 25.7939L1023.23 25.8623C1023.42 26.1429 1023.94 26.2814 1024.92 26.2256C1024.54 26.3529 1024.18 26.3829 1023.81 26.4199C1023.13 26.4017 1022.44 26.3955 1021.76 26.415C1021.78 26.4514 1021.86 26.4831 1021.88 26.5195C1021.08 26.5422 1020.38 26.6563 1019.85 27.3154L1020.27 27.6855L1020.7 28.0459C1022.3 28.881 1025.83 28.8 1027.56 28.0293C1028.24 28.0137 1028.93 27.9985 1029.63 27.8711C1029.83 27.742 1029.86 27.6191 1029.82 27.501H1032.11C1031.37 27.4127 1030.53 27.3506 1029.67 27.3369C1029.19 26.9564 1027.58 26.6595 1025.59 26.5107L1025.34 26.4082C1025.22 26.2341 1024.98 26.0604 1024.75 25.8857C1025.17 25.9084 1025.59 25.9388 1026.08 25.9512C1026.95 26.2069 1027.26 26.1654 1027.15 25.9863C1028.36 26.022 1029.66 26.0783 1031.09 26.2861C1031.31 26.3212 1031.65 26.8739 1031.91 26.9492C1033.74 27.4441 1037.69 27.4498 1038.93 27.0732L1038.51 26.75L1039.69 26.8428C1039.92 26.542 1040.77 26.4035 1040.42 25.9365C1039.38 25.6645 1037.53 25.6909 1036.53 25.9902C1035.63 25.2829 1033.54 24.9374 1031.77 24.4873C1031.76 23.5242 1029.97 23.1094 1028.07 22.7256C1027.79 22.6704 1027.52 22.6134 1027.25 22.5576L1027.46 22.2197H1025.78C1025.78 22.2191 1025.77 22.2181 1025.77 22.2168C1025.13 20.7197 1028.65 19.9282 1030.84 20.7627V21.1289L1032.11 20.9443L1032.52 21.0029C1032.22 21.2711 1032.05 21.5747 1032.41 22.0176C1035.21 21.9923 1036.08 22.5591 1037.14 23.0703C1039.99 22.6182 1039.92 22.7471 1044.13 22.7549C1044.16 23.8861 1047.81 23.9067 1048.14 24.9434C1050.6 24.7986 1050.92 25.3006 1053.61 25.0928C1054.32 27.4498 1062.17 27.6189 1064.75 29.4121C1059.84 29.681 1056.44 28.3205 1053.86 29.5557C1051.13 28.5451 1055.54 28.5188 1056.9 28.3896C1051.92 27.4218 1051.64 25.0057 1042.71 25.2363C1044.88 26.5437 1044.94 28.3946 1041.38 29.2754C1041.4 29.5033 1041.42 29.7312 1041.43 29.9482C1044.88 30.3957 1052.78 31.4438 1049.36 32.5322C1049.95 33.0337 1054.72 32.2497 1054.06 33.1348C1056.47 33.2705 1055.52 32.5017 1057.93 32.6406C1056.65 33.0239 1057.38 33.9537 1057.26 34.6602C1059.35 34.4777 1058.8 35.1041 1059.64 35.3018C1062 35.2777 1063.59 35.0439 1064.26 34.5674C1063.31 34.557 1062.42 34.5241 1062.69 34.1436C1065.16 34.4611 1066.09 33.9658 1068.89 33.8281C1067.4 34.2698 1068.69 34.6536 1068.97 35.1738C1071.93 35.0127 1074.07 34.6387 1076.71 34.3906L1076.31 34.0645L1076.67 33.7256C1077.05 32.9275 1075.36 32.7642 1074.26 32.4121C1074.76 31.7457 1077.33 31.6224 1080.45 31.6582C1081.99 31.4872 1079.9 30.3372 1082.73 30.5137C1081.57 31.5411 1084.49 32.6947 1088.31 32.8975L1089.1 32.9932L1089.88 33.1025C1093.27 31.7821 1086.11 29.3368 1081.9 29.625C1083.25 28.202 1077.41 25.7475 1076.92 24.3252C1076.28 24.6476 1074.4 23.5561 1073.81 23.0684L1073.77 23.0166C1074.53 22.9893 1074.77 22.8297 1075.44 22.7822C1075.62 22.7705 1075.8 22.7602 1076.05 22.7686C1076.06 22.7952 1076.11 22.8054 1076.12 22.8301C1076.17 22.9261 1076.28 22.9956 1076.38 23.0684L1075.65 23.3125C1076.7 23.8307 1078.56 24.0023 1080.73 24.0361C1080.63 23.8493 1080.62 23.7021 1080.63 23.5605C1082.85 23.5449 1085.26 23.5083 1086.27 24.2012C1088.15 24.2656 1087.93 23.7632 1090.14 23.9189L1091.71 24.1172C1092.93 23.4088 1094.79 24.3698 1095.63 24.5166C1098.45 24.3971 1099.99 23.9294 1100.21 23.1084C1099.28 22.7941 1097.26 22.801 1096.29 22.4932C1096.3 22.4893 1096.31 22.4873 1096.32 22.4834C1097.31 22.0899 1098.84 21.8487 1100.91 21.7617C1100.96 22.1318 1101.06 22.5176 1101.25 22.8877C1101.9 24.1776 1103.74 25.2479 1109.64 24.5537C1111.06 25.4916 1114.71 25.0088 1118.22 24.8828C1117.65 24.2002 1117.66 24.4603 1118.16 23.7646C1120.71 23.5699 1124.04 23.5861 1125.13 22.9951C1124.96 25.7607 1131.81 26.8731 1129.41 29.6504C1128.04 29.6562 1126.98 29.7349 1126.29 29.918C1125.68 30.6446 1127.55 30.597 1127.91 31.0205L1128.68 30.8916L1129.47 30.9941C1130.97 31.0688 1131.45 31.4474 1133.38 31.3936C1131.41 30.2544 1133.4 28.9106 1133.17 27.5889C1135.05 27.6538 1134.84 27.1602 1137.04 27.3154L1136.64 26.9854L1138.64 27.8486L1137.85 27.749C1138.15 28.4862 1140.16 28.7079 1139.52 29.7451C1141.09 29.9438 1142.86 30.0824 1143.46 30.5771C1140.91 33.4824 1143.44 34.7701 1145.41 37.4922C1151.64 37.6318 1153.12 39.2308 1160.28 39.0781C1161.57 37.7809 1156.95 38.2775 1157.08 37.3359C1161.74 37.3496 1155.22 34.1019 1155.26 32.8809C1147.71 32.2313 1153.21 28.6611 1149.49 27.1406C1145.55 27.3667 1143.82 28.2032 1139.41 27.7266L1138.64 27.8486C1138.37 27.6436 1138 27.3716 1136.64 26.9844L1136.64 26.9814L1137.82 27.0791C1136.06 25.7255 1133.74 24.5345 1129.85 23.8291C1129.02 22.577 1131.92 21.4213 1129.66 20.4736C1138.71 19.2578 1137.16 23.1534 1143.85 23.4141C1143.82 22.8211 1143.34 22.104 1145.32 22.0469C1153.39 22.4639 1154.82 24.908 1159.58 26.3291C1157.21 26.7214 1154.21 26.9474 1154.23 27.9736C1157.67 28.3815 1156.26 29.1387 1158.21 29.707C1158.93 29.094 1160.1 28.6046 1162.83 28.5273C1166 28.8884 1165.57 29.4694 1166.03 30.2695C1168.76 30.2 1171.85 30.0114 1170.75 31.1045C1173.58 31.2812 1171.33 30.0921 1173.81 30.1641C1174.38 30.8564 1175.9 30.4328 1177.72 30.3379C1177.67 29.7418 1177.64 29.1482 1177.61 28.5449C1179.08 28.5832 1179.31 28.2741 1180.71 28.2832C1181.15 27.8837 1178.38 27.3855 1180.65 27.1621L1180.24 26.8359C1181.5 26.9334 1182.8 27.0926 1184.14 27.0068L1183.78 27.3496C1185.29 28.2483 1190.92 27.8941 1193.94 28.333C1195.43 27.049 1199.88 27.5331 1204.81 27.5098C1205.06 25.2353 1198.87 24.9194 1193.72 24.3037C1197.68 24.4141 1195.85 22.97 1199.87 23.1064C1197.94 24.888 1205.54 25.8664 1210.92 25.4111C1210.88 25.8086 1211.13 26.1072 1211.75 26.2988C1218.14 25.5947 1218.75 26.7185 1223.46 27.0361C1225.64 26.8153 1226.62 26.264 1229.65 26.2803C1229.62 26.6729 1229.87 26.9761 1230.48 27.167C1234.13 27.1183 1238.44 27.2507 1238.21 26.1641C1237.76 25.3926 1233.52 25.7813 1234.23 24.6436L1232.81 24.7861L1234.06 23.8721L1234.99 24.1934C1236.04 24.1076 1236.45 23.8525 1238.08 23.9219C1238.08 23.9979 1238.09 24.0744 1238.1 24.1504L1239.5 24.0195C1239.35 24.4849 1239.87 24.7011 1240.31 25.0918L1238.92 25.0303C1239.53 25.6804 1240.87 26.1075 1242.12 26.5557C1242.5 25.5626 1246.24 25.4597 1247.47 24.6934C1246.49 23.7788 1243.61 24.7653 1241.24 24.7783L1240.31 25.0928L1240.31 25.0918C1239.87 24.7006 1239.35 24.4851 1239.5 24.0186H1239.51L1240.44 24.3398C1241.57 24.1358 1243.45 24.1249 1242.72 23.4189C1239.87 22.7727 1236.05 22.4246 1234.05 21.5166C1230.75 21.6998 1228.6 21.5193 1229.33 20.4619C1230.61 20.8308 1232.61 20.9769 1235.57 20.8301C1235.73 20.5781 1236.41 20.4672 1237.09 20.3594C1237.51 19.6267 1236.5 19.3292 1236.24 18.8057C1238.75 18.957 1237.87 18.9732 1239.34 18.5381C1239.5 21.1883 1244.32 21.1277 1248.88 22.2168C1251.84 21.9031 1250.49 20.4354 1253.45 20.1328C1255.42 20.6718 1256.49 19.8382 1258.87 19.8369C1268.48 20.463 1265.67 24.8868 1271.72 26.6035C1273.4 26.319 1274.51 25.8907 1276.34 25.6445C1276.32 24.8346 1275.8 23.8854 1277.78 23.6113C1279.17 23.9451 1279.44 24.6133 1281.73 24.6719C1282.83 24.605 1283.02 24.2892 1284.03 24.1924C1283.51 23.059 1280.37 21.5376 1281.51 20.6504C1285.63 21.2103 1289.06 21.9795 1293.29 22.5049C1293.3 22.8089 1293.32 23.1023 1293.34 23.4023C1292.56 23.4081 1291.78 23.4239 1291.01 23.4258C1291.14 23.846 1291.55 24.1764 1292.61 24.3037C1293.42 25.4689 1294.78 26.0779 1295.13 27.6289C1297.07 27.6289 1297.52 27.2438 1299 27.123C1297.46 25.4357 1299.63 25.1791 1305.14 25.4766L1306.29 25.3486L1307.46 25.4443C1313.42 24.5397 1315.85 26.6711 1316.19 28.2324C1319.1 28.4318 1318.68 27.7339 1320.04 27.5215C1321.08 25.5212 1318.11 24.7679 1317.47 23.293C1310.88 22.5824 1308.95 20.4421 1304 19.2295C1304.27 18.5735 1304.83 18.1175 1304.37 17.5986C1305.92 17.8071 1307.44 18.0639 1308.51 17.6406C1308.95 17.6977 1309.47 17.7315 1310.04 17.751C1309.98 17.7874 1309.86 17.8006 1309.84 17.8545C1310.85 18.037 1312.26 17.8057 1312.84 17.5537C1313.24 17.3764 1313.25 17.1903 1312.38 17.1279C1312.38 17.3036 1312.14 17.384 1311.85 17.4365C1311.72 17.4599 1311.57 17.4763 1311.41 17.4893L1311.29 17.3721L1312.45 17.0957C1311.88 16.7021 1309.37 16.5969 1307.79 16.8145C1307.67 16.7801 1307.56 16.7386 1307.31 16.7607C1307.25 16.8325 1307.18 16.8664 1307.11 16.9219C1307.08 16.9309 1307.02 16.9327 1306.99 16.9424C1306.99 16.9619 1307.03 16.9714 1307.03 16.9902C1306.09 17.7007 1304.36 16.985 1303.03 17.1992C1301.01 17.1693 1301.18 17.7315 1299.25 17.7217C1300.1 17.0053 1298 17.1942 1297.64 16.8506C1300.41 16.8896 1299.58 17.4368 1302.32 17.0127C1302.75 16.6054 1301.31 15.7078 1303.02 15.6621C1306.73 15.9498 1310.16 15.7108 1313.09 14.8516C1315.73 15.5789 1320.42 14.5339 1321.73 15.8457C1326.23 15.0981 1325.7 15.9917 1331.07 15.9482C1332.2 14.4764 1327.77 14.6861 1326.3 13.9971C1331.03 14.0257 1344.8 14.6563 1348.01 12.5859C1346.16 11.2565 1337.36 10.8415 1338.48 9.3584C1342.41 9.37398 1342.93 10.4276 1347.11 10.3594C1347.35 9.10557 1352.54 9.17882 1353.21 8.03711C1353.72 9.03278 1354.03 9.95785 1353.36 10.7275C1353.05 11.0743 1351.65 11.2142 1351.85 11.6396C1352.95 13.9932 1359.61 14.268 1366.81 14.5674C1366.93 14.572 1366.71 15.0065 1366.83 15.0156C1369.04 15.1961 1371.25 14.8493 1373.08 15.1553C1373.67 15.2559 1374.01 15.7299 1374.67 15.7988C1377.16 16.0872 1381.97 15.7149 1382.51 16.8164C1382.33 17.1365 1380.82 17.0904 1380.19 17.2969C1377.46 16.3942 1372.69 16.1088 1369.96 15.1924C1367.92 16.4802 1361.21 14.8243 1358.3 15.5791C1361.12 18.4265 1372.62 18.6302 1378.82 20.4502C1378.45 20.721 1378.03 20.9646 1377.31 21.1406C1370.29 20.7431 1363.9 20.3162 1357.01 20.5195C1357.14 21.3163 1358.31 21.7993 1358.7 22.5117C1363.5 23.2424 1369.95 23.4605 1372.84 24.7842C1379.64 25.3311 1384.61 24.9545 1390.76 24.9883C1390.37 25.3239 1389.64 25.5605 1389.25 25.8955C1397.06 25.1823 1395.8 27.2357 1402.54 26.8389C1403.2 26.0614 1403.67 25.2324 1405.54 24.7842C1405.57 25.084 1406.92 24.9729 1407.12 25.21C1407.12 25.5756 1404.97 25.3598 1404.82 25.6904C1406.67 25.5313 1410.46 25.8988 1411.03 25.3779L1411.01 25.1543L1411.79 25.1416C1409.42 24.4863 1415.07 23.6354 1412.44 22.8975L1411.27 22.8047L1411.65 22.4619C1409.24 21.3318 1404.41 18.7833 1408.26 17.8115C1409.41 18.5981 1411.7 19.0319 1414.57 19.2891C1414.7 18.4015 1419.64 19.5022 1419.99 18.5449L1419.57 18.2188L1420.74 18.0869C1420.9 17.477 1417.87 16.3491 1418.72 15.4424C1419.57 15.5431 1420.43 15.6417 1421.45 15.6709C1421.62 15.4431 1421.73 15.1793 1421.84 14.9229C1425.1 15.388 1428.49 15.2444 1431.62 15.21C1431.61 15.2411 1431.57 15.2752 1431.58 15.3037C1432.75 15.2875 1433.44 15.4793 1434.13 15.6709C1434 15.4774 1434.08 15.371 1434.08 15.2334C1435.69 15.2873 1437.21 15.4372 1438.52 15.832C1438.95 17.448 1440.9 18.5906 1444.17 19.333C1441.28 19.5564 1444.04 20.1189 1445 20.4443L1445.89 20.0889L1446.85 20.1514C1446.6 20.6253 1446.65 21.0283 1448.49 21.1289C1449.03 20.8561 1449.39 20.4216 1449.71 19.9287C1450.65 19.8937 1451.47 19.827 1451.98 19.6777C1451.9 19.0899 1451.41 18.5971 1450.64 18.2275C1451.04 17.4553 1451.54 16.7371 1452.33 16.2539C1454.57 16.5208 1456.16 16.9843 1457.29 17.5908C1455.53 18.5106 1457.23 20.3629 1452.01 20.3506C1452.03 20.7228 1452.06 21.0917 1452.07 21.4639C1454.33 21.6846 1456.91 21.8011 1459.87 21.8096C1459.35 20.9327 1461.56 20.7984 1463.71 20.6348C1463.82 20.2432 1463.84 19.8927 1463.78 19.5654C1463.96 19.0903 1464.87 18.9268 1465.91 18.8164C1466.81 19.1321 1467.89 19.4107 1469.09 19.666C1468 21.4281 1467.32 23.3035 1463.92 24.4395L1462.99 24.7539C1462.51 24.5889 1462.01 24.3953 1461.19 24.292L1462.33 24.0127C1462.32 23.792 1462.31 23.5606 1462.3 23.3438C1461 23.358 1459.7 23.3722 1458.41 23.3936C1458.88 24.006 1458.43 24.9043 1461.6 24.6875C1460.97 25.4177 1463.64 25.1301 1464 25.5566C1462.46 26.6848 1457.49 26.8886 1454.76 27.6953C1454.36 29.0573 1447.21 30.1907 1451.86 31.5371C1453.4 31.5838 1453.38 31.2148 1454.17 31.0576C1464.82 32.5086 1477.33 33.378 1491.69 33.6826C1492.28 32.9019 1490.49 32.841 1490.84 32.126C1492.3 32.1604 1492.53 31.849 1493.92 31.8613C1494.69 32.3069 1496.48 32.4505 1497.88 32.7012C1497.9 33.2251 1497.93 33.7459 1497.96 34.2666C1500.34 34.3984 1500.78 34.0025 1502.61 33.9727C1507.58 35.8795 1510.02 38.5386 1520.02 38.8906L1519.62 38.5674L1520.79 38.6572C1518.58 35.7734 1507.87 35.4845 1505.65 32.5977C1510.1 32.2288 1515.82 32.5978 1519.69 33.083C1522.46 31.2929 1514.07 31.8477 1514.08 30.25C1514.85 29.6487 1517.12 29.4464 1517.89 28.8555C1516.96 28.5347 1515.61 28.3377 1515.49 27.7656C1520.78 27.2804 1525.62 26.6751 1528.61 25.5742C1540.8 25.1067 1535.51 29.9823 1545.23 30.2734C1546.75 29.4271 1544.67 28.9554 1545.07 27.8428L1546.66 28.0166C1546.4 27.9309 1546.16 27.8556 1545.93 27.7588C1545.24 27.7146 1544.58 27.6931 1543.91 27.7178L1545.08 27.5898C1543.9 26.9586 1539.95 27.1845 1540.33 26.0869C1543.62 25.6504 1547.44 26.2762 1550.42 25.5039C1551.02 24.861 1549.28 24.9388 1549.57 24.3965C1553 24.3632 1551.73 23.0693 1556.52 23.3984C1557.36 24.854 1560.81 26.5913 1564.47 26.4238C1565 25.7431 1563.1 25.7936 1563.63 25.0947C1564.98 25.0999 1566.05 25.0148 1566.72 24.8311C1566.91 25.0064 1566.77 25.2714 1567.53 25.2656L1568.41 24.9219C1568.7 25.1784 1569.35 25.4317 1570.59 25.6953L1569.13 25.9209C1569.46 26.1924 1570.15 26.362 1571.49 26.334C1572.1 26.2795 1572.37 26.1376 1572.22 25.876L1570.71 25.6992C1571.74 25.6752 1573.1 25.6228 1574.15 25.5156L1573.79 25.8584C1574.31 25.8493 1574.83 25.8404 1575.34 25.832C1575.69 26.3703 1573.95 26.3369 1574.64 26.9658C1577.02 26.7619 1576.17 27.5551 1578.55 27.3545C1579.44 26.4354 1580.83 25.9883 1584.71 26.3799C1585.41 23.8397 1577.4 22.14 1570.42 21.2002C1568.24 21.5659 1572.45 22.1121 1570.48 22.3213L1570.88 22.6475C1570.11 22.6572 1569.33 22.7066 1568.55 22.7559L1568.93 22.3477C1567.11 22.3672 1565.29 22.3933 1563.48 22.4199C1563.42 22.2783 1563.34 22.1512 1562.69 22.2051L1561.8 22.5566C1561.12 22.1002 1560.23 21.9089 1559.15 21.6875L1560.31 21.5635C1560.64 20.8588 1558.18 21.0042 1557.91 20.4736C1559.33 19.9039 1558.62 18.7578 1560.12 18.2109C1563.69 19.061 1562.35 17.1775 1564.72 17.0273C1567 16.9409 1567.15 17.4995 1569.42 17.4131C1572.44 16.6668 1567.03 15.8685 1568.54 15.6328C1574.32 15.2327 1572.14 17.2595 1576.42 17.3154C1578.89 17.3875 1576.94 16.2819 1578.69 16.168C1581.83 17.0462 1588.46 18.0244 1592.74 16.6494C1590.52 14.6794 1599.11 13.1514 1592.51 12.624C1591.23 12.6423 1592.11 13.2516 1590.99 13.3115C1590.06 13.2179 1589.21 13.0997 1588.64 12.8945C1588.53 12.2863 1589.9 12.4325 1588.59 12.0059C1590.14 11.5935 1590.12 12.1525 1591.68 11.7363C1590.02 10.4309 1587.8 9.285 1586.02 8.01465L1585.61 7.79004C1586.39 7.75174 1587.17 7.73121 1587.94 7.65332L1587.58 7.98926C1594.02 8.32313 1589.89 10.5782 1597.09 10.7686C1598.36 10.7504 1597.47 10.1402 1598.59 10.0732C1599.6 10.1856 1598.96 10.8085 1599.99 10.915L1600 1.60156C1600 1.12943 1599.99 0.234723 1599.99 0H1600V46H536.852C538.297 46.0044 539.299 45.8874 540.085 45.7129C540.441 44.6977 538.859 44.2719 535.339 44.4375L535.741 44.7715L534.589 44.8955C534.94 45.315 536.288 45.4318 536.204 45.9902C536.429 45.996 536.645 45.9994 536.852 46H0V20.3398C0.950351 20.3606 1.85023 20.1688 1.92188 19.6748C1.39797 19.5104 0.757957 19.395 0 19.3301V0H0.00195312V14.5039ZM986.156 44.1299C986.078 44.6859 986.075 45.2218 987.778 45.2295C987.751 44.7847 989.883 44.9174 989.273 44.3145C988.227 44.2632 987.775 44.0149 986.156 44.1299ZM534.001 44.415C534.462 44.5791 534.896 44.7579 535.741 44.7715L534.001 44.415ZM1486.82 44.0449C1486.8 44.3329 1485.85 44.3732 1486.09 44.7295C1486.61 44.721 1487.13 44.7132 1487.65 44.708C1487.66 44.4229 1488.62 44.383 1488.39 44.0225C1487.86 44.0348 1487.35 44.0397 1486.82 44.0449ZM870.011 41.9043C865.77 42.0154 865.35 43.1452 864.688 44.2148C868.044 44.3037 867.815 43.4409 870.883 43.4609C870.841 42.8673 871.104 42.1771 870.011 41.9043ZM1495.68 35.4248C1494.22 36.4962 1489.04 36.5604 1489.61 38.1924C1484.94 38.6159 1481.7 39.4392 1475.66 39.4971C1475.55 41.1255 1483.31 40.3394 1483.59 41.8525C1487.36 41.9174 1492.01 41.7028 1493.75 42.3809L1494.89 42.2588L1494.54 42.6016C1495.56 42.8913 1497.93 42.7666 1499.99 42.7471C1501.56 40.5754 1504.45 39.098 1505.9 37.0723C1503.63 36.4371 1504.59 37.6472 1502.04 37.5752C1500.75 36.6029 1498.75 35.8541 1495.68 35.4248ZM486.878 41.291C486.929 41.602 486.537 41.7794 486.146 41.9736C487.192 42.025 487.653 42.2644 489.271 42.1494C488.919 41.7259 488.929 41.1917 486.878 41.291ZM1182.25 41.6953C1182.04 41.2991 1182.96 40.5608 1180.63 40.8232C1180.45 41.3344 1180.88 41.6576 1182.25 41.6953ZM521.114 40.8281C524.749 39.5611 517.403 41.2845 521.134 41.0488C521.182 41.0455 521.066 40.8385 521.114 40.8281ZM845.799 40.4434C845.313 40.3797 842.766 39.9201 842.686 40.4902C844.06 40.6688 845.133 41.1944 845.799 40.4434ZM877.984 38.3311L876.81 38.2305C877.995 39.0859 878.161 40.248 880.833 40.6436L881.735 40.2881L883.165 40.3838C884.766 39.1009 881.522 36.239 877.582 37.9971L877.984 38.3311ZM1012.29 37.9561C1006.37 37.834 1003.82 38.615 1004.63 40.2979C1010.55 41.4092 1013 39.5396 1012.29 37.9561ZM1134.66 40.1016C1134.67 40.2461 1134.68 40.3943 1134.68 40.5459C1135.2 40.5414 1135.72 40.5289 1136.23 40.5205C1136.22 40.3766 1136.21 40.2248 1136.21 40.0732C1135.69 40.0881 1135.18 40.0932 1134.66 40.1016ZM867.592 40.373C867.401 39.9768 868.31 39.2389 865.977 39.502C865.798 40.0058 866.22 40.336 867.592 40.373ZM1060.95 38.084L1059.78 37.9912C1057.95 38.3719 1055.74 38.658 1055.2 39.3887C1057.63 40.1679 1064.9 39.6865 1064.48 38.3662C1064.44 37.9978 1062.31 38.2728 1062.12 37.9531L1060.95 38.084ZM527.267 39.3945C528.022 38.6365 524.818 39.0808 523.346 39.0029C522.843 39.7888 526.121 39.7679 527.267 39.3945ZM1034.89 38.3252C1032.22 38.1902 1031.89 39.2158 1034.16 39.2236C1034.39 38.9264 1035.24 38.7837 1034.89 38.3252ZM524.018 36.9834C519.216 35.9828 517.873 38.5577 514.734 38.002C515.007 38.5103 514.652 38.8611 514.022 39.1318C519.152 38.898 522.956 38.312 524.018 36.9834ZM897.494 32.127C894.574 32.0829 893.533 33.2053 895.261 33.7275L896.664 33.5986C896.532 33.7454 896.472 33.8936 896.428 34.0527L895.267 33.9521C890.151 35.4875 895.727 37.0253 894.764 38.8867C895.827 38.8588 896.472 38.9677 897.11 39.0723C897.845 38.4988 899.57 37.7634 897.023 37.5068C903.617 37.4158 898.78 34.9068 897.594 33.9209C900.805 33.6175 897.453 32.8135 897.494 32.127ZM1477.13 37.9131C1476.73 38.458 1472.11 37.8712 1472.51 38.6484C1473.94 39.203 1478.59 38.0813 1477.13 37.9131ZM657.534 29.791C654.433 29.5104 652.158 29.8281 647.424 29.9365C647.431 30.1534 647.444 30.3845 647.457 30.6084L648.631 30.6982L648.269 31.041H648.289L647.773 31.5479C648.049 31.381 648.298 31.214 648.445 31.0498C653.701 31.3155 654.248 34.6146 651.613 35.25C653.402 35.5343 654.506 34.6286 654.73 35.209C653.058 36.6139 652.439 38.4783 659.57 38.2783C658.198 37.189 662.422 36.5554 659.424 35.5889C662.963 35.6577 660.627 34.283 661.683 34.2119C663.663 34.6679 665.084 35.299 668.742 35.2471C668.837 33.6941 665.957 33.0612 665.431 31.7031C662.213 31.4667 660.393 32.6311 658.471 32.4688C660.092 32.0927 661.243 31.6046 660.698 30.6514C657.239 30.3734 658.706 31.4346 656.072 31.3867C654.471 30.2734 657.14 30.7556 657.534 29.791ZM1057.45 38.0186C1057.83 36.5844 1050.94 38.0883 1055.12 38.2734C1054.94 37.4158 1055.76 38.1802 1057.45 38.0186ZM245.405 37.875C245.196 37.0398 242.724 36.9142 242.871 37.5107C242.932 37.7419 245.635 38.7366 245.405 37.875ZM1037.11 36.2764C1034.52 36.3478 1032.33 38.0031 1034.87 38.1006C1035.35 37.4201 1037.82 37.2783 1037.11 36.2764ZM1136.8 36.7139C1136.27 36.7191 1135.76 36.7276 1135.24 36.7432C1135.27 36.96 1134.63 37.0109 1134.5 37.1934C1135.49 37.1901 1135.58 37.462 1136.85 37.3789C1136.83 37.1621 1136.81 36.9378 1136.8 36.7139ZM752.876 35.8857C750.047 35.5429 746.628 35.5258 743.565 36.4668C746.384 36.6506 744.447 37.1783 747.506 37.2998C748.444 37.3394 751.269 36.9164 752.93 36.7832C752.911 36.4864 752.888 36.1858 752.876 35.8857ZM845.584 36.6387C845.468 37.132 846.246 37.3469 847.957 37.2793C847.943 37.063 847.917 36.8311 847.91 36.6104C847.132 36.6202 846.368 36.6296 845.584 36.6387ZM321.501 34.5986C317.447 32.8482 304.255 34.0711 308.823 37.1484C313.811 36.7489 319.386 36.603 320.65 34.5986C320.65 34.7999 321.339 35.0117 321.501 34.5986ZM1071.33 35.5889C1068.93 35.757 1065.82 35.7219 1065.93 36.5605C1067.46 37.5647 1072.39 36.6423 1071.33 35.5889ZM834.629 36.1162L833.872 36.1367C832.999 36.188 832.668 36.3979 832.331 36.5967C833.8 36.7545 835.207 36.9324 837.03 36.9785C837.362 36.2735 836.003 36.0809 834.631 35.8926L834.629 36.1162ZM304.593 35.3252C303.694 36.25 306.376 37.4026 307.134 36.4189C305.174 36.5305 306.188 35.3648 304.593 35.3252ZM1535.44 36.2246C1534.29 34.9035 1530.51 33.1949 1526.72 33.4326L1526.35 33.7754L1525.18 33.6758C1524.21 34.6544 1527.43 34.3523 1528.34 34.7529C1526.12 35.9525 1529.82 36.5216 1533.12 36.7041L1534.13 36.3936L1535.44 36.2246ZM1007.95 32.8574C1005.94 32.7295 1006.83 31.7211 1003.39 32.0322C1003.79 33.7572 1004.12 34.3751 1003.62 36.2852C1007.55 37.3886 1010.88 35.5837 1009.73 33.9619C1012.97 34.4399 1017.91 33.7515 1018.22 32.7324C1014.26 32.376 1012.52 33.2094 1008.91 33.5264C1008.9 33.3816 1008.9 33.2294 1008.89 33.082L1007.73 33.2061C1008.3 33.0899 1008.67 33.003 1009.04 32.9277C1009.34 32.6349 1009 32.3095 1008.44 32.0791L1007.95 32.8574ZM642.738 36.6016C645.223 35.78 644.953 34.4835 648.276 33.8711C648.388 33.7535 648.446 33.6202 648.254 33.5098C647.129 33.3812 646.546 33.2117 646.315 33.0176L642.738 36.6016ZM878.715 30.5928C878.637 28.7166 870.62 27.6644 869.33 29.8252C866.831 29.1062 861.895 30.4771 859.201 29.7373C859.331 30.9571 854.389 30.7886 855.459 32.25C857.566 32.552 860.528 32.0951 862.485 32.8291C861.347 33.1083 860.632 33.4975 858.643 33.5547C858.679 34.1547 858.708 34.7479 858.743 35.3408C859.35 35.3843 860.278 35.3303 860.306 35.5439C862.583 35.5699 862.969 35.0856 864.16 34.8213C865.648 35.8786 869.162 36.3233 873.592 36.4824C875.058 35.6726 873.279 35.262 871.944 34.7119C875.127 34.4954 872.015 31.9807 874.069 30.8799C872.371 30.9475 871.573 30.7322 871.69 30.2451C875.683 29.8536 875.071 30.8798 878.715 30.5928ZM269.086 36.4189C270.573 34.7906 264.612 35.1107 264.862 36.0518C265.842 36.3622 267.126 36.5345 269.086 36.4189ZM798.763 34.8184C798.125 35.3751 798.068 36.3421 801.177 36.3486C802.144 35.688 801.839 34.8249 798.763 34.8184ZM575.323 35.6123C575.22 36.0955 576.011 36.3146 577.696 36.251C577.819 35.7606 577.021 35.5447 575.323 35.6123ZM551.538 28.1035C548.03 27.6579 542.929 26.064 538.264 27.3838C540.003 29.3408 534.14 30.706 533.108 32.6064C538.533 33.7916 543.396 30.8692 541.496 29.3623C543.956 29.5819 543.353 28.9825 544.587 28.8662C546.079 29.7723 543.357 31.0247 545.531 31.9854C540.673 32.801 540.54 34.4473 541.073 35.8516C548.998 35.971 544.656 32.7549 549.459 32.6074C548.5 31.7366 550.352 31.0098 547.777 30.3955C551.061 30.1805 551.411 29.168 551.538 28.1035ZM1484.77 35.124C1484.26 35.7325 1486.4 35.5404 1487.14 35.7656C1487.25 35.2714 1486.47 35.0565 1484.77 35.124ZM769.918 34.3086C767.838 33.7722 762.378 33.7535 762.951 35.082C765.329 35.3334 769.372 35.0762 770.767 35.6416C771.055 35.3195 771.679 35.2545 770.736 34.9727L769.553 34.7314L769.918 34.3086ZM1083.66 33.4053C1081.47 33.478 1078.32 33.2836 1078.25 33.9326L1078.65 34.2588L1077.48 34.3867C1079.13 35.6413 1083.08 34.7976 1086.13 35.6133C1085.77 35.0814 1087.51 35.1053 1086.84 34.4863C1083.34 34.8721 1085.11 33.6495 1083.66 33.4053ZM814.365 35.502C814.551 34.9045 814.028 34.5413 811.984 34.6367C812.002 34.9334 812.02 35.2373 812.032 35.5332C812.809 35.5202 813.587 35.5111 814.365 35.502ZM822.087 34.2744C820.209 34.2094 820.411 34.7032 818.212 34.5518C817.096 35.6846 824.455 35.7502 824.466 35.1436C823.317 34.961 821.981 34.8369 822.087 34.2744ZM1523.7 35.0469C1522.2 34.9644 1522.25 34.427 1519.78 34.6484C1519.25 35.629 1522.86 35.6229 1523.7 35.0469ZM950.58 34.7627C950.594 34.9972 950.607 35.2186 950.627 35.4395C951.398 35.4304 952.183 35.4169 952.96 35.4072C953.077 34.9208 952.286 34.7023 950.58 34.7627ZM303.742 34.2354C303.113 33.4125 299.01 34.0929 296.99 33.8682L297.402 34.5361L296.132 34.9619C297.571 35.6757 304.255 35.563 303.742 34.2354ZM1089.54 34.1123L1088.37 34.0127C1088.38 34.2406 1088.4 34.4645 1088.41 34.6885C1091.36 34.7223 1093.7 35.8081 1096.99 35.0176C1097.41 34.2097 1096.03 33.9478 1095.35 33.4775C1092.47 33.7341 1093.34 33.978 1089.92 33.7695L1089.54 34.1123ZM780.632 30.8096C779.034 32.4034 783.98 33.8439 789.36 34.0459C790.598 34.0126 789.952 33.4677 791.678 33.5703C791.171 34.2654 791.159 34.0051 791.746 34.6875C793.224 34.7622 793.726 35.1401 795.662 35.0791C797.259 34.527 796.035 33.4576 794.005 33.3115C794.295 32.4659 792.298 32.3163 790.814 32.0176L789.628 31.917L790.017 31.5781C785.777 31.6567 784.476 30.8506 780.632 30.8096ZM335.87 29.8652C333.95 30.0438 331.558 30.5894 329.956 29.8652C327.624 32.0222 328.273 30.7315 323.191 30.2295C324.752 32.7758 319.475 30.4871 317.271 31.6855C317.426 33.2145 320.488 33.891 322.34 32.7783C323.894 33.4058 324.881 34.4865 322.34 34.9619H328.267C327.611 33.7071 328.733 33.2253 331.653 33.5059C331.707 32.872 331.457 32.3761 330.802 32.0488C333.112 32.0825 332.504 31.4447 334.188 32.0488C334.668 31.2897 336.283 31.0082 335.87 29.8652ZM297.402 34.5361C293.314 34.1659 288.982 33.4074 284.845 34.1602L293.501 34.4199C293.646 34.7009 294.147 34.8673 294.98 34.9414C294.961 34.7181 295.574 34.6736 295.727 34.4854L297.402 34.5361ZM624.249 33.3799C621.235 33.3747 618.876 33.5463 619.649 34.5596C620.569 34.74 621.75 34.8259 623.559 34.7305C624.425 34.4552 624.395 33.9344 624.249 33.3799ZM777.607 32.6406C774.795 32.6159 774.64 33.3082 772.204 33.3887C772.187 33.692 772.594 33.8702 773.021 34.0449L774.438 33.916L769.553 34.7314C771.149 34.4384 773.936 34.6006 774.438 33.916L775.367 34.2373C777.233 34.0093 777.37 33.3103 777.607 32.6406ZM1038.53 34.0225C1038.5 34.1594 1038.43 34.289 1037.77 34.2559C1037.88 34.5279 1038.03 34.7828 1039.35 34.6816C1039.21 34.4206 1039.46 34.0439 1038.53 34.0225ZM1120.28 33.8047C1120.42 34.3766 1121.47 34.6565 1123.44 34.6611C1123.42 34.361 1123.41 34.0677 1123.39 33.7676C1122.35 33.7741 1121.32 33.7917 1120.28 33.8047ZM275.85 33.5059V34.5986C277.775 34.7006 279.02 34.51 279.236 33.8691C277.635 33.9549 277.364 33.4598 275.85 33.5059ZM939.529 33.8691C937.603 33.7671 936.346 33.9609 936.143 34.5986C937.643 34.5128 940.386 34.965 939.529 33.8691ZM751.945 33.2148C751.954 33.3594 751.964 33.5075 751.972 33.6592C752.75 33.6501 753.534 33.637 754.305 33.624C754.296 33.4802 754.287 33.3281 754.279 33.1836C753.513 33.1934 752.729 33.2025 751.945 33.2148ZM354.468 33.1426C355.347 31.9202 351.846 32.5773 350.244 32.4189C349.65 33.6705 353.211 33.7199 354.468 33.1426ZM1042.38 33.2998C1042.21 32.6769 1040.98 32.3596 1038.45 32.4531C1037.96 33.2862 1039.73 33.429 1042.38 33.2998ZM1127.92 31.5137C1126.92 32.0228 1125.46 32.4181 1125.83 33.1738L1127.92 31.5137ZM271.627 30.5957C268.41 30.9159 270.045 33.4258 273.317 33.1426C273.451 31.9501 275.27 30.7906 271.627 30.5957ZM647.773 31.5479C646.939 32.0701 645.841 32.5999 646.315 33.0176L647.773 31.5479ZM771.319 31.6074C770.412 31.4308 769.226 31.3416 767.411 31.4404L767.049 31.7764L765.875 31.6826C765.493 32.477 766.598 32.8226 768.282 32.9902C769.573 32.5999 771.404 32.3674 771.319 31.6074ZM191.3 30.959C187.785 29.6251 184.23 32.4986 188.765 32.7793C189.529 32.1317 190.813 31.7156 191.3 30.959ZM358.705 31.6855C359.158 32.2142 355.407 32.5747 357.86 32.7793C357.752 32.4058 361.503 32.0388 358.705 31.6855ZM749.552 32.1289C749.568 32.2805 749.576 32.4214 749.578 32.5801C750.099 32.5645 750.612 32.5603 751.134 32.5518C751.125 32.4002 751.115 32.2519 751.114 32.1074C750.594 32.1159 750.073 32.1244 749.552 32.1289ZM165.09 27.6865C164.002 27.6598 163.915 27.214 162.563 27.3164L162.982 27.8643L161.712 28.0469V28.4131C159.103 28.1585 160.09 28.1585 157.488 28.4131C157.523 29.6054 158.914 30.2231 158.333 31.6855C161.719 31.6991 166.516 32.9935 168.477 32.4189C165.685 32.2077 169.537 30.0613 167.632 30.2295C164.577 31.818 162.914 28.416 165.09 27.6865ZM1526.65 32.3193C1526.85 32.0037 1526.11 31.4492 1525.85 31.876C1525.67 32.1884 1526.39 32.7464 1526.65 32.3193ZM898.244 31.6729C898.253 31.8245 898.262 31.9724 898.264 32.124C898.799 32.1117 899.305 32.1029 899.826 32.1016C899.818 31.95 899.808 31.8023 899.807 31.6514C899.28 31.6598 898.764 31.6651 898.244 31.6729ZM508.123 31.374C505.834 31.0843 505.915 32.4113 508.164 32.043C508.15 31.8261 508.144 31.5942 508.123 31.374ZM983.789 31.6064C985.465 32.1738 986.911 31.8737 988.344 31.501L983.789 31.6064ZM1271.2 31.3096C1271.21 31.458 1271.21 31.6052 1271.22 31.7568C1271.74 31.7483 1272.26 31.7366 1272.78 31.7314C1272.79 31.5839 1272.77 31.4357 1272.76 31.2842C1272.23 31.2933 1271.72 31.3012 1271.2 31.3096ZM591.379 30.4688C590.281 31.0129 589.771 30.913 590.676 31.6025C592.739 31.5753 595.113 31.454 596.141 31.7441C596.373 30.764 593.582 30.7033 591.379 30.4688ZM1556.83 28.7773C1554.92 27.6816 1558.26 24.9957 1551.19 25.4932C1550.97 26.0147 1551.36 26.3477 1552.03 26.6016C1548.98 26.6607 1548.48 27.4068 1546.65 27.7979L1546.66 28.0186L1545.88 28.0205C1548.59 29.0922 1548.04 31.153 1552.32 31.7441C1553.23 30.5946 1555.02 29.6821 1556.83 28.7773ZM895.885 31.2559C895.363 31.2643 894.849 31.2793 894.322 31.2734C894.337 31.4252 894.353 31.5784 894.356 31.7295C894.869 31.7211 895.39 31.7125 895.91 31.7041C895.908 31.5518 895.9 31.4004 895.885 31.2559ZM182.852 29.5029C180.743 29.4504 179.337 29.6879 178.621 30.2295C181.662 30.2555 180.96 31.8901 184.535 31.6855C186.407 30.8868 183.055 30.4737 182.852 29.5029ZM236.958 30.2295C235.626 30.7744 236.011 31.8577 238.647 31.6855C238.606 31.1836 239.052 30.8867 239.492 30.5957C238.336 30.6087 237.64 30.4211 236.958 30.2295ZM231.888 30.2295C231.442 30.7678 230.631 31.1472 230.185 31.6855H233.571C233.808 30.8601 233.375 30.3191 231.888 30.2295ZM1216.62 30.0381C1211.78 29.9757 1209.38 30.5799 1208.14 31.4951C1211.39 31.9075 1217.37 31.4083 1216.62 30.0381ZM992.154 30.8604C990.789 30.7942 989.567 31.1704 988.344 31.501L995.331 31.3193C994.148 31.3161 992.649 31.4777 992.154 30.8604ZM781.162 26.5518C777.555 27.1182 776.076 25.077 770.207 25.5771C769.568 26.9976 773.83 26.4719 771.863 27.3525C772.928 27.8847 774.189 26.913 774.987 27.5254C771.28 28.9179 763.621 26.965 761.84 29.0557L763.016 29.2939L762.644 29.708C765.378 30.0464 761.88 31.2677 765.862 31.4502L766.238 31.1152L767.404 31.208C766.492 29.6147 772.905 29.734 775.047 28.6455C777.793 29.0132 779.273 27.9532 782.831 28.543L782.531 28.1455L783.56 27.8574C785.012 27.0721 779.745 27.0967 781.162 26.5518ZM801.628 30.5215C799.441 30.1961 799.527 31.5197 800.904 31.4307C800.7 31.0094 801.744 30.9274 801.628 30.5215ZM1003.29 30.2461C1003.06 30.7707 1003.46 31.108 1004.13 31.3574C1004.91 31.3411 1005.69 31.3352 1006.45 31.3223C1007 30.4795 1005.52 30.2422 1003.29 30.2461ZM774.411 31.1113C774.899 30.5939 771.343 30.6754 772.084 31.1455C772.336 31.3283 774.158 31.386 774.411 31.1113ZM439.013 30.2295C436.985 31.1043 441.797 31.1705 441.56 30.5957C441.567 30.6223 438.696 30.3711 439.013 30.2295ZM744.028 30.8545C745.207 30.2912 741.351 30.2332 741.682 30.6621C742.681 30.6667 742.768 30.9336 744.028 30.8545ZM795.379 30.1611C795.393 30.3819 794.762 30.4366 794.636 30.6152C795.623 30.623 795.715 30.8947 796.975 30.8115C796.96 30.5916 796.949 30.3597 796.942 30.1396C796.421 30.1513 795.894 30.1565 795.379 30.1611ZM569.524 29.4238C566.543 28.5665 563.639 29.5882 560.956 29.3193C559.917 30.7748 564.141 30.6131 567.265 30.7969C568.331 30.4222 569.993 30.2097 569.524 29.4238ZM598.358 29.9268C598.723 30.3534 598.706 30.8884 600.758 30.7852C600.555 30.3708 601.599 30.2885 601.482 29.8828C600.442 29.8997 599.406 29.9131 598.358 29.9268ZM1122.4 30.1934C1121.27 29.9639 1120.5 29.9766 1120.1 30.4551C1121.16 30.424 1121.8 30.5362 1122.43 30.6406C1122.43 30.493 1122.42 30.341 1122.4 30.1934ZM1416.9 30.6357C1416.05 30.2928 1414.69 30.1031 1413.61 29.8232L1416.9 30.6357ZM770.455 30.0576C770.464 30.2022 770.472 30.3471 770.482 30.502C771.004 30.4897 771.517 30.4818 772.037 30.4805C772.035 30.3288 772.026 30.1807 772.01 30.0322C771.496 30.0413 770.976 30.0421 770.455 30.0576ZM754.915 30.4922C755.933 29.4809 751.274 29.3259 751.784 30.3008C753.252 30.2339 753.514 30.5305 754.915 30.4922ZM1218.17 29.7881C1218.19 30.012 1218.2 30.2431 1218.21 30.46C1218.72 30.4554 1219.24 30.4508 1219.76 30.4385C1219.79 30.1535 1220.73 30.1172 1220.51 29.7568C1219.72 29.7692 1218.94 29.7784 1218.17 29.7881ZM586.632 28.9688C583.149 28.8357 582.327 29.4258 582.026 30.1523C583.804 30.5992 587.168 30.2394 587.443 29.625L586.268 29.3848L586.632 28.9688ZM1404.88 26.8076C1402.9 28.5885 1410.06 29.4295 1413.64 30.2686L1413.61 29.8232L1415.16 29.8047C1412.14 28.6797 1409.74 27.3656 1404.88 26.8076ZM312.203 30.2295C312.203 28.9214 309.244 28.4262 307.979 29.5029C310.574 29.2322 309.608 30.5003 312.203 30.2295ZM1201.84 30.2422C1202.94 29.8895 1202.94 29.3548 1200.24 29.584C1200.24 29.9703 1200.88 30.1552 1201.84 30.2422ZM231.888 28.0469C230.564 28.7737 227.699 29.8956 231.888 30.2295C232.551 29.9781 233.768 28.1989 231.888 28.0469ZM659.069 29.3311C659.834 29.7376 656.774 30.1077 659.116 30.2246C659.337 30.0824 661.002 29.3383 659.069 29.3311ZM761.057 29.0615C758.522 29.0402 757.329 29.3772 757.215 30.0078C758.227 30.3013 761.896 30.3396 761.874 29.7246L760.685 29.4727L761.057 29.0615ZM469.88 29.8789C470.203 29.1823 468.19 29.1883 465.95 29.2637C465.975 29.5643 465.992 29.8605 466.01 30.1533C467.813 30.2098 468.987 30.0855 469.88 29.8789ZM801.69 24.8193L801.288 24.4824C796.366 25.3619 792.591 26.5437 788.22 27.5713C789.482 27.3978 789.554 28.6129 788.266 28.4688L788.669 28.5742L789.059 28.6797C789.155 29.0674 788.928 29.3787 788.341 29.582C790.786 29.443 791.401 29.8635 793.021 29.9648C792.982 29.4401 794.339 29.2894 793.738 28.6211C797.482 28.4574 799.481 27.8155 799.061 26.5283C801.551 26.2419 803.209 25.7325 802.856 24.6875L801.69 24.8193ZM731.445 28.5693C731.454 28.9415 731.476 29.3145 731.498 29.6865C732.282 29.6774 733.06 29.6605 733.838 29.6553C733.713 29.0902 733.63 28.5077 731.445 28.5693ZM1108.33 28.8184C1107.4 28.6489 1106.22 28.5555 1104.42 28.6543C1103.24 30.0832 1108.57 29.8979 1108.33 28.8184ZM18.8311 25.4961C17.6892 25.856 17.142 26.4705 16.29 26.9531L17.5605 27.1348L17.1416 27.6875C18.5472 28.1727 17.7771 29.5919 20.5205 29.5029C23.5485 28.8319 24.6564 25.2487 18.8311 25.4961ZM336.722 27.3164C333.559 27.9736 331.917 27.0266 329.957 28.0469C329.816 28.9578 331.254 29.1861 332.504 29.5029C333.423 28.5683 337.364 28.9278 336.722 27.3164ZM438.174 27.6865C437.39 28.0891 436.606 27.8021 433.951 28.0469C434.065 28.7234 434.511 29.262 435.633 29.5029C435.998 28.8917 440.594 28.2906 438.174 27.6865ZM597.38 26.3672C593.918 26.3782 594.666 27.5395 592.802 27.9844L593.99 28.2363L593.626 28.6553C595.612 28.6488 596.365 29.0256 597.547 29.2666C599.735 29.1178 600.823 28.6791 602.964 28.5225C603.624 27.2618 600.288 27.2164 598.184 26.7949L597.012 26.7021L597.38 26.3672ZM796.861 28.8008C796.877 28.9486 796.873 29.0967 796.888 29.2451C797.402 29.2366 797.924 29.2321 798.45 29.2275C798.442 29.072 798.433 28.9238 798.417 28.7754C797.897 28.7805 797.376 28.7885 796.861 28.8008ZM344.331 29.1396C343.81 28.39 345.696 26.6096 342.641 26.9531C342.655 27.917 342.168 29.1 344.331 29.1396ZM559.376 28.8896C559.53 28.0816 559.483 27.3443 556.184 27.5957C554.128 28.288 556.724 28.9429 559.376 28.8896ZM1108.27 27.9219C1108.08 28.5162 1108.61 28.8872 1110.66 28.7871C1110.3 28.3643 1110.32 27.8297 1108.27 27.9219ZM1355.88 27.9238C1353.6 27.6225 1353.68 28.9532 1355.92 28.5889C1355.91 28.372 1355.89 28.1439 1355.88 27.9238ZM1379.2 27.1553C1374.81 27.2573 1378.19 28.3512 1380.05 28.4883C1380.58 27.7927 1378.67 27.8464 1379.2 27.1553ZM472.044 26.7246C468.304 26.3712 463.021 26.928 463.577 28.3984C469.014 28.5472 470.877 27.7299 472.044 26.7246ZM416.045 27.9258C416.062 28.0775 416.063 28.2252 416.073 28.377C416.851 28.364 417.628 28.3548 418.412 28.3457C418.404 28.194 418.395 28.0421 418.378 27.8975C417.607 27.9033 416.83 27.9161 416.045 27.9258ZM1307.36 26.0078L1305.94 25.9189C1306.17 26.5613 1304.21 26.6262 1304.46 27.2725C1306.87 27.3719 1306.57 28.3011 1309.18 28.3311C1308.23 27.0412 1313.14 26.1431 1308.26 25.6533L1307.36 26.0078ZM519.607 27.8662C518.809 27.7051 516.66 26.8282 515.694 27.4668C516.598 27.4948 516.555 27.8124 516.497 28.1299C517.668 28.078 519.382 28.1741 519.607 27.8662ZM694.004 27.5107C693.677 28.2083 696.141 28.3221 696.344 27.7031C695.281 27.7232 694.629 27.6191 694.004 27.5107ZM655.451 27.6123C654.708 27.6324 653.944 27.6393 653.344 27.791C653.199 27.8979 652.987 27.9822 652.775 28.0664L655.451 27.6123ZM636.356 27.1719C636.179 27.6895 636.601 28.013 637.979 28.0508C637.914 27.739 638.305 27.5517 638.71 27.3652C637.641 27.3964 637.002 27.2874 636.356 27.1719ZM162.982 27.8643C161.955 27.0388 160.455 26.3592 159.09 25.6357L162.982 27.8643ZM660.384 25.0566C656.502 24.8897 655.101 25.3974 654.209 26.0371C655.582 26.2229 656.941 26.416 656.616 27.1201L657.775 27.2197L658.191 27.543C659.822 26.6042 660.016 27.7808 662.87 27.708C663.246 26.9287 664.889 26.4883 665.09 25.6699C662.383 25.52 662.118 26.0366 659.66 25.9619C659.463 25.5414 660.499 25.459 660.384 25.0566ZM655.451 27.6123C656.385 27.587 657.278 27.5569 657.775 27.2197L655.451 27.6123ZM738.323 26.4609C735.892 26.3901 734.575 26.7941 736.031 27.165L737.203 27.2578L736.841 27.6006C738.754 27.6006 740.593 27.5889 741.486 27.3135C741.51 27.0065 741.097 26.8289 740.676 26.6582L739.253 26.7822L738.323 26.4609ZM708.751 26.6406C707.757 26.4419 703.927 26.8061 703.341 27.3848C705.607 27.1542 705.721 27.1523 708.001 27.3193C707.956 27.0114 708.34 26.827 708.751 26.6406ZM476.751 27.3301C477.404 26.2864 473.112 25.8868 472.828 26.9346C473.507 27.2607 475.361 27.221 476.751 27.3301ZM15.4375 27.3164C15.8234 27.3657 16.6827 27.2638 17.5605 27.1348L15.4375 27.3164ZM729.722 25.6836C729.503 26.216 727.046 26.1372 727.443 26.8281C729.94 26.5244 728.09 27.548 730.581 27.2324C731.631 26.9232 731.981 25.6556 729.722 25.6836ZM1290.36 26.125C1290.44 26.5341 1286.43 26.9366 1288.88 27.2607C1288.87 26.8666 1293.21 26.5547 1290.36 26.125ZM504.746 26.7266C504.27 26.5989 501.031 26.2519 500.857 26.7764C501.334 26.8977 504.574 27.2479 504.746 26.7266ZM27.2783 26.9531C28.643 25.9426 23.6359 25.9524 23.9062 26.5869C25.0479 26.7059 25.5213 27.1083 27.2783 26.9531ZM85.6221 26.9531C86.5869 26.2101 84.291 25.2196 83.9258 26.2266C85.047 26.2299 84.7034 26.8634 85.6221 26.9531ZM1426.67 26.7344C1427.02 26.1499 1423.85 25.5034 1422.74 26.1191C1424.59 26.1621 1424.24 26.8733 1426.67 26.7344ZM717.172 26.5869C717.179 26.5992 717.182 26.6029 717.189 26.6152C717.168 26.5797 717.148 26.5444 717.13 26.5146C717.148 26.5437 717.146 26.5409 717.172 26.5869ZM231.889 26.5869H234.416V25.8633H231.889V26.5869ZM574.723 24.8799C572.993 24.6506 571.513 24.3441 568.474 24.5117C569.157 25.1378 567.416 25.1074 567.757 25.6416C568.727 26.8412 576.75 26.8147 574.723 24.8799ZM510.928 25.7432C511.011 26.0984 510.864 26.522 512.51 26.3896C512.507 26.2449 512.498 26.0966 512.49 25.9414C511.712 25.9544 511.562 25.7796 510.928 25.7432ZM716.382 23.8477C712.468 23.3989 707.833 24.0253 707.896 25.3086C709.128 25.6118 710.629 25.8353 711.065 26.3828C715.741 26.4295 717.927 25.6688 717.984 24.9434C718.04 24.5604 714.158 24.3137 716.382 23.8477ZM530.375 25.4805C529.379 25.7942 529.39 26.3292 531.2 26.3643C532.197 26.0499 531.64 25.6864 530.375 25.4805ZM1419.61 25.9385C1419.04 24.7792 1417.11 24.9201 1413.35 25.1299L1413.75 25.4521L1412.59 25.584C1413.94 25.9932 1417.43 26.4958 1419.61 25.9385ZM469.65 25.6299C468.3 25.6396 467.671 25.8347 467.337 26.1123C468.669 26.1025 469.331 25.9113 469.65 25.6299ZM790.748 24.0654L789.576 23.9766C789.743 24.676 787.558 24.7487 788.114 25.5605C790.492 25.3567 789.637 26.1527 792.015 25.96C791.184 25.4767 796.181 23.9111 791.123 23.7266L790.748 24.0654ZM614.482 25.6787C616.676 25.3066 612.892 24.6311 612.116 25.2695C613.652 25.1748 613.668 25.543 614.482 25.6787ZM31.5156 25.4961H33.1982V24.0371H31.5156V25.4961ZM1016.04 25.3154C1015.12 24.9327 1014.04 24.5465 1012.67 24.2266L1016.04 25.3154ZM1328.38 23.374C1327.67 24.7964 1330.13 25.259 1333.94 25.3096C1334.55 23.9039 1332.48 23.3227 1328.38 23.374ZM331.698 23.2568C328.624 23.2756 328.304 24.8263 329.459 25.3018C330.25 25.2894 331.021 25.2767 331.806 25.2637C332.37 24.7356 333.254 23.7005 331.698 23.2568ZM507.751 24.6699C507.753 24.8105 507.761 24.9698 507.784 25.1143C508.291 25.1059 508.812 25.1037 509.332 25.0947C509.316 24.9508 509.315 24.7959 509.305 24.6475C508.784 24.6559 508.271 24.6576 507.751 24.6699ZM1041.91 24.7939C1041.82 24.1465 1041.55 23.5402 1038.74 23.7246C1038.51 24.25 1038.9 24.5797 1039.57 24.833C1040.35 24.8206 1041.13 24.8101 1041.91 24.7939ZM1428.01 23.1357C1426.72 23.5152 1427.38 24.3 1428.87 24.4688C1430.18 24.0894 1429.53 23.3046 1428.01 23.1357ZM324.036 23.6807C322.407 23.2416 319.751 22.2898 318.123 22.9502C317.974 23.8621 320.015 23.8328 320.65 24.4102C320.055 23.4197 324.638 24.6678 324.036 23.6807ZM340.101 23.3145C339.275 23.0002 334.775 23.1656 333.343 23.6807C334.938 24.0833 337.337 24.1393 339.263 24.4102C339.222 23.9052 339.654 23.6046 340.101 23.3145ZM663.461 24.3506C663.656 23.7525 662.34 23.6288 660.31 23.7217C659.57 24.4724 661.431 24.4324 663.461 24.3506ZM1418.72 23.7129C1418.2 23.7252 1417.68 23.7262 1417.16 23.7275C1417.17 23.8792 1417.18 24.0241 1417.19 24.1758C1417.7 24.1674 1418.22 24.1662 1418.74 24.1572C1418.74 24.0132 1418.73 23.8646 1418.72 23.7129ZM17.1416 21.8574C16.7905 22.7354 18.6823 22.6539 17.9795 23.6807C20.5607 23.6968 22.2842 23.3433 23.0615 22.584C21.9334 21.98 18.2636 22.4619 17.1416 21.8574ZM462.419 21.707C464.77 21.0901 458.181 20.4293 456.15 21.1143C456.464 22.5712 463.476 24.8918 466.374 22.7705C464.868 22.2619 465.027 22.1487 462.419 21.707ZM689.835 22.6416C689.465 22.1464 686.004 22.6088 684.385 22.4932C684.403 22.7932 684.421 23.0864 684.432 23.3896C686.995 23.3467 689.941 23.4055 689.835 22.6416ZM656.779 16.3818C651.985 16.6741 647.533 16.5767 642.003 16.8066C645.992 17.9075 642.482 19.5005 642.982 20.1494C646.648 18.7674 650.76 20.6643 651.63 21.5918C652.922 21.5808 654.22 21.5635 655.525 21.542C656.711 22.3149 658.973 23.7143 661.846 23.248C659.711 21.6698 662.673 21.0603 665.562 20.2842C664.961 20.2452 664.66 20.114 664.763 19.8516C665.027 19.8477 665.277 19.8467 665.541 19.8428L665.132 19.5156L665.502 19.1699C663.603 18.6783 664.272 18.469 664.637 17.6172C663.697 17.3717 661.873 17.4005 659.957 17.459C658.885 17.6129 659.897 18.3146 658.456 18.3711C658.181 17.6164 657.969 16.8508 656.779 16.3818ZM420.415 21.1299C418.333 20.672 416.096 19.5097 414.508 20.7646L414.927 21.3125L414.508 21.8574C416.467 22.1055 416.765 23.0691 418.725 23.3135C419.144 22.8841 419.638 22.4883 420.415 22.2207L419.996 21.6758L420.415 21.1299ZM440.578 21.9863C438.265 21.162 435.592 20.182 433.093 21.4941L433.525 22.1602L432.248 22.584C434.958 23.0035 441.406 23.5608 442.405 22.584C442.031 22.4846 441.635 22.3551 441.23 22.2148C442.246 22.2965 444.007 22.0211 443.728 21.7393C441.605 21.7439 442.181 22.1264 440.625 21.7764C440.549 21.862 440.555 21.9266 440.578 21.9863ZM1448.19 21.7471C1448 22.258 1448.43 22.5804 1449.8 22.6143C1450.03 22.3136 1450.88 22.1748 1450.53 21.7119C1449.75 21.7209 1448.97 21.7341 1448.19 21.7471ZM1423.25 21.1875C1421.56 20.8433 1417.4 21.2444 1417.85 22.1602C1420.75 22.1355 1422.28 21.737 1423.25 21.1875ZM699.878 21.1592L699.1 21.1797C698.908 21.6899 699.337 22.0176 700.716 22.0508C702.386 21.5604 702.262 21.1866 699.865 20.9424L699.878 21.1592ZM825.161 19.9111C823.889 19.485 824.899 18.5494 822.009 19.0586C821.158 19.497 820.112 19.8719 819.75 20.4277C822.757 20.8811 825.803 22.5132 830.71 21.6221C827.562 21.8033 829.178 20.6655 828.311 20.3193C827.836 20.1259 825.695 20.0832 825.161 19.9111ZM6.99023 21.4941H11.2207C11.3427 20.3517 9.05148 20.2456 6.99023 20.0371V21.4941ZM368.055 19.1826C363.65 20.8421 371.297 22.5404 374.376 20.6641C373.035 20.312 373.332 19.4631 371.957 19.126C370.652 19.1507 369.36 19.1573 368.055 19.1826ZM29.8193 17.1279L30.2383 17.667L28.9814 17.8555C28.9683 18.2214 29.6572 18.2844 29.8193 18.585C26.7311 18.9512 23.6289 19.3112 23.0605 20.7646C27.0885 21.3225 38.8541 22.1524 42.4971 20.4053L41.2393 19.9785L41.6602 19.3047C38.0919 17.6991 34.4348 17.0649 29.8193 17.1279ZM440.709 20.7637H442.405V20.0371H440.709V20.7637ZM621.92 19.5371L621.551 19.876L620.392 20C619.841 20.5073 623.303 20.8863 623.521 20.4121L622.733 20.1211L622.71 19.752C622.66 19.6176 622.575 19.4872 621.92 19.5371ZM1350.77 20.1533C1351.33 19.3791 1350.27 19.0921 1347.61 19.3076C1347.63 19.6042 1347.64 19.9036 1347.66 20.2041C1348.7 20.1873 1349.73 20.1708 1350.77 20.1533ZM424.119 19.0947C423.793 19.7994 425.139 19.9877 426.513 20.1768C426.217 19.6606 425.664 19.2233 424.119 19.0947ZM148.189 20.0381C149.492 18.9413 143.817 19.0773 143.952 19.6748C144.939 19.9788 146.223 20.1531 148.189 20.0381ZM621.493 18.8887C621.443 19.1809 621.033 19.5669 621.551 19.876L621.493 18.8887ZM14.5996 19.6748H16.29V18.9443H14.5996V19.6748ZM819.651 18.6416C818.285 18.6481 817.235 18.7297 816.546 18.9062C816.338 19.4999 817.666 19.6242 819.704 19.5352C819.679 19.2391 819.662 18.9384 819.651 18.6416ZM1422.71 18.6211L1422.71 18.623L1421.55 18.7402C1421.82 19.0033 1424.98 19.4734 1425.45 18.918C1423.94 18.8537 1424.79 18.0542 1422.3 18.2939L1422.71 18.6211C1421.57 18.3636 1420.88 18.3418 1419.57 18.2188L1422.71 18.6211ZM679.119 18.9844C679.737 18.9203 680.348 18.8323 681.435 18.6172L679.119 18.9844ZM1566.38 18.7959C1567.6 18.1635 1562.98 18.2259 1563.26 18.6191C1564.86 18.7172 1564.82 19.2661 1566.38 18.7959ZM458.896 18.7666C459.49 18.7367 460.085 18.6964 460.375 18.6309C461.179 18.1555 460.842 17.5254 461.092 17L458.896 18.7666ZM371.377 17.8545C370.39 17.3953 367.87 17.5614 367.998 18.585C369.346 18.6564 370.334 18.5687 370.892 18.3018C371.134 18.1862 371.318 18.0467 371.377 17.8545ZM123.244 18.584C125.84 18.5542 128.468 18.3168 131.145 18.0762L123.244 18.584ZM110.1 18.0986C109.255 17.442 109.046 16.5831 107.18 16.2129L110.1 18.0986ZM379 17.4873C377.872 17.5438 376.446 16.0055 375.608 17.1279C376.635 17.2072 376.128 17.5305 375.608 17.8545C376.878 17.7922 378.73 17.9829 379 17.4873ZM373.918 16.7617C373.046 16.4941 373.242 14.3466 368.849 14.5752C368.876 15.0773 368.444 15.3816 367.998 15.6719C369.606 15.9791 372.87 17.4219 373.918 16.7617ZM659.556 10.2979C659.453 10.5602 658.194 10.8245 659.589 10.9707C659.686 10.7045 660.943 10.4439 659.556 10.2979Z"/>
	<path class="elementor-shape-fill" d="M260.451 26.6504C260.278 27.2577 259.806 27.7372 258.099 27.6865C259.072 27.8015 261.005 29.2684 258.937 29.5029C258.934 28.7001 258.328 28.0707 257.512 27.5459C258.396 27.3289 259.743 27.0031 260.451 26.6504Z"/>
	<path class="elementor-shape-fill" d="M961.492 22.8965C962.361 22.7731 963.277 22.7124 964.22 22.7598L962.021 23.5381C963.555 23.4706 964.582 23.2133 965.311 22.8828C966.201 23.0023 967.065 23.2107 967.865 23.54C967.865 23.5511 967.867 23.5619 967.867 23.5723C967.896 23.5717 967.925 23.571 967.953 23.5703C968.057 23.6139 968.173 23.6334 968.271 23.6807C967.455 23.6996 967.328 24.0168 967.354 24.4004C966.9 24.3835 966.356 24.3504 965.567 24.2725C964.666 25.202 960.809 25.3379 958.646 25.9277C958.204 26.5159 959.925 26.4313 960.209 26.791C959.072 26.4292 957.585 26.2177 957.283 25.4961C956.98 24.8695 957.515 24.2704 958.455 23.7793C960.235 23.9391 962.531 24.4444 963.2 23.6377L962.021 23.5381L962.402 23.1875C962.042 23.1453 961.744 23.0303 961.492 22.8965Z"/>
	<path class="elementor-shape-fill" d="M941.243 19.4697C941.505 19.5236 941.724 19.5949 941.964 19.6572L941.95 19.6699C943.883 20.989 942.185 23.239 943.766 24.1172C945.522 24.1633 946.955 24.1657 948.261 24.1514C947.689 24.2722 947.213 24.4343 946.295 24.4102C945.871 25.0843 946.574 25.621 947.494 26.1387C946.862 26.0815 946.229 26.0223 945.592 25.9482C945.571 25.8067 945.533 25.6597 945.444 25.4961C942.614 23.9517 938.67 22.8792 936.959 20.8438C937.738 20.8755 938.618 20.8768 939.684 20.8223C939.007 20.1968 940.749 20.2234 940.396 19.6914L939.221 19.5908C939.762 19.607 940.49 19.5555 941.243 19.4697Z"/>
	<path class="elementor-shape-fill" d="M929.516 26.0938L928.682 26.0059L929.32 25.9297C929.388 25.9835 929.447 26.0405 929.516 26.0938Z"/>
	<path class="elementor-shape-fill" d="M924.255 18.8174C925.683 19.2227 927.154 19.6131 926.859 20.7646C926.007 20.7646 925.845 21.0614 925.163 21.1309V21.4932H924.318C925.465 22.4245 926.469 23.4157 927.518 24.3867C925.955 23.9315 924.077 23.5695 923.442 22.8281C921.559 22.7599 921.773 23.26 919.567 23.0977C918.535 22.5943 919.648 22.6837 918.723 21.9971C921.107 21.7964 919.719 22.7558 922.643 22.3916C923.919 22.0598 923.547 21.643 923.486 21.3145C923.832 21.3313 924.18 21.3451 924.508 21.3848L923.47 21.2139C923.488 21.0047 923.749 20.8456 924.882 20.7949C923.767 20.0273 923.223 19.3993 924.255 18.8174Z"/>
	<path class="elementor-shape-fill" fill-rule="evenodd" clip-rule="evenodd" d="M1053.19 17.4834C1054.81 18.1953 1056.55 18.9538 1058.67 18.3076C1059.97 19.1214 1060.26 20.2482 1064.99 20.0059C1066.23 20.899 1068.49 21.4719 1070.58 22.1006C1066.89 22.1396 1063.27 22.4146 1059.87 21.9658C1060.4 21.7302 1060.56 21.3957 1060.38 20.9658C1058.61 20.9223 1057.23 20.9804 1056.4 21.1895C1056.34 21.1662 1056.26 21.1549 1056.2 21.1309C1055.04 21.5642 1054.82 22.2398 1055.11 22.8945C1052.93 22.3703 1051.14 21.7296 1048.89 21.2295C1049.3 21.0535 1049.54 20.8041 1049.44 20.4053C1047.97 20.3371 1046.9 20.4413 1046.39 20.7842C1045.92 20.718 1045.39 20.6672 1044.87 20.6172C1044.78 20.1041 1043.74 19.5207 1046.06 19.3057C1048.24 19.9169 1050.09 19.2156 1053.66 19.6748L1053.25 19.0049L1054.51 18.585C1053.32 18.3596 1052.93 17.9094 1053.19 17.4834ZM1056.37 19.0039C1055.84 19.0194 1055.35 19.0218 1054.81 19.0264C1054.81 19.058 1054.81 19.0862 1054.82 19.1172C1054.83 19.2376 1054.84 19.3558 1054.84 19.4736C1055.36 19.4684 1055.88 19.4605 1056.4 19.4521C1056.39 19.3068 1056.38 19.1589 1056.37 19.0039Z"/>
	<path class="elementor-shape-fill" d="M497.562 16.6387L497.529 16.6357C497.534 16.6249 497.541 16.6152 497.546 16.6045L497.562 16.6387Z"/>
	<path class="elementor-shape-fill" d="M493.93 15.9258C493.955 16.0425 493.949 16.1734 493.958 16.2959C493.72 16.1129 493.321 16.005 493.93 15.9258Z"/>
	<path class="elementor-shape-fill" d="M1446.96 13.4814C1446.97 13.4989 1447.04 13.5031 1447.06 13.5186C1446.84 13.5251 1446.61 13.5349 1446.39 13.5518C1446.6 13.5316 1446.72 13.4963 1446.96 13.4814Z"/>
	<path class="elementor-shape-fill" d="M412.061 12.5449C412.318 12.593 412.666 12.6144 412.973 12.6475C412.877 13.0534 412.233 13.2243 411.478 13.3477L411.324 13.2236C411.36 12.9353 412.307 12.8982 412.061 12.5449Z"/>
	<path class="elementor-shape-fill" d="M464.975 11.8184C466.565 11.73 466.986 11.9982 467.585 12.21C467.47 12.4165 467.317 12.6062 467.094 12.7666L463.466 12.5029C463.545 12.1716 465.427 12.3074 464.975 11.8184Z"/>
</svg>
