<svg viewBox="0 0 1600 9" xmlns="http://www.w3.org/2000/svg">
<path class="elementor-shape-fill" d="M0 8.96939V2.30939L8 5.50939C9.6 5.50939 25.6 0.709392 27.2 5.50939C30.4 0.709392 36.8 10.3094 36.8 5.50939C36.8 11.9094 56 0.709392 56 5.50939C56 0.709392 80 7.10939 83.2 5.50939C86.4 8.70939 91.2 7.10939 92.8 5.50939C92.8 8.70939 102.4 2.30939 102.4 5.50939C102.4 8.70939 105.6 -0.890608 108.8 5.50939C116.8 2.30939 128 10.3094 134.4 5.50939C137.6 8.70939 140.8 10.3094 140.8 5.50939C140.8 2.30939 150.4 7.10939 150.4 5.50939C152 -0.890608 174.4 8.70939 177.6 5.50939H188.8C188.8 3.90939 193.6 10.3094 198.4 5.50939H225.6C228.8 2.30939 230.4 3.90939 235.2 5.50939H244.8C246.4 8.70939 278.4 7.10939 283.2 5.50939C286.4 3.90939 289.6 2.30939 292.8 5.50939C292.8 7.10939 328 -0.890608 331.2 5.50939C331.2 5.50939 339.2 10.3094 339.2 5.50939C342.4 8.70939 355.2 2.30939 358.4 5.50939C361.6 2.30939 368 3.90939 368 5.50939C371.2 0.709392 374.4 8.70939 377.6 5.50939C379.2 5.50939 417.6 8.70939 417.6 3.90939L433.6 5.50939C438.4 3.90939 443.2 -4.09061 444.8 5.50939C446.4 -2.49061 451.2 8.70939 454.4 5.50939C457.6 8.70939 460.8 0.709392 462.4 5.50939H481.6C491.2 3.90939 539.2 2.30939 539.2 5.50939C539.2 2.30939 544 5.50939 548.8 5.50939H558.4C566.4 8.70939 569.6 -0.890608 576 5.50939C579.2 5.50939 600 2.30939 603.2 5.50939H624C628.8 11.9094 632 3.90939 635.2 5.50939H681.6C681.6 10.3094 691.2 5.50939 691.2 5.50939H699.2C699.2 2.30939 724.8 7.10939 728 5.50939C729.6 -0.890608 742.4 7.10939 747.2 5.50939C752 3.90939 756.8 8.70939 756.8 5.50939C769.6 8.70939 761.6 -0.890608 777.6 5.50939H793.6C798.4 -0.890608 824 3.90939 824 5.50939C827.2 5.50939 857.6 3.90939 860.8 7.10939C862.4 0.709391 865.6 8.70939 870.4 5.50939C872 2.30939 888 7.10939 889.6 7.10939C894.4 2.30939 904 7.10939 908.8 5.50939C913.6 11.9094 918.4 3.90939 918.4 5.50939H928C928 10.3094 936 3.90939 937.6 7.10939C937.6 2.30939 940.8 5.50939 944 5.50939C948.8 -0.890608 960 7.10939 964.8 5.50939C969.6 8.70939 974.4 7.10939 974.4 5.50939C977.6 2.30939 977.6 5.50939 984 5.50939C985.6 8.70939 993.6 2.30939 993.6 5.50939C996.8 5.50939 1000 -2.49061 1003.2 5.50939H1032C1035.2 0.709392 1038.4 3.90939 1041.6 5.50939L1051.2 7.10939C1056 3.90939 1070.4 2.30939 1078.4 5.50939C1100.8 0.709392 1107.2 3.90939 1116.8 5.50939C1120 7.10939 1121.6 0.709392 1124.8 5.50939C1134.4 2.30939 1140.8 7.10939 1150.4 5.50939C1152 0.709392 1160 5.50939 1164.8 5.50939C1164.8 8.70939 1169.6 2.30939 1172.8 5.50939C1182.4 15.1094 1185.6 -5.69061 1193.6 5.50939C1193.6 8.70939 1201.6 2.30939 1201.6 5.50939C1206.4 0.709392 1217.6 5.50939 1217.6 5.50939C1219.2 2.30939 1225.6 8.70939 1230.4 5.50939C1235.2 7.10939 1243.2 0.709392 1249.6 5.50939H1259.2C1262.4 3.90939 1275.2 -0.890608 1278.4 5.50939H1288C1289.6 7.10939 1296 2.30939 1297.6 5.50939C1299.2 2.30939 1304 7.10939 1307.2 5.50939C1307.2 8.70939 1315.2 0.709391 1316.8 7.10939C1320 5.50939 1326.4 -0.890608 1324.8 5.50939C1326.4 3.90939 1329.6 8.70939 1334.4 5.50939C1337.6 7.10939 1342.4 0.709392 1344 5.50939C1344 3.90939 1353.6 2.30939 1353.6 5.50939C1356.8 0.709392 1360 11.9094 1363.2 5.50939C1363.2 8.70939 1368 2.30939 1372.8 5.50939C1377.6 5.50939 1382.4 0.709392 1382.4 5.50939C1390.4 0.709392 1395.2 7.10939 1403.2 5.50939C1408 11.9094 1412.8 3.90939 1412.8 5.50939H1420.8C1420.8 7.10939 1435.2 2.30939 1440 5.50939C1441.6 7.10939 1454.4 0.709392 1457.6 5.50939H1467.2C1470.4 2.30939 1473.6 -0.890608 1478.4 5.50939C1483.2 2.30939 1486.4 11.9094 1486.4 7.10939C1502.4 0.709391 1510.4 10.3094 1515.2 3.90939C1515.2 5.50939 1524.8 0.709391 1524.8 7.10939C1524.8 7.10939 1534.4 10.3094 1534.4 5.50939C1536 -4.09061 1553.6 2.30939 1553.6 5.50939C1555.2 0.709392 1560 10.3094 1564.8 2.30939C1568 5.50939 1572.8 -0.890605 1572.8 2.30939C1574.4 -5.69061 1579.2 10.3094 1582.4 2.30939C1585.6 3.90939 1588.8 -0.890605 1592 2.30939C1593.6 -2.49061 1593.6 2.30939 1600 2.30939V8.96939H0Z"/>
</svg>
