<svg viewBox="0 0 1600 9" xmlns="http://www.w3.org/2000/svg">
	<path class="elementor-shape-fill" d="M0 0V6.66L8 3.46C9.6 3.46 25.6 8.26 27.2 3.46C30.4 8.26 36.8 -1.34 36.8 3.46C36.8 -2.94 56 8.26 56 3.46C56 8.26 80 1.86 83.2 3.46C86.4 0.259999 91.2 1.86 92.8 3.46C92.8 0.259999 102.4 6.66 102.4 3.46C102.4 0.259999 105.6 9.86 108.8 3.46C116.8 6.66 128 -1.34 134.4 3.46C137.6 0.259999 140.8 -1.34 140.8 3.46C140.8 6.66 150.4 1.86 150.4 3.46C152 9.86 174.4 0.259999 177.6 3.46H188.8C188.8 5.06 193.6 -1.34 198.4 3.46H225.6C228.8 6.66 230.4 5.06 235.2 3.46H244.8C246.4 0.259999 278.4 1.86 283.2 3.46C286.4 5.06 289.6 6.66 292.8 3.46C292.8 1.86 328 9.86 331.2 3.46C331.2 3.46 339.2 -1.34 339.2 3.46C342.4 0.259999 355.2 6.66 358.4 3.46C361.6 6.66 368 5.06 368 3.46C371.2 8.26 374.4 0.259999 377.6 3.46C379.2 3.46 417.6 0.259997 417.6 5.06L433.6 3.46C438.4 5.06 443.2 13.06 444.8 3.46C446.4 11.46 451.2 0.259999 454.4 3.46C457.6 0.259999 460.8 8.26 462.4 3.46H481.6C491.2 5.06 539.2 6.66 539.2 3.46C539.2 6.66 544 3.46 548.8 3.46H558.4C566.4 0.259999 569.6 9.86 576 3.46C579.2 3.46 600 6.66 603.2 3.46H624C628.8 -2.94 632 5.06 635.2 3.46H681.6C681.6 -1.34 691.2 3.46 691.2 3.46H699.2C699.2 6.66 724.8 1.86 728 3.46C729.6 9.86 742.4 1.86 747.2 3.46C752 5.06 756.8 0.259999 756.8 3.46C769.6 0.259999 761.6 9.86 777.6 3.46H793.6C798.4 9.86 824 5.06 824 3.46C827.2 3.46 857.6 5.06 860.8 1.86C862.4 8.26 865.6 0.259999 870.4 3.46C872 6.66 888 1.86 889.6 1.86C894.4 6.66 904 1.86 908.8 3.46C913.6 -2.94 918.4 5.06 918.4 3.46H928C928 -1.34 936 5.06 937.6 1.86C937.6 6.66 940.8 3.46 944 3.46C948.8 9.86 960 1.86 964.8 3.46C969.6 0.259999 974.4 1.86 974.4 3.46C977.6 6.66 977.6 3.46 984 3.46C985.6 0.259999 993.6 6.66 993.6 3.46C996.8 3.46 1000 11.46 1003.2 3.46H1032C1035.2 8.26 1038.4 5.06 1041.6 3.46L1051.2 1.86C1056 5.06 1070.4 6.66 1078.4 3.46C1100.8 8.26 1107.2 5.06 1116.8 3.46C1120 1.86 1121.6 8.26 1124.8 3.46C1134.4 6.66 1140.8 1.86 1150.4 3.46C1152 8.26 1160 3.46 1164.8 3.46C1164.8 0.259999 1169.6 6.66 1172.8 3.46C1182.4 -6.14 1185.6 14.66 1193.6 3.46C1193.6 0.259999 1201.6 6.66 1201.6 3.46C1206.4 8.26 1217.6 3.46 1217.6 3.46C1219.2 6.66 1225.6 0.259999 1230.4 3.46C1235.2 1.86 1243.2 8.26 1249.6 3.46H1259.2C1262.4 5.06 1275.2 9.86 1278.4 3.46H1288C1289.6 1.86 1296 6.66 1297.6 3.46C1299.2 6.66 1304 1.86 1307.2 3.46C1307.2 0.259999 1315.2 8.26 1316.8 1.86C1320 3.46 1326.4 9.86 1324.8 3.46C1326.4 5.06 1329.6 0.259999 1334.4 3.46C1337.6 1.86 1342.4 8.26 1344 3.46C1344 5.06 1353.6 6.66 1353.6 3.46C1356.8 8.26 1360 -2.94 1363.2 3.46C1363.2 0.259999 1368 6.66 1372.8 3.46C1377.6 3.46 1382.4 8.26 1382.4 3.46C1390.4 8.26 1395.2 1.86 1403.2 3.46C1408 -2.94 1412.8 5.06 1412.8 3.46H1420.8C1420.8 1.86 1435.2 6.66 1440 3.46C1441.6 1.86 1454.4 8.26 1457.6 3.46H1467.2C1470.4 6.66 1473.6 9.86 1478.4 3.46C1483.2 6.66 1486.4 -2.94 1486.4 1.86C1502.4 8.26 1510.4 -1.34 1515.2 5.06C1515.2 3.46 1524.8 8.26 1524.8 1.86C1524.8 1.86 1534.4 -1.34 1534.4 3.46C1536 13.06 1553.6 6.66 1553.6 3.46C1555.2 8.26 1560 -1.34 1564.8 6.66C1568 3.46 1572.8 9.86 1572.8 6.66C1574.4 14.66 1579.2 -1.34 1582.4 6.66C1585.6 5.06 1588.8 9.86 1592 6.66C1593.6 11.46 1593.6 6.66 1600 6.66V0H0Z"/>
</svg>
