<svg viewBox="0 0 1600 46" xmlns="http://www.w3.org/2000/svg">
<path class="elementor-shape-fill" d="M493.791 44.4697C493.934 45.0701 495.568 45.6287 493.791 46C493.649 45.3969 492.02 44.8437 493.791 44.4697ZM1600 10.8135C1599.53 10.7598 1599.06 10.7158 1598.62 10.7021C1596.06 10.6349 1593.81 10.7667 1593.52 9.94043C1593.61 9.71147 1593.81 9.51795 1594.04 9.33105C1593.41 9.32395 1592.68 9.35297 1591.97 9.22168C1591.86 9.20088 1591.78 9.16423 1591.68 9.13965C1591.46 9.54513 1591.48 10.0266 1590.74 10.2529C1588.07 10.1669 1586.23 9.8011 1584.24 9.49121C1583.05 9.71181 1583.07 10.3345 1580.53 10.1113C1580.53 9.80664 1580.53 9.49083 1580.52 9.18164C1580.99 9.18164 1581.45 9.18229 1581.92 9.17969C1581.4 8.60519 1580.62 8.29578 1579.73 8.07129C1579.14 8.13145 1578.52 7.99488 1578.23 7.78418C1577 7.64438 1575.6 7.58799 1574.01 7.49609C1574.34 8.28479 1575.05 8.1133 1574.94 8.41992C1575.09 7.99932 1572.92 8.60261 1574.48 8.88281C1573.66 8.86661 1573.51 9.07922 1572.63 9.04492C1571.68 8.81975 1570.81 8.56648 1569.95 8.31152C1569.86 8.36397 1569.79 8.428 1569.7 8.47656C1569.62 8.19905 1568.63 8.3717 1568.24 8.25293C1568.64 8.51415 1567.96 8.65679 1568.1 9.09863C1568.44 9.39745 1569.58 9.31181 1570.02 9.55957L1569.55 9.63672C1570.16 9.7286 1570.88 9.75285 1571.14 10.0977L1571.29 9.86816C1571.85 9.89735 1572.12 9.59873 1572.25 9.86816C1571.98 9.83587 1571.96 9.92503 1571.94 10.0195L1571.78 10.251L1571.94 10.4824C1571.61 10.5821 1571.61 10.8388 1570.99 10.793L1571.15 10.5664L1570.13 10.8926C1569.95 10.9895 1569.76 11.0804 1569.5 11.1377L1569.72 11.1025C1569.33 11.7248 1570.56 12.2344 1569.4 12.3418C1569.56 12.0131 1568.95 12.0452 1568.46 12.0342C1568.21 12.3789 1569.92 12.522 1568.78 12.8047C1568.83 12.4201 1568.28 12.323 1567.81 12.1885C1566.79 13.1149 1569.19 13.2582 1570.05 13.7324C1569.62 14.3185 1568.87 13.6327 1568.14 13.7324C1567.52 13.8237 1567.66 14.1714 1566.87 14.2012C1565.82 14.2335 1564.76 14.0714 1564.01 14.0469C1564.32 14.5292 1565.23 14.5991 1565.6 14.6611C1563.89 15.087 1563.58 16.5043 1561.16 15.75C1561.21 16.2959 1561.63 15.7925 1562.44 16.0596C1562.93 16.3858 1563.16 16.841 1564.04 16.9814C1563.25 16.9569 1563.04 17.2203 1562.77 17.4492C1563.51 17.4977 1563.99 17.4226 1564.36 17.29C1564.32 17.5673 1564.76 17.6169 1564.69 17.9072C1563.9 18.3764 1563.03 19.187 1561.19 18.6865C1561.56 19.4321 1562.78 19.7641 1563.43 20.3838C1561.79 19.977 1563.4 20.8386 1561.54 20.8496C1560.67 20.704 1559.64 20.0415 1558.98 20.6982C1558.54 20.3455 1559.79 20.1134 1558.97 20.0791C1558.25 20.1701 1556.85 19.2624 1555.78 19.001C1556.16 18.5678 1557.35 18.5244 1558.01 18.2256C1555.23 18.5646 1555.25 17.4304 1553.86 16.377C1553.18 15.8705 1551.75 15.908 1552.26 15.2969C1551.16 15.2134 1550.68 14.833 1550.34 14.375C1550.79 14.3853 1551.24 14.3989 1551.28 14.2188C1550.49 13.9658 1550.05 13.7446 1548.1 13.7607C1547.12 14.3158 1549.51 14.7903 1547.17 14.6875C1547.43 15.1776 1546.88 15.2753 1546.53 15.4609C1548.2 15.7385 1546.76 16.2524 1546.22 16.2363C1547.1 16.5598 1546.44 16.6807 1546.86 17.1602C1545.67 17.1466 1545.95 16.9907 1544.95 17.1602C1545.02 16.6084 1542.92 16.3011 1542.71 16.3896C1543.29 16.8178 1541.64 16.2529 1541.13 16.2393C1541.03 16.7445 1538.46 16.5731 1539.55 17.168C1539.29 17.0871 1539.02 17.0091 1538.59 17.0117C1538.34 17.3054 1538.06 17.5835 1537.96 17.9443L1537.49 17.8662L1537.33 18.0977C1536.63 18.0764 1536.63 17.7126 1536.68 17.3271C1535.57 17.3704 1535.16 17.2511 1533.5 17.332C1534.26 16.8255 1532.33 16.3111 1533.81 15.9365C1532.12 15.6939 1533.18 14.6816 1532.84 14.0889C1532.52 13.5339 1531.35 13.0623 1531.25 12.7686C1531.33 13.3532 1530.64 13.5662 1530.29 13.9355C1528.71 13.6878 1529.28 14.4739 1528.06 14.4043C1527.16 14.1727 1526.6 13.7788 1525.2 13.7871C1525.26 13.9674 1525.14 14.0644 1524.88 14.0967L1524.72 13.8711L1524.56 14.0967C1524.22 14.412 1524.83 15.5118 1523.95 15.9512C1523.2 15.9512 1522.46 15.9515 1521.72 15.9541C1521.87 16.438 1520.92 16.5115 1520.45 16.2666L1520.61 15.9834L1520.12 15.8057C1520.73 14.5129 1520.11 14.4577 1520.73 13.1787C1519.82 12.8959 1519.74 12.9287 1518.51 13.0225C1520.1 15.7647 1519.97 16.0271 1519.97 16.0342L1520.14 16.2666C1519.46 16.5518 1519.23 16.8101 1519.18 17.0391C1514.68 16.5809 1516.45 13.5883 1515.64 11.9473C1515.95 11.0908 1517.1 10.7404 1517.2 9.47461C1514.08 10.0246 1511.84 9.66005 1509.26 9.48535C1509.27 9.38448 1509.22 9.31191 1509.17 9.24219C1508.39 9.35148 1507.63 9.47067 1506.84 9.57227C1507.37 9.98951 1507.96 10.3739 1508 11.0293C1511.59 10.7679 1509.74 13.1786 1511.84 13.6504C1509.78 14.2729 1514.08 16.3292 1512.82 17.5146C1512.12 17.6006 1512.37 17.2181 1511.87 17.207C1511.84 18.3028 1514.55 18.0613 1514.43 19.209C1513.66 19.2761 1513.74 18.9318 1512.84 19.0586C1512.91 20.0572 1513.74 20.6775 1514.14 21.5312C1512.99 21.8895 1510.87 21.6336 1510.31 21.2217C1510.4 20.0208 1508.15 19.3811 1509.01 18.291C1507.67 17.5015 1508.15 15.8151 1505.81 15.5127C1505.45 14.0634 1505.05 12.9829 1503.54 11.502C1504.24 11.4748 1504.23 11.1105 1504.17 10.7256C1503.68 10.7437 1503.35 10.6796 1503.08 10.584C1503.3 10.8758 1502.9 11.3499 1502.13 11.2949C1501.93 11.0582 1500.67 11.1654 1501.2 10.6836L1501.83 10.4941L1502.59 10.3711C1502.74 10.384 1502.79 10.4407 1502.88 10.4834C1502.72 10.3799 1502.65 10.2351 1502.64 10.0605C1502.45 10.0812 1502.26 10.107 1502.07 10.127C1501.93 10.2952 1502.13 10.5068 1501.31 10.4209C1500.88 10.3764 1500.86 10.3046 1500.83 10.2695C1500.77 10.2753 1500.72 10.2836 1500.65 10.29L1500.5 10.4512L1500.74 10.6826C1500.27 10.7822 1500.25 11.0349 1499.35 10.9922L1499.58 10.7607L1498.09 11.0898C1497.84 11.1847 1497.58 11.277 1497.21 11.3359L1497.5 11.3047C1496.94 11.9212 1498.73 12.4314 1497.04 12.542C1497.25 12.2107 1496.37 12.2454 1495.65 12.2344C1495.29 12.5816 1497.79 12.7222 1496.12 13.0049C1496.18 12.6173 1495.4 12.5223 1494.72 12.3896C1493.22 13.3136 1496.71 13.4595 1497.98 13.9287C1497.34 14.5159 1496.24 13.829 1495.2 13.9336C1494.29 14.0223 1494.48 14.3733 1493.35 14.4004C1491.81 14.4354 1490.25 14.2755 1489.17 14.249C1489.6 14.7309 1490.93 14.8011 1491.49 14.8633C1489.17 15.258 1488.5 16.4126 1485.68 16.0166L1485.76 16.1592C1485.46 16.1166 1485.35 16.1649 1485.2 16.1953C1485.46 16.2676 1486.01 16.0706 1486.87 16.2646C1487.59 16.5875 1487.91 17.0478 1489.2 17.1855C1488.03 17.1584 1487.74 17.425 1487.35 17.6514C1488.41 17.7026 1489.12 17.6251 1489.66 17.4951C1489.6 17.7724 1490.22 17.816 1490.13 18.1123C1488.99 18.5814 1487.72 19.3913 1485.03 18.8906C1485.58 19.6365 1487.36 19.971 1488.29 20.585C1485.91 20.1812 1488.24 21.0411 1485.51 21.0547C1484.26 20.9064 1482.76 20.2468 1481.79 20.9043C1481.16 20.5536 1482.99 20.321 1481.79 20.2861C1480.74 20.3779 1478.7 19.4707 1477.14 19.2119C1477.7 18.7758 1479.43 18.7324 1480.39 18.4336C1476.34 18.7726 1476.38 17.6351 1474.34 16.585C1473.36 16.081 1471.27 16.1185 1472.02 15.5098C1470.41 15.4237 1469.7 15.0407 1469.22 14.5879C1469.88 14.5956 1470.53 14.6063 1470.61 14.4287C1469.45 14.1757 1468.8 13.9578 1465.97 13.9688C1464.52 14.529 1468.01 15.0029 1464.58 14.9033C1464.98 15.3929 1464.18 15.4823 1463.67 15.6738C1466.1 15.9488 1464 16.4661 1463.21 16.4473C1464.5 16.7682 1463.53 16.8945 1464.14 17.3711C1462.41 17.3601 1462.82 17.2049 1461.36 17.377C1461.45 16.8193 1458.4 16.5171 1458.1 16.6084C1458.94 17.0313 1456.51 16.4688 1455.78 16.4551C1455.64 16.9588 1451.9 16.7919 1453.46 17.3877C1453.09 17.3069 1452.72 17.2286 1452.08 17.2344C1451.72 17.5255 1451.3 17.8034 1451.16 18.1611L1450.45 18.0859C1450.68 18.2766 1450.44 18.4511 1450.46 18.7031L1450.45 18.0859L1450.23 18.3174C1449.22 18.2928 1449.23 17.9315 1449.29 17.5498C1447.67 17.59 1447.09 17.4713 1444.65 17.5547C1445.77 17.0482 1442.95 16.5312 1445.11 16.165C1442.64 15.9173 1444.2 14.907 1443.7 14.3115C1443.24 13.7591 1441.54 13.2827 1441.38 12.9941C1441.5 13.5755 1440.5 13.7896 1439.98 14.1582C1437.69 13.9104 1438.51 14.6997 1436.74 14.6299C1435.95 14.492 1435.31 14.3032 1434.5 14.1699C1434.47 14.2713 1434.42 14.3602 1434.21 14.373C1434.18 14.2123 1434.08 14.1467 1433.97 14.0898C1433.65 14.0543 1433.27 14.0384 1432.86 14.0312C1432.76 14.0377 1432.66 14.0316 1432.55 14.0264C1432.61 14.1943 1432.46 14.2907 1432.1 14.3242L1432 14.2256C1431.93 14.3721 1431.77 14.4873 1431.52 14.5771C1431.41 15.0274 1431.8 15.819 1430.73 16.1807C1429.64 16.1833 1428.56 16.1829 1427.48 16.1855C1427.7 16.6648 1426.32 16.7407 1425.62 16.498L1425.86 16.2129L1425.16 16.0352C1425.25 15.8988 1425.26 15.8188 1425.32 15.707C1425.13 15.716 1424.92 15.7341 1424.71 15.751C1424.98 16.1959 1424.93 16.2666 1424.93 16.2666L1425.16 16.498C1424.18 16.7807 1423.84 17.0425 1423.78 17.2715C1417.73 16.8496 1419.42 14.2901 1418.82 12.6025C1418.67 12.567 1418.57 12.5101 1418.61 12.3848C1418.63 12.3735 1418.66 12.3337 1418.69 12.3105C1418.67 12.2686 1418.66 12.2175 1418.63 12.1768C1418.7 12.0463 1418.84 11.9419 1418.95 11.8301C1418.97 11.6509 1418.9 11.4858 1418.59 11.458L1418.22 11.2266L1417.64 11.3047C1417.9 10.8662 1417.2 10.9029 1417.32 10.5312L1417.79 10.6094C1417.67 10.3722 1417.14 10.1927 1417.04 9.96973C1415.02 10.0176 1413.17 9.93325 1411.3 9.82715C1410.88 9.84784 1410.46 9.8578 1410 9.92578L1409.88 10.0947C1410.17 10.0552 1410.46 10.1271 1410.26 10.4912C1409.85 10.4789 1409.66 10.4315 1409.57 10.376C1408.76 10.3411 1408.66 10.069 1407.14 10.082C1407.63 9.82071 1406.72 9.37329 1406.49 9.00195C1406.71 9.51838 1405.83 9.2521 1405.53 9.16016C1405.93 9.53201 1405.98 9.77297 1406.12 10.002C1406.78 10.3552 1407.44 10.7111 1407.48 11.2676C1412.73 11.0063 1410.02 13.4115 1413.07 13.8857C1410.08 14.5082 1416.34 16.5617 1414.5 17.7471C1413.48 17.8383 1413.84 17.4558 1413.11 17.4395C1413.06 18.5384 1417.03 18.2943 1416.83 19.4414C1415.72 19.5087 1415.82 19.1662 1414.51 19.293C1414.6 20.2917 1415.85 20.912 1416.38 21.7607C1414.74 22.1217 1411.65 21.8688 1410.82 21.4619C1410.96 20.2612 1407.69 19.6202 1408.94 18.5312C1406.98 17.7393 1407.71 16.0501 1404.27 15.7529C1404.16 15.4495 1404.04 15.1678 1403.92 14.8896C1403.62 14.8936 1403.33 14.932 1403.04 15.0342L1402.88 14.7998C1402.71 14.9887 1402.63 15.1663 1402.25 15.4199L1402.73 15.3438C1402.94 15.8723 1401.79 16.2585 1400.8 16.7197C1402.43 16.7948 1403.33 16.6264 1404.76 16.9893C1405.25 18.5889 1401.19 17.8543 1398.73 17.6143C1398.82 17.5793 1398.87 17.5287 1398.96 17.4893C1398.37 17.3153 1397.85 17.1015 1397.33 16.8926C1397.23 16.5377 1398.25 16.7165 1398.29 16.4297C1397.72 15.9826 1397.77 15.2307 1397 14.8857C1396.52 15.5269 1396.64 16.4595 1394.79 16.4375C1394.53 16.3004 1394.43 16.0841 1394.46 15.8145C1392.08 16.046 1391.8 15.2514 1390.64 14.8955C1390.87 14.7559 1390.97 14.545 1390.95 14.2754L1391.53 14.3516L1390.99 13.8906L1390.63 14.1221C1390.45 14.1278 1390.35 14.0949 1390.24 14.0703C1390.81 15.669 1390.76 17.2259 1390.39 19.168C1388.95 19.1867 1388.17 18.985 1387.14 18.8633C1388.43 17.6599 1388.39 16.232 1387.63 14.6572C1387.33 14.7265 1387.02 14.7784 1386.66 14.7441L1386.81 14.8975C1385.34 14.9059 1385.23 15.5711 1383.64 15.5225L1383.27 15.291C1383.01 15.4255 1382.76 15.5385 1382.52 15.6006L1383 15.6768C1382.66 16.2529 1383.8 16.1157 1383.65 16.6035C1383.51 16.8458 1382.65 16.7358 1383.02 17.2178L1382.53 17.1426L1382.5 17.1914C1382.99 17.8849 1384.47 18.6042 1384.36 19.0254C1384.6 18.7864 1384.84 19.0114 1384.83 19.1758L1384.12 19.3291C1384.7 19.331 1385.69 19.3257 1386.13 19.3535L1384.12 19.3291H1384.12L1384.59 20.1797C1384.19 20.1422 1383.69 20.0957 1383.48 20.0156C1383.5 19.8832 1383.83 19.6973 1384.12 19.3301L1383.43 19.4863C1381.97 19.4159 1381.79 19.7664 1380.19 19.6455C1377.73 18.8807 1379.41 17.7459 1376.45 16.7139L1377.14 16.5361L1376.91 16.248C1377.89 15.6476 1382.01 16.3616 1379.7 16.8682C1380.15 16.8571 1380.41 16.9131 1380.62 16.9814C1380.57 16.9609 1380.52 16.9395 1380.47 16.9141C1380.29 16.5745 1381.07 16.6949 1381.1 16.4502C1380.1 16.5231 1380.2 16.0625 1379.82 15.834C1380.51 15.5863 1380.72 15.5263 1382.68 15.3672C1382.96 14.8744 1382.17 14.8908 1382.04 14.5967L1382.51 14.5186C1382.29 14.4571 1382.04 14.4058 1381.93 14.3438C1381.89 14.1873 1381.94 13.9985 1382.03 13.9014L1381.72 13.9775C1381.7 13.0556 1380.8 12.8041 1381.06 11.7646C1381.05 11.7646 1381.05 11.7632 1381.05 11.7627C1381.05 11.7606 1381.05 11.7611 1381.06 11.7588C1381.06 11.7226 1381.05 11.7014 1381.06 11.6641C1379.66 11.5483 1381.33 11.9704 1380.43 11.9736C1379.57 11.6722 1378.99 11.228 1378.51 10.7402C1377.95 10.7764 1377.49 10.8614 1376.9 10.8809C1376.21 11.5214 1374.87 11.9404 1374.1 12.5498C1374.89 12.5388 1375.3 12.6636 1375.49 12.8545C1374.72 13.8515 1376.43 15.0877 1375.51 15.9443L1374.82 16.125L1375.06 16.4102C1373.74 16.2834 1373.86 16.6281 1372.73 16.5693C1372.77 16.3683 1372.75 16.185 1372.35 16.1338C1371.96 16.2547 1371.49 16.3333 1370.99 16.3877C1369.24 16.7772 1367.3 17.2337 1366.25 17.3477C1368.18 18.3601 1362.4 18.5733 1363.46 17.1973C1363.2 17.1578 1363.02 17.0941 1362.8 17.0449C1362.48 17.3787 1362.11 17.7072 1362.98 18.1748C1362.8 18.2235 1361.77 18.56 1361.7 18.1777L1362.02 17.9082L1361.38 17.8701C1360.73 17.3883 1360.51 17.7035 1360.11 18.0264C1359.19 18.0646 1359.14 17.6766 1358.21 17.7168C1358.24 17.9377 1358.27 18.1579 1357.9 18.1826L1357.74 17.9512L1357.26 18.0293C1356.85 17.663 1355.98 17.6735 1355.66 18.0312C1355.69 17.8132 1355.71 17.5917 1355.34 17.5645C1355.31 18.1113 1354.88 17.6082 1354.07 17.877C1354.07 17.6185 1354.07 17.3629 1354.06 17.1045C1353.64 16.9486 1352.89 16.9531 1352.47 16.7998C1351.94 17.6238 1353.43 17.4653 1353.43 18.0312C1352.83 18.2039 1351.93 18.2309 1351.2 18.3467C1351.91 17.9011 1349.97 17.894 1349.71 17.3936C1346.89 19.0817 1345.21 21.0807 1341.34 22.6025C1340.34 22.9992 1339.18 23.2947 1338.05 23.6104C1338.41 23.721 1338.66 23.8278 1338.22 23.9229C1337.94 23.8143 1337.68 23.7828 1337.45 23.7949C1337.19 23.8622 1336.97 23.9536 1336.72 24.0176C1336.38 24.2117 1336.13 24.487 1336 24.6992C1335.01 24.9011 1335.09 24.6588 1333.77 24.7021C1332.77 24.8879 1332.4 25.3788 1331.55 25.6318C1331.62 25.4019 1331.51 25.2608 1331.36 25.1348C1329.24 25.5127 1327.07 25.8625 1324.92 26.21C1325.15 26.5373 1325.39 26.8663 1325.52 27.1865C1324.22 28.1002 1323.84 29.454 1321.72 29.9717C1321.4 30.6394 1321.08 31.3054 1319.18 31.2109C1318.4 31.9627 1318.81 32.4295 1316.98 32.7607C1315.64 32.3834 1315.14 31.0987 1312.83 31.6797L1312.99 31.4482L1312.51 31.5293C1311.91 30.9062 1310.33 29.7869 1311.93 29.0596C1310.9 29.3365 1309.86 29.581 1308.82 29.8203C1308.81 30.1528 1308.73 30.4392 1308.05 30.4541C1307.95 30.8123 1308.11 31.0465 1308.37 31.2295C1306.68 31.3861 1306.34 32.1912 1303.93 32.0029C1303.68 31.2088 1302.71 31.2562 1302.1 30.8008C1298.9 31.039 1295.78 31.052 1292.71 30.9219C1292.11 31.1406 1291.47 31.3386 1290.55 31.4053C1290.63 32.3646 1289.72 32.8473 1288.34 33.1055C1287.62 32.9198 1286.94 32.6611 1286.44 33.1055C1286.75 33.1109 1286.68 33.2967 1286.75 33.415C1284.64 33.2184 1284.95 34.191 1283.9 34.501C1283.1 34.0461 1282.99 34.0483 1283.25 33.2695C1279.94 34.1314 1282.2 30.9049 1279.1 30.7969C1277.77 31.0338 1277.89 31.9626 1276.24 32.041C1276.26 32.8814 1276.37 33.6772 1275.63 34.2051C1274.75 34.3581 1274.65 33.3643 1274.35 33.7441C1274.86 34.237 1274.62 34.7647 1274.04 35.1309C1272.87 35.1335 1271.71 35.1367 1270.54 35.1367C1271.01 34.509 1271.38 33.6605 1269.89 33.2832C1269.85 33.4072 1268.84 33.7565 1268.94 33.4424C1269.45 33.0278 1269.66 32.8517 1268.92 32.5127C1266.38 32.7709 1267.16 34.6356 1263.86 34.5303C1263.91 34.1427 1263.36 34.051 1263.21 33.7578C1263.34 33.4642 1263.9 33.369 1263.84 32.9844C1263.44 32.7178 1263.18 32.3776 1262.25 32.3691C1261.16 32.4067 1261.6 33.1889 1260.67 33.2969C1259.8 32.435 1256.35 34.0743 1255.57 32.8408C1256.58 32.227 1254.78 31.9628 1254.6 31.4512L1255.24 31.4482C1252.53 31.2568 1250.52 30.3441 1248.28 29.6006L1245.51 28.8652L1245.68 29.1455C1243.35 29.0697 1240.8 28.3535 1239.32 28.3799V29C1240.99 29.1592 1241.97 29.6653 1244.09 29.6143C1244.68 30.2553 1245.26 30.9017 1246.01 31.4619C1245.57 31.6159 1245.6 31.9849 1245.07 32.082C1245.5 32.4404 1246.21 32.6611 1246.99 32.8525C1246.47 33.4153 1243.64 33.5314 1243.17 32.8584C1243.09 32.3628 1243.72 32.203 1243.47 31.6191C1243.18 31.3494 1242.7 31.1733 1242.51 30.8506C1241.22 30.8372 1241.54 31.613 1240.3 31.624C1239.51 31.3815 1238.88 31.0747 1238.38 30.7002C1238.85 30.5709 1238.84 30.2011 1239.01 29.9268C1237.66 29.6389 1236.48 29.1155 1237.72 28.3857C1236.58 28.3184 1235.97 27.9973 1235.49 27.6123C1235.48 27.3053 1235.48 26.9956 1235.48 26.6885L1236.05 26.7646C1235.88 26.5143 1235.76 26.3921 1235.63 26.1445L1235.15 26.2256C1234.42 26.0101 1233.92 25.69 1233.25 25.4551C1233.79 25.3121 1233.64 24.8275 1234.83 24.9893C1235.89 23.707 1233.72 22.6205 1233.85 21.7451C1233.65 22.0728 1232.46 21.6154 1232.89 21.1279C1231.84 21.1654 1231.35 20.9469 1231.29 20.5137C1232.48 19.9508 1232 19.3256 1231.9 18.3477C1231.01 18.1704 1229.79 18.1367 1229.36 17.7334C1230.31 17.741 1230.41 17.3748 1230.16 16.999C1229.76 17.0527 1229.3 17.018 1228.86 16.9307C1229.11 18.1606 1229.23 19.085 1228.43 20.3623L1227.95 20.2842C1228.14 20.5397 1228.11 20.7995 1227.95 21.0557L1228.43 20.9795C1228.51 21.456 1229.58 21.4537 1230.03 21.75C1229.56 22.8569 1230.52 23.2648 1231.32 23.7578C1230 24.2774 1227.92 24.0567 1226.54 24.2236C1227.33 24.2398 1226.62 24.7368 1226.23 24.6914C1225.35 24.1718 1224.53 24.9877 1223.37 24.8506C1222.79 24.0483 1222.02 23.3365 1220.5 23C1220.6 23.3584 1221.18 23.6661 1220.18 23.7734C1218.89 23.1708 1215.53 24.6804 1215.4 23.3125C1214.43 23.8139 1212.82 23.396 1211.59 23.167C1210.29 24.7481 1213.94 25.7399 1213.85 26.7148C1214.04 26.9274 1215.06 26.7367 1215.12 27.0225C1215.38 27.4582 1214.67 27.4237 1214.81 27.7949C1215.35 27.8271 1215.63 27.5316 1215.76 27.793C1215.46 27.9082 1215.29 28.0754 1215.13 28.2559C1216.05 28.3231 1216.58 28.5822 1216.72 29.0293C1216.04 29.4253 1217.02 29.9049 1216.42 30.1094C1214.97 30.3002 1215.4 29.5702 1214.51 29.4951C1213.29 30.3353 1211.72 29.0966 1210.68 29.501L1210.22 29.5791C1210.62 29.7027 1210.89 29.8289 1210.99 29.915C1211.16 30.2978 1210.64 30.5726 1210.49 30.9199C1210.39 30.9361 1210.31 30.9526 1210.22 30.9707C1209.58 30.7121 1209.32 30.4023 1209.26 30.1953L1209.1 30.4297C1208.57 30.2252 1208.6 29.744 1208.14 29.5039C1207.05 29.789 1206.53 29.3956 1205.91 29.043C1205.87 29.3201 1206.3 29.3712 1206.23 29.6621C1204.76 29.5326 1205.9 29.9042 1205.27 29.9717C1205.14 29.6296 1203.72 29.9102 1203.05 29.8184C1202.99 29.9446 1202.73 29.9726 1202.73 30.1309L1202.26 30.0527L1201.78 29.9746C1200.27 29.1903 1202.94 27.9297 1204.94 27.498C1204.4 26.4183 1205.58 26.3125 1205.56 25.1846C1205.05 25.1717 1204.34 25.2567 1204.28 25.0273C1204.31 24.4242 1205.83 24.5425 1205.88 23.9453C1204.96 23.6599 1204.26 23.2792 1204.58 22.4014C1204.9 22.404 1205.22 22.4014 1205.53 22.4014C1205.82 21.6846 1204.55 20.9224 1203.62 21.3232L1203.3 21.2451L1202.98 21.165C1202.15 20.9035 1203.36 19.632 1201.38 19.9336C1200.8 20.2351 1201.64 20.7139 1202.03 21.0127C1201.57 21.2553 1201.23 21.5518 1200.44 21.6328L1200.28 21.4043L1200.13 21.1699C1198.91 20.9733 1200.29 20.4778 1199.48 20.0869L1199.63 19.8574L1199.48 19.626C1200.35 19.6904 1199.76 19.0492 1200.42 19.0059C1201.92 19.2187 1202.51 18.5209 1203.28 18.8496C1203.17 19.0543 1202.72 19.0922 1202.65 19.3125C1203.19 19.2531 1203.25 19.4312 1203.29 19.6201C1203.92 19.6175 1204.55 19.6172 1205.19 19.6172C1205.74 18.9038 1206.76 18.4261 1207.41 17.7637C1207.51 18.1697 1208.25 18.2841 1209 18.3779L1209.16 18.6064L1209.64 18.6846C1208.5 19.0858 1209.81 19.5984 1209.66 20.3877C1209.89 20.4594 1210.08 20.4882 1210.28 20.5264C1210.37 20.0592 1211.75 19.4397 1210.38 19.0967C1211.04 18.8573 1212.18 18.7706 1213.62 18.7842C1213.64 18.518 1213.27 18.3834 1212.69 18.3213C1213.16 18.0032 1213.81 18.1214 1214.43 18.2617C1214.48 18.0198 1214.62 17.7413 1214.77 17.4424C1214.7 17.423 1214.61 17.4127 1214.54 17.3926C1214.54 17.3163 1214.7 17.2119 1214.91 17.1143C1215 16.9106 1215.06 16.7061 1215.03 16.5146C1214.53 16.5683 1214.45 16.4091 1214.4 16.2334C1214.39 16.2259 1214.37 16.2167 1214.36 16.209C1213.47 16.4134 1213.15 16.3122 1212.83 16.168C1212.69 16.2384 1212.53 16.3022 1212.21 16.3125C1212.39 16.0383 1211.8 16.0179 1211.18 16.0127C1211.14 16.5159 1211 16.9756 1210.26 17.1406C1209.7 17.0001 1209.85 16.5129 1208.66 16.6797C1208.72 17.0619 1208.51 17.3212 1208.03 17.4531C1207.55 17.2927 1206.79 17.0711 1206.41 16.7852C1206.19 16.793 1206.03 16.7888 1205.83 16.792C1205.83 16.863 1205.85 16.9392 1205.82 16.9922C1203.51 17.0834 1202.38 18.4843 1199.77 17.9268C1198.87 18.2122 1198.46 18.7241 1196.92 18.7021V19.3174C1197.94 19.4519 1198.13 19.1847 1198.51 19.0068C1198.55 19.2953 1198.71 19.5248 1199.15 19.627L1199 19.8584L1199.15 20.0908C1199.02 20.2305 1198.87 20.3677 1198.52 20.3975C1198.53 20.8602 1199.09 21.0493 1199.8 21.1709L1199.65 21.4561L1200.13 21.6338C1200.1 23.4193 1199.18 24.018 1200.15 25.6504C1199.45 26.1809 1198.61 26.5774 1199.21 27.3506C1198.38 28.1774 1196.88 28.684 1195.41 29.2119C1196.44 29.3601 1195.57 29.9558 1196.38 30.4463C1195.67 30.7255 1194.27 30.5728 1194.15 30.7559C1195.19 31.6015 1192.33 31.9743 1193.21 32.459C1192.54 32.3942 1192.37 32.5657 1191.94 32.6143C1191.34 32.1885 1191.03 31.6126 1190.02 31.3809C1192.91 30.4944 1191.13 29.0203 1190.95 27.9805C1190.56 27.6009 1189.75 28.3013 1189.35 27.8301C1189.44 27.6606 1189.98 27.7243 1190 27.5176C1189.25 27.0518 1188.63 27.4292 1187.44 27.5205L1187.6 27.291L1187.12 27.3672C1186.47 27.3265 1187.04 26.6849 1186.17 26.7529C1185.49 26.89 1185.14 27.1815 1184.58 27.373C1184.08 26.7964 1183.14 26.6778 1181.71 26.9121C1181.3 26.2871 1180.78 25.7149 1180.74 24.9043C1179.37 24.8072 1178.7 25.045 1178.2 25.3711C1177.15 25.3659 1176.63 25.1039 1176.28 24.7539C1174.99 24.6892 1173.09 25.5242 1171.51 24.918C1171.23 25.187 1170.8 25.3941 1170.24 25.5371C1169.05 24.9044 1168.55 25.2952 1167.06 25.543C1167.1 25.2655 1166.67 25.2138 1166.74 24.9229C1167.06 24.5646 1167.83 24.4242 1167.69 23.8398C1166.21 23.6489 1165.12 23.2766 1163.92 22.957C1163.28 23.1653 1162.66 23.391 1162.13 23.6582C1162.07 23.7209 1162.02 23.7863 1161.96 23.8457C1161.94 23.8393 1161.93 23.8326 1161.91 23.8262C1161.61 24.0002 1161.35 24.1949 1161.15 24.418C1161.31 25.0183 1161.45 25.5663 1160.7 26.0088C1159.02 24.5704 1155.84 26.1359 1153.07 26.3301L1152.91 26.1006L1152.76 25.8691C1152.79 25.7263 1152.75 25.6216 1152.69 25.5254C1152.17 25.5681 1151.65 25.616 1151.13 25.6523C1150.81 25.7675 1150.52 25.8902 1150.11 25.9736C1150.15 25.8794 1150.13 25.8063 1150.1 25.7354C1146.69 25.9488 1143.32 26.0295 1139.98 26.0107C1140.34 26.5116 1141.02 27.0338 1141.31 27.5332C1139.41 28.4437 1138.86 29.8042 1135.77 30.3213C1135.3 30.9871 1134.83 31.6575 1132.06 31.5605C1130.93 32.315 1131.51 32.7781 1128.83 33.1094C1126.9 32.7373 1126.14 31.4502 1122.79 32.0352L1123.02 31.8057L1122.32 31.8838C1121.4 31.218 1118.62 29.9719 1121.84 29.2549C1120.7 29.1229 1119.82 28.9019 1118.13 28.9531C1115.84 29.3168 1118.19 30.7761 1115.83 30.8086C1115.68 31.1668 1115.9 31.4038 1116.3 31.5791C1113.84 31.7434 1113.32 32.5516 1109.8 32.3633C1109.36 31.3531 1107.15 31.7407 1106.54 30.6689C1104.54 30.7284 1103.46 31.0866 1101.45 31.1377C1100.75 30.804 1098.78 30.8923 1098.65 30.3672C1094.85 30.4992 1093.96 31.5898 1090.31 31.7705C1090.42 32.7264 1089.09 33.2142 1087.08 33.4697C1086.03 33.2892 1085.03 33.031 1084.3 33.4756C1084.75 33.4807 1084.65 33.6645 1084.76 33.7861C1081.69 33.5921 1082.13 34.5622 1080.59 34.8721C1079.42 34.4192 1079.28 34.4219 1079.65 33.6406C1074.81 34.5051 1078.13 31.2716 1073.6 31.1719C1071.67 31.4068 1071.85 32.3393 1069.45 32.415C1069.48 33.2553 1069.62 34.0499 1068.53 34.5811C1067.25 34.7343 1067.1 33.7402 1066.68 34.1201C1067.41 34.6131 1067.07 35.1416 1066.22 35.5078C1064.52 35.513 1062.81 35.5128 1061.12 35.5186C1061.78 34.8883 1062.35 34.0397 1060.18 33.6631C1060.12 33.7871 1058.63 34.1355 1058.78 33.8213C1059.53 33.4067 1059.84 33.2309 1058.77 32.8945C1055.06 33.1533 1056.18 35.0149 1051.36 34.9121C1051.43 34.5276 1050.63 34.4324 1050.44 34.1416C1050.63 33.8456 1051.42 33.7502 1051.35 33.3682C1050.76 33.1017 1050.39 32.7623 1049.03 32.752C1047.44 32.7947 1048.09 33.5733 1046.72 33.6807C1045.46 32.8194 1040.42 34.4613 1039.29 33.2285C1040.77 32.6198 1038.14 32.3528 1037.89 31.8379H1038.81C1034.85 31.647 1031.92 30.7315 1028.68 29.9932L1024.64 29.2549L1024.87 29.5381C1021.48 29.4676 1017.78 28.7486 1015.59 28.7783C1015.6 28.9859 1015.6 29.1909 1015.6 29.3984C1018.04 29.5602 1019.47 30.0635 1022.57 30.0098C1023.41 30.6509 1024.26 31.2971 1025.36 31.8574C1024.73 32.0056 1024.76 32.3807 1023.97 32.4746C1024.6 32.833 1025.64 33.053 1026.76 33.2471C1026.02 33.8072 1021.88 33.9259 1021.19 33.2529C1021.09 32.7575 1022.01 32.5978 1021.65 32.0166C1021.23 31.7443 1020.53 31.5659 1020.24 31.2451C1018.36 31.2315 1018.83 32.0046 1017.01 32.0234C1015.89 31.7783 1014.95 31.4715 1014.21 31.0996C1014.91 30.9651 1014.89 30.5992 1015.14 30.3242C1013.18 30.0389 1011.46 29.5133 1013.27 28.7803C1011.61 28.7182 1010.71 28.3976 1010.02 28.0146C1010.02 27.7081 1010 27.3951 1010 27.0879L1010.86 27.1602C1010.61 26.9125 1010.42 26.7915 1010.24 26.5439L1009.54 26.625C1008.49 26.4122 1007.75 26.091 1006.75 25.8574C1007.58 25.717 1007.33 25.227 1009.06 25.3887C1010.63 24.1037 1007.46 23.0174 1007.64 22.1445C1007.37 22.4754 1005.63 22.0157 1006.25 21.5312C1004.75 21.5713 1004.02 21.3476 1003.93 20.917C1005.66 20.3483 1004.98 19.7313 1004.84 18.7539C1003.52 18.5708 1001.77 18.5403 1001.12 18.1367C1004 18.1587 1001.66 16.5928 1000.18 16.5928C1000.66 18.2465 1001.16 19.2409 999.745 20.7686L999.055 20.6875C999.331 20.9462 999.292 21.2057 999.055 21.4639L999.751 21.3828C999.752 21.3857 999.758 21.3867 999.76 21.3896C999.562 21.0306 999.709 20.8165 1001.33 20.5693C1001.56 21.2937 1002.97 21.4261 1003.32 22.0938C1002.82 22.086 1002.46 22.1455 1002.08 22.1992C1001.45 23.2687 1002.81 23.6775 1003.95 24.1602C1002.04 24.6804 999.008 24.4616 997 24.6318C998.136 24.648 997.102 25.1433 996.548 25.0947C995.25 24.5805 994.054 25.3936 992.364 25.2539C991.513 24.4567 990.398 23.7461 988.174 23.4062C988.316 23.7698 989.18 24.0717 987.715 24.1797C985.829 23.5787 980.93 25.0975 980.754 23.7266C979.328 24.2279 976.99 23.8123 975.178 23.5781C973.293 25.1646 978.625 26.1541 978.462 27.1299C978.754 27.3424 980.247 27.1513 980.32 27.4346C980.705 27.8727 979.671 27.838 979.861 28.21C980.658 28.2397 981.057 27.9461 981.253 28.21C980.827 28.3231 980.55 28.4899 980.327 28.6729C981.672 28.7402 982.449 28.9943 982.652 29.4414C981.666 29.8373 983.091 30.3169 982.192 30.5215C980.083 30.7182 980.725 29.9827 979.414 29.9102C977.65 30.7506 975.359 29.5136 973.832 29.9121L973.156 29.9932C973.751 30.1199 974.156 30.2437 974.292 30.333C974.535 30.7153 973.777 30.9879 973.561 31.3379C973.419 31.3541 973.298 31.368 973.163 31.3867L973.157 31.3848C972.229 31.129 971.858 30.8173 971.757 30.6133L971.534 30.8477C970.756 30.64 970.797 30.16 970.135 29.918C968.54 30.2059 967.77 29.8158 966.878 29.46C966.825 29.7398 967.452 29.7867 967.344 30.083C965.195 29.951 966.864 30.3253 965.965 30.3926C965.755 30.0453 963.674 30.3311 962.715 30.2393C962.633 30.3625 962.249 30.3927 962.248 30.5488L961.546 30.4736L960.856 30.3984C958.646 29.6168 962.559 28.354 965.479 27.9199C964.682 26.8367 966.405 26.7284 966.378 25.5996C965.655 25.5886 964.615 25.6776 964.533 25.4463C964.566 24.846 966.789 24.9638 966.837 24.3633C965.526 24.0831 964.505 23.7002 964.965 22.8223C965.431 22.8223 965.898 22.8193 966.364 22.8193C966.775 22.1032 964.938 21.3441 963.573 21.7451L963.113 21.667L962.64 21.5918C961.424 21.325 963.201 20.0539 960.302 20.3555C959.478 20.6544 960.687 21.1386 961.241 21.4355C960.579 21.6781 960.086 21.9744 958.938 22.0547L958.7 21.8262L958.464 21.5938C956.713 21.3997 958.706 20.9018 957.524 20.5137L957.747 20.2822L957.517 20.0469C958.801 20.1142 957.956 19.4762 958.916 19.4277C961.106 19.638 961.951 18.9431 963.086 19.2686C962.917 19.4727 962.269 19.5138 962.16 19.7314C962.958 19.6752 963.039 19.853 963.093 20.042C964.019 20.0394 964.944 20.0391 965.877 20.0391C966.661 19.3222 968.175 18.8516 969.107 18.1807C969.27 18.5921 970.325 18.6973 971.432 18.7969L971.661 19.0264L972.364 19.1035C970.708 19.5047 972.601 20.0149 972.371 20.8037C976.419 21.6739 977.527 19.8818 979.778 19.249C978.298 18.8958 980.425 17.7973 980.23 16.9297C979.441 16.9859 979.352 16.8077 979.298 16.6221C976.628 17.0536 977.466 16.1945 974.655 16.3154C974.614 16.8672 974.452 17.3767 973.271 17.5547C972.446 17.4175 972.689 16.9301 970.951 17.0938C971.026 17.4791 970.715 17.7372 970.033 17.8691C968.816 17.5889 966.221 17.1663 967.701 16.4824C966.018 16.34 967.059 17.0915 966.775 17.4092C963.41 17.5037 961.767 18.9064 957.976 18.3486C956.658 18.6315 956.049 19.149 953.806 19.125V19.7412C955.286 19.8758 955.57 19.6069 956.117 19.4316C956.191 19.7194 956.427 19.9488 957.049 20.0459L956.826 20.2803L957.063 20.5156C956.861 20.6502 956.658 20.7896 956.13 20.8252C956.144 21.2856 956.968 21.4724 958.003 21.5967L957.766 21.876L958.469 22.0566C958.421 23.8396 957.077 24.4405 958.496 26.0703C957.475 26.601 956.245 27.0032 957.117 27.7764C955.901 28.6033 953.698 29.1071 951.576 29.6377C953.069 29.7833 951.792 30.3845 952.975 30.8691C951.927 31.1518 949.92 30.9987 949.717 31.1816C951.23 32.0247 947.076 32.4022 948.352 32.8867C947.386 32.8195 947.122 32.9921 946.494 33.0439C945.609 32.6208 945.183 32.0387 943.703 31.8096C947.919 30.9206 945.339 29.45 945.068 28.4102C944.514 28.033 943.318 28.7296 942.743 28.2588C942.852 28.0898 943.668 28.1502 943.669 27.9463C942.588 27.4831 941.689 27.8607 939.952 27.9551L940.196 27.7236L940.185 27.7246L939.488 28.1816L939.954 28.1055C939.955 28.6194 942.968 28.1252 942.739 28.7178C941.495 28.8718 940.948 29.2534 939.502 29.3447C938.637 29.3201 937.947 29.2428 937.643 29.0352C937.65 28.5746 938.846 28.5064 939.022 28.1055L939.488 28.1816C939.609 28.058 939.763 27.9403 940.183 27.7246L939.493 27.7988C938.533 27.7586 939.378 27.1143 938.093 27.1816C937.12 27.3239 936.6 27.6093 935.775 27.8008C935.052 27.2301 933.687 27.1086 931.605 27.3428C931.012 26.7178 930.233 26.146 930.186 25.3379C928.199 25.241 927.206 25.4812 926.489 25.8066C924.956 25.8015 924.205 25.5371 923.691 25.1924C921.807 25.1251 919.028 25.9632 916.737 25.3564C916.318 25.6262 915.703 25.8368 914.885 25.9766C913.148 25.3463 912.418 25.7371 910.242 25.9824C910.303 25.7049 909.682 25.6556 909.776 25.3652C910.249 25.007 911.363 24.8635 911.162 24.2822C908.593 24.0557 906.871 23.5519 904.654 23.207C903.741 23.4684 903.39 23.9183 902.809 24.293C902.349 24.1371 901.883 23.9802 901.417 23.832C901.255 24.8419 902.667 25.7671 900.979 26.46C898.519 25.0216 893.868 26.5829 889.84 26.7822L889.604 26.5518L889.374 26.3203C889.503 25.967 889.252 25.741 888.435 25.7061L888.664 25.4717L887.968 25.3955C888.333 24.9918 891.819 24.83 890.279 24.3105C890.354 24.9939 889.144 24.297 887.968 24.4697L888.197 24.3135L888.19 24.3096C887.583 24.3371 886.915 24.5661 886.335 24.3906L888.19 24.3096L887.961 24.1602C887.285 23.2659 889.745 23.4142 890.739 23.0771C889.293 22.7349 892.744 22.7237 891.651 21.9883C890.043 21.8699 889.873 22.2254 888.414 22.1504L888.643 21.918L888.63 21.916C887.613 21.9993 886.526 22.0802 885.865 22.3809L886.551 22.459C885.565 23.0322 887.408 23.6358 885.179 23.8486C884.854 23.4903 883.631 23.4389 883.307 23.0781C884.286 22.7578 884.489 22.1813 884.692 21.998C884.767 22.178 885.537 22.1246 886.085 22.1484L885.863 22.3809C886.523 22.08 887.61 21.9992 888.626 21.916L887.948 21.8428C889.097 21.4714 889.948 20.7249 887.941 20.4531C887.631 21.2233 885.386 21.3532 884.237 21.8486C885.657 21.2476 880.622 20.8404 879.581 21.083C880 21.1503 880.418 21.2177 880.513 21.3877C879.77 21.347 879.716 21.5356 879.128 21.5459L878.432 21.4717L877.729 21.5459C877.257 21.4515 875.615 20.8463 876.331 20.0059L876.959 19.8174C876.013 19.7333 875.418 19.4559 875.026 19.1758L874.465 19.3867C873.547 19.4429 873.013 19.3571 873.079 19.0801C871.16 18.961 872.214 19.8232 870.295 19.7021C868.923 19.5456 868.923 18.9233 866.578 19.0908C866.133 19.7019 869.167 19.1505 868.903 19.7021C867.863 19.772 868.726 20.464 868.443 20.7852C867.632 20.8763 865.726 20.605 865.665 20.9473C867.078 21.3594 867.977 21.0901 869.842 20.9395C873.457 21.2358 870.862 25.1557 867.078 23.418C867.611 23.2349 867.598 22.8705 867.537 22.4883C866.267 22.7361 865.307 23.0893 863.361 23.1113C863.354 22.6966 865.307 22.3864 863.354 22.1846L862.659 22.1113C862.827 22.2383 862.728 22.3154 862.661 22.4141L862.654 22.1152L862.429 22.3398C861.449 22.3023 860.044 22.0973 858.712 22.3477L858.179 22.1172L857.327 22.1924C857.397 21.8709 857.268 21.481 857.327 21.1543C841.635 24.0034 822.786 27.0883 801.903 25.6602C800.829 27.1445 799.822 28.6662 796.923 29.2188C793.639 28.0147 782.272 29.819 781.96 27.6914C773.093 32.2196 760.401 26.5975 751.048 30.2373C748.115 28.8475 742.316 28.9302 741.08 26.6729C736.68 26.8857 733.382 26.5355 731.104 25.6602C728.415 27.8479 719.162 30.1183 716.155 27.6914C715.399 25.9537 720.202 27.0471 719.149 25.1514C717.824 25.1456 718.236 24.259 717.142 24.1328L717.649 23.3701C716.615 23.898 715.141 23.8364 713.79 23.96L716.149 23.5986C715.622 21.4996 711.979 20.9964 708.181 20.5732L708.668 19.8105C707.35 20.0829 706.018 19.9858 704.68 19.8105L705.18 20.5732C704.058 21.8632 700.761 22.0491 697.205 22.0977L695.712 21.8447C696.374 22.2919 696.915 22.7849 697.205 23.1162V22.6064C707.856 23.8832 700.064 27.6044 703.2 29.7275C698.652 29.1381 691.665 27.5211 690.231 30.7432C677.633 31.4033 675.12 28.3429 664.306 30.2363C663.238 27.05 654.595 27.7337 650.338 26.166L649.844 26.4219C649.757 26.6586 649.641 26.8965 649.547 27.1357C647.514 27.7333 645.021 27.1899 642.873 27.6094L644.35 28.1973C643.877 28.8002 643.289 29.3513 642.356 29.7227L640.863 29.4688C640.065 30.1229 639.268 30.5707 638.876 30.7383L640.863 29.4688L639.376 29.7227C639.782 28.4973 637.546 28.6175 638.376 27.1797C640.775 27.3919 640.539 26.2489 643.357 26.667L642.863 27.6055L642.873 27.6094L648.521 26.6484C642.52 26.374 638.728 23.6207 633.396 24.6416L633.896 24.1318L631.401 25.4092L632.388 25.1504C631.935 26.7419 633.267 27.4187 636.389 27.1846C635.813 29.4356 629.402 28.704 629.401 31.2549L627.914 30.999L628.407 31.7607C626.955 31.4858 623.26 32.3532 623.427 31.2549L623.92 30.4893C623.258 30.468 622.595 30.3944 621.926 30.3193L622.42 31.2549C618.196 31.4892 611.998 32.7921 608.464 31.7607C608.343 29.8673 616.181 30.3574 612.458 28.2021C614.722 27.836 617.547 27.7474 619.426 27.1846V27.6914L619.933 25.9131L619.426 26.6729C616.689 26.0485 608.349 26.2578 608.464 28.7119C605.011 28.9811 599.01 27.9552 598.489 29.7275C600.679 29.6338 601.666 30.1422 601.49 31.2549C596.157 30.4007 597.164 32.7793 593.509 32.7793C593.657 31.5156 593.697 30.3087 591.515 30.2363C581.222 31.5215 564.867 35.3035 557.609 30.7432C555.717 32.1491 548.681 30.9342 547.641 32.7803L546.168 33.0303L546.164 33.0312L546.154 33.0332L546.647 33.7959C540.889 33.5694 536.739 34.1667 534.679 35.8291C539.544 36.2736 541.302 35.1338 544.654 34.8135C547.525 39.2444 537.362 41.1987 528.698 41.4277C528.583 42.6902 526.833 42.9984 528.698 43.9707C520.675 45.008 508.349 46.4008 498.786 44.9863C499.104 43.7932 500.36 43.0756 499.786 41.4277L501.61 41.6807C501.307 40.9988 501.326 40.3234 501.279 39.6475L499.786 39.9004C496.339 39.8441 495.15 40.9264 495.792 42.9521C488.337 43.1164 484.08 43.9699 473.861 42.9521C473.618 37.4784 460.304 38.6713 455.918 35.3203C453.256 35.3281 450.207 35.129 448.924 35.8291C448.848 33.4987 442.226 34.5036 437.962 34.3018C440.706 31.632 437.753 29.059 433.968 28.2021L434.475 27.4375L434.456 27.4336C433.162 27.6594 431.82 27.8228 430.723 27.8145L434.453 27.4336L432.974 27.1846C433.919 26.1396 436.9 26.1332 436.962 24.6416C431.237 23.761 423.208 24.7245 422.012 20.5732C424.35 20.0724 426.905 19.6815 429.987 19.5547L429.487 20.3203L431.488 18.2861L429.987 18.5391V17.0146C429.372 16.3061 426.143 16.936 426 15.9932L427.487 15.4033C426.162 15.1742 424.837 14.9749 423.5 14.5518L424 15.4873C419.985 15.1372 418.309 15.9728 415.025 15.9941C414.761 14.2458 411.172 11.5513 409.044 12.4346C408.341 14.3173 410.746 14.6194 410.044 16.5029C406.523 16.2305 404.902 16.934 404.063 18.0332C405.901 18.7632 404.273 20.4773 402.063 21.5928C397.678 21.6251 393.919 21.3366 393.094 19.5557H395.088V18.54H397.082C397.576 16.9373 394.906 16.5517 397.082 15.4873C390.811 13.9409 383.687 13.9714 376.146 14.9814C375.605 13.365 369.408 12.0043 366.17 13.4512C367.934 13.8983 369.083 15.0647 371.158 13.9629C372.65 16.015 370.99 16.5242 376.146 16.5029C375.16 19.2935 384.269 20.3451 379.126 22.0986C383.89 22.2791 385.708 21.0129 387.107 23.1172C385.749 26.0665 377.274 22.6779 377.132 25.6602H379.126L378.637 26.4131L378.632 26.4219L380.133 26.6729C380.755 27.712 385.168 26.8184 384.12 28.7119L382.626 29.3076L383.12 30.2363C380.924 30.8103 381.572 32.8363 379.126 33.2861C381.795 33.992 382.87 35.1484 381.126 36.8457L379.684 37.0918L386.18 36.6787C386.944 34.9764 383.647 35.3414 384.112 33.79C387.221 33.1542 388.444 34.7383 392.087 33.2812C393.709 35.1105 401.832 36.9094 405.049 34.8086H406.042V34.2969C406.914 35.215 408.246 35.8943 410.037 36.333L408.543 36.5859L409.037 37.3516C402.691 39.9567 394.385 36.4437 388.1 37.3516L387.606 36.5859C387.222 36.8985 386.843 37.1979 386.538 37.3086C384.279 36.7978 381.899 37.7319 379.639 37.0986L379.633 37.1006L379.126 37.8662H378.132C376.429 36.5675 379.281 36.0852 377.132 35.3203C374.774 36.0851 374.922 36.8447 374.152 37.3564C364.577 36.1335 350.08 37.427 347.228 32.7793C348.119 31.8819 350.896 31.9356 351.208 30.7422C346.978 30.1954 345.585 28.1903 343.234 26.6709C333.765 26.2536 333.224 21.269 323.296 21.0781V19.5537L324.797 18.9609L324.297 18.0312C325.777 17.5926 326.439 16.7483 326.284 15.4854C324.872 15.6096 324.608 16.324 323.296 16.502C322.026 15.2868 319.654 14.632 320.303 12.4336C323.445 11.8544 322.722 13.2331 324.297 13.4492C325.155 12.7083 325.79 11.8384 328.284 11.9219L329.284 12.1777C329.412 11.8787 329.887 11.2672 330.771 10.6533L329.284 10.9062C327.392 11.8089 322.688 11.2788 319.309 11.416C320.45 9.81859 317.741 10.1809 317.301 9.38086L318.802 8.79199L312.821 7.94043L313.327 8.87598C308.191 8.27229 309.32 10.0636 310.327 11.416L308.981 12.0322C309.902 12.2322 310.817 12.3358 311.819 12.6816L308.98 12.0332L308.975 12.0361L309.333 12.9414C305.265 12.3273 301.75 9.22624 296.364 10.9072L294.882 11.1611L303.352 14.4658C298.916 14.845 297.009 12.6847 294.877 11.1631L295.377 11.9229C291.849 12.3725 290.234 10.6222 289.389 12.4346L287.567 12.1787L289.382 13.1914C288.817 12.9854 288.071 12.5678 287.564 12.1787L286.409 12.9404H283.408C283.712 13.9423 282.07 13.9507 281.422 14.4707C283.963 14.5244 283.395 16.1736 283.408 17.5234H275.44C273.291 14.886 269.304 13.1861 266.458 10.9072C262.694 11.0263 257.437 10.3791 256.49 11.9219C253.801 10.3624 248.475 9.20121 251.503 7.35059C251.354 9.58889 254.321 7.49362 255.497 7.35059V7.85742C255.781 7.66862 256.071 7.47765 256.294 7.25391C257.2 7.10313 258.565 7.10031 259.478 7.35059V6.8418C261.356 5.8181 258.255 4.47616 255.497 4.29883C252.476 5.13097 250.124 6.31116 244.515 5.82324C244.366 7.94013 244.177 10.0658 246.515 10.9062L245.022 11.1631C246.732 11.438 248.495 11.3537 249.212 11.5342C249.387 11.788 249.672 12.2704 250.002 12.6875L250.502 11.9219C255.902 12.9029 255.936 16.6125 260.477 18.0322C269.735 17.6873 274.75 23.5249 281.422 26.165C284.219 25.562 284.097 23.4653 285.409 22.0967C291.106 21.5901 292.525 27.4475 297.364 24.1309C295.263 23.5006 292.783 21.5347 294.377 20.5723C298.851 20.8338 298.256 23.6726 303.359 23.624C304.663 22.3501 299.413 22.0286 302.358 21.5898C301.637 22.4166 307.054 22.4166 306.345 21.5898L307.339 21.8438L306.845 20.3184L306.345 21.0781C303.824 20.499 304.095 18.4983 302.358 17.5225H308.339C309.718 17.8325 308.488 19.4787 310.326 19.5537L309.84 20.0654C310.644 20.2459 311.07 20.9322 311.333 21.334L312.326 21.0781C313.671 20.9189 314.227 20.3558 316.314 20.5713C315.849 22.1659 319.003 21.916 319.307 23.1143C318.374 23.6555 315.625 23.2678 316.314 24.6387C316.922 24.6711 317.496 24.7169 317.3 25.1484L316.814 25.9102L317.3 26.6699C316.537 26.7858 316.158 27.0983 316.314 27.6885L317.807 27.9443C316.814 27.9773 315.813 27.7131 314.82 27.4355L315.313 28.2002C308.799 28.2623 303.912 29.1655 301.357 31.2529C298.668 29.5745 292.369 29.7246 290.388 27.6885C288.51 28.6576 290.977 28.6129 290.388 30.2344C287.989 30.4419 288.212 29.3048 285.408 29.7246L285.901 28.9629L284.401 28.71C284.191 28.1387 283.299 27.9175 282.414 27.6885V28.2002L280.583 27.9443L280.58 27.9453L279.414 28.71C273.332 28.6563 271.628 30.8381 268.452 32.2656C270.189 32.3063 271.554 32.155 272.447 31.7598C273.243 33.5236 270.954 33.7151 271.44 35.3184C265.527 35.0169 262.566 36.2121 256.49 35.8271C256.842 33.9522 254.01 33.7041 251.503 33.2842C251.921 28.8447 243.19 24.865 234.553 24.1299C223.24 23.1711 210.751 26.9671 200.654 27.1826C198.776 26.2127 201.234 26.2606 200.654 24.6396C198.059 23.99 197.647 23.5236 194.666 24.1299C195.943 21.7839 190.766 22.729 189.685 21.5898C191.301 21.8163 191.301 18.8179 189.685 19.0469C189.67 20.0537 186.962 19.6936 187.685 21.0781C190.962 22.3903 187.732 25.0544 190.679 25.6582C187.638 25.0196 186.806 25.2676 184.704 26.165C182.035 24.3733 185.312 22.7138 181.703 21.5898C177.892 21.6733 180.129 24.8577 175.722 24.6396C171.491 24.5935 176.236 19.9709 170.742 20.5713C171.222 22.683 168.903 23.3682 167.741 24.6396C163.841 23.7778 156.564 22.3951 159.766 19.5527C154.055 19.8003 153.852 16.1041 150.791 16.5C153.669 14.8326 146.182 14.1291 141.816 14.4688C142.925 12.422 145.87 12.4529 143.817 9.88672C140.682 9.63363 139.741 11.0877 138.829 9.37988C143.303 8.44549 145.628 6.40813 148.804 4.80273C147.304 4.71675 145.121 4.98597 144.81 4.29688C150.034 1.209 139.167 -1.48008 135.835 1.24414V1.75098L134.351 1.49902L137.329 2.5127C137.16 2.5444 137.005 2.57669 136.836 2.60645C136.526 2.30585 135.478 1.9936 134.346 1.49805H134.342L134.835 2.26367C131.801 4.10612 132.551 1.76739 127.867 2.76953L126.367 2.5166C126.367 2.5166 124.874 2.26342 125.867 1.75098C125.719 0.485325 122.495 1.60372 124.874 2.26367V3.28223C125.597 3.87238 126.205 4.7909 126.577 5.28906C125.949 5.64748 124.59 5.79857 123.374 6.07617L124.327 4.28418C112.527 4.06611 109.946 7.05066 104.924 9.38086C108.263 9.84156 105.803 10.5191 104.924 11.416C106.425 11.5047 108.601 11.2354 108.911 11.9219C106.532 12.7463 104.222 13.6 99.9434 13.4492L100.437 12.6875C98.5236 13.1559 96.4833 13.4369 94.4561 13.7061L95.9492 13.9619C96.26 14.6488 97.3748 14.9322 96.9424 15.9932C91.2519 14.5974 87.4676 17.2479 80 16.502L80.5 15.9932L80 15.4863V14.9795L82.4932 15.2324L81.1152 14.3086C79.6149 13.4869 77.776 12.7969 77.1748 11.668L76.0195 12.4336C74.7968 12.3773 73.6548 12.2824 74.0195 11.415H72.0254L71.5186 10.6523C70.4981 11.148 69.2145 11.7161 67.5322 12.1768L69.0391 11.9209C68.9302 13.5725 64.5115 13.013 66.0391 15.4854C69.9649 16.9829 73.9253 15.5525 78.0068 16.501L77.5293 17.002L77.5244 17.0078L77.5205 17.0127L78.0068 17.5225C76.1626 17.5932 77.3925 19.2438 76.0205 19.5537C79.2033 19.1093 79.1291 20.3346 80.001 21.0781L78.3047 21.4375C78.9871 21.9305 79.5885 22.4362 79.8252 23.3682L81.001 22.6064C83.3051 22.4447 84.8257 22.6895 85.9883 23.1152L85.4883 23.8779C87.7655 23.9827 87.9149 25.2734 88.8271 26.2402L89.8066 26.9277L90.9766 26.165C94.6664 26.526 95.2478 25.2972 98.9443 25.6582L100.097 26.4141L99.6182 24.2129C100.118 24.9528 101.212 25.6442 100.099 26.415L100.107 26.4209L101.938 26.165C102.255 27.3446 101.776 28.1174 100.938 28.71C95.6266 28.6103 93.4839 27.8563 90.9766 29.7256C92.4421 29.8202 91.8816 30.9542 91.9697 31.7598C82.6708 30.7872 74.2835 34.4215 66.0391 33.7939C62.5719 33.5325 61.5034 31.4091 57.0703 31.7598V29.2168C60.5573 28.5005 63.4426 30.6411 65.0449 29.2168C64.6184 28.0827 60.1247 29.0121 58.0635 28.71C58.0162 28.0101 58.5373 27.5924 59.0645 27.1836L60.5576 26.5898C58.9496 26.267 58.1718 26.0809 56.5703 25.7412L57.0703 26.6709C55.0764 27.1879 52.8121 27.5543 52.082 28.71C53.6499 28.7533 55.5359 28.6404 55.0762 29.7256C54.0629 30.7362 53.3461 31.8968 51.082 32.2656C49.9872 30.4101 43.3308 30.3914 41.1143 31.7598C43.3911 32.2904 43.8848 33.7372 46.1016 34.3008L45.5947 34.8125L45.1006 35.3193C42.302 37.5896 34.5033 34.9906 29.1445 35.3193C29.0771 33.8298 26.86 33.4332 25.1572 32.7783C18.6019 32.6897 17.9462 31.0247 14.1953 29.2168C10.7492 27.5655 10.8432 28.0287 9.21484 26.165C8.24158 25.0707 3.19385 24.1115 3.22754 24.1309C2.55195 23.6275 2.93701 22.2933 2.23438 21.5898C1.74222 21.1085 0.76255 20.6113 0 20.1299V18.3242C0.329311 18.2207 0.695272 18.1198 1.22559 18.0273C1.19933 20.5314 5.84092 17.4992 7.19922 19.043C10.2336 19.9482 3.51662 21.0316 7.19922 22.0928C8.96286 21.6321 8.84843 20.2175 11.1865 20.0615C11.5259 21.7148 19.3776 21.2258 21.1621 20.5684L21.6689 21.3301L23.1562 21.0742L23.6562 20.3145L22.1621 20.0615C20.3647 17.6616 16.9043 20.3844 13.1875 20.0615C9.57207 18.7202 14.0523 18.3449 12.1943 17.0088C6.68804 16.7234 4.12007 14.9395 0 13.9482V0H1600V10.8135ZM466.873 40.4043C467.765 40.8058 471.286 43.524 466.873 43.4541C465.23 43.5376 465.23 40.3183 466.873 40.4043ZM582.533 37.8604C582.115 39.2635 586.258 38.3379 586.521 39.3887C583.71 38.9655 583.946 40.1021 581.533 39.8945C581.701 39.1355 581.174 38.0144 582.533 37.8604ZM313.319 30.7383C312.57 32.4778 317.367 31.3848 316.307 33.2812C310.824 37.0954 297.303 36.8152 285.401 37.3516L285.895 36.4199C283.367 36.8455 280.211 36.5038 278.893 35.2402C280.198 34.3836 281.935 33.7326 283.732 33.1133C284.368 33.2804 285.32 33.761 286.226 34.5527L287.382 33.79C292.315 35.4575 300.364 32.9338 310.319 33.2812C310.427 31.9858 312.15 31.5037 313.319 30.7383ZM1022.13 35.5684C1022.52 35.0566 1024.8 34.5989 1025.84 34.7891C1026.07 35.274 1024.24 35.1989 1025.38 35.5625C1024.3 35.5657 1023.22 35.5658 1022.13 35.5684ZM1137.66 34.7949C1138.73 34.7459 1138.17 35.2451 1139.05 35.2588V35.415C1138.43 35.415 1137.81 35.4124 1137.2 35.415C1137.34 35.2055 1137.86 35.1209 1137.66 34.7949ZM936.826 33.4404L937.677 33.3623C938.297 33.6587 937.346 33.9818 938.15 34.4443L937.457 34.3682C937.844 34.5863 937.677 34.8333 937.724 35.0693L937.453 34.3682L937.224 34.6035C936.832 34.5706 936.785 34.6598 936.758 34.7568L935.607 34.6758C936.326 34.9255 936.663 35.1968 936.765 35.3711L935.604 34.6758H935.602L935.839 35.0635H935.373L934.67 34.9873L933.981 35.0654C933.764 34.1058 935.386 34.184 933.967 33.5215C935.13 33.5429 935.406 33.2763 936.279 33.209L936.826 33.4404ZM1019.35 34.7979C1019.53 34.5041 1019.94 34.8939 1019.81 35.1074C1019.64 35.4 1019.22 35.0108 1019.35 34.7979ZM980.361 34.2295C981.261 34.2943 982.361 34.2887 982.227 34.6963C981.023 34.739 980.227 34.6395 980.361 34.2295ZM327.275 32.2627C329.12 30.2267 333.545 31.8018 333.256 33.79C329.951 34.668 328.937 33.483 327.275 32.2627ZM1017.24 33.4883C1016.97 33.5129 1016.73 33.5046 1016.5 33.502C1016.27 33.44 1016.19 33.3863 1016.13 33.3379C1016.22 33.195 1016.48 33.0011 1016.32 32.8711L1017.24 33.4883ZM1114.43 32.2002C1115.01 32.265 1115.38 32.3976 1115.37 32.6621C1114.9 32.6647 1114.44 32.665 1113.97 32.665C1114.21 32.5406 1114.46 32.4133 1114.43 32.2002ZM1004.94 32.1904C1004.91 31.7749 1007.31 32.5893 1005.88 32.6514C1005.57 32.654 1005.25 32.6533 1004.94 32.6533C1005.27 32.5289 1005.66 32.2306 1004.94 32.1904ZM1019.32 32.0195C1019.78 31.5034 1020.24 32.189 1020.72 32.168C1020.61 32.3914 1019.32 32.2253 1019.32 32.4805C1017.69 32.4397 1020.97 32.0597 1019.32 32.0195ZM1120.01 32.1953C1120.63 32.214 1121.4 31.5616 1121.86 32.0332V32.1904H1122.32C1122.53 32.4428 1119.8 32.4453 1120.01 32.1953ZM988.655 26.4971C990.506 26.8556 992.04 27.3242 995.616 27.1035L995.392 27.3379L996.082 27.2568C997.021 27.6749 999.825 29.0031 996.562 28.6504C996.94 29.291 998.946 28.9332 999.812 29.1084C999.326 29.5234 999.764 30.5658 997.981 31.1182C998.67 31.3524 998.805 31.7699 999.839 31.8916C999.575 32.2624 998.088 32.2365 997.055 32.3574C997.143 32.2306 997.514 32.2 997.515 32.0469C994.94 32.1924 992.541 31.4793 989.162 31.4385C988.918 31.212 988.472 31.048 988.222 30.8242C988.425 30.1695 990.418 30.1073 991.007 29.582C991.221 29.0944 989.83 29.1479 989.141 28.9648C990.162 28.5118 989.269 27.6576 987.269 27.7334C987.148 27.1275 988.944 27.154 988.655 26.4971ZM1011.42 31.2549C1012.6 31.4248 1009.88 31.9971 1009.12 31.5654C1008.89 31.136 1011.65 31.6835 1011.42 31.2549ZM985.674 31.0586C985.457 30.9836 985.086 30.9312 984.721 30.8613C984.701 30.6513 984.991 30.4766 985.201 30.2852L985.674 31.0586ZM929.763 30.4355C930.399 30.4789 930.155 30.8214 930.229 31.0537C929.487 30.9055 929.169 30.6432 929.763 30.4355ZM1151.07 29.835C1151.68 29.8887 1151.8 30.1051 1152.47 30.1426C1152.65 30.514 1151.62 30.4762 1152.01 30.915C1150.61 30.8962 1150.51 30.0395 1151.07 29.835ZM651.338 29.7227C654.17 29.2187 659.083 29.1808 656.326 30.7383C656.772 29.3213 650.887 31.1384 651.338 29.7227ZM933.007 29.0439C933.751 29.2542 935.393 29.1681 935.785 29.502H935.324C935.999 29.6231 936.913 29.7418 936.953 30.0371L935.321 29.502H935.319L935.325 29.6553C935.589 29.97 936.724 29.9543 935.791 30.2744C935.318 30.1722 935.304 29.916 934.405 29.9639L933.932 29.6572L933.472 29.9639C933.08 29.9935 933.033 29.9071 933.006 29.8135C932.695 29.8135 932.391 29.8138 932.087 29.8164L932.08 29.6602C931.682 29.7727 931.438 29.7732 931.162 29.7842C930.729 29.6632 930.601 29.4686 930.277 29.334L931.763 29.6064C932.236 29.4371 932.884 29.3235 933.007 29.0439ZM417.017 22.0928C414.18 24.4442 421.234 23.7275 422.998 25.1436L422.491 25.6533L422.005 26.1602C422.841 28.4555 419.666 28.7004 419.004 30.2305C414.421 29.8565 408.792 30.0126 407.042 28.1973C412.474 28.1973 406.353 24.3557 407.042 22.0928C411.029 22.5942 413.03 22.5942 417.017 22.0928ZM926.053 29.9736C924.85 29.8277 927.121 29.2127 927.905 29.666C928.24 30.0831 925.715 29.561 926.053 29.9736ZM330.263 27.1797C332.615 27.1661 333.203 28.0544 336.244 27.6855C336.534 29.0165 335.885 29.876 333.256 29.7227C332.094 28.9605 330.377 28.4804 330.263 27.1797ZM1398.81 28.7383C1399.68 28.136 1398.27 29.4445 1399.28 28.8896C1400.7 29.0378 1398.75 29.3053 1398.82 29.5098C1398.06 29.5796 1398.05 28.6684 1398.81 28.7383ZM390.093 24.126C396.892 22.8544 400.142 26.8987 404.056 28.7061C397.256 29.3071 394.526 29.9838 389.093 28.1973C388.654 26.4489 389.485 25.3437 390.093 24.126ZM806.885 29.2129C804.127 29.883 803.458 27.2036 804.891 28.7061C806.283 28.6653 808.703 28.8169 806.885 29.2129ZM850.867 28.2246C851.422 28.2435 851.266 28.5023 851.341 28.6826C850.55 28.7447 850.469 28.5636 850.401 28.375C850.799 28.4021 850.854 28.3158 850.867 28.2246ZM1396.95 28.1191C1397.14 27.7339 1399.08 28.0014 1398.34 28.4297C1397.32 28.5131 1397.67 28.1353 1396.95 28.1191ZM320.294 25.6543C324.045 25.4336 324.836 26.7291 326.275 27.6855C324.701 28.4289 318.37 28.7376 319.301 26.667L320.794 26.416L320.294 25.6543ZM0 28.2344V28.2031L0.725586 28.1973C0.484991 28.2057 0.241205 28.2227 0 28.2344ZM1407.62 26.8721C1409.25 26.9206 1408.81 27.2764 1408.56 27.6426C1407.93 27.6426 1407.31 27.6429 1406.69 27.6455C1406.89 27.3492 1408.01 27.3595 1407.62 26.8721ZM1391.37 26.1201C1392.5 26.2042 1393.75 26.2497 1393.69 26.7344L1393 26.8125L1393.23 27.0439C1392.83 27.1655 1392.19 27.2138 1391.38 27.2002C1391.75 26.7643 1390.71 26.7989 1390.91 26.4297L1391.59 26.3486H1391.59L1391.37 26.1201ZM884.732 26.7881C885.611 26.2227 887.079 26.0043 888.902 26.3193L888.206 26.5L888.443 26.7822C887.936 27.0657 885.058 27.348 884.732 26.7881ZM192.672 25.1445C194.99 24.9859 196.788 24.1509 198.64 25.1445C198.456 27.291 193.085 26.7418 192.672 25.1445ZM1418.26 23.9189C1421.72 23.5579 1422.46 24.5224 1424.3 24.9941C1425.79 25.3771 1428.88 25.2577 1428.01 26.0684C1423.59 26.2197 1419.04 25.7428 1418.26 23.9189ZM1384.39 24.7373C1386.16 24.813 1387.19 25.1451 1388.11 25.5029C1388 25.6753 1387.19 25.6137 1387.19 25.8154C1387.11 25.9446 1387.38 25.9604 1387.65 25.9688C1387.03 26.219 1383.83 26.0226 1383.48 25.667L1383.71 25.4355L1383.47 25.2012C1383.91 25.0905 1384.17 24.9203 1384.39 24.7373ZM984.47 25.2627C985.917 25.1903 985.964 25.5929 985.869 26.0342C985.085 25.8459 983.497 25.5889 984.47 25.2627ZM1409.44 22.6963C1411.95 23.4501 1414.33 24.2611 1415.49 25.4678C1414.03 25.2362 1412.93 25.5163 1412.25 25.9395C1411.21 25.2012 1409.92 24.5467 1407.6 24.2451C1407.76 23.5769 1410.15 23.6521 1409.44 22.6963ZM835.999 24.8428C836.134 25.0908 835.56 25.1106 835.533 25.3076H834.607C834.479 25.0595 835.053 25.0421 835.073 24.8428H835.999ZM1389.96 24.2695C1392.17 24.1757 1391.79 24.9539 1392.29 25.04C1391.25 25.4733 1389.43 24.8679 1389.96 24.2695ZM1389.01 21.333C1389.73 21.5569 1389.92 21.9522 1391.79 21.793C1391.31 22.2484 1389.69 22.3349 1388.56 22.5664C1388.96 23.0542 1389.71 23.4236 1390.88 23.6475C1389.21 23.8784 1390.06 23.9837 1389.5 24.5762C1388.82 24.663 1387.1 24.3995 1387.18 24.7334C1385.9 24.5987 1388.25 24.1056 1385.79 24.2725C1387.43 23.7879 1385 23.6579 1386.24 23.0381C1385.93 23.0381 1385.62 23.0384 1385.31 23.041V22.8818H1384.85C1385.2 22.5397 1385.81 22.2779 1385.77 21.7988C1388.13 21.9289 1388.11 21.8769 1389.01 21.333ZM1395.94 18.6953C1400.28 18.9109 1402.05 20.7646 1406.16 20.5381L1406.64 20.5352V20.3877C1407.78 20.5624 1407.74 21.1467 1408.49 21.4619C1407.73 21.9677 1405.3 21.7339 1404.32 21.4668C1403.7 21.6201 1403.39 21.8792 1402.93 22.0869C1403.42 22.6956 1404.07 23.2609 1404.35 23.9395C1401.82 24.4971 1398.26 24.2559 1396.45 23.4854C1396.57 22.9115 1399.22 23.1669 1399.7 22.709C1399.24 22.3939 1397.9 22.3768 1396.44 22.4014L1395.88 22.1943L1395.05 22.251C1396.68 21.12 1393.92 20.4432 1393.17 19.624C1395.38 19.745 1395.91 19.3014 1395.94 18.6953ZM1374.14 17.7988C1376.76 17.3324 1378.14 19.6295 1378.33 20.4219C1378.61 21.4805 1377.14 22.6227 1378.36 23.1973L1377.66 23.2783L1377.43 23.5127C1375.26 23.2591 1374.14 22.6504 1372.32 22.2842C1372.43 21.9633 1374.35 22.2352 1374.63 21.9717C1375.6 20.0941 1373.39 19.1722 1374.14 17.7988ZM877.731 21.8535L878.272 22.0879L879.13 22.0039C879.056 22.4965 880.36 22.5209 880.055 23.085C879.344 23.3267 877.359 22.8292 876.818 23.4004C877.034 22.6459 877.115 22.8177 876.345 22.3145C877.994 22.5596 876.615 21.794 877.731 21.8535ZM851.76 22.502C851.962 21.7475 856.288 21.6511 855.93 22.6553C854.26 22.5558 852.348 23.1564 851.76 22.502ZM963.568 21.8936C964.102 21.9423 965.169 22.5641 964.041 22.6631C962.804 22.7116 962.513 22.4524 962.635 22.0488L963.331 22.124L963.568 21.8936ZM1368.11 19.9697C1369.7 20.1103 1369.24 20.9345 1369.52 21.5137C1368.19 21.4975 1366.48 21.6025 1365.81 21.3652C1366.13 20.7481 1367.36 20.4381 1368.11 19.9697ZM1389 21.0254C1387.92 20.92 1387.06 20.7475 1387.15 20.2549C1387.77 20.2523 1388.39 20.252 1389 20.252V21.0254ZM861.884 18.083C860.696 18.8932 859.49 19.6945 858.417 20.5635C858.364 20.6061 858.304 20.6443 858.253 20.6875L858.626 20.7188L859.16 20.4873C860.572 20.5274 860.822 20.9638 862.876 20.791C863.073 20.4949 863.869 20.3976 863.796 20.0156C863.424 19.8837 862.52 19.9263 862.404 19.708C862.323 19.1904 862.115 18.6388 861.884 18.083ZM408.036 20.5674C410.922 18.0541 419.667 16.0958 425.993 17.0088C423.857 20.1557 415.625 20.2011 408.036 20.5674ZM1600 19.4004C1597.82 19.8003 1595.48 20.0035 1593.09 20.0605L1600 14.2842V19.4004ZM1458.58 18.7676C1458.5 18.8996 1458.76 18.9134 1459.04 18.9238C1459.23 19.223 1456.93 19.1509 1457.65 18.7705C1457.96 18.7705 1458.27 18.7676 1458.58 18.7676ZM1426.56 18.0381C1428.09 18.0408 1428.34 18.4773 1428.42 18.9619C1427.37 18.8002 1426.73 18.4984 1426.56 18.0381ZM1461.36 17.9922C1461.49 18.3988 1461.2 18.6582 1459.97 18.6123C1459.84 18.2111 1460.13 17.9469 1461.36 17.9922ZM112.898 17.0088C115.068 17.5883 119.344 17.1088 119.879 18.5332C117.068 18.2693 111.453 19.4386 112.898 17.0088ZM1425.63 16.8037C1426.64 16.7745 1427.1 16.9314 1427.02 17.2686C1426.01 17.2957 1425.54 17.1412 1425.63 16.8037ZM1380.75 17.0205C1380.99 17.1023 1381.22 17.1892 1381.66 17.2021C1381.35 17.1436 1381.02 17.0975 1380.75 17.0205ZM1467.84 16.4404C1468.39 16.4625 1468.24 16.7205 1468.31 16.9014C1467.52 16.9584 1467.43 16.7831 1467.37 16.5947C1467.77 16.6237 1467.82 16.5349 1467.84 16.4404ZM1351.18 13.8936C1349.12 14.8642 1348.29 15.8589 1350.04 16.8379C1350.57 16.119 1350.65 14.8776 1351.5 14.4795C1351.53 14.2195 1351.17 14.1476 1351.18 13.8936ZM1228.7 16.2109C1228.72 16.2109 1228.74 16.2045 1228.76 16.2051C1228.74 16.2037 1228.72 16.1876 1228.7 16.1875V16.2109ZM1465.99 15.9805C1464.43 15.8942 1468.45 15.325 1465.98 15.8242C1465.96 15.827 1465.99 15.9805 1465.99 15.9805ZM1497.99 15.1631C1498.71 15.2279 1498.39 15.6512 1499.84 15.4707C1499.32 15.8937 1496.49 15.4704 1497.99 15.1631ZM130.841 8.87012C133.7 8.76792 136.281 8.80273 135.828 10.3945C134.091 9.92609 130.484 10.4101 130.841 8.87012Z"/>
</svg>
