<svg viewBox="0 0 1600 46" xmlns="http://www.w3.org/2000/svg">
<path class="elementor-shape-fill" d="M135.835 1.12695C139.167 -1.59727 150.034 1.09181 144.81 4.17969C145.122 4.86842 147.304 4.59957 148.804 4.68555C145.628 6.29093 143.303 8.32832 138.829 9.2627C139.741 10.9701 140.682 9.51646 143.817 9.76953C145.87 12.3355 142.925 12.3049 141.816 14.3516C146.182 14.012 153.669 14.7154 150.791 16.3828C153.852 15.9869 154.055 19.6831 159.766 19.4355C156.564 22.2778 163.841 23.6606 167.741 24.5225C168.903 23.2511 171.221 22.5656 170.742 20.4541C176.236 19.8537 171.491 24.4763 175.722 24.5225C180.129 24.7405 177.892 21.5562 181.703 21.4727C185.312 22.5967 182.035 24.2561 184.704 26.0479C186.806 25.1504 187.638 24.9024 190.679 25.541C187.732 24.9372 190.962 22.2731 187.685 20.9609C186.962 19.5766 189.67 19.9361 189.685 18.9297C191.301 18.7007 191.3 21.699 189.685 21.4727C190.766 22.6116 195.942 21.6669 194.666 24.0127C197.647 23.4064 198.059 23.8728 200.654 24.5225C201.234 26.1431 198.776 26.0956 200.654 27.0654C210.751 26.8499 223.24 23.0539 234.553 24.0127C243.19 24.7478 251.921 28.7275 251.503 33.167C254.01 33.587 256.842 33.8351 256.49 35.71C262.566 36.0949 265.527 34.8997 271.44 35.2012C270.954 33.598 273.243 33.4061 272.447 31.6426C271.554 32.0378 270.189 32.1891 268.452 32.1484C271.628 30.7209 273.332 28.5391 279.414 28.5928L280.58 27.8281L280.583 27.8271L282.414 28.083V27.5713C283.299 27.8003 284.191 28.0215 284.401 28.5928L285.901 28.8457L285.408 29.6074C288.212 29.1876 287.989 30.3247 290.388 30.1172C290.977 28.4957 288.511 28.5403 290.388 27.5713C292.369 29.6072 298.668 29.4573 301.357 31.1357C303.912 29.0483 308.799 28.1451 315.313 28.083L314.82 27.3184C315.813 27.5959 316.814 27.8602 317.807 27.8271L316.314 27.5713C316.158 26.9812 316.537 26.6687 317.3 26.5527L316.814 25.793L317.3 25.0312C317.496 24.5998 316.922 24.5539 316.314 24.5215C315.625 23.1507 318.374 23.5382 319.307 22.9971C319.003 21.7989 315.85 22.0484 316.314 20.4541C314.227 20.2386 313.671 20.8017 312.326 20.9609L311.333 21.2168C311.07 20.815 310.644 20.1288 309.84 19.9482L310.326 19.4365C308.488 19.3615 309.718 17.7154 308.339 17.4053H302.358C304.094 18.3812 303.824 20.3818 306.345 20.9609L306.845 20.2012L307.339 21.7266L306.345 21.4727C307.053 22.2991 301.638 22.2991 302.358 21.4727C299.413 21.9114 304.662 22.2329 303.359 23.5068C298.256 23.5554 298.851 20.7166 294.377 20.4551C292.783 21.4175 295.264 23.3834 297.364 24.0137C292.526 27.33 291.106 21.473 285.409 21.9795C284.098 23.3481 284.219 25.4448 281.422 26.0479C274.75 23.4077 269.735 17.5701 260.477 17.915C255.936 16.4953 255.902 12.7857 250.502 11.8047L250.002 12.5703C249.672 12.1533 249.387 11.6708 249.212 11.417C248.495 11.2365 246.732 11.3208 245.022 11.0459L246.515 10.7891C244.177 9.94862 244.366 7.82283 244.515 5.70605C250.123 6.19396 252.476 5.01378 255.497 4.18164C258.255 4.35898 261.356 5.70092 259.478 6.72461V7.2334C258.565 6.98312 257.2 6.98594 256.294 7.13672C256.071 7.36039 255.781 7.55148 255.497 7.74023V7.2334C254.321 7.37647 251.355 9.47111 251.503 7.2334C248.476 9.08397 253.801 10.2453 256.49 11.8047C257.437 10.2619 262.694 10.9091 266.458 10.79C269.304 13.0689 273.292 14.7689 275.44 17.4062H283.408C283.395 16.0565 283.963 14.4072 281.422 14.3535C282.07 13.8335 283.711 13.8248 283.408 12.8232H286.409L287.564 12.0615C288.071 12.4506 288.817 12.8682 289.382 13.0742L287.567 12.0615L289.389 12.3174C290.234 10.505 291.849 12.2553 295.377 11.8057L294.877 11.0459C297.009 12.5675 298.916 14.7278 303.352 14.3486L294.882 11.0439L296.364 10.79C301.75 9.10905 305.265 12.2101 309.333 12.8242L308.975 11.9189L308.98 11.916L311.819 12.5645C310.817 12.2186 309.902 12.115 308.981 11.915L310.327 11.2988C309.32 9.94644 308.191 8.15511 313.327 8.75879L312.821 7.82324L318.802 8.6748L317.301 9.26367C317.742 10.0634 320.45 9.70159 319.309 11.2988C322.687 11.1616 327.392 11.6916 329.284 10.7891L330.771 10.5361C329.887 11.15 329.412 11.7615 329.284 12.0605L328.284 11.8047C325.79 11.7212 325.155 12.5911 324.297 13.332C322.722 13.1159 323.445 11.7372 320.303 12.3164C319.655 14.5146 322.026 15.1697 323.296 16.3848C324.608 16.2068 324.872 15.4924 326.284 15.3682C326.439 16.6309 325.777 17.4754 324.297 17.9141L324.797 18.8438L323.296 19.4365V20.9609C333.224 21.1518 333.765 26.1364 343.234 26.5537C345.585 28.0731 346.978 30.0782 351.208 30.625C350.896 31.8181 348.119 31.7648 347.228 32.6621C350.08 37.3095 364.577 36.0163 374.152 37.2393C374.922 36.7275 374.775 35.9679 377.132 35.2031C379.28 35.968 376.429 36.4504 378.132 37.749H379.126L379.633 36.9834L379.639 36.9814C381.899 37.6146 384.279 36.6806 386.538 37.1914C386.843 37.0807 387.222 36.7812 387.606 36.4688L388.1 37.2344C394.385 36.3265 402.691 39.8394 409.037 37.2344L408.543 36.4688L410.037 36.2158C408.246 35.7772 406.914 35.0977 406.042 34.1797V34.6914H405.049C401.832 36.792 393.71 34.9933 392.087 33.1641C388.444 34.6211 387.221 33.037 384.112 33.6729C383.647 35.2238 386.944 34.8594 386.18 36.5615L379.684 36.9746L381.126 36.7285C382.87 35.0313 381.795 33.8748 379.126 33.1689C381.572 32.7191 380.924 30.6931 383.12 30.1191L382.626 29.1904L384.12 28.5947C385.167 26.7014 380.755 27.5945 380.133 26.5557L378.632 26.3047L378.637 26.2959L379.126 25.543H377.132C377.274 22.5608 385.748 25.9488 387.107 23C385.708 20.8957 383.89 22.1619 379.126 21.9814C384.269 20.228 375.161 19.1761 376.146 16.3857C370.99 16.407 372.65 15.8976 371.158 13.8457C369.083 14.9474 367.934 13.7811 366.17 13.334C369.408 11.8871 375.605 13.2479 376.146 14.8643C383.687 13.8542 390.811 13.8237 397.082 15.3701C394.907 16.4344 397.576 16.8201 397.082 18.4229H395.088V19.4385H393.094C393.919 21.2192 397.678 21.5079 402.063 21.4756C404.273 20.3601 405.9 18.646 404.063 17.916C404.902 16.8168 406.523 16.1133 410.044 16.3857C410.746 14.5023 408.342 14.1998 409.044 12.3174C411.172 11.4341 414.761 14.1286 415.025 15.877C418.309 15.8556 419.985 15.02 424 15.3701L423.5 14.4346C424.837 14.8577 426.162 15.057 427.487 15.2861L426 15.876C426.144 16.8183 429.372 16.189 429.987 16.8975V18.4219L431.488 18.1689L429.487 20.2031L429.987 19.4375C426.905 19.5643 424.35 19.9553 422.012 20.4561C423.208 24.6069 431.237 23.6439 436.962 24.5244C436.9 26.0156 433.919 26.0225 432.974 27.0674L434.453 27.3164L430.723 27.6973C431.82 27.7056 433.162 27.5422 434.456 27.3164L434.475 27.3203L433.968 28.085C437.753 28.9418 440.706 31.5148 437.962 34.1846C442.226 34.3865 448.848 33.3815 448.924 35.7119C450.207 35.0118 453.256 35.2109 455.918 35.2031C460.304 38.554 473.618 37.3612 473.861 42.835C484.08 43.8527 488.337 42.9993 495.792 42.835C495.15 40.8092 496.339 39.7269 499.786 39.7832L501.279 39.5303C501.326 40.2061 501.307 40.8818 501.61 41.5635L499.786 41.3105C500.36 42.9582 499.104 43.6761 498.786 44.8691C508.349 46.2836 520.675 44.8908 528.698 43.8535C526.833 42.8813 528.582 42.5727 528.698 41.3105C537.362 41.0815 547.525 39.127 544.654 34.6963C541.302 35.0166 539.544 36.1564 534.679 35.7119C536.739 34.0495 540.889 33.4522 546.647 33.6787L546.154 32.916L546.164 32.9141L546.168 32.9131L547.641 32.6631C548.681 30.8171 555.717 32.0317 557.609 30.626C564.868 35.1861 581.222 31.4043 591.515 30.1191C593.697 30.1915 593.657 31.3985 593.509 32.6621C597.164 32.6621 596.157 30.2835 601.49 31.1377C601.666 30.025 600.679 29.5166 598.489 29.6104C599.01 27.838 605.011 28.8639 608.464 28.5947C608.349 26.1406 616.689 25.9313 619.426 26.5557L619.933 25.7959L619.426 27.5742V27.0674C617.547 27.6302 614.722 27.7188 612.458 28.085C616.181 30.2401 608.343 29.7502 608.464 31.6436C611.998 32.6748 618.196 31.372 622.42 31.1377L621.926 30.2021C622.595 30.2772 623.258 30.3508 623.92 30.3721L623.427 31.1377C623.26 32.2355 626.955 31.3686 628.407 31.6436L627.914 30.8818L629.401 31.1377C629.402 28.5869 635.812 29.318 636.389 27.0674C633.267 27.3015 631.935 26.6245 632.388 25.0332L631.401 25.292L633.896 24.0146L633.396 24.5244C638.728 23.5035 642.52 26.2569 648.521 26.5312L642.873 27.4922L642.863 27.4883L643.357 26.5498C640.539 26.1317 640.775 27.2747 638.376 27.0625C637.546 28.5001 639.782 28.3802 639.376 29.6055L640.863 29.3516L642.356 29.6055C643.289 29.2342 643.877 28.683 644.35 28.0801L642.873 27.4922C645.021 27.0727 647.514 27.616 649.547 27.0186C649.641 26.7794 649.757 26.5413 649.844 26.3047L650.338 26.0488C654.595 27.6164 663.238 26.9328 664.306 30.1191C675.12 28.2257 677.633 31.2861 690.231 30.626C691.665 27.404 698.652 29.0209 703.2 29.6104C700.064 27.4873 707.856 23.766 697.205 22.4893V22.999C696.915 22.6678 696.374 22.1747 695.712 21.7275L697.205 21.9805C700.76 21.9319 704.058 21.7458 705.18 20.4561L704.68 19.6934C706.018 19.8686 707.35 19.9657 708.668 19.6934L708.181 20.4561C711.979 20.8792 715.622 21.3824 716.149 23.4814L713.79 23.8428C715.141 23.7192 716.615 23.7808 717.649 23.2529L717.142 24.0156C718.236 24.1419 717.824 25.0284 719.149 25.0342C720.202 26.9296 715.399 25.8366 716.155 27.5742C719.163 30.0009 728.415 27.7306 731.104 25.543C733.382 26.4183 736.68 26.7685 741.08 26.5557C742.317 28.8128 748.115 28.7304 751.048 30.1201C760.401 26.4804 773.093 32.1023 781.96 27.5742C782.273 29.7013 793.639 27.8976 796.923 29.1016C799.822 28.549 800.829 27.0272 801.903 25.543C822.786 26.9711 841.635 23.8862 857.327 21.0371C857.268 21.3638 857.397 21.7538 857.327 22.0752L858.179 22L858.712 22.2305C860.044 21.9801 861.449 22.1851 862.429 22.2227L862.654 21.998L862.661 22.2969C862.728 22.1983 862.827 22.1211 862.659 21.9941L863.354 22.0674C865.307 22.2692 863.354 22.5794 863.361 22.9941C865.307 22.9721 866.267 22.6189 867.537 22.3711C867.598 22.7532 867.611 23.1178 867.078 23.3008C870.862 25.0383 873.457 21.1186 869.842 20.8223C867.977 20.973 867.078 21.2421 865.665 20.8301C865.726 20.4878 867.632 20.7591 868.443 20.668C868.726 20.3468 867.863 19.6549 868.903 19.585C869.167 19.0334 866.134 19.5843 866.578 18.9736C868.923 18.8061 868.923 19.4285 870.295 19.585C872.214 19.706 871.16 18.8438 873.079 18.9629C873.014 19.2397 873.547 19.3257 874.465 19.2695L875.026 19.0586C875.418 19.3387 876.013 19.6161 876.959 19.7002L876.331 19.8887C875.615 20.729 877.257 21.3343 877.729 21.4287L878.432 21.3545L879.128 21.4287C879.716 21.4184 879.77 21.2298 880.513 21.2705C880.418 21.1005 880 21.0331 879.581 20.9658C880.622 20.7233 885.657 21.1304 884.237 21.7314C885.386 21.2361 887.63 21.1059 887.941 20.3359C889.948 20.6077 889.097 21.3542 887.948 21.7256L888.626 21.7988C887.61 21.8821 886.523 21.9628 885.863 22.2637L886.085 22.0312C885.538 22.0074 884.768 22.0605 884.692 21.8809C884.489 22.0643 884.286 22.6407 883.307 22.9609C883.631 23.3215 884.854 23.3732 885.179 23.7314C887.408 23.5186 885.565 22.915 886.551 22.3418L885.865 22.2637C886.526 21.963 887.613 21.8821 888.63 21.7988L888.643 21.8008L888.414 22.0332C889.873 22.1082 890.043 21.7527 891.651 21.8711C892.744 22.6064 889.294 22.6177 890.739 22.96C889.745 23.297 887.285 23.1487 887.961 24.043L888.19 24.1924L888.197 24.1963L887.968 24.3525C889.143 24.1798 890.353 24.8761 890.279 24.1934C891.819 24.7128 888.333 24.8746 887.968 25.2783L888.664 25.3545L888.435 25.5889C889.252 25.6238 889.503 25.8498 889.374 26.2031L889.604 26.4346L889.84 26.665C893.868 26.4657 898.519 24.9044 900.979 26.3428C902.667 25.6499 901.256 24.7246 901.417 23.7148C901.883 23.863 902.349 24.02 902.809 24.1758C903.39 23.8011 903.741 23.3513 904.654 23.0898C906.871 23.4347 908.593 23.9386 911.162 24.165C911.363 24.746 910.249 24.8899 909.776 25.248C909.682 25.5381 910.303 25.5878 910.242 25.8652C912.418 25.6199 913.148 25.2292 914.885 25.8594C915.703 25.7196 916.318 25.509 916.737 25.2393C919.028 25.8459 921.807 25.0079 923.691 25.0752C924.205 25.4198 924.956 25.6844 926.489 25.6895C927.206 25.364 928.199 25.1238 930.186 25.2207C930.233 26.0286 931.012 26.6007 931.605 27.2256C933.687 26.9915 935.052 27.1129 935.775 27.6836C936.6 27.4921 937.12 27.2067 938.093 27.0645C939.378 26.9972 938.533 27.6414 939.493 27.6816L940.183 27.6074C939.763 27.8231 939.609 27.9408 939.488 28.0645L939.022 27.9883C938.846 28.389 937.65 28.4575 937.643 28.918C937.947 29.1255 938.637 29.2029 939.502 29.2275C940.948 29.1362 941.495 28.7546 942.739 28.6006C942.968 28.0082 939.957 28.5016 939.954 27.9883L939.488 28.0645L940.185 27.6074L940.196 27.6064L939.952 27.8379C941.689 27.7435 942.588 27.3659 943.669 27.8291C943.667 28.0326 942.852 27.9727 942.743 28.1416C943.318 28.6121 944.514 27.9158 945.068 28.293C945.34 29.3328 947.919 30.8036 943.703 31.6924C945.183 31.9215 945.609 32.5036 946.494 32.9268C947.122 32.875 947.386 32.7023 948.352 32.7695C947.076 32.2851 951.23 31.9074 949.717 31.0645C949.92 30.8815 951.927 31.0346 952.975 30.752C951.792 30.2673 953.069 29.6661 951.576 29.5205C953.698 28.99 955.901 28.486 957.117 27.6592C956.245 26.8861 957.475 26.4838 958.496 25.9531C957.078 24.3235 958.42 23.7221 958.469 21.9395L957.766 21.7588L958.003 21.4795C956.968 21.3553 956.145 21.1682 956.13 20.708C956.658 20.6724 956.861 20.533 957.063 20.3984L956.826 20.1631L957.049 19.9287C956.427 19.8317 956.191 19.602 956.117 19.3145C955.57 19.4898 955.285 19.7586 953.806 19.624V19.0078C956.049 19.0318 956.658 18.5143 957.976 18.2314C961.767 18.7892 963.41 17.3865 966.775 17.292C967.059 16.9743 966.018 16.2228 967.701 16.3652C966.222 17.0491 968.816 17.4718 970.033 17.752C970.715 17.62 971.026 17.3617 970.951 16.9766C972.689 16.8129 972.446 17.3003 973.271 17.4375C974.452 17.2595 974.614 16.7499 974.655 16.1982C977.466 16.0773 976.628 16.9364 979.298 16.5049C979.352 16.6904 979.441 16.8687 980.23 16.8125C980.425 17.68 978.298 18.7787 979.778 19.1318C977.527 19.7647 976.419 21.5566 972.371 20.6865C972.601 19.8977 970.709 19.3875 972.364 18.9863L971.661 18.9092L971.432 18.6797C970.325 18.5801 969.271 18.4747 969.107 18.0635C968.175 18.7343 966.661 19.205 965.877 19.9219C964.944 19.9219 964.019 19.9222 963.093 19.9248C963.039 19.7358 962.958 19.558 962.16 19.6143C962.269 19.3967 962.917 19.3554 963.086 19.1514C961.951 18.8259 961.106 19.5208 958.916 19.3105C957.956 19.3591 958.801 19.997 957.517 19.9297L957.747 20.165L957.524 20.3965C958.706 20.7846 956.713 21.2825 958.464 21.4766L958.7 21.709L958.938 21.9375C960.086 21.8573 960.579 21.5609 961.241 21.3184C960.687 21.0214 959.478 20.5372 960.302 20.2383C963.201 19.9367 961.424 21.2079 962.64 21.4746L963.113 21.5498L963.573 21.6279C964.938 21.2269 966.775 21.986 966.364 22.7021C965.898 22.7021 965.431 22.7051 964.965 22.7051C964.506 23.5828 965.526 23.966 966.837 24.2461C966.788 24.8462 964.566 24.7289 964.533 25.3291C964.616 25.56 965.656 25.4714 966.378 25.4824C966.404 26.6109 964.682 26.7197 965.479 27.8027C962.56 28.2368 958.646 29.4997 960.856 30.2812L961.546 30.3564L962.248 30.4316C962.249 30.2756 962.633 30.2451 962.715 30.1221C963.674 30.2139 965.755 29.9281 965.965 30.2754C966.864 30.2081 965.195 29.8339 967.344 29.9658C967.452 29.6697 966.825 29.6223 966.878 29.3428C967.77 29.6986 968.54 30.0887 970.135 29.8008C970.797 30.0428 970.756 30.5228 971.534 30.7305L971.757 30.4961C971.858 30.7001 972.229 31.0119 973.157 31.2676L973.163 31.2695C973.298 31.2509 973.419 31.2369 973.561 31.2207C973.777 30.8708 974.534 30.598 974.292 30.2158C974.156 30.1265 973.751 30.0027 973.156 29.876L973.832 29.7949C975.359 29.3965 977.65 30.6332 979.414 29.793C980.725 29.8655 980.084 30.601 982.192 30.4043C983.091 30.1998 981.666 29.7202 982.652 29.3242C982.449 28.8771 981.672 28.623 980.327 28.5557C980.55 28.3727 980.827 28.2059 981.253 28.0928C981.057 27.8289 980.658 28.1225 979.861 28.0928C979.671 27.7209 980.704 27.7553 980.32 27.3174C980.247 27.0341 978.754 27.225 978.462 27.0127C978.625 26.037 973.293 25.0473 975.178 23.4609C976.99 23.6951 979.328 24.1107 980.754 23.6094C980.931 24.9797 985.829 23.4616 987.715 24.0625C989.18 23.9546 988.317 23.6524 988.174 23.2891C990.398 23.6289 991.513 24.3395 992.364 25.1367C994.054 25.2764 995.25 24.4633 996.548 24.9775C997.102 25.0261 998.136 24.5309 997 24.5146C999.008 24.3445 1002.04 24.5632 1003.95 24.043C1002.81 23.5603 1001.45 23.1513 1002.08 22.082C1002.46 22.0283 1002.82 21.9688 1003.32 21.9766C1002.97 21.309 1001.56 21.1763 1001.33 20.4521C999.709 20.6993 999.562 20.9135 999.76 21.2725C999.758 21.2696 999.753 21.2683 999.751 21.2656L999.055 21.3467C999.292 21.0886 999.331 20.829 999.055 20.5703L999.745 20.6514C1001.16 19.1238 1000.66 18.1292 1000.18 16.4756C1001.66 16.4756 1004 18.0415 1001.12 18.0195C1001.77 18.423 1003.52 18.4537 1004.84 18.6367C1004.98 19.6139 1005.66 20.2312 1003.93 20.7998C1004.02 21.2302 1004.75 21.4541 1006.25 21.4141C1005.63 21.8984 1007.37 22.3577 1007.64 22.0273C1007.46 22.9001 1010.63 23.9867 1009.06 25.2715C1007.33 25.1098 1007.58 25.5998 1006.75 25.7402C1007.75 25.9738 1008.49 26.295 1009.54 26.5078L1010.24 26.4268C1010.42 26.6741 1010.61 26.7954 1010.86 27.043L1010 26.9707C1010 27.2778 1010.02 27.591 1010.02 27.8975C1010.71 28.2804 1011.61 28.601 1013.27 28.6631C1011.46 29.3961 1013.18 29.9217 1015.14 30.207C1014.89 30.482 1014.91 30.8479 1014.21 30.9824C1014.95 31.3543 1015.89 31.6611 1017.01 31.9062C1018.83 31.8875 1018.36 31.1143 1020.24 31.1279C1020.53 31.4486 1021.23 31.6271 1021.65 31.8994C1022.01 32.4804 1021.09 32.6404 1021.19 33.1357C1021.88 33.8085 1026.02 33.6899 1026.76 33.1299C1025.64 32.9358 1024.6 32.7158 1023.97 32.3574C1024.76 32.2635 1024.73 31.8885 1025.36 31.7402C1024.26 31.18 1023.41 30.5337 1022.57 29.8926C1019.47 29.9463 1018.04 29.4431 1015.6 29.2812C1015.6 29.0738 1015.6 28.8686 1015.59 28.6611C1017.78 28.6314 1021.48 29.3504 1024.87 29.4209L1024.64 29.1377L1028.68 29.876C1031.92 30.6143 1034.85 31.5298 1038.81 31.7207H1037.89C1038.14 32.2354 1040.77 32.5027 1039.29 33.1113C1040.42 34.3438 1045.46 32.7023 1046.72 33.5635C1048.09 33.4561 1047.44 32.6775 1049.03 32.6348C1050.39 32.6451 1050.76 32.9845 1051.35 33.251C1051.42 33.6327 1050.63 33.7285 1050.44 34.0244C1050.63 34.3151 1051.43 34.4106 1051.36 34.7949C1056.18 34.8977 1055.06 33.0361 1058.77 32.7773C1059.84 33.1137 1059.53 33.2895 1058.78 33.7041C1058.63 34.0176 1060.11 33.6701 1060.18 33.5459C1062.35 33.9225 1061.78 34.7711 1061.12 35.4014C1062.81 35.3956 1064.52 35.3958 1066.22 35.3906C1067.07 35.0245 1067.41 34.4959 1066.68 34.0029C1067.1 33.623 1067.25 34.6171 1068.53 34.4639C1069.62 33.9328 1069.48 33.138 1069.45 32.2979C1071.85 32.2221 1071.67 31.2897 1073.6 31.0547C1078.13 31.1544 1074.81 34.3879 1079.65 33.5234C1079.28 34.3045 1079.42 34.3021 1080.59 34.7549C1082.13 34.445 1081.69 33.4749 1084.76 33.6689C1084.65 33.5473 1084.75 33.3635 1084.3 33.3584C1085.03 32.9138 1086.03 33.172 1087.08 33.3525C1089.09 33.097 1090.42 32.609 1090.31 31.6533C1093.96 31.4726 1094.85 30.382 1098.65 30.25C1098.78 30.7748 1100.75 30.6869 1101.45 31.0205C1103.46 30.9694 1104.54 30.6113 1106.54 30.5518C1107.15 31.6231 1109.36 31.236 1109.8 32.2461C1113.32 32.4344 1113.84 31.6263 1116.3 31.4619C1115.9 31.2866 1115.68 31.0495 1115.83 30.6914C1118.19 30.659 1115.84 29.1996 1118.13 28.8359C1119.82 28.7847 1120.7 29.0057 1121.84 29.1377C1118.62 29.8547 1121.4 31.1008 1122.32 31.7666L1123.02 31.6885L1122.79 31.918C1126.14 31.333 1126.9 32.6201 1128.83 32.9922C1131.51 32.6609 1130.93 32.1977 1132.06 31.4434C1134.83 31.5403 1135.3 30.8698 1135.77 30.2041C1138.86 29.6871 1139.41 28.3265 1141.31 27.416C1141.02 26.9167 1140.34 26.3943 1139.98 25.8936C1143.32 25.9123 1146.69 25.8316 1150.1 25.6182C1150.13 25.689 1150.15 25.7623 1150.11 25.8564C1150.52 25.773 1150.81 25.6503 1151.13 25.5352C1151.65 25.4989 1152.17 25.4509 1152.69 25.4082C1152.75 25.5044 1152.79 25.6092 1152.76 25.752L1152.91 25.9834L1153.07 26.2129C1155.84 26.0187 1159.02 24.4533 1160.7 25.8916C1161.45 25.4492 1161.31 24.901 1161.15 24.3008C1161.35 24.0778 1161.61 23.883 1161.91 23.709C1161.93 23.7154 1161.94 23.7222 1161.96 23.7285C1162.02 23.6691 1162.07 23.6037 1162.13 23.541C1162.66 23.2739 1163.28 23.0481 1163.92 22.8398C1165.12 23.1594 1166.21 23.5318 1167.69 23.7227C1167.83 24.3068 1167.06 24.4474 1166.74 24.8057C1166.67 25.0963 1167.1 25.1484 1167.06 25.4258C1168.55 25.178 1169.05 24.7872 1170.24 25.4199C1170.8 25.277 1171.23 25.0698 1171.51 24.8008C1173.09 25.4069 1174.99 24.572 1176.28 24.6367C1176.63 24.9866 1177.15 25.2487 1178.2 25.2539C1178.7 24.9278 1179.37 24.69 1180.74 24.7871C1180.78 25.5975 1181.3 26.17 1181.71 26.7949C1183.14 26.5606 1184.08 26.6793 1184.58 27.2559C1185.14 27.0643 1185.49 26.7729 1186.17 26.6357C1187.04 26.5677 1186.47 27.2093 1187.12 27.25L1187.6 27.1738L1187.44 27.4033C1188.63 27.3121 1189.25 26.9346 1190 27.4004C1189.98 27.6067 1189.44 27.5435 1189.35 27.7129C1189.75 28.1837 1190.56 27.4838 1190.95 27.8633C1191.13 28.9031 1192.91 30.3774 1190.02 31.2637C1191.03 31.4955 1191.34 32.0714 1191.94 32.4971C1192.37 32.4485 1192.54 32.277 1193.21 32.3418C1192.33 31.8572 1195.19 31.4842 1194.15 30.6387C1194.27 30.4557 1195.67 30.6083 1196.38 30.3291C1195.57 29.8386 1196.44 29.243 1195.41 29.0947C1196.88 28.5668 1198.38 28.0601 1199.21 27.2334C1198.61 26.4603 1199.45 26.0637 1200.15 25.5332C1199.18 23.901 1200.1 23.3018 1200.13 21.5166L1199.65 21.3389L1199.8 21.0537C1199.09 20.9321 1198.53 20.7428 1198.52 20.2803C1198.87 20.2505 1199.02 20.1132 1199.15 19.9736L1199 19.7412L1199.15 19.5098C1198.71 19.4076 1198.55 19.1779 1198.51 18.8896C1198.13 19.0675 1197.94 19.3347 1196.92 19.2002V18.585C1198.46 18.607 1198.87 18.095 1199.77 17.8096C1202.38 18.3671 1203.51 16.9662 1205.82 16.875C1205.85 16.8221 1205.83 16.7457 1205.83 16.6748C1206.03 16.6716 1206.19 16.6758 1206.41 16.668C1206.79 16.9538 1207.55 17.1755 1208.03 17.3359C1208.51 17.204 1208.72 16.9445 1208.66 16.5625C1209.85 16.3957 1209.7 16.8829 1210.26 17.0234C1211 16.8584 1211.14 16.3986 1211.18 15.8955C1211.8 15.9007 1212.39 15.9212 1212.21 16.1953C1212.53 16.185 1212.69 16.1212 1212.83 16.0508C1213.15 16.195 1213.47 16.2962 1214.36 16.0918C1214.37 16.0995 1214.39 16.1087 1214.4 16.1162C1214.45 16.2918 1214.53 16.451 1215.03 16.3975C1215.06 16.5888 1215 16.7935 1214.91 16.9971C1214.7 17.0947 1214.54 17.1991 1214.54 17.2754C1214.61 17.2955 1214.7 17.3058 1214.77 17.3252C1214.62 17.624 1214.48 17.9027 1214.43 18.1445C1213.81 18.0042 1213.16 17.8861 1212.69 18.2041C1213.27 18.2662 1213.64 18.4008 1213.62 18.667C1212.18 18.6534 1211.04 18.7401 1210.38 18.9795C1211.75 19.3225 1210.37 19.942 1210.28 20.4092C1210.08 20.371 1209.89 20.3422 1209.66 20.2705C1209.81 19.4812 1208.5 18.9686 1209.64 18.5674L1209.16 18.4893L1209 18.2607C1208.25 18.1669 1207.51 18.0522 1207.41 17.6465C1206.76 18.3088 1205.74 18.7866 1205.19 19.5C1204.55 19.5 1203.92 19.5003 1203.29 19.5029C1203.25 19.314 1203.19 19.1359 1202.65 19.1953C1202.72 18.9751 1203.17 18.9369 1203.28 18.7324C1202.51 18.4037 1201.92 19.1015 1200.42 18.8887C1199.76 18.9321 1200.35 19.5732 1199.48 19.5088L1199.63 19.7402L1199.48 19.9697C1200.29 20.3606 1198.91 20.8561 1200.13 21.0527L1200.28 21.2871L1200.44 21.5156C1201.23 21.4347 1201.57 21.1381 1202.03 20.8955C1201.64 20.5967 1200.8 20.1179 1201.38 19.8164C1203.36 19.5148 1202.15 20.7864 1202.98 21.0479L1203.3 21.1279L1203.62 21.2061C1204.55 20.8052 1205.82 21.5674 1205.53 22.2842C1205.22 22.2842 1204.9 22.2868 1204.58 22.2842C1204.26 23.1618 1204.96 23.5428 1205.88 23.8281C1205.83 24.4249 1204.31 24.3071 1204.28 24.9102C1204.34 25.1391 1205.05 25.0545 1205.56 25.0674C1205.58 26.195 1204.4 26.3012 1204.94 27.3809C1202.94 27.8125 1200.27 29.0731 1201.78 29.8574L1202.26 29.9355L1202.73 30.0137C1202.73 29.8556 1202.99 29.8272 1203.05 29.7012C1203.72 29.793 1205.14 29.5124 1205.27 29.8545C1205.9 29.787 1204.76 29.4155 1206.23 29.5449C1206.3 29.2541 1205.87 29.2026 1205.91 28.9258C1206.53 29.2783 1207.05 29.6717 1208.14 29.3867C1208.6 29.6268 1208.57 30.108 1209.1 30.3125L1209.26 30.0781C1209.32 30.2851 1209.58 30.595 1210.22 30.8535C1210.31 30.8354 1210.39 30.8189 1210.49 30.8027C1210.64 30.4555 1211.16 30.1805 1210.99 29.7979C1210.89 29.7118 1210.62 29.5855 1210.22 29.4619L1210.68 29.3838C1211.72 28.9794 1213.29 30.2179 1214.51 29.3779C1215.4 29.4531 1214.97 30.183 1216.42 29.9922C1217.02 29.7877 1216.04 29.3081 1216.72 28.9121C1216.58 28.465 1216.05 28.2059 1215.13 28.1387C1215.29 27.9582 1215.46 27.791 1215.76 27.6758C1215.63 27.4145 1215.35 27.7099 1214.81 27.6777C1214.67 27.3066 1215.38 27.3408 1215.12 26.9053C1215.06 26.6196 1214.04 26.8099 1213.85 26.5977C1213.94 25.6228 1210.29 24.6308 1211.59 23.0498C1212.82 23.2788 1214.43 23.6966 1215.4 23.1953C1215.53 24.5626 1218.89 23.0537 1220.18 23.6562C1221.18 23.5489 1220.6 23.241 1220.5 22.8828C1222.02 23.2193 1222.79 23.9311 1223.37 24.7334C1224.53 24.8705 1225.35 24.0546 1226.23 24.5742C1226.62 24.6196 1227.33 24.1226 1226.54 24.1064C1227.92 23.9396 1230 24.1601 1231.32 23.6406C1230.52 23.1476 1229.56 22.7395 1230.03 21.6328C1229.58 21.3366 1228.51 21.3385 1228.43 20.8623L1227.95 20.9385C1228.11 20.6824 1228.14 20.4224 1227.95 20.167L1228.43 20.2451C1229.23 18.968 1229.11 18.0432 1228.86 16.8135C1229.3 16.9008 1229.76 16.9355 1230.16 16.8818C1230.41 17.2575 1230.31 17.6238 1229.36 17.6162C1229.79 18.0194 1231.01 18.0533 1231.9 18.2305C1232 19.2082 1232.48 19.8337 1231.29 20.3965C1231.35 20.8294 1231.84 21.0482 1232.89 21.0107C1232.46 21.498 1233.65 21.955 1233.85 21.6279C1233.72 22.5033 1235.89 23.59 1234.83 24.8721C1233.64 24.7103 1233.79 25.1949 1233.25 25.3379C1233.92 25.5728 1234.42 25.8929 1235.15 26.1084L1235.63 26.0273C1235.76 26.2748 1235.88 26.3972 1236.05 26.6475L1235.48 26.5713C1235.48 26.8783 1235.48 27.1882 1235.49 27.4951C1235.97 27.8801 1236.58 28.2012 1237.72 28.2686C1236.48 28.9983 1237.66 29.5217 1239.01 29.8096C1238.84 30.0839 1238.85 30.4537 1238.38 30.583C1238.88 30.9575 1239.51 31.2643 1240.3 31.5068C1241.54 31.4958 1241.22 30.72 1242.51 30.7334C1242.7 31.056 1243.18 31.2323 1243.47 31.502C1243.72 32.0856 1243.09 32.2457 1243.17 32.7412C1243.64 33.4139 1246.47 33.2978 1246.99 32.7354C1246.21 32.5439 1245.5 32.3231 1245.07 31.9648C1245.6 31.8678 1245.57 31.4988 1246.01 31.3447C1245.26 30.7846 1244.68 30.1381 1244.09 29.4971C1241.97 29.5481 1240.99 29.0421 1239.32 28.8828V28.2627C1240.8 28.2363 1243.35 28.9526 1245.68 29.0283L1245.51 28.748L1248.28 29.4834C1250.52 30.2269 1252.53 31.1396 1255.24 31.3311L1254.6 31.334C1254.78 31.8454 1256.58 32.11 1255.57 32.7236C1256.35 33.9567 1259.8 32.3179 1260.67 33.1797C1261.6 33.0717 1261.16 32.2896 1262.25 32.252C1263.18 32.2605 1263.44 32.6006 1263.84 32.8672C1263.9 33.2515 1263.34 33.3471 1263.21 33.6406C1263.36 33.9336 1263.91 34.0257 1263.86 34.4131C1267.16 34.5184 1266.38 32.6538 1268.92 32.3955C1269.66 32.7345 1269.45 32.9106 1268.94 33.3252C1268.84 33.6385 1269.85 33.2902 1269.89 33.166C1271.38 33.5433 1271.01 34.3919 1270.54 35.0195C1271.71 35.0195 1272.87 35.0163 1274.04 35.0137C1274.62 34.6476 1274.86 34.1198 1274.35 33.627C1274.65 33.2471 1274.75 34.2409 1275.63 34.0879C1276.37 33.56 1276.26 32.7641 1276.24 31.9238C1277.89 31.8455 1277.77 30.9166 1279.1 30.6797C1282.2 30.7877 1279.94 34.0142 1283.25 33.1523C1282.99 33.9308 1283.1 33.929 1283.9 34.3838C1284.95 34.0738 1284.64 33.1012 1286.75 33.2979C1286.68 33.1795 1286.75 32.9937 1286.44 32.9883C1286.94 32.5439 1287.62 32.8026 1288.34 32.9883C1289.72 32.7301 1290.63 32.2472 1290.55 31.2881C1291.47 31.2214 1292.11 31.0234 1292.71 30.8047C1295.78 30.9348 1298.9 30.9218 1302.1 30.6836C1302.71 31.1389 1303.68 31.0917 1303.93 31.8857C1306.34 32.074 1306.68 31.2689 1308.37 31.1123C1308.11 30.9293 1307.95 30.695 1308.05 30.3369C1308.73 30.322 1308.81 30.0354 1308.82 29.7031C1309.86 29.4638 1310.9 29.2193 1311.93 28.9424C1310.33 29.6697 1311.91 30.789 1312.51 31.4121L1312.99 31.3311L1312.83 31.5625C1315.14 30.9815 1315.64 32.2663 1316.98 32.6436C1318.81 32.3123 1318.4 31.8454 1319.18 31.0938C1321.08 31.1882 1321.4 30.5221 1321.72 29.8545C1323.84 29.3368 1324.22 27.983 1325.52 27.0693C1325.39 26.7492 1325.15 26.42 1324.92 26.0928C1327.07 25.7453 1329.24 25.3955 1331.36 25.0176C1331.51 25.1436 1331.62 25.2848 1331.55 25.5146C1332.4 25.2617 1332.77 24.7707 1333.77 24.585C1335.09 24.5416 1335.01 24.7839 1336 24.582C1336.13 24.3699 1336.38 24.0945 1336.72 23.9004C1336.97 23.8364 1337.19 23.745 1337.45 23.6777C1337.68 23.6656 1337.94 23.6971 1338.22 23.8057C1338.66 23.7106 1338.41 23.6038 1338.05 23.4932C1339.18 23.1775 1340.34 22.882 1341.34 22.4854C1345.21 20.9635 1346.89 18.9645 1349.71 17.2764C1349.97 17.7765 1351.91 17.784 1351.2 18.2295C1351.93 18.1138 1352.83 18.0867 1353.43 17.9141C1353.43 17.3482 1351.94 17.5064 1352.47 16.6826C1352.89 16.8358 1353.64 16.8314 1354.06 16.9873C1354.07 17.2456 1354.07 17.5014 1354.07 17.7598C1354.88 17.491 1355.31 17.9935 1355.34 17.4473C1355.71 17.4745 1355.69 17.696 1355.66 17.9141C1355.98 17.5563 1356.85 17.5459 1357.26 17.9121L1357.74 17.834L1357.9 18.0654C1358.27 18.0407 1358.24 17.8204 1358.21 17.5996C1359.14 17.5594 1359.19 17.9474 1360.11 17.9092C1360.51 17.5864 1360.73 17.2711 1361.38 17.7529L1362.02 17.791L1361.7 18.0605C1361.77 18.4422 1362.8 18.1064 1362.98 18.0576C1362.11 17.5901 1362.48 17.2614 1362.8 16.9277C1363.02 16.9769 1363.2 17.0406 1363.46 17.0801C1362.4 18.4558 1368.18 18.2428 1366.25 17.2305C1367.3 17.1166 1369.24 16.66 1370.99 16.2705C1371.49 16.2161 1371.96 16.1375 1372.35 16.0166C1372.75 16.0678 1372.77 16.2511 1372.73 16.4521C1373.86 16.5109 1373.74 16.1662 1375.06 16.293L1374.82 16.0078L1375.51 15.8271C1376.43 14.9706 1374.72 13.7343 1375.49 12.7373C1375.3 12.5464 1374.89 12.4216 1374.1 12.4326C1374.87 11.8232 1376.21 11.4041 1376.9 10.7637C1377.49 10.7443 1377.95 10.6593 1378.51 10.623C1378.99 11.1107 1379.57 11.555 1380.43 11.8564C1381.33 11.8532 1379.66 11.4311 1381.06 11.5469C1381.05 11.584 1381.06 11.6055 1381.06 11.6416C1381.05 11.6439 1381.05 11.6434 1381.05 11.6455C1381.05 11.6461 1381.05 11.6475 1381.06 11.6475C1380.8 12.6866 1381.7 12.9385 1381.72 13.8604L1382.03 13.7842C1381.94 13.8814 1381.89 14.0702 1381.93 14.2266C1382.04 14.2886 1382.29 14.3399 1382.51 14.4014L1382.04 14.4795C1382.17 14.7733 1382.96 14.7573 1382.68 15.25C1380.72 15.4092 1380.51 15.4691 1379.82 15.7168C1380.2 15.9453 1380.1 16.4059 1381.1 16.333C1381.07 16.5773 1380.29 16.4575 1380.47 16.7969C1380.52 16.8223 1380.57 16.8438 1380.62 16.8643C1380.41 16.7959 1380.15 16.7399 1379.7 16.751C1382.01 16.2444 1377.89 15.5305 1376.91 16.1309L1377.14 16.4189L1376.45 16.5967C1379.41 17.6287 1377.73 18.7636 1380.19 19.5283C1381.79 19.6492 1381.97 19.2987 1383.43 19.3691L1384.12 19.2129C1383.83 19.5799 1383.5 19.766 1383.48 19.8984C1383.69 19.9785 1384.19 20.025 1384.59 20.0625L1384.12 19.2119H1384.12L1384.83 19.0586C1384.84 18.8943 1384.6 18.6692 1384.36 18.9082C1384.47 18.4871 1382.99 17.7677 1382.5 17.0742L1382.53 17.0254L1383.02 17.1006C1382.65 16.6188 1383.51 16.7282 1383.65 16.4863C1383.8 15.9986 1382.66 16.1354 1383 15.5596L1382.52 15.4834C1382.76 15.4213 1383.01 15.3083 1383.27 15.1738L1383.64 15.4053C1385.23 15.4539 1385.34 14.7887 1386.81 14.7803L1386.66 14.627C1387.02 14.6612 1387.33 14.6093 1387.63 14.54C1388.39 16.1147 1388.43 17.5428 1387.14 18.7461C1388.17 18.8678 1388.95 19.0695 1390.39 19.0508C1390.76 17.1088 1390.81 15.5517 1390.24 13.9531C1390.35 13.9777 1390.45 14.0107 1390.63 14.0049L1390.99 13.7734L1391.53 14.2344L1390.95 14.1582C1390.97 14.4277 1390.87 14.6387 1390.64 14.7783C1391.8 15.1342 1392.08 15.9288 1394.46 15.6973C1394.43 15.9667 1394.53 16.1832 1394.79 16.3203C1396.64 16.3423 1396.52 15.4097 1397 14.7686C1397.77 15.1135 1397.72 15.8655 1398.29 16.3125C1398.25 16.5989 1397.23 16.4207 1397.33 16.7754C1397.85 16.9843 1398.37 17.1981 1398.96 17.3721C1398.87 17.4115 1398.82 17.4621 1398.73 17.4971C1401.19 17.7371 1405.25 18.4713 1404.76 16.8721C1403.33 16.5092 1402.43 16.6776 1400.8 16.6025C1401.79 16.1414 1402.94 15.755 1402.73 15.2266L1402.25 15.3027C1402.63 15.0492 1402.71 14.8715 1402.88 14.6826L1403.04 14.917C1403.33 14.8148 1403.62 14.7764 1403.92 14.7725C1404.04 15.0505 1404.16 15.3325 1404.27 15.6357C1407.71 15.9329 1406.98 17.6221 1408.94 18.4141C1407.69 19.5029 1410.96 20.1441 1410.82 21.3447C1411.65 21.7516 1414.74 22.0044 1416.38 21.6436C1415.85 20.795 1414.6 20.1743 1414.51 19.1758C1415.82 19.049 1415.72 19.3915 1416.83 19.3242C1417.03 18.1772 1413.06 18.4209 1413.11 17.3223C1413.84 17.3386 1413.48 17.7211 1414.5 17.6299C1416.34 16.4445 1410.08 14.3911 1413.07 13.7686C1410.02 13.2943 1412.73 10.8892 1407.48 11.1504C1407.44 10.594 1406.78 10.238 1406.12 9.88477C1405.98 9.65582 1405.93 9.41473 1405.53 9.04297C1405.83 9.13492 1406.71 9.40074 1406.49 8.88477C1406.72 9.25605 1407.63 9.70358 1407.14 9.96484C1408.66 9.95184 1408.76 10.2239 1409.57 10.2588C1409.66 10.3143 1409.85 10.3617 1410.26 10.374C1410.46 10.0099 1410.17 9.93805 1409.88 9.97754L1410 9.80859C1410.46 9.74061 1410.88 9.73065 1411.3 9.70996C1413.17 9.81606 1415.02 9.90044 1417.04 9.85254C1417.14 10.0754 1417.67 10.2551 1417.79 10.4922L1417.32 10.4141C1417.2 10.7854 1417.9 10.7491 1417.64 11.1875L1418.22 11.1094L1418.59 11.3408C1418.9 11.3686 1418.97 11.5337 1418.95 11.7129C1418.84 11.8246 1418.7 11.9292 1418.63 12.0596C1418.66 12.1003 1418.67 12.1515 1418.69 12.1934C1418.66 12.2166 1418.63 12.2564 1418.61 12.2676C1418.57 12.3927 1418.67 12.4498 1418.82 12.4854C1419.42 14.173 1417.73 16.7324 1423.78 17.1543C1423.84 16.9253 1424.18 16.6635 1425.16 16.3809L1424.93 16.1494C1424.93 16.1494 1424.98 16.0785 1424.71 15.6338C1424.92 15.6169 1425.13 15.5988 1425.32 15.5898C1425.26 15.7015 1425.25 15.7817 1425.16 15.918L1425.86 16.0957L1425.62 16.3809C1426.32 16.6234 1427.7 16.5473 1427.48 16.0684C1428.56 16.0658 1429.64 16.0661 1430.73 16.0635C1431.8 15.7019 1431.41 14.9103 1431.52 14.46C1431.77 14.3702 1431.93 14.2548 1432 14.1084L1432.1 14.207C1432.46 14.1735 1432.61 14.0769 1432.55 13.9092C1432.66 13.9144 1432.76 13.9206 1432.86 13.9141C1433.27 13.9212 1433.65 13.9371 1433.97 13.9727C1434.08 14.0295 1434.18 14.0952 1434.21 14.2559C1434.42 14.243 1434.47 14.1539 1434.5 14.0527C1435.31 14.186 1435.95 14.3748 1436.74 14.5127C1438.51 14.5825 1437.69 13.7932 1439.98 14.041C1440.5 13.6724 1441.5 13.4581 1441.38 12.877C1441.54 13.1656 1443.24 13.6421 1443.7 14.1943C1444.2 14.7898 1442.64 15.8001 1445.11 16.0479C1442.95 16.414 1445.77 16.931 1444.65 17.4375C1447.09 17.3541 1447.67 17.4728 1449.29 17.4326C1449.23 17.8142 1449.22 18.1756 1450.23 18.2002L1450.45 17.9688L1450.46 18.5859C1450.44 18.3339 1450.68 18.1594 1450.45 17.9688L1451.16 18.0439C1451.3 17.6863 1451.72 17.4083 1452.08 17.1172C1452.72 17.1114 1453.09 17.1897 1453.46 17.2705C1451.9 16.6749 1455.64 16.8412 1455.78 16.3379C1456.51 16.3516 1458.94 16.914 1458.1 16.4912C1458.4 16.3999 1461.45 16.7021 1461.36 17.2598C1462.82 17.0877 1462.41 17.2429 1464.14 17.2539C1463.53 16.7773 1464.5 16.651 1463.21 16.3301C1464 16.3489 1466.1 15.8316 1463.67 15.5566C1464.18 15.3651 1464.98 15.2756 1464.58 14.7861C1468.01 14.8857 1464.52 14.4118 1465.97 13.8516C1468.8 13.8406 1469.45 14.0585 1470.61 14.3115C1470.53 14.4888 1469.88 14.4784 1469.22 14.4707C1469.7 14.9235 1470.41 15.3065 1472.02 15.3926C1471.27 16.0011 1473.36 15.9639 1474.34 16.4678C1476.38 17.5179 1476.34 18.6554 1480.39 18.3164C1479.43 18.6152 1477.7 18.6586 1477.14 19.0947C1478.7 19.3535 1480.74 20.2607 1481.79 20.1689C1482.99 20.2038 1481.16 20.4364 1481.79 20.7871C1482.76 20.1297 1484.26 20.7892 1485.51 20.9375C1488.24 20.9239 1485.91 20.064 1488.29 20.4678C1487.36 19.8539 1485.58 19.5191 1485.03 18.7734C1487.72 19.2741 1488.99 18.4642 1490.13 17.9951C1490.22 17.699 1489.6 17.6549 1489.66 17.3779C1489.12 17.5079 1488.41 17.5854 1487.35 17.5342C1487.74 17.3078 1488.03 17.0413 1489.2 17.0684C1487.91 16.9306 1487.59 16.4703 1486.87 16.1475C1486.01 15.9534 1485.46 16.1504 1485.2 16.0781C1485.35 16.0477 1485.46 15.9994 1485.76 16.042L1485.68 15.8994C1488.5 16.2954 1489.17 15.1408 1491.49 14.7461C1490.93 14.6839 1489.6 14.6136 1489.17 14.1318C1490.25 14.1583 1491.81 14.3182 1493.35 14.2832C1494.48 14.2561 1494.29 13.9051 1495.2 13.8164C1496.24 13.7118 1497.34 14.3984 1497.98 13.8115C1496.71 13.3424 1493.22 13.1963 1494.72 12.2725C1495.4 12.4051 1496.18 12.5001 1496.12 12.8877C1497.79 12.6051 1495.29 12.4643 1495.65 12.1172C1496.37 12.1282 1497.25 12.0936 1497.04 12.4248C1498.73 12.3142 1496.94 11.8039 1497.5 11.1875L1497.21 11.2188C1497.58 11.1598 1497.84 11.0675 1498.09 10.9727L1499.58 10.6436L1499.35 10.875C1500.25 10.9177 1500.27 10.665 1500.74 10.5654L1500.5 10.334L1500.65 10.1729C1500.72 10.1665 1500.77 10.1581 1500.83 10.1523C1500.86 10.1875 1500.88 10.2593 1501.31 10.3037C1502.13 10.3896 1501.93 10.178 1502.07 10.0098C1502.26 9.98979 1502.45 9.96404 1502.64 9.94336C1502.65 10.1177 1502.72 10.2627 1502.88 10.3662C1502.79 10.3235 1502.74 10.2668 1502.59 10.2539L1501.83 10.377L1501.2 10.5664C1500.67 11.048 1501.93 10.941 1502.13 11.1777C1502.9 11.2327 1503.3 10.7587 1503.08 10.4668C1503.35 10.5624 1503.68 10.6265 1504.17 10.6084C1504.23 10.9931 1504.24 11.3576 1503.54 11.3848C1505.05 12.8656 1505.45 13.9463 1505.81 15.3955C1508.15 15.6979 1507.67 17.3844 1509.01 18.1738C1508.15 19.2638 1510.4 19.9037 1510.31 21.1045C1510.87 21.5163 1512.99 21.7722 1514.14 21.4141C1513.74 20.5604 1512.91 19.9398 1512.84 18.9414C1513.74 18.8146 1513.66 19.1589 1514.43 19.0918C1514.55 17.9443 1511.84 18.1852 1511.87 17.0898C1512.37 17.1009 1512.12 17.4834 1512.82 17.3975C1514.08 16.212 1509.78 14.1558 1511.84 13.5332C1509.74 13.0614 1511.59 10.6507 1508 10.9121C1507.96 10.2568 1507.37 9.87227 1506.84 9.45508C1507.63 9.35349 1508.39 9.23429 1509.17 9.125C1509.22 9.19465 1509.27 9.26741 1509.26 9.36816C1511.84 9.54286 1514.08 9.90739 1517.2 9.35742C1517.1 10.623 1515.95 10.9737 1515.64 11.8301C1516.45 13.4712 1514.68 16.4637 1519.18 16.9219C1519.23 16.6929 1519.46 16.4346 1520.14 16.1494L1519.97 15.917C1519.97 15.9099 1520.1 15.6473 1518.51 12.9053C1519.74 12.8115 1519.82 12.7787 1520.73 13.0615C1520.11 14.3403 1520.73 14.3958 1520.12 15.6885L1520.61 15.8662L1520.45 16.1494C1520.92 16.3941 1521.87 16.3205 1521.72 15.8369C1522.46 15.8343 1523.2 15.834 1523.95 15.834C1524.83 15.3947 1524.22 14.295 1524.56 13.9795L1524.72 13.7539L1524.88 13.9795C1525.14 13.9472 1525.26 13.85 1525.2 13.6699C1526.6 13.6616 1527.16 14.0555 1528.06 14.2871C1529.28 14.3567 1528.71 13.5706 1530.29 13.8184C1530.64 13.4491 1531.33 13.2357 1531.25 12.6514C1531.35 12.9451 1532.52 13.4169 1532.84 13.9717C1533.18 14.5645 1532.12 15.5767 1533.81 15.8193C1532.33 16.1939 1534.26 16.7083 1533.5 17.2148C1535.16 17.134 1535.57 17.2532 1536.68 17.21C1536.63 17.5953 1536.63 17.9592 1537.33 17.9805L1537.49 17.749L1537.96 17.8271C1538.06 17.4664 1538.34 17.1881 1538.59 16.8945C1539.02 16.8919 1539.29 16.9699 1539.55 17.0508C1538.46 16.456 1541.03 16.6269 1541.13 16.1221C1541.64 16.1357 1543.29 16.7004 1542.71 16.2725C1542.92 16.1839 1545.02 16.4912 1544.95 17.043C1545.95 16.8735 1545.67 17.0294 1546.86 17.043C1546.44 16.5635 1547.1 16.4426 1546.22 16.1191C1546.76 16.1352 1548.2 15.6214 1546.53 15.3438C1546.88 15.1581 1547.43 15.0602 1547.17 14.5703C1549.51 14.6731 1547.12 14.1986 1548.1 13.6436C1550.05 13.6275 1550.49 13.8486 1551.28 14.1016C1551.24 14.2814 1550.79 14.2681 1550.34 14.2578C1550.68 14.7157 1551.16 15.0962 1552.26 15.1797C1551.75 15.7906 1553.18 15.7533 1553.86 16.2598C1555.25 17.3131 1555.23 18.4473 1558.01 18.1084C1557.35 18.4071 1556.16 18.4506 1555.78 18.8838C1556.85 19.1452 1558.25 20.0528 1558.97 19.9619C1559.79 19.9962 1558.54 20.2284 1558.98 20.5811C1559.64 19.9244 1560.67 20.5869 1561.54 20.7324C1563.4 20.7214 1561.79 19.8598 1563.43 20.2666C1562.78 19.647 1561.56 19.3147 1561.19 18.5693C1563.03 19.0698 1563.9 18.2592 1564.69 17.79C1564.76 17.4998 1564.32 17.4498 1564.36 17.1729C1563.99 17.3054 1563.51 17.3806 1562.77 17.332C1563.04 17.1031 1563.25 16.8397 1564.04 16.8643C1563.16 16.7238 1562.93 16.2686 1562.44 15.9424C1561.63 15.6753 1561.21 16.1782 1561.16 15.6328C1563.58 16.387 1563.89 14.9699 1565.6 14.5439C1565.23 14.4819 1564.32 14.4118 1564.01 13.9297C1564.76 13.9542 1565.82 14.1163 1566.87 14.084C1567.66 14.0542 1567.52 13.7065 1568.14 13.6152C1568.87 13.5156 1569.62 14.2009 1570.05 13.6152C1569.19 13.141 1566.79 12.9976 1567.81 12.0713C1568.28 12.2058 1568.83 12.3029 1568.78 12.6875C1569.92 12.4049 1568.21 12.2615 1568.46 11.917C1568.95 11.928 1569.56 11.8959 1569.4 12.2246C1570.56 12.1172 1569.33 11.6075 1569.72 10.9854L1569.5 11.0205C1569.76 10.9632 1569.95 10.8723 1570.13 10.7754L1571.15 10.4492L1570.99 10.6758C1571.61 10.7216 1571.61 10.465 1571.94 10.3652L1571.78 10.1338L1571.94 9.90234C1571.96 9.80785 1571.98 9.71869 1572.25 9.75098C1572.12 9.48154 1571.85 9.78015 1571.29 9.75098L1571.14 9.98047C1570.88 9.63567 1570.16 9.61141 1569.55 9.51953L1570.02 9.44238C1569.58 9.19467 1568.44 9.28008 1568.1 8.98145C1567.96 8.53966 1568.64 8.3969 1568.24 8.13574C1568.63 8.25446 1569.62 8.08189 1569.7 8.35938C1569.79 8.31084 1569.86 8.24676 1569.95 8.19434C1570.81 8.44929 1571.68 8.70257 1572.63 8.92773C1573.51 8.96203 1573.66 8.74943 1574.48 8.76562C1572.92 8.48542 1575.09 7.88213 1574.94 8.30273C1575.05 7.99615 1574.34 8.16726 1574.01 7.37891C1575.6 7.4708 1577 7.52719 1578.23 7.66699C1578.52 7.87762 1579.14 8.01424 1579.73 7.9541C1580.62 8.17859 1581.4 8.48802 1581.92 9.0625C1581.45 9.0651 1580.99 9.06445 1580.52 9.06445C1580.53 9.37353 1580.53 9.68957 1580.53 9.99414C1583.07 10.2173 1583.05 9.59463 1584.24 9.37402C1586.23 9.68391 1588.07 10.0497 1590.74 10.1357C1591.48 9.90949 1591.46 9.42788 1591.68 9.02246C1591.78 9.04705 1591.86 9.0837 1591.97 9.10449C1592.68 9.23577 1593.41 9.20677 1594.04 9.21387C1593.81 9.40072 1593.61 9.59434 1593.52 9.82324C1593.81 10.6492 1596.06 10.5177 1598.62 10.585C1599.06 10.5986 1599.53 10.6426 1600 10.6963V14.167L1593.09 19.9434C1595.48 19.8864 1597.82 19.6831 1600 19.2832V45.8828H493.791C495.567 45.5115 493.934 44.9528 493.791 44.3525C492.02 44.7265 493.649 45.2797 493.791 45.8828H0V28.1172C0.241201 28.1055 0.484995 28.0885 0.725586 28.0801L0 28.0859V20.0127C0.762528 20.494 1.74225 20.9913 2.23438 21.4727C2.93677 22.1762 2.552 23.5104 3.22754 24.0137C3.19385 23.9943 8.24158 24.9536 9.21484 26.0479C10.843 27.9112 10.7493 27.4484 14.1953 29.0996C17.9461 30.9074 18.602 32.5725 25.1572 32.6611C26.86 33.316 29.0771 33.7126 29.1445 35.2021C34.5032 34.8734 42.3019 37.4722 45.1006 35.2021L45.5947 34.6953L46.1016 34.1836C43.8848 33.62 43.3911 32.1733 41.1143 31.6426C43.3308 30.2742 49.9872 30.2929 51.082 32.1484C53.3459 31.7797 54.063 30.619 55.0762 29.6084C55.5359 28.5232 53.6499 28.6361 52.082 28.5928C52.8121 27.4371 55.0765 27.0707 57.0703 26.5537L56.5703 25.624C58.1718 25.9637 58.9496 26.1498 60.5576 26.4727L59.0645 27.0664C58.5373 27.4752 58.0162 27.893 58.0635 28.5928C60.1247 28.8949 64.6184 27.9655 65.0449 29.0996C63.4426 30.5236 60.5571 28.3834 57.0703 29.0996V31.6426C61.5034 31.2919 62.5719 33.4154 66.0391 33.6768C74.2835 34.3043 82.6708 30.67 91.9697 31.6426C91.8816 30.8371 92.4421 29.703 90.9766 29.6084C93.4839 27.7391 95.6266 28.4931 100.938 28.5928C101.776 28.0003 102.255 27.2272 101.938 26.0479L100.107 26.3037L100.099 26.2979C101.212 25.5271 100.118 24.8355 99.6182 24.0957L100.097 26.2969L98.9443 25.541C95.2478 25.18 94.6664 26.4088 90.9766 26.0479L89.8066 26.8105L88.8271 26.123C87.9149 25.1563 87.7655 23.8655 85.4883 23.7607L85.9883 22.998C84.8257 22.5723 83.3051 22.3275 81.001 22.4893L79.8252 23.251C79.5885 22.319 78.9871 21.8132 78.3047 21.3203L80.001 20.9609C79.1291 20.2174 79.2033 18.9921 76.0205 19.4365C77.3925 19.1266 76.1626 17.476 78.0068 17.4053L77.5205 16.8955L77.5244 16.8906L77.5293 16.8848L78.0068 16.3838C73.9254 15.4354 69.9648 16.8657 66.0391 15.3682C64.5116 12.896 68.9296 13.4549 69.0391 11.8037L67.5322 12.0596C69.2144 11.599 70.4981 11.0308 71.5186 10.5352L72.0254 11.2979H74.0195C73.6552 12.165 74.797 12.2601 76.0195 12.3164L77.1748 11.5508C77.7761 12.6796 79.615 13.3697 81.1152 14.1914L82.4932 15.1152L80 14.8623V15.3691L80.5 15.876L80 16.3848C87.4676 17.1307 91.2519 14.4802 96.9424 15.876C97.3747 14.8151 96.2602 14.5314 95.9492 13.8447L94.4561 13.5889C96.4833 13.3197 98.5236 13.0387 100.437 12.5703L99.9434 13.332C104.222 13.4828 106.532 12.6291 108.911 11.8047C108.601 11.1182 106.425 11.3875 104.924 11.2988C105.803 10.4019 108.263 9.72437 104.924 9.26367C109.946 6.93347 112.527 3.94892 124.327 4.16699L123.374 5.95898C124.59 5.68141 125.949 5.53023 126.577 5.17188C126.205 4.67376 125.597 3.7552 124.874 3.16504V2.14648C122.495 1.48653 125.719 0.368137 125.867 1.63379C124.875 2.14618 126.367 2.39941 126.367 2.39941L127.867 2.65234C132.551 1.65022 131.802 3.98876 134.835 2.14648L134.342 1.38086H134.346C135.478 1.87638 136.526 2.18867 136.836 2.48926C137.005 2.45951 137.16 2.42721 137.329 2.39551L134.351 1.38184L135.835 1.63379V1.12695ZM466.873 40.2871C465.23 40.2011 465.23 43.4204 466.873 43.3369C471.285 43.4068 467.766 40.6888 466.873 40.2871ZM582.533 37.7432C581.174 37.8972 581.701 39.0184 581.533 39.7773C583.946 39.9849 583.71 38.8483 586.521 39.2715C586.258 38.2207 582.116 39.1458 582.533 37.7432ZM313.319 30.6211C312.15 31.3865 310.427 31.8687 310.319 33.1641C300.364 32.8166 292.315 35.3402 287.382 33.6729L286.226 34.4355C285.32 33.6438 284.368 33.1632 283.732 32.9961C281.935 33.6154 280.198 34.2664 278.893 35.123C280.211 36.3865 283.367 36.7282 285.895 36.3027L285.401 37.2344C297.303 36.698 310.824 36.9781 316.307 33.1641C317.367 31.2677 312.571 32.3602 313.319 30.6211ZM1025.84 34.6719C1024.8 34.4817 1022.52 34.9394 1022.13 35.4512C1023.22 35.4486 1024.3 35.4485 1025.38 35.4453C1024.24 35.0818 1026.07 35.1565 1025.84 34.6719ZM1137.66 34.6777C1137.86 35.0035 1137.34 35.0884 1137.2 35.2979C1137.81 35.2953 1138.43 35.2979 1139.05 35.2979V35.1416C1138.17 35.1279 1138.73 34.6287 1137.66 34.6777ZM936.279 33.0918C935.406 33.1591 935.13 33.4257 933.967 33.4043C935.385 34.0668 933.764 33.9886 933.981 34.9482L934.67 34.8701L935.373 34.9463H935.839L935.602 34.5586H935.604L936.765 35.2539C936.663 35.0797 936.326 34.8083 935.607 34.5586L936.758 34.6396C936.785 34.5426 936.832 34.4534 937.224 34.4863L937.453 34.251L937.724 34.9521C937.677 34.7162 937.843 34.4691 937.457 34.251L938.15 34.3271C937.347 33.8646 938.297 33.5415 937.677 33.2451L936.826 33.3232L936.279 33.0918ZM1019.81 34.9902C1019.94 34.7767 1019.53 34.3869 1019.35 34.6807C1019.22 34.8936 1019.64 35.2822 1019.81 34.9902ZM980.361 34.1123C980.228 34.522 981.024 34.6218 982.227 34.5791C982.361 34.1715 981.261 34.1772 980.361 34.1123ZM333.256 33.6729C333.545 31.6846 329.12 30.1096 327.275 32.1455C328.937 33.3657 329.951 34.5507 333.256 33.6729ZM1016.32 32.7539C1016.48 32.8839 1016.22 33.0779 1016.13 33.2207C1016.19 33.2691 1016.27 33.3228 1016.5 33.3848C1016.73 33.3874 1016.97 33.3957 1017.24 33.3711L1016.32 32.7539ZM1114.43 32.083C1114.46 32.2959 1114.21 32.4235 1113.97 32.5479C1114.44 32.5479 1114.9 32.5475 1115.37 32.5449C1115.38 32.2804 1115.01 32.1478 1114.43 32.083ZM1005.88 32.5342C1007.31 32.4721 1004.91 31.6577 1004.94 32.0732C1005.66 32.1134 1005.27 32.4118 1004.94 32.5361C1005.25 32.5361 1005.57 32.5368 1005.88 32.5342ZM1020.72 32.0508C1020.24 32.0718 1019.78 31.3862 1019.32 31.9023C1020.97 31.9425 1017.69 32.3225 1019.32 32.3633C1019.32 32.1083 1020.61 32.2738 1020.72 32.0508ZM1121.86 31.916C1121.4 31.4444 1120.63 32.0968 1120.01 32.0781C1119.8 32.3278 1122.52 32.3254 1122.32 32.0732H1121.86V31.916ZM988.655 26.3799C988.944 27.0365 987.148 27.0104 987.269 27.6162C989.269 27.5404 990.162 28.3947 989.141 28.8477C989.83 29.0307 991.221 28.9773 991.007 29.4648C990.417 29.99 988.425 30.0524 988.222 30.707C988.472 30.9308 988.918 31.0949 989.162 31.3213C992.541 31.3621 994.94 32.0752 997.515 31.9297C997.514 32.0825 997.143 32.1135 997.055 32.2402C998.088 32.1193 999.574 32.145 999.839 31.7744C998.805 31.6527 998.67 31.2352 997.981 31.001C999.764 30.4486 999.326 29.4063 999.812 28.9912C998.947 28.8161 996.94 29.1735 996.562 28.5332C999.825 28.8858 997.021 27.5578 996.082 27.1396L995.392 27.2207L995.616 26.9863C992.04 27.207 990.506 26.7384 988.655 26.3799ZM1011.42 31.1377C1011.65 31.5658 1008.89 31.0189 1009.12 31.4482C1009.88 31.8797 1012.6 31.3076 1011.42 31.1377ZM985.201 30.168C984.991 30.3593 984.701 30.5341 984.721 30.7441C985.086 30.814 985.457 30.8664 985.674 30.9414L985.201 30.168ZM929.763 30.3184C929.169 30.526 929.487 30.7884 930.229 30.9365C930.155 30.7042 930.399 30.3617 929.763 30.3184ZM1151.07 29.7178C1150.51 29.9224 1150.61 30.779 1152.01 30.7979C1151.62 30.3591 1152.65 30.3965 1152.47 30.0254C1151.8 29.9879 1151.68 29.7715 1151.07 29.7178ZM656.326 30.6211C659.083 29.0636 654.17 29.1015 651.338 29.6055C650.888 31.0206 656.772 29.2043 656.326 30.6211ZM933.007 28.9268C932.884 29.2061 932.236 29.32 931.763 29.4893L930.277 29.2168C930.601 29.3514 930.729 29.5461 931.162 29.667C931.438 29.656 931.682 29.6555 932.08 29.543L932.087 29.6992C932.391 29.6966 932.695 29.6963 933.006 29.6963C933.033 29.7898 933.081 29.8762 933.472 29.8467L933.932 29.54L934.405 29.8467C935.304 29.7988 935.318 30.055 935.791 30.1572C936.723 29.8372 935.589 29.8526 935.325 29.5381L935.319 29.3848H935.321L936.953 29.9199C936.913 29.6246 935.999 29.5059 935.324 29.3848H935.785C935.393 29.0509 933.751 29.137 933.007 28.9268ZM417.017 21.9756C413.03 22.477 411.029 22.477 407.042 21.9756C406.354 24.2385 412.474 28.0801 407.042 28.0801C408.793 29.8952 414.421 29.7393 419.004 30.1133C419.666 28.5833 422.841 28.338 422.005 26.043L422.491 25.5361L422.998 25.0264C421.234 23.6103 414.181 24.3269 417.017 21.9756ZM927.905 29.5488C927.121 29.0956 924.85 29.7105 926.053 29.8564C925.715 29.4439 928.239 29.9655 927.905 29.5488ZM330.263 27.0625C330.378 28.3629 332.094 28.8434 333.256 29.6055C335.884 29.7588 336.534 28.8991 336.244 27.5684C333.203 27.9372 332.615 27.0489 330.263 27.0625ZM1399.28 28.7725C1398.27 29.3271 1399.68 28.0189 1398.81 28.6211C1398.05 28.5512 1398.06 29.4624 1398.82 29.3926C1398.75 29.1881 1400.7 28.9206 1399.28 28.7725ZM404.056 28.5889C400.142 26.7815 396.892 22.7372 390.093 24.0088C389.485 25.2264 388.654 26.3318 389.093 28.0801C394.526 29.8666 397.256 29.19 404.056 28.5889ZM804.891 28.5889C803.458 27.0864 804.127 29.7657 806.885 29.0957C808.703 28.6997 806.283 28.5481 804.891 28.5889ZM850.867 28.1074C850.854 28.1985 850.798 28.2848 850.401 28.2578C850.469 28.4463 850.551 28.6275 851.341 28.5654C851.266 28.3852 851.422 28.1263 850.867 28.1074ZM1398.34 28.3125C1399.08 27.8842 1397.14 27.6167 1396.95 28.002C1397.67 28.0181 1397.32 28.3959 1398.34 28.3125ZM326.275 27.5684C324.836 26.612 324.045 25.3164 320.294 25.5371L320.794 26.2988L319.301 26.5498C318.371 28.62 324.701 28.3117 326.275 27.5684ZM1407.62 26.7549C1408.01 27.2421 1406.89 27.2321 1406.69 27.5283C1407.31 27.5257 1407.93 27.5254 1408.56 27.5254C1408.81 27.1592 1409.25 26.8034 1407.62 26.7549ZM1391.59 26.2314H1391.59L1390.91 26.3125C1390.71 26.6814 1391.75 26.6472 1391.38 27.083C1392.19 27.0966 1392.83 27.0483 1393.23 26.9268L1393 26.6953L1393.69 26.6172C1393.75 26.1325 1392.5 26.087 1391.37 26.0029L1391.59 26.2314ZM888.902 26.2021C887.079 25.8871 885.611 26.1055 884.732 26.6709C885.059 27.2304 887.936 26.9484 888.443 26.665L888.206 26.3828L888.902 26.2021ZM198.64 25.0273C196.788 24.0337 194.99 24.8688 192.672 25.0273C193.085 26.6243 198.456 27.1732 198.64 25.0273ZM1424.3 24.877C1422.46 24.4052 1421.72 23.4407 1418.26 23.8018C1419.04 25.6253 1423.59 26.1025 1428.01 25.9512C1428.88 25.1405 1425.79 25.2599 1424.3 24.877ZM1384.39 24.6201C1384.17 24.8031 1383.91 24.9733 1383.47 25.084L1383.71 25.3184L1383.48 25.5498C1383.83 25.9053 1387.03 26.1017 1387.65 25.8516C1387.38 25.8432 1387.11 25.8272 1387.19 25.6982C1387.19 25.4966 1388 25.5578 1388.11 25.3857C1387.19 25.0279 1386.16 24.6958 1384.39 24.6201ZM984.47 25.1455C983.497 25.4717 985.085 25.7287 985.869 25.917C985.964 25.4757 985.917 25.0731 984.47 25.1455ZM1409.44 22.5791C1410.15 23.5347 1407.76 23.4597 1407.6 24.1279C1409.92 24.4295 1411.21 25.084 1412.25 25.8223C1412.93 25.3991 1414.03 25.119 1415.49 25.3506C1414.33 24.144 1411.95 23.3329 1409.44 22.5791ZM835.073 24.7256C835.052 24.9246 834.48 24.9424 834.607 25.1904H835.533C835.56 24.9935 836.134 24.9734 835.999 24.7256H835.073ZM1389.96 24.1523C1389.43 24.7506 1391.25 25.356 1392.29 24.9229C1391.79 24.8368 1392.17 24.0585 1389.96 24.1523ZM1389.01 21.2158C1388.11 21.7596 1388.13 21.8117 1385.77 21.6816C1385.81 22.1605 1385.2 22.4226 1384.85 22.7646H1385.31V22.9238C1385.62 22.9212 1385.93 22.9209 1386.24 22.9209C1385 23.5407 1387.43 23.6707 1385.79 24.1553C1388.25 23.9884 1385.9 24.4816 1387.18 24.6162C1387.1 24.2823 1388.82 24.5458 1389.5 24.459C1390.06 23.8665 1389.21 23.7612 1390.88 23.5303C1389.71 23.3064 1388.96 22.9369 1388.56 22.4492C1389.69 22.2178 1391.31 22.131 1391.79 21.6758C1389.92 21.835 1389.73 21.4397 1389.01 21.2158ZM1395.94 18.5781C1395.91 19.184 1395.38 19.6278 1393.17 19.5068C1393.92 20.326 1396.68 21.0029 1395.05 22.1338L1395.88 22.0771L1396.44 22.2842C1397.9 22.2596 1399.24 22.2767 1399.7 22.5918C1399.22 23.0494 1396.57 22.7944 1396.45 23.3682C1398.26 24.1386 1401.82 24.3799 1404.35 23.8223C1404.07 23.1438 1403.42 22.5783 1402.93 21.9697C1403.39 21.762 1403.7 21.5029 1404.32 21.3496C1405.3 21.6167 1407.73 21.8504 1408.49 21.3447C1407.74 21.0295 1407.78 20.4452 1406.64 20.2705V20.418L1406.16 20.4209C1402.05 20.6474 1400.28 18.7937 1395.94 18.5781ZM1378.33 20.3047C1378.14 19.5123 1376.76 17.2152 1374.14 17.6816C1373.39 19.0549 1375.6 19.9771 1374.63 21.8545C1374.35 22.1177 1372.43 21.8462 1372.32 22.167C1374.14 22.5332 1375.26 23.1419 1377.43 23.3955L1377.66 23.1611L1378.36 23.0801C1377.14 22.5056 1378.61 21.3632 1378.33 20.3047ZM877.731 21.7363C876.615 21.6768 877.994 22.4424 876.345 22.1973C877.114 22.7004 877.034 22.5288 876.818 23.2832C877.359 22.7121 879.344 23.2094 880.055 22.9678C880.36 22.4039 879.056 22.379 879.13 21.8867L878.272 21.9707L877.731 21.7363ZM855.93 22.5381C856.288 21.534 851.962 21.6304 851.76 22.3848C852.348 23.0389 854.26 22.4386 855.93 22.5381ZM963.331 22.0068L962.635 21.9316C962.513 22.3351 962.805 22.5944 964.041 22.5459C965.169 22.4469 964.102 21.8252 963.568 21.7764L963.331 22.0068ZM0 13.8311C4.12003 14.8224 6.68808 16.6062 12.1943 16.8916C14.0519 18.2276 9.57217 18.603 13.1875 19.9443C16.9042 20.2672 20.3647 17.5444 22.1621 19.9443L23.6562 20.1973L23.1562 20.957L21.6689 21.2129L21.1621 20.4512C19.3775 21.1085 11.5268 21.5971 11.1865 19.9443C8.84845 20.1003 8.96285 21.5149 7.19922 21.9756C3.51666 20.9144 10.2333 19.831 7.19922 18.9258C5.84098 17.3821 1.19977 20.4136 1.22559 17.9102C0.695304 18.0026 0.329299 18.1035 0 18.207V13.8311ZM1368.11 19.8525C1367.36 20.3209 1366.13 20.631 1365.81 21.248C1366.48 21.4852 1368.19 21.3803 1369.52 21.3965C1369.24 20.8173 1369.7 19.9932 1368.11 19.8525ZM1387.15 20.1377C1387.06 20.6301 1387.92 20.8029 1389 20.9082V20.1348C1388.39 20.1348 1387.77 20.1351 1387.15 20.1377ZM861.884 17.9658C862.115 18.5215 862.323 19.0733 862.404 19.5908C862.521 19.8088 863.424 19.7666 863.796 19.8984C863.868 20.2801 863.073 20.3778 862.876 20.6738C860.822 20.8466 860.572 20.4103 859.16 20.3701L858.626 20.6016L858.253 20.5703C858.304 20.5271 858.364 20.4889 858.417 20.4463C859.49 19.5774 860.696 18.7759 861.884 17.9658ZM425.993 16.8916C419.667 15.9786 410.922 17.9369 408.036 20.4502C415.625 20.0839 423.856 20.0383 425.993 16.8916ZM1457.65 18.6533C1456.93 19.0336 1459.23 19.1055 1459.04 18.8066C1458.76 18.7963 1458.5 18.7822 1458.58 18.6504C1458.27 18.6504 1457.96 18.6533 1457.65 18.6533ZM1426.56 17.9209C1426.73 18.381 1427.37 18.683 1428.42 18.8447C1428.34 18.3601 1428.09 17.9236 1426.56 17.9209ZM1461.36 17.875C1460.13 17.8297 1459.84 18.0939 1459.97 18.4951C1461.2 18.541 1461.49 18.2814 1461.36 17.875ZM112.898 16.8916C111.454 19.3211 117.068 18.1521 119.879 18.416C119.344 16.9916 115.069 17.4711 112.898 16.8916ZM1425.63 16.6865C1425.54 17.0238 1426.01 17.1785 1427.02 17.1514C1427.1 16.8142 1426.64 16.6573 1425.63 16.6865ZM1380.75 16.9033C1381.02 16.9803 1381.35 17.0264 1381.66 17.085C1381.22 17.072 1380.99 16.9851 1380.75 16.9033ZM1467.84 16.3232C1467.82 16.4176 1467.77 16.5065 1467.37 16.4775C1467.43 16.6658 1467.52 16.8412 1468.31 16.7842C1468.24 16.6033 1468.39 16.3453 1467.84 16.3232ZM1351.18 13.7764C1351.17 14.0301 1351.53 14.1025 1351.5 14.3623C1350.65 14.7604 1350.57 16.0019 1350.04 16.7207C1348.29 15.7418 1349.12 14.747 1351.18 13.7764ZM1228.76 16.0879C1228.74 16.0874 1228.72 16.0937 1228.7 16.0938V16.0703C1228.72 16.0705 1228.74 16.0865 1228.76 16.0879ZM1465.98 15.707C1468.45 15.2079 1464.43 15.777 1465.99 15.8633C1465.99 15.8633 1465.96 15.7101 1465.98 15.707ZM1497.99 15.0459C1496.49 15.3531 1499.32 15.7762 1499.84 15.3535C1498.39 15.534 1498.71 15.1107 1497.99 15.0459ZM135.828 10.2773C136.281 8.68554 133.7 8.65073 130.841 8.75293C130.484 10.2925 134.091 9.80893 135.828 10.2773Z"/>
</svg>
